<svg xmlns="http://www.w3.org/2000/svg" xmlns:xlink="http://www.w3.org/1999/xlink" width="84.5447315429235" height="70.686802957259" viewBox="175.4552658630064 227.6566140640579 84.5447315429235 70.686802957259"><g transform="matrix(1,0,0,1,175.455322265625,227.6566162109375)"><path d="M -1198.381469726562 -112.5590896606445 C -1196.29931640625 -115.8312149047852 -1194.22900390625 -119.0844039916992 -1192.135009765625 -122.3751449584961 C -1191.213012695312 -121.7893371582031 -1190.322998046875 -121.2237243652344 -1189.374267578125 -120.6207580566406 C -1190.999389648438 -118.0639724731445 -1192.608276367188 -115.5331344604492 -1194.234130859375 -112.9751968383789 C -1193.363647460938 -112.0741424560547 -1192.49560546875 -111.1979904174805 -1191.6591796875 -110.2924423217773 C -1191.475219726562 -110.0931167602539 -1191.320068359375 -109.7976608276367 -1191.294311523438 -109.5326309204102 C -1191.115966796875 -107.6989364624023 -1190.981811523438 -105.8610458374023 -1190.817016601562 -104.0259780883789 C -1190.787719726562 -103.6998672485352 -1190.884399414062 -103.4795074462891 -1191.118530273438 -103.2542495727539 C -1193.149536132812 -101.2988662719727 -1195.162353515625 -99.32475280761719 -1197.198608398438 -97.37491607666016 C -1197.508666992188 -97.07818603515625 -1197.566650390625 -96.83523559570312 -1197.402099609375 -96.43817138671875 C -1196.797729492188 -94.97988128662109 -1196.242431640625 -93.50128936767578 -1195.636596679688 -92.04360961914062 C -1195.54638671875 -91.82640838623047 -1195.31494140625 -91.59455108642578 -1195.096069335938 -91.51512908935547 C -1192.421875 -90.544921875 -1189.740112304688 -89.59542846679688 -1187.052612304688 -88.66309356689453 C -1186.814819335938 -88.58054351806641 -1186.503784179688 -88.59362030029297 -1186.25830078125 -88.66727447509766 C -1184.680053710938 -89.14124298095703 -1183.10546875 -89.62901306152344 -1181.541625976562 -90.14817810058594 C -1181.12109375 -90.28775024414062 -1180.845825195312 -90.21629333496094 -1180.526977539062 -89.92030334472656 C -1179.494506835938 -88.96148681640625 -1178.439331054688 -88.02632904052734 -1177.37353515625 -87.10456848144531 C -1177.197021484375 -86.951904296875 -1176.92578125 -86.84058380126953 -1176.69384765625 -86.83180236816406 C -1175.407348632812 -86.78314208984375 -1174.119018554688 -86.78282928466797 -1172.83251953125 -86.73783874511719 C -1172.60986328125 -86.7301025390625 -1172.35791015625 -86.63352203369141 -1172.177734375 -86.49959564208984 C -1171.158325195312 -85.74210357666016 -1170.14990234375 -84.96942138671875 -1169.154174804688 -84.18095397949219 C -1168.919189453125 -83.99471282958984 -1168.7607421875 -83.97985076904297 -1168.52587890625 -84.16567993164062 C -1168.171752929688 -84.44566345214844 -1167.77001953125 -84.66694641113281 -1167.424682617188 -84.95623779296875 C -1167.210693359375 -85.13557434082031 -1167.001098632812 -85.36879730224609 -1166.895751953125 -85.62198638916016 C -1165.908935546875 -87.99661254882812 -1165.087158203125 -90.42596435546875 -1164.593017578125 -92.95523071289062 C -1164.517578125 -93.34130859375 -1164.345336914062 -93.59680938720703 -1164.005859375 -93.80899047851562 C -1162.310791015625 -94.86898040771484 -1160.631591796875 -95.95449066162109 -1158.946044921875 -97.02984619140625 C -1158.80224609375 -97.12160491943359 -1158.65283203125 -97.20478820800781 -1158.473266601562 -97.3114013671875 C -1157.786254882812 -96.16500091552734 -1157.130004882812 -95.04067230224609 -1156.43798828125 -93.93862152099609 C -1156.283935546875 -93.69296264648438 -1156.033569335938 -93.47145843505859 -1155.7763671875 -93.33345794677734 C -1155.167724609375 -93.00649261474609 -1154.528442382812 -92.73624420166016 -1153.870239257812 -92.42843627929688 C -1153.039794921875 -93.63457489013672 -1152.219116210938 -94.81885528564453 -1151.4130859375 -96.01296997070312 C -1151.349609375 -96.10703277587891 -1151.356201171875 -96.27768707275391 -1151.384765625 -96.39998626708984 C -1151.892578125 -98.57728576660156 -1152.403686523438 -100.7539596557617 -1152.930908203125 -102.9266586303711 C -1152.985961914062 -103.1537094116211 -1153.126220703125 -103.369026184082 -1153.26123046875 -103.5664596557617 C -1154.714721679688 -105.6907119750977 -1156.175537109375 -107.8100433349609 -1157.632934570312 -109.9314727783203 C -1157.738159179688 -110.0846557617188 -1157.834106445312 -110.2441024780273 -1157.982055664062 -110.475227355957 C -1157.0966796875 -110.5312042236328 -1156.29052734375 -110.5848770141602 -1155.484008789062 -110.6329040527344 C -1152.689575195312 -110.7994689941406 -1149.89501953125 -110.9663467407227 -1147.100341796875 -111.1284103393555 C -1146.041015625 -111.1898345947266 -1144.981567382812 -111.2496719360352 -1143.921264648438 -111.2833709716797 C -1143.708862304688 -111.290168762207 -1143.478881835938 -111.2045822143555 -1143.280395507812 -111.1116790771484 C -1140.370971679688 -109.7494277954102 -1137.46533203125 -108.3784866333008 -1134.558227539062 -107.0105895996094 C -1134.419067382812 -106.9450912475586 -1134.275512695312 -106.8885955810547 -1134.083374023438 -106.8062515258789 C -1133.697387695312 -107.8859024047852 -1133.273193359375 -108.9297714233398 -1132.949829101562 -110.0039749145508 C -1131.981323242188 -113.2218017578125 -1130.232177734375 -116.0783462524414 -1128.795654296875 -119.0791702270508 C -1128.723876953125 -119.2292022705078 -1128.4951171875 -119.3630294799805 -1128.319213867188 -119.3952560424805 C -1126.6982421875 -119.6928100585938 -1125.071655273438 -119.9605560302734 -1123.450317382812 -120.2558135986328 C -1123.287719726562 -120.2853164672852 -1123.086303710938 -120.4040756225586 -1123.007934570312 -120.5413360595703 C -1122.631103515625 -121.2035369873047 -1122.289916992188 -121.88623046875 -1121.915283203125 -122.6015625 C -1122.974609375 -123.3600158691406 -1124.020629882812 -124.1030731201172 -1125.059692382812 -124.8557586669922 C -1125.450439453125 -125.1388854980469 -1126.02197265625 -125.3783798217773 -1126.149169921875 -125.7587051391602 C -1126.265991210938 -126.1077346801758 -1125.898193359375 -126.6205215454102 -1125.739501953125 -127.0594329833984 C -1124.783447265625 -129.7005462646484 -1123.832885742188 -132.34375 -1122.859497070312 -134.9785919189453 C -1122.750610351562 -135.2735290527344 -1122.548583984375 -135.5580139160156 -1122.32421875 -135.7817077636719 C -1121.745483398438 -136.3589477539062 -1121.119750976562 -136.8887634277344 -1120.537963867188 -137.4630737304688 C -1120.421020507812 -137.578369140625 -1120.345947265625 -137.8170166015625 -1120.37060546875 -137.9808654785156 C -1120.501831054688 -138.8558654785156 -1120.65625 -139.7281494140625 -1120.835327148438 -140.5945739746094 C -1120.889526367188 -140.8560333251953 -1121.03662109375 -141.1021270751953 -1121.163696289062 -141.3433837890625 C -1121.243774414062 -141.4955139160156 -1121.390258789062 -141.6136322021484 -1121.465454101562 -141.767333984375 C -1122.515258789062 -143.9142913818359 -1124.560424804688 -144.808349609375 -1126.542358398438 -145.7621154785156 C -1126.81201171875 -145.8919677734375 -1127.21728515625 -145.7844085693359 -1127.55078125 -145.7305297851562 C -1128.9560546875 -145.5036010742188 -1130.359497070312 -145.2643127441406 -1131.759155273438 -145.0046234130859 C -1131.960571289062 -144.96728515625 -1132.178344726562 -144.8316802978516 -1132.317993164062 -144.6776580810547 C -1133.731567382812 -143.1170349121094 -1135.135009765625 -141.5469818115234 -1136.527465820312 -139.9676513671875 C -1136.6923828125 -139.7805633544922 -1136.822387695312 -139.5342712402344 -1136.888793945312 -139.2935333251953 C -1137.289916992188 -137.83984375 -1137.67431640625 -136.3813171386719 -1138.048217773438 -134.92041015625 C -1138.1279296875 -134.6089324951172 -1138.267578125 -134.4265747070312 -1138.584716796875 -134.3035278320312 C -1140.865966796875 -133.4185943603516 -1143.13525390625 -132.5027770996094 -1145.417602539062 -131.620361328125 C -1145.626953125 -131.5393676757812 -1145.931030273438 -131.5518188476562 -1146.138549804688 -131.6419067382812 C -1147.730346679688 -132.3333740234375 -1149.304443359375 -133.0662994384766 -1150.897338867188 -133.7547607421875 C -1151.137573242188 -133.8585357666016 -1151.469604492188 -133.8735046386719 -1151.723022460938 -133.8017425537109 C -1152.824096679688 -133.4900360107422 -1153.915771484375 -133.1437225341797 -1155.001342773438 -132.7810821533203 C -1155.30517578125 -132.6796112060547 -1155.607299804688 -132.5183715820312 -1155.8564453125 -132.3177947998047 C -1156.981079101562 -131.4122619628906 -1158.086303710938 -130.4827423095703 -1159.222778320312 -129.5417327880859 C -1159.7763671875 -130.0372314453125 -1160.319458007812 -130.5231323242188 -1160.890747070312 -131.034423828125 C -1161.724731445312 -129.9055023193359 -1163.068725585938 -129.6463470458984 -1164.198852539062 -129.0298767089844 C -1164.324462890625 -128.9613494873047 -1164.53125 -128.9904327392578 -1164.684448242188 -129.0323944091797 C -1165.50390625 -129.2570343017578 -1166.312744140625 -129.5228881835938 -1167.137573242188 -129.7232513427734 C -1167.393920898438 -129.7855072021484 -1167.717407226562 -129.7544250488281 -1167.9609375 -129.6507415771484 C -1168.643676757812 -129.3599853515625 -1169.300659179688 -129.0090637207031 -1170.018188476562 -128.6570892333984 C -1170.499877929688 -129.6406860351562 -1170.96240234375 -130.5853729248047 -1171.454467773438 -131.5904388427734 C -1170.649780273438 -131.9848785400391 -1169.837768554688 -132.3030548095703 -1169.112670898438 -132.7590026855469 C -1168.254638671875 -133.2984619140625 -1167.426879882812 -133.3562316894531 -1166.516845703125 -132.9698333740234 C -1166.183837890625 -132.8284759521484 -1165.802978515625 -132.7993011474609 -1165.472045898438 -132.6547088623047 C -1164.541381835938 -132.2480163574219 -1163.8642578125 -132.6735382080078 -1163.260498046875 -133.3032836914062 C -1162.539184570312 -134.0553436279297 -1161.846069335938 -134.8342895507812 -1161.10498046875 -135.6404724121094 C -1160.443115234375 -135.0505676269531 -1159.80029296875 -134.4775238037109 -1159.12744140625 -133.8777008056641 C -1158.559692382812 -134.3468475341797 -1158.021728515625 -134.8096008300781 -1157.46240234375 -135.2446594238281 C -1157.234741210938 -135.4214782714844 -1156.976196289062 -135.5872039794922 -1156.705078125 -135.6740417480469 C -1154.970336914062 -136.2297210693359 -1153.231811523438 -136.773681640625 -1151.485107421875 -137.2893981933594 C -1151.230834960938 -137.3643951416016 -1150.893310546875 -137.343994140625 -1150.650390625 -137.2387542724609 C -1149.137084960938 -136.5834655761719 -1147.646118164062 -135.8771209716797 -1146.131225585938 -135.2260437011719 C -1145.878784179688 -135.1175231933594 -1145.51318359375 -135.1088409423828 -1145.25537109375 -135.2040557861328 C -1143.920776367188 -135.6967468261719 -1142.598999023438 -136.2257385253906 -1141.286987304688 -136.7756652832031 C -1141.087768554688 -136.8590545654297 -1140.877563476562 -137.0934143066406 -1140.81689453125 -137.3003692626953 C -1140.46533203125 -138.4976196289062 -1140.1640625 -139.7096405029297 -1139.827514648438 -140.9114837646484 C -1139.7646484375 -141.1359252929688 -1139.6572265625 -141.3712310791016 -1139.5048828125 -141.5436553955078 C -1137.6728515625 -143.6166381835938 -1135.831298828125 -145.6813507080078 -1133.98095703125 -147.7382202148438 C -1133.854248046875 -147.8788452148438 -1133.6484375 -147.9960327148438 -1133.462768554688 -148.0282440185547 C -1131.13671875 -148.4323272705078 -1128.808471679688 -148.8234405517578 -1126.47802734375 -149.2015686035156 C -1126.276123046875 -149.2344055175781 -1126.026611328125 -149.2066955566406 -1125.847778320312 -149.1136779785156 C -1124.26123046875 -148.287109375 -1122.683349609375 -147.4433898925781 -1121.109497070312 -146.5927734375 C -1120.934204101562 -146.4980926513672 -1120.768432617188 -146.3520050048828 -1120.649658203125 -146.1917266845703 C -1119.7705078125 -145.0030670166016 -1118.869018554688 -143.8281860351562 -1118.05419921875 -142.5962066650391 C -1117.783447265625 -142.1869049072266 -1117.708618164062 -141.6307067871094 -1117.609497070312 -141.1287994384766 C -1117.33056640625 -139.7161254882812 -1117.1044921875 -138.2928619384766 -1116.813598632812 -136.8829193115234 C -1116.74365234375 -136.5440216064453 -1116.853271484375 -136.3726501464844 -1117.0712890625 -136.1751098632812 C -1117.908935546875 -135.4154968261719 -1118.745971679688 -134.6547698974609 -1119.564697265625 -133.8749694824219 C -1119.757934570312 -133.6909332275391 -1119.9326171875 -133.4511108398438 -1120.025024414062 -133.2031707763672 C -1120.746826171875 -131.2674407958984 -1121.437622070312 -129.3202209472656 -1122.161010742188 -127.385139465332 C -1122.293701171875 -127.0299224853516 -1122.244506835938 -126.8404541015625 -1121.924194335938 -126.6200942993164 C -1120.649169921875 -125.7422790527344 -1119.396118164062 -124.8324356079102 -1118.135864257812 -123.9331665039062 C -1117.99658203125 -123.833869934082 -1117.863159179688 -123.7264175415039 -1117.697021484375 -123.5999221801758 C -1118.488159179688 -122.0888900756836 -1119.26708984375 -120.5998306274414 -1120.046997070312 -119.1111907958984 C -1120.256591796875 -118.7110900878906 -1120.512939453125 -118.3286819458008 -1120.668212890625 -117.9085998535156 C -1120.839599609375 -117.4447860717773 -1121.171020507812 -117.3087692260742 -1121.603759765625 -117.238037109375 C -1123.093627929688 -116.9944610595703 -1124.580200195312 -116.7290267944336 -1126.070434570312 -116.4874420166016 C -1126.398315429688 -116.4341812133789 -1126.555419921875 -116.2549591064453 -1126.7138671875 -115.9765472412109 C -1128.9609375 -112.0271682739258 -1130.282470703125 -107.7051086425781 -1131.784423828125 -103.4554443359375 C -1131.91650390625 -103.0815124511719 -1132.054077148438 -102.7095565795898 -1132.205200195312 -102.2916717529297 C -1133.709228515625 -102.9981155395508 -1135.1806640625 -103.6882476806641 -1136.6513671875 -104.3803558349609 C -1139.087036132812 -105.5266494750977 -1141.511596679688 -106.697021484375 -1143.966674804688 -107.799690246582 C -1144.389892578125 -107.9897994995117 -1144.943237304688 -107.9444885253906 -1145.432495117188 -107.9229354858398 C -1147.464721679688 -107.8331680297852 -1149.495971679688 -107.7114868164062 -1151.527099609375 -107.5988006591797 C -1151.659423828125 -107.5914840698242 -1151.790405273438 -107.5609283447266 -1151.998168945312 -107.5296401977539 C -1151.454345703125 -106.7322769165039 -1150.98681640625 -105.9599151611328 -1150.431030273438 -105.2574462890625 C -1149.896484375 -104.5814437866211 -1149.750610351562 -103.7794799804688 -1149.5615234375 -102.9966583251953 C -1148.983154296875 -100.6033020019531 -1148.445068359375 -98.20011138916016 -1147.907592773438 -95.79701995849609 C -1147.867065429688 -95.61591339111328 -1147.8955078125 -95.36344146728516 -1147.99609375 -95.21498107910156 C -1149.548828125 -92.92719268798828 -1151.118774414062 -90.651123046875 -1152.68603515625 -88.3731689453125 C -1152.7041015625 -88.34701538085938 -1152.739624023438 -88.3328857421875 -1152.79296875 -88.29438018798828 C -1154.629760742188 -89.16206359863281 -1156.482421875 -90.03141784667969 -1158.32666015625 -90.91834259033203 C -1158.4833984375 -90.99388122558594 -1158.60693359375 -91.17195892333984 -1158.706176757812 -91.32775115966797 C -1158.993041992188 -91.77796173095703 -1159.259887695312 -92.24114227294922 -1159.5615234375 -92.74430084228516 C -1160.226928710938 -92.32044982910156 -1160.85986328125 -91.9310302734375 -1161.473510742188 -91.512939453125 C -1161.580932617188 -91.43991088867188 -1161.637084960938 -91.25241851806641 -1161.664672851562 -91.10792541503906 C -1162.18017578125 -88.41365814208984 -1163.29541015625 -85.91976165771484 -1164.25 -83.37290954589844 C -1164.317138671875 -83.19368743896484 -1164.472778320312 -83.02021026611328 -1164.631958007812 -82.90711212158203 C -1165.950561523438 -81.97017669677734 -1167.285766601562 -81.05624389648438 -1168.600830078125 -80.11448669433594 C -1168.86328125 -79.92668914794922 -1169.021850585938 -79.94081115722656 -1169.270263671875 -80.1363525390625 C -1170.596557617188 -81.18022918701172 -1171.933349609375 -82.21091461181641 -1173.283569335938 -83.22339630126953 C -1173.48876953125 -83.37720489501953 -1173.7802734375 -83.48025512695312 -1174.036499023438 -83.49050140380859 C -1175.374877929688 -83.54397583007812 -1176.715087890625 -83.54847717285156 -1178.0537109375 -83.60047912597656 C -1178.270141601562 -83.60895538330078 -1178.5205078125 -83.72476959228516 -1178.687133789062 -83.86936950683594 C -1179.620849609375 -84.67845153808594 -1180.539916992188 -85.50469970703125 -1181.448974609375 -86.34130859375 C -1181.677124023438 -86.5513916015625 -1181.8720703125 -86.61782836914062 -1182.182495117188 -86.51551055908203 C -1183.5498046875 -86.06476593017578 -1184.922973632812 -85.63046264648438 -1186.30322265625 -85.22221374511719 C -1186.561889648438 -85.14572143554688 -1186.889526367188 -85.14059448242188 -1187.141479492188 -85.22837829589844 C -1190.630249023438 -86.44383239746094 -1194.11328125 -87.67582702636719 -1197.589477539062 -88.92654418945312 C -1197.810302734375 -89.00595855712891 -1198.047485351562 -89.23844146728516 -1198.135620117188 -89.45669555664062 C -1199.187622070312 -92.06317901611328 -1200.201171875 -94.6849365234375 -1201.255859375 -97.29026794433594 C -1201.426025390625 -97.71044921875 -1201.320434570312 -97.94136047363281 -1201.02490234375 -98.22480010986328 C -1198.839965820312 -100.3214340209961 -1196.671875 -102.4357452392578 -1194.487426757812 -104.5330047607422 C -1194.235107421875 -104.7753219604492 -1194.1640625 -105.0056076049805 -1194.20654296875 -105.3530807495117 C -1194.320190429688 -106.2842636108398 -1194.366943359375 -107.2233963012695 -1194.472900390625 -108.1557312011719 C -1194.49755859375 -108.3733596801758 -1194.603881835938 -108.6213302612305 -1194.753295898438 -108.7785873413086 C -1195.83251953125 -109.9140090942383 -1196.933227539062 -111.0291213989258 -1198.025024414062 -112.1525115966797 C -1198.14404296875 -112.2750244140625 -1198.250854492188 -112.4093704223633 -1198.381469726562 -112.5590896606445 Z" transform="matrix(1,0,0,1,1201.3372802734375,150.66815185546875)" fill="#000000" fill-rule="evenodd"/><path d="M -1110.846557617188 -120.1858673095703 C -1111.328491210938 -121.5084686279297 -1111.780639648438 -122.7438049316406 -1112.229248046875 -123.9803924560547 C -1115.050537109375 -131.757568359375 -1117.855346679688 -139.5408172607422 -1120.70458984375 -147.3078460693359 C -1121.290283203125 -148.9049835205078 -1121.752197265625 -150.4983673095703 -1121.74560546875 -152.2149810791016 C -1121.725219726562 -157.5599060058594 -1117.62255859375 -162.2606964111328 -1112.31689453125 -162.9928894042969 C -1106.404418945312 -163.8088836669922 -1101.086059570312 -160.1083068847656 -1099.844970703125 -154.2849426269531 C -1099.403442382812 -152.2138366699219 -1099.58544921875 -150.1707763671875 -1100.330078125 -148.1858825683594 C -1102.273559570312 -143.0046234130859 -1104.225952148438 -137.8265991210938 -1106.168579101562 -132.6448211669922 C -1107.642211914062 -128.7140655517578 -1109.106079101562 -124.7796401977539 -1110.575317382812 -120.8472137451172 C -1110.646850585938 -120.6557540893555 -1110.72998046875 -120.4687805175781 -1110.846557617188 -120.1858673095703 Z M -1110.800048828125 -129.6486968994141 C -1110.682983398438 -129.9388275146484 -1110.615966796875 -130.0944061279297 -1110.556640625 -130.2529296875 C -1109.57861328125 -132.8674621582031 -1108.603149414062 -135.4830474853516 -1107.623657226562 -138.0970611572266 C -1106.266967773438 -141.7181243896484 -1104.933715820312 -145.3482666015625 -1103.541259765625 -148.9554138183594 C -1102.443359375 -151.7996063232422 -1102.695556640625 -154.4673919677734 -1104.578857421875 -156.8639984130859 C -1106.390747070312 -159.1695861816406 -1108.832641601562 -160.1552734375 -1111.76025390625 -159.7617645263672 C -1116.6806640625 -159.1003265380859 -1119.70947265625 -154.0121765136719 -1117.989501953125 -149.3647308349609 C -1116.792358398438 -146.1293182373047 -1115.614990234375 -142.8865051269531 -1114.433349609375 -139.6452331542969 C -1113.234375 -136.3558502197266 -1112.041259765625 -133.0643615722656 -1110.800048828125 -129.6486968994141 Z" transform="matrix(1,0,0,1,1130.0732421875,163.10528564453125)" fill="#d82616" fill-rule="evenodd"/><path d="M -1065.937255859375 -107.3600006103516 C -1062.693115234375 -107.361457824707 -1060.082397460938 -104.7719268798828 -1060.075805664062 -101.5458450317383 C -1060.069091796875 -98.33628845214844 -1062.688354492188 -95.71933746337891 -1065.921875 -95.70490264892578 C -1069.16650390625 -95.69036102294922 -1071.766357421875 -98.30667877197266 -1071.76416015625 -101.5839233398438 C -1071.761962890625 -104.783332824707 -1069.1640625 -107.3584289550781 -1065.937255859375 -107.3600006103516 Z M -1065.914306640625 -104.6184463500977 C -1067.627075195312 -104.620849609375 -1069.007934570312 -103.2656097412109 -1069.021728515625 -101.5688629150391 C -1069.03564453125 -99.85788726806641 -1067.625610351562 -98.43808746337891 -1065.918823242188 -98.44416046142578 C -1064.24072265625 -98.45023345947266 -1062.835205078125 -99.85788726806641 -1062.829956054688 -101.5376815795898 C -1062.82470703125 -103.2245864868164 -1064.217895507812 -104.6161422729492 -1065.914306640625 -104.6184463500977 Z" transform="matrix(1,0,0,1,1085.321044921875,113.19248962402344)" fill="#d82616" fill-rule="evenodd"/></g></svg>