<svg xmlns="http://www.w3.org/2000/svg" xmlns:xlink="http://www.w3.org/1999/xlink" width="418" height="291" viewBox="1224 685 418 291"><g transform="matrix(1,0,0,1,39,-9)"><path d="M55 0L363 0A55 55 0 0 1 418 55L418 236A55 55 0 0 1 363 291L55 291A55 55 0 0 1 0 236L0 55A55 55 0 0 1 55 0z" transform="matrix(1,0,0,1,1185,694)" fill="#ffffff" fill-rule="evenodd" stroke="#d82616" stroke-width="5"/><g transform="matrix(1,0,0,1,15,54)"><g transform="matrix(1,0,0,1,1351.105224609375,647.0784912109375)"><g transform="matrix(1,0,0,1,-1.854246973991394,15.28309154510498)"><g><path d="M 270.751953125 130.6861419677734 L 264.163330078125 130.6861419677734 L 264.163330078125 87.27761840820312 L 209.5850982666016 64.86918640136719 L 209.5850982666016 16.40321350097656 L 216.1737365722656 16.40321350097656 L 216.1737365722656 60.45197296142578 L 270.751953125 82.86037445068359 L 270.751953125 130.6861419677734 Z" transform="matrix(1,0,0,1,-209.58509826660156,-16.403213500976562)" fill="#000000" fill-rule="evenodd"/><path d="M 216.1737365722656 130.6861419677734 L 209.5850982666016 130.6861419677734 L 209.5850982666016 82.86037445068359 L 264.163330078125 60.45197296142578 L 264.163330078125 16.40321350097656 L 270.751953125 16.40321350097656 L 270.751953125 64.86918640136719 L 216.1737365722656 87.27761840820312 L 216.1737365722656 130.6861419677734 Z" transform="matrix(1,0,0,1,-209.58509826660156,-16.403213500976562)" fill="#000000" fill-rule="evenodd"/><path d="M 270.751953125 415.0394287109375 L 264.163330078125 415.0394287109375 L 264.163330078125 371.6308898925781 L 209.5850982666016 349.2225036621094 L 209.5850982666016 300.7564697265625 L 216.1737365722656 300.7564697265625 L 216.1737365722656 344.8052368164062 L 270.751953125 367.2136535644531 L 270.751953125 415.0394287109375 Z" transform="matrix(1,0,0,1,-209.58509826660156,-231.3675994873047)" fill="#000000" fill-rule="evenodd"/><path d="M 216.1737365722656 415.0394287109375 L 209.5850982666016 415.0394287109375 L 209.5850982666016 367.2136535644531 L 264.163330078125 344.8052368164062 L 264.163330078125 300.7564697265625 L 270.751953125 300.7564697265625 L 270.751953125 349.2225036621094 L 216.1737365722656 371.6308898925781 L 216.1737365722656 415.0394287109375 Z" transform="matrix(1,0,0,1,-209.58509826660156,-231.3675994873047)" fill="#000000" fill-rule="evenodd"/></g><g transform="matrix(1,0,0,1,9.368951797485352,70.36503601074219)"><path d="M -6.56434154510498 42.42895126342773 L -12.82215785980225 42.42895126342773 L -12.82215785980225 1.459061513742199e-05 L -6.56434154510498 1.459061513742199e-05 L -6.56434154510498 42.42895126342773 Z" transform="matrix(1,0,0,1,30.907711029052734,-0.000014590615137421992)" fill="#d82616" fill-rule="evenodd"/><path d="M 1.459061513742199e-05 -6.564339637756348 L 1.459061513742199e-05 -12.82216835021973 L 42.42895126342773 -12.82218170166016 L 42.42895126342773 -6.564352035522461 L 1.459061513742199e-05 -6.564339637756348 Z" transform="matrix(1,0,0,1,-0.000014590615137421992,30.907724380493164)" fill="#d82616" fill-rule="evenodd"/><path d="M -4.605562210083008 25.09078216552734 L -8.996070861816406 20.63167190551758 L 21.23738288879395 -9.136661529541016 L 25.62788581848145 -4.67754602432251 L -4.605562210083008 25.09078216552734 Z" transform="matrix(1,0,0,1,12.898557662963867,13.237403869628906)" fill="#d82616" fill-rule="evenodd"/><path d="M 20.63168907165527 25.62786674499512 L -9.136641502380371 -4.605573177337646 L -4.677526473999023 -8.996092796325684 L 25.09080505371094 21.23734855651855 L 20.63168907165527 25.62786674499512 Z" transform="matrix(1,0,0,1,13.237380981445312,12.898573875427246)" fill="#d82616" fill-rule="evenodd"/></g><path d="M 3.236999988555908 -12.82217597961426 C 12.09206008911133 -12.82217597961426 19.29617691040039 -5.618057727813721 19.29617691040039 3.236999988555908 C 19.29617691040039 12.09206008911133 12.09206008911133 19.29617691040039 3.236999988555908 19.29617691040039 C -5.618057727813721 19.29617691040039 -12.82217597961426 12.09206008911133 -12.82217597961426 3.236999988555908 C -12.82217597961426 -5.618057727813721 -5.618057727813721 -12.82217597961426 3.236999988555908 -12.82217597961426 Z M 3.236999988555908 13.03834915161133 C 8.641477584838867 13.03834915161133 13.03834915161133 8.641477584838867 13.03834915161133 3.236999988555908 C 13.03834915161133 -2.167478322982788 8.641477584838867 -6.564349174499512 3.236999988555908 -6.564349174499512 C -2.167478322982788 -6.564349174499512 -6.564349174499512 -2.167478322982788 -6.564349174499512 3.236999988555908 C -6.564349174499512 8.641477584838867 -2.167478322982788 13.03834915161133 3.236999988555908 13.03834915161133 Z" transform="matrix(1,0,0,1,27.346416473388672,157.88262939453125)" fill="#000000" fill-rule="evenodd"/><path d="M 295.6847839355469 103.8747634887695 L 283.1667175292969 95.1658935546875 L 286.7405090332031 90.0289306640625 L 295.7156982421875 96.27299499511719 L 304.8694152832031 90.01448822021484 L 308.4013671875 95.18032836914062 L 295.6847839355469 103.8747634887695 Z" transform="matrix(1,0,0,1,-265.2110595703125,-72.05160522460938)" fill="#000000" fill-rule="evenodd"/></g><g transform="matrix(1,0,0,1,-70.10527038574219,14.921536445617676)"><g transform="matrix(1,0,0,1,-3.0681862690155708e-15,1.226715359981922e-15)"><path d="M -6.911365509033203 45.61714172363281 L -13.5 45.61714172363281 L -13.5 1.251898902410176e-05 L -6.911365509033203 1.251898902410176e-05 L -6.911365509033203 45.61714172363281 Z" transform="matrix(1,0,0,1,68.07820129394531,-0.000012518989024101757)" fill="#000000" fill-rule="evenodd"/><path d="M -6.911365509033203 45.61714172363281 L -13.5 45.61714172363281 L -13.5 1.251898902410176e-05 L -6.911365509033203 1.251898902410176e-05 L -6.911365509033203 45.61714172363281 Z" transform="matrix(1,0,0,1,13.500007629394531,-0.000012518989024101757)" fill="#000000" fill-rule="evenodd"/><path d="M -8.938427925109863 132.1677856445312 L -15.52706050872803 132.1677856445312 L -15.52706050872803 88.75924682617188 L -70.10527038574219 66.35081481933594 L -70.10527038574219 17.88484191894531 L -63.51663589477539 17.88484191894531 L -63.51663589477539 61.93360137939453 L -8.938427925109863 84.34201049804688 L -8.938427925109863 132.1677856445312 Z" transform="matrix(1,0,0,1,70.10527038574219,-17.16173553466797)" fill="#000000" fill-rule="evenodd"/><path d="M -63.51663589477539 132.1677856445312 L -70.10527038574219 132.1677856445312 L -70.10527038574219 84.34201049804688 L -15.52706050872803 61.93360137939453 L -15.52706050872803 17.88484191894531 L -8.938427925109863 17.88484191894531 L -8.938427925109863 66.35081481933594 L -63.51663589477539 88.75924682617188 L -63.51663589477539 132.1677856445312 Z" transform="matrix(1,0,0,1,70.10527038574219,-17.16173553466797)" fill="#000000" fill-rule="evenodd"/><path d="M -8.938427925109863 416.5210571289062 L -15.52706050872803 416.5210571289062 L -15.52706050872803 373.1125183105469 L -70.10527038574219 350.7041015625 L -70.10527038574219 302.2381286621094 L -63.51663589477539 302.2381286621094 L -63.51663589477539 346.286865234375 L -8.938427925109863 368.6953430175781 L -8.938427925109863 416.5210571289062 Z" transform="matrix(1,0,0,1,70.10527038574219,-232.1261444091797)" fill="#000000" fill-rule="evenodd"/><path d="M -63.51663589477539 416.5210571289062 L -70.10527038574219 416.5210571289062 L -70.10527038574219 368.6953430175781 L -15.52706050872803 346.286865234375 L -15.52706050872803 302.2381286621094 L -8.938427925109863 302.2381286621094 L -8.938427925109863 350.7041015625 L -63.51663589477539 373.1125183105469 L -63.51663589477539 416.5210571289062 Z" transform="matrix(1,0,0,1,70.10527038574219,-232.1261444091797)" fill="#000000" fill-rule="evenodd"/></g><g transform="matrix(1,0,0,1,9.368955612182617,1.699245572090149)"><path d="M -6.56434154510498 42.42895126342773 L -12.82215785980225 42.42895126342773 L -12.82215785980225 1.459061513742199e-05 L -6.56434154510498 1.459061513742199e-05 L -6.56434154510498 42.42895126342773 Z" transform="matrix(1,0,0,1,30.90771484375,-0.000014590615137421992)" fill="#d82616" fill-rule="evenodd"/><path d="M 1.459061513742199e-05 -6.564339637756348 L 1.459061513742199e-05 -12.82216835021973 L 42.42895126342773 -12.82218170166016 L 42.42895126342773 -6.564352035522461 L 1.459061513742199e-05 -6.564339637756348 Z" transform="matrix(1,0,0,1,-0.000014590615137421992,30.90772819519043)" fill="#d82616" fill-rule="evenodd"/><path d="M -4.605562210083008 25.09078216552734 L -8.996070861816406 20.63167190551758 L 21.23738288879395 -9.136661529541016 L 25.62788581848145 -4.67754602432251 L -4.605562210083008 25.09078216552734 Z" transform="matrix(1,0,0,1,12.898557662963867,13.237404823303223)" fill="#d82616" fill-rule="evenodd"/><path d="M 20.63168907165527 25.62786674499512 L -9.136641502380371 -4.605573177337646 L -4.677526473999023 -8.996092796325684 L 25.09080505371094 21.23734855651855 L 20.63168907165527 25.62786674499512 Z" transform="matrix(1,0,0,1,13.237384796142578,12.898578643798828)" fill="#d82616" fill-rule="evenodd"/></g><path d="M 3.236999988555908 -12.82217597961426 C 12.09206008911133 -12.82217597961426 19.29617691040039 -5.618057727813721 19.29617691040039 3.236999988555908 C 19.29617691040039 12.09206008911133 12.09206008911133 19.29617691040039 3.236999988555908 19.29617691040039 C -5.618057727813721 19.29617691040039 -12.82217597961426 12.09206008911133 -12.82217597961426 3.236999988555908 C -12.82217597961426 -5.618057727813721 -5.618057727813721 -12.82217597961426 3.236999988555908 -12.82217597961426 Z M 3.236999988555908 13.03834915161133 C 8.641477584838867 13.03834915161133 13.03834915161133 8.641477584838867 13.03834915161133 3.236999988555908 C 13.03834915161133 -2.167478322982788 8.641477584838867 -6.564349174499512 3.236999988555908 -6.564349174499512 C -2.167478322982788 -6.564349174499512 -6.564349174499512 -2.167478322982788 -6.564349174499512 3.236999988555908 C -6.564349174499512 8.641477584838867 -2.167478322982788 13.03834915161133 3.236999988555908 13.03834915161133 Z" transform="matrix(1,0,0,1,27.346420288085938,88.70404052734375)" fill="#000000" fill-rule="evenodd"/><path d="M 15.99442195892334 680.3724975585938 L 3.476358890533447 671.6636352539062 L 7.050160884857178 666.5266723632812 L 16.02531433105469 672.7706909179688 L 25.17904472351074 666.51220703125 L 28.71097564697266 671.6780395507812 L 15.99442195892334 680.3724975585938 Z" transform="matrix(1,0,0,1,14.479287147521973,-507.5087890625)" fill="#000000" fill-rule="evenodd"/></g><g transform="matrix(1,0,0,1,66.21800231933594,14.921524047851562)"><g><path d="M -6.911365509033203 45.61714172363281 L -13.5 45.61714172363281 L -13.5 1.251898902410176e-05 L -6.911365509033203 1.251898902410176e-05 L -6.911365509033203 45.61714172363281 Z" transform="matrix(1,0,0,1,68.07818603515625,138.77777099609375)" fill="#000000" fill-rule="evenodd"/><path d="M -6.911365509033203 45.61714172363281 L -13.5 45.61714172363281 L -13.5 1.251898902410176e-05 L -6.911365509033203 1.251898902410176e-05 L -6.911365509033203 45.61714172363281 Z" transform="matrix(1,0,0,1,13.5,138.77777099609375)" fill="#000000" fill-rule="evenodd"/><path d="M 495.1315307617188 413.5578002929688 L 488.5428771972656 413.5578002929688 L 488.5428771972656 365.091796875 L 543.12109375 342.6834106445312 L 543.12109375 299.2748413085938 L 549.709716796875 299.2748413085938 L 549.709716796875 347.1005859375 L 495.1315307617188 369.509033203125 L 495.1315307617188 413.5578002929688 Z" transform="matrix(1,0,0,1,-488.5428771972656,-229.88595581054688)" fill="#000000" fill-rule="evenodd"/><path d="M 549.709716796875 413.5578002929688 L 543.12109375 413.5578002929688 L 543.12109375 369.509033203125 L 488.5428771972656 347.1005859375 L 488.5428771972656 299.2748413085938 L 495.1315307617188 299.2748413085938 L 495.1315307617188 342.6834106445312 L 549.709716796875 365.091796875 L 549.709716796875 413.5578002929688 Z" transform="matrix(1,0,0,1,-488.5428771972656,-229.88595581054688)" fill="#000000" fill-rule="evenodd"/><path d="M 495.1315307617188 129.2044830322266 L 488.5428771972656 129.2044830322266 L 488.5428771972656 80.73847961425781 L 543.12109375 58.33004760742188 L 543.12109375 14.92152404785156 L 549.709716796875 14.92152404785156 L 549.709716796875 62.74727249145508 L 495.1315307617188 85.15569305419922 L 495.1315307617188 129.2044830322266 Z" transform="matrix(1,0,0,1,-488.5428771972656,-14.921524047851562)" fill="#000000" fill-rule="evenodd"/><path d="M 549.709716796875 129.2044830322266 L 543.12109375 129.2044830322266 L 543.12109375 85.15570068359375 L 488.5428771972656 62.74727249145508 L 488.5428771972656 14.92152404785156 L 495.1315307617188 14.92152404785156 L 495.1315307617188 58.33006286621094 L 549.709716796875 80.73847961425781 L 549.709716796875 129.2044830322266 Z" transform="matrix(1,0,0,1,-488.5428771972656,-14.921524047851562)" fill="#000000" fill-rule="evenodd"/></g><g transform="matrix(1,0,0,1,9.368947982788086,140.26675415039062)"><path d="M -6.56434154510498 42.42895126342773 L -12.82215785980225 42.42895126342773 L -12.82215785980225 1.459061513742199e-05 L -6.56434154510498 1.459061513742199e-05 L -6.56434154510498 42.42895126342773 Z" transform="matrix(1,0,0,1,30.907711029052734,-0.000014590615137421992)" fill="#d82616" fill-rule="evenodd"/><path d="M 42.42895126342773 -6.564339637756348 L 1.459061513742199e-05 -6.564352035522461 L 1.459061513742199e-05 -12.82218170166016 L 42.42895126342773 -12.82216835021973 L 42.42895126342773 -6.564339637756348 Z" transform="matrix(1,0,0,1,-0.000014590615137421992,30.907730102539062)" fill="#d82616" fill-rule="evenodd"/><path d="M 21.23738288879395 25.09078216552734 L -8.996070861816406 -4.67754602432251 L -4.605562210083008 -9.136661529541016 L 25.62788581848145 20.63167190551758 L 21.23738288879395 25.09078216552734 Z" transform="matrix(1,0,0,1,12.898557662963867,13.237411499023438)" fill="#d82616" fill-rule="evenodd"/><path d="M -4.677526473999023 25.62786674499512 L -9.136641502380371 21.23734855651855 L 20.63168907165527 -8.996092796325684 L 25.09080505371094 -4.605573177337646 L -4.677526473999023 25.62786674499512 Z" transform="matrix(1,0,0,1,13.237380027770996,12.898573875427246)" fill="#d82616" fill-rule="evenodd"/></g><path d="M 3.236999988555908 -12.82217597961426 C 12.09206008911133 -12.82217597961426 19.29617691040039 -5.618057727813721 19.29617691040039 3.236999988555908 C 19.29617691040039 12.09206008911133 12.09206008911133 19.29617691040039 3.236999988555908 19.29617691040039 C -5.618057727813721 19.29617691040039 -12.82217597961426 12.09206008911133 -12.82217597961426 3.236999988555908 C -12.82217597961426 -5.618057727813721 -5.618057727813721 -12.82217597961426 3.236999988555908 -12.82217597961426 Z M 3.236999988555908 13.03834915161133 C 8.641477584838867 13.03834915161133 13.03834915161133 8.641477584838867 13.03834915161133 3.236999988555908 C 13.03834915161133 -2.167478322982788 8.641477584838867 -6.564349174499512 3.236999988555908 -6.564349174499512 C -2.167478322982788 -6.564349174499512 -6.564349174499512 -2.167478322982788 -6.564349174499512 3.236999988555908 C -6.564349174499512 8.641477584838867 -2.167478322982788 13.03834915161133 3.236999988555908 13.03834915161133 Z" transform="matrix(1,0,0,1,28.078521728515625,20.149728775024414)" fill="#000000" fill-rule="evenodd"/><path d="M 579.642822265625 387.9679870605469 L 567.124755859375 379.2591247558594 L 570.6985473632812 374.1221923828125 L 579.6737060546875 380.3662109375 L 588.8274536132812 374.1077270507812 L 592.359375 379.2735595703125 L 579.642822265625 387.9679870605469 Z" transform="matrix(1,0,0,1,-547.9489135742188,-286.4578552246094)" fill="#000000" fill-rule="evenodd"/></g><ellipse cx="3.822291135787964" cy="3.822291135787964" rx="3.822291135787964" ry="3.822291135787964" transform="matrix(1,0,0,1,-9.218631744384766,68.96380615234375)" fill="#d82616" fill-rule="evenodd"/><path d="M 3.444301605224609 -0.5000019073486328 C 4.497863292694092 -0.5000019073486328 5.488364219665527 -0.08972256630659103 6.233345985412598 0.6552569270133972 C 6.978325366973877 1.400238633155823 7.388605117797852 2.390739917755127 7.388605117797852 3.444301605224609 C 7.388605117797852 4.497863292694092 6.978325366973877 5.488364219665527 6.233345985412598 6.233345985412598 C 5.488364219665527 6.978325366973877 4.497863292694092 7.388605117797852 3.444301605224609 7.388605117797852 C 2.390739917755127 7.388605117797852 1.400238633155823 6.978325366973877 0.6552569270133972 6.233345985412598 C -0.08972256630659103 5.488364219665527 -0.5000019073486328 4.497863292694092 -0.5000019073486328 3.444301605224609 C -0.5000019073486328 2.390739917755127 -0.08972256630659103 1.400238633155823 0.6552569270133972 0.6552569270133972 C 1.400238633155823 -0.08972256630659103 2.390739917755127 -0.5000019073486328 3.444301605224609 -0.5000019073486328 Z M 3.444301605224609 7.144581317901611 C 5.48464298248291 7.144581317901611 7.144581317901611 5.48464298248291 7.144581317901611 3.444301605224609 C 7.144581317901611 1.403959989547729 5.48464298248291 -0.2559784054756165 3.444301605224609 -0.2559784054756165 C 1.403959989547729 -0.2559784054756165 -0.2559784054756165 1.403959989547729 -0.2559784054756165 3.444301605224609 C -0.2559784054756165 5.48464298248291 1.403959989547729 7.144581317901611 3.444301605224609 7.144581317901611 Z" transform="matrix(1,0,0,1,-8.840642929077148,69.34178924560547)" fill="#000000" fill-rule="evenodd"/><ellipse cx="3.822291135787964" cy="3.822291135787964" rx="3.822291135787964" ry="3.822291135787964" transform="matrix(1,0,0,1,58.942996978759766,68.60225677490234)" fill="#d82616" fill-rule="evenodd"/><path d="M 3.444301605224609 -0.5000019073486328 C 4.497863292694092 -0.5000019073486328 5.488364219665527 -0.08972256630659103 6.233345985412598 0.6552569270133972 C 6.978325366973877 1.400238633155823 7.388605117797852 2.390739917755127 7.388605117797852 3.444301605224609 C 7.388605117797852 4.497863292694092 6.978325366973877 5.488364219665527 6.233345985412598 6.233345985412598 C 5.488364219665527 6.978325366973877 4.497863292694092 7.388605117797852 3.444301605224609 7.388605117797852 C 2.390739917755127 7.388605117797852 1.400238633155823 6.978325366973877 0.6552569270133972 6.233345985412598 C -0.08972256630659103 5.488364219665527 -0.5000019073486328 4.497863292694092 -0.5000019073486328 3.444301605224609 C -0.5000019073486328 2.390739917755127 -0.08972256630659103 1.400238633155823 0.6552569270133972 0.6552569270133972 C 1.400238633155823 -0.08972256630659103 2.390739917755127 -0.5000019073486328 3.444301605224609 -0.5000019073486328 Z M 3.444301605224609 7.144581317901611 C 5.48464298248291 7.144581317901611 7.144581317901611 5.48464298248291 7.144581317901611 3.444301605224609 C 7.144581317901611 1.403959989547729 5.48464298248291 -0.2559784054756165 3.444301605224609 -0.2559784054756165 C 1.403959989547729 -0.2559784054756165 -0.2559784054756165 1.403959989547729 -0.2559784054756165 3.444301605224609 C -0.2559784054756165 5.48464298248291 1.403959989547729 7.144581317901611 3.444301605224609 7.144581317901611 Z" transform="matrix(1,0,0,1,59.32098388671875,68.9802474975586)" fill="#000000" fill-rule="evenodd"/><ellipse cx="3.822291135787964" cy="3.822291135787964" rx="3.822291135787964" ry="3.822291135787964" transform="matrix(1,0,0,1,59.690643310546875,137.62960815429688)" fill="#d82616" fill-rule="evenodd"/><path d="M 3.444301605224609 -0.5000019073486328 C 4.497863292694092 -0.5000019073486328 5.488364219665527 -0.08972256630659103 6.233345985412598 0.6552569270133972 C 6.978325366973877 1.400238633155823 7.388605117797852 2.390739917755127 7.388605117797852 3.444301605224609 C 7.388605117797852 4.497863292694092 6.978325366973877 5.488364219665527 6.233345985412598 6.233345985412598 C 5.488364219665527 6.978325366973877 4.497863292694092 7.388605117797852 3.444301605224609 7.388605117797852 C 2.390739917755127 7.388605117797852 1.400238633155823 6.978325366973877 0.6552569270133972 6.233345985412598 C -0.08972256630659103 5.488364219665527 -0.5000019073486328 4.497863292694092 -0.5000019073486328 3.444301605224609 C -0.5000019073486328 2.390739917755127 -0.08972256630659103 1.400238633155823 0.6552569270133972 0.6552569270133972 C 1.400238633155823 -0.08972256630659103 2.390739917755127 -0.5000019073486328 3.444301605224609 -0.5000019073486328 Z M 3.444301605224609 7.144581317901611 C 5.48464298248291 7.144581317901611 7.144581317901611 5.48464298248291 7.144581317901611 3.444301605224609 C 7.144581317901611 1.403959989547729 5.48464298248291 -0.2559784054756165 3.444301605224609 -0.2559784054756165 C 1.403959989547729 -0.2559784054756165 -0.2559784054756165 1.403959989547729 -0.2559784054756165 3.444301605224609 C -0.2559784054756165 5.48464298248291 1.403959989547729 7.144581317901611 3.444301605224609 7.144581317901611 Z" transform="matrix(1,0,0,1,60.06863784790039,138.00758361816406)" fill="#000000" fill-rule="evenodd"/><ellipse cx="3.822291135787964" cy="3.822291135787964" rx="3.822291135787964" ry="3.822291135787964" transform="matrix(1,0,0,1,-9.876888275146484,137.99114990234375)" fill="#d82616" fill-rule="evenodd"/><path d="M 3.444301605224609 -0.5000019073486328 C 4.497863292694092 -0.5000019073486328 5.488364219665527 -0.08972256630659103 6.233345985412598 0.6552569270133972 C 6.978325366973877 1.400238633155823 7.388605117797852 2.390739917755127 7.388605117797852 3.444301605224609 C 7.388605117797852 4.497863292694092 6.978325366973877 5.488364219665527 6.233345985412598 6.233345985412598 C 5.488364219665527 6.978325366973877 4.497863292694092 7.388605117797852 3.444301605224609 7.388605117797852 C 2.390739917755127 7.388605117797852 1.400238633155823 6.978325366973877 0.6552569270133972 6.233345985412598 C -0.08972256630659103 5.488364219665527 -0.5000019073486328 4.497863292694092 -0.5000019073486328 3.444301605224609 C -0.5000019073486328 2.390739917755127 -0.08972256630659103 1.400238633155823 0.6552569270133972 0.6552569270133972 C 1.400238633155823 -0.08972256630659103 2.390739917755127 -0.5000019073486328 3.444301605224609 -0.5000019073486328 Z M 3.444301605224609 7.144581317901611 C 5.48464298248291 7.144581317901611 7.144581317901611 5.48464298248291 7.144581317901611 3.444301605224609 C 7.144581317901611 1.403959989547729 5.48464298248291 -0.2559784054756165 3.444301605224609 -0.2559784054756165 C 1.403959989547729 -0.2559784054756165 -0.2559784054756165 1.403959989547729 -0.2559784054756165 3.444301605224609 C -0.2559784054756165 5.48464298248291 1.403959989547729 7.144581317901611 3.444301605224609 7.144581317901611 Z" transform="matrix(1,0,0,1,-9.49889850616455,138.369140625)" fill="#000000" fill-rule="evenodd"/></g><g transform="matrix(1,0,0,1,1182,855)"><text x="0" y="0" dominant-baseline="alphabetic" font-family="Century Gothic" font-size="45" font-weight="bold" letter-spacing="0.225px" fill="#000000" fill-rule="evenodd"><tspan x="73" y="45" font-family="Century Gothic" font-size="45" font-weight="bold" letter-spacing="0.225px" fill="#000000" fill-rule="evenodd">Промыслы</tspan></text></g></g></g></svg>