<svg xmlns="http://www.w3.org/2000/svg" xmlns:xlink="http://www.w3.org/1999/xlink" width="1881.2360853454593" height="323.7889723083499" viewBox="19.075668334960938 739.2110290527344 1881.2360853454593 323.7889723083499"><g><g transform="matrix(1,0,0,1,-119.2061767578125,655.11376953125)"><g transform="matrix(1,0,0,1,198.5449981689453,250.96188354492188)"><path d="M 34.5062370300293 156.9243469238281 L -1.891741037368774 156.9243469238281 L -1.891741037368774 -1.361084400741674e-06 L 34.5062370300293 -1.361084400741674e-06 L 34.5062370300293 156.9243469238281 Z" transform="matrix(1,0,0,1,1.8917410373687744,0.0000013610844007416745)" fill="#d82616" fill-rule="evenodd"/></g><g transform="matrix(1,0,0,1,138.28184509277344,311.2248840332031)"><path d="M 156.9243469238281 34.5062370300293 L -1.361084400741674e-06 34.5062370300293 L -1.361084400741674e-06 -1.891741037368774 L 156.9243469238281 -1.891741037368774 L 156.9243469238281 34.5062370300293 Z" transform="matrix(1,0,0,1,0.0000013610844007416745,1.8917410373687744)" fill="#d82616" fill-rule="evenodd"/></g><g transform="matrix(1,0,0,1,148.394287109375,261.0741882324219)"><path d="M 24.39964485168457 135.3618621826172 L -1.337663769721985 109.6245574951172 L 109.6245574951172 -1.337663769721985 L 135.3618621826172 24.39964485168457 L 24.39964485168457 135.3618621826172 Z" transform="matrix(1,0,0,1,1.3376637697219849,1.3376637697219849)" fill="#d82616" fill-rule="evenodd"/></g><g transform="matrix(1,0,0,1,148.394287109375,261.0741882324219)"><path d="M 109.6245574951172 135.3618621826172 L -1.337663769721985 24.39964485168457 L 24.39964485168457 -1.337663769721985 L 135.3618621826172 109.6245574951172 L 109.6245574951172 135.3618621826172 Z" transform="matrix(1,0,0,1,1.3376637697219849,1.3376637697219849)" fill="#d82616" fill-rule="evenodd"/></g></g><g transform="matrix(1,0,0,1,-111.6904296875,566.2491455078125)"><g transform="matrix(1,0,0,1,159.0192413330078,250.96188354492188)"><path d="M 10.63331699371338 53.99988555908203 L -1.891741037368774 53.99988555908203 L -1.891741037368774 -1.361084400741674e-06 L 10.63331699371338 -1.361084400741674e-06 L 10.63331699371338 53.99988555908203 Z" transform="matrix(1,0,0,1,1.8917410373687744,0.0000013610844007416745)" fill="#d82616" fill-rule="evenodd"/></g><g transform="matrix(1,0,0,1,138.28184509277344,271.69921875)"><path d="M 53.99988555908203 10.63331699371338 L -1.361084400741674e-06 10.63331699371338 L -1.361084400741674e-06 -1.891741037368774 L 53.99988555908203 -1.891741037368774 L 53.99988555908203 10.63331699371338 Z" transform="matrix(1,0,0,1,0.0000013610844007416745,1.8917410373687744)" fill="#d82616" fill-rule="evenodd"/></g><g transform="matrix(1,0,0,1,141.7616729736328,254.44166564941406)"><path d="M 7.51890754699707 45.70257568359375 L -1.337663769721985 36.84600448608398 L 36.84600448608398 -1.337663769721985 L 45.70257568359375 7.51890754699707 L 7.51890754699707 45.70257568359375 Z" transform="matrix(1,0,0,1,1.3376637697219849,1.3376637697219849)" fill="#d82616" fill-rule="evenodd"/></g><g transform="matrix(1,0,0,1,141.7616729736328,254.44166564941406)"><path d="M 36.84600448608398 45.70257568359375 L -1.337663769721985 7.51890754699707 L 7.51890754699707 -1.337663769721985 L 45.70257568359375 36.84600448608398 L 36.84600448608398 45.70257568359375 Z" transform="matrix(1,0,0,1,1.3376637697219849,1.3376637697219849)" fill="#d82616" fill-rule="evenodd"/></g></g><g transform="matrix(1,0,0,1,-19.766204833984375,488.2491455078125)"><g transform="matrix(1,0,0,1,168.23594665527344,250.96188354492188)"><path d="M 16.2000560760498 78.00003814697266 L -1.891741037368774 78.00003814697266 L -1.891741037368774 -1.361084514428512e-06 L 16.2000560760498 -1.361084514428512e-06 L 16.2000560760498 78.00003814697266 Z" transform="matrix(1,0,0,1,1.8917410373687744,0.0000013610845144285122)" fill="#d82616" fill-rule="evenodd"/></g><g transform="matrix(1,0,0,1,138.28184509277344,280.9158935546875)"><path d="M 78.00003814697266 16.2000560760498 L -1.361084514428512e-06 16.2000560760498 L -1.361084514428512e-06 -1.891741037368774 L 78.00003814697266 -1.891741037368774 L 78.00003814697266 16.2000560760498 Z" transform="matrix(1,0,0,1,0.0000013610845144285122,1.8917410373687744)" fill="#d82616" fill-rule="evenodd"/></g><g transform="matrix(1,0,0,1,143.3082733154297,255.98825073242188)"><path d="M 11.45519542694092 66.60952758789062 L -1.337663769721985 53.81666564941406 L 53.81666564941406 -1.337663769721985 L 66.60952758789062 11.45519542694092 L 11.45519542694092 66.60952758789062 Z" transform="matrix(1,0,0,1,1.3376637697219849,1.3376637697219849)" fill="#d82616" fill-rule="evenodd"/></g><g transform="matrix(1,0,0,1,143.3082733154297,255.98825073242188)"><path d="M 53.81666564941406 66.60952758789062 L -1.337663769721985 11.45519542694092 L 11.45519542694092 -1.337663769721985 L 66.60952758789062 53.81666564941406 L 53.81666564941406 66.60952758789062 Z" transform="matrix(1,0,0,1,1.3376637697219849,1.3376637697219849)" fill="#d82616" fill-rule="evenodd"/></g></g><g transform="matrix(1,0,0,1,1679.6854248046875,724.8848876953125)"><g transform="matrix(1,0,0,1,169.90432739257812,250.96188354492188)"><path d="M 17.20773124694824 82.344482421875 L -1.891740798950195 82.344482421875 L -1.891740798950195 -1.361084287054837e-06 L 17.20773124694824 -1.361084287054837e-06 L 17.20773124694824 82.344482421875 Z" transform="matrix(1,0,0,1,1.8917407989501953,0.0000013610842870548368)" fill="#d82616" fill-rule="evenodd"/></g><g transform="matrix(1,0,0,1,138.28184509277344,282.58428955078125)"><path d="M 82.344482421875 17.20773124694824 L -1.361084287054837e-06 17.20773124694824 L -1.361084287054837e-06 -1.891740798950195 L 82.344482421875 -1.891740798950195 L 82.344482421875 17.20773124694824 Z" transform="matrix(1,0,0,1,0.0000013610842870548368,1.8917407989501953)" fill="#d82616" fill-rule="evenodd"/></g><g transform="matrix(1,0,0,1,143.58824157714844,256.2681884765625)"><path d="M 12.16773128509521 70.39403533935547 L -1.337663650512695 56.88864517211914 L 56.88864517211914 -1.337663650512695 L 70.39403533935547 12.16773128509521 L 12.16773128509521 70.39403533935547 Z" transform="matrix(1,0,0,1,1.3376636505126953,1.3376636505126953)" fill="#d82616" fill-rule="evenodd"/></g><g transform="matrix(1,0,0,1,143.58824157714844,256.2681884765625)"><path d="M 56.88864517211914 70.39403533935547 L -1.337663650512695 12.16773128509521 L 12.16773128509521 -1.337663650512695 L 70.39403533935547 56.88864517211914 L 56.88864517211914 70.39403533935547 Z" transform="matrix(1,0,0,1,1.3376636505126953,1.3376636505126953)" fill="#d82616" fill-rule="evenodd"/></g></g><g transform="matrix(1,0,0,1,1641.7181396484375,668.9703369140625)"><g transform="matrix(1,0,0,1,155.14996337890625,250.96188354492188)"><path d="M 8.296331405639648 43.92433166503906 L -1.891740798950195 43.92433166503906 L -1.891740798950195 -1.361084287054837e-06 L 8.296331405639648 -1.361084287054837e-06 L 8.296331405639648 43.92433166503906 Z" transform="matrix(1,0,0,1,1.8917407989501953,0.0000013610842870548368)" fill="#d82616" fill-rule="evenodd"/></g><g transform="matrix(1,0,0,1,138.28184509277344,267.8299560546875)"><path d="M 43.92433166503906 8.296331405639648 L -1.361084287054837e-06 8.296331405639648 L -1.361084287054837e-06 -1.891740798950195 L 43.92433166503906 -1.891740798950195 L 43.92433166503906 8.296331405639648 Z" transform="matrix(1,0,0,1,0.0000013610842870548368,1.8917407989501953)" fill="#d82616" fill-rule="evenodd"/></g><g transform="matrix(1,0,0,1,141.11239624023438,253.79238891601562)"><path d="M 5.866406917572021 36.92557907104492 L -1.337663650512695 29.72151374816895 L 29.72151374816895 -1.337663650512695 L 36.92557907104492 5.866406917572021 L 5.866406917572021 36.92557907104492 Z" transform="matrix(1,0,0,1,1.3376636505126953,1.3376636505126953)" fill="#d82616" fill-rule="evenodd"/></g><g transform="matrix(1,0,0,1,141.11239624023438,253.79238891601562)"><path d="M 29.72151374816895 36.92557907104492 L -1.337663650512695 5.866406917572021 L 5.866406917572021 -1.337663650512695 L 36.92557907104492 29.72151374816895 L 29.72151374816895 36.92557907104492 Z" transform="matrix(1,0,0,1,1.3376636505126953,1.3376636505126953)" fill="#d82616" fill-rule="evenodd"/></g></g><g transform="matrix(1,0,0,1,1692.861572265625,579.7114868164062)"><g transform="matrix(1,0,0,1,159.7843017578125,250.96188354492188)"><path d="M 11.09539699554443 55.99208068847656 L -1.891740918159485 55.99208068847656 L -1.891740918159485 -1.361084287054837e-06 L 11.09539699554443 -1.361084287054837e-06 L 11.09539699554443 55.99208068847656 Z" transform="matrix(1,0,0,1,1.8917409181594849,0.0000013610842870548368)" fill="#d82616" fill-rule="evenodd"/></g><g transform="matrix(1,0,0,1,138.28184509277344,272.46429443359375)"><path d="M 55.99208068847656 11.09539699554443 L -1.361084287054837e-06 11.09539699554443 L -1.361084287054837e-06 -1.891740918159485 L 55.99208068847656 -1.891740918159485 L 55.99208068847656 11.09539699554443 Z" transform="matrix(1,0,0,1,0.0000013610842870548368,1.8917409181594849)" fill="#d82616" fill-rule="evenodd"/></g><g transform="matrix(1,0,0,1,141.8900604248047,254.57003784179688)"><path d="M 7.845650196075439 47.43800354003906 L -1.337663650512695 38.25469589233398 L 38.25469589233398 -1.337663650512695 L 47.43800354003906 7.845650196075439 L 7.845650196075439 47.43800354003906 Z" transform="matrix(1,0,0,1,1.3376636505126953,1.3376636505126953)" fill="#d82616" fill-rule="evenodd"/></g><g transform="matrix(1,0,0,1,141.8900604248047,254.57003784179688)"><path d="M 38.25469589233398 47.43800354003906 L -1.337663650512695 7.845650196075439 L 7.845650196075439 -1.337663650512695 L 47.43800354003906 38.25469589233398 L 38.25469589233398 47.43800354003906 Z" transform="matrix(1,0,0,1,1.3376636505126953,1.3376636505126953)" fill="#d82616" fill-rule="evenodd"/></g></g></g></svg>