<svg xmlns="http://www.w3.org/2000/svg" xmlns:xlink="http://www.w3.org/1999/xlink" width="285.76148986816406" height="300.2338371276856" viewBox="-451.8760070800781 65.75599670410156 285.76148986816406 300.2338371276856"><g transform="matrix(1,0,0,1,-451.8760070800781,65.75599670410156)"><g transform="matrix(1,0,0,1,98.75679016113281,0.5180139541625977)"><path d="M -295.1178588867188 231.4812164306641 L -304.65185546875 231.4812164306641 L -304.65185546875 168.6716003417969 L -383.6240234375 136.2466888427734 L -383.6240234375 66.11399841308594 L -374.0900268554688 66.11399841308594 L -374.0900268554688 129.85546875 L -295.1178588867188 162.2789306640625 L -295.1178588867188 231.4812164306641 Z" transform="matrix(1,0,0,1,383.6251220703125,-66.11399841308594)" fill="#464646" fill-rule="evenodd"/><path d="M -374.0900268554688 231.4812164306641 L -383.6240234375 231.4812164306641 L -383.6240234375 162.2789306640625 L -304.65185546875 129.85546875 L -304.65185546875 66.11399841308594 L -295.1178588867188 66.11399841308594 L -295.1178588867188 136.2466888427734 L -374.0900268554688 168.6716003417969 L -374.0900268554688 231.4812164306641 Z" transform="matrix(1,0,0,1,383.6251220703125,-66.11399841308594)" fill="#464646" fill-rule="evenodd"/><path d="M -295.1178588867188 300.8678588867188 L -304.65185546875 300.8678588867188 L -304.65185546875 238.0582580566406 L -383.6240234375 205.6347961425781 L -383.6240234375 135.5050048828125 L -374.0900268554688 135.5050048828125 L -374.0900268554688 199.2421264648438 L -295.1178588867188 231.6655883789062 L -295.1178588867188 300.8678588867188 Z" transform="matrix(1,0,0,1,383.6251220703125,-35.09903335571289)" fill="#464646" fill-rule="evenodd"/><path d="M -374.0900268554688 300.8678588867188 L -383.6240234375 300.8678588867188 L -383.6240234375 231.6670227050781 L -304.65185546875 199.2435607910156 L -304.65185546875 135.5050048828125 L -295.1178588867188 135.5050048828125 L -295.1178588867188 205.6333312988281 L -374.0900268554688 238.0567932128906 L -374.0900268554688 300.8678588867188 Z" transform="matrix(1,0,0,1,383.6251220703125,-35.09903335571289)" fill="#464646" fill-rule="evenodd"/><path d="M -304.5234375 304.7216796875 L -383.6247253417969 272.0888366699219 L -383.6247253417969 201.9590148925781 L -374.0907287597656 201.9590148925781 L -374.0907287597656 265.6961669921875 L -295.4906921386719 297.9668273925781 L -295.117919921875 304.58447265625" transform="matrix(1,0,0,1,383.624755859375,-5.39678430557251)" fill="#464646" fill-rule="evenodd"/><path d="M -383.6240234375 304.58447265625 L -383.624755859375 298.1210327148438 L -304.652587890625 265.6975708007812 L -304.652587890625 201.9590148925781 L -295.1185913085938 201.9590148925781 L -295.1185913085938 272.0873718261719 L -374.0900268554688 304.7832336425781" transform="matrix(1,0,0,1,383.624755859375,-5.39678430557251)" fill="#464646" fill-rule="evenodd"/></g><g transform="matrix(1,0,0,1,112.31444549560547,102.33765411376953)"><path d="M -347.1139526367188 197.8750305175781 L -356.1690063476562 197.8750305175781 L -356.1690063476562 136.4819946289062 L -347.1139526367188 136.4819946289062 L -347.1139526367188 197.8750305175781 Z" transform="matrix(1,0,0,1,382.3387145996094,-136.48199462890625)" fill="#464646" fill-rule="evenodd"/><path d="M -374.2550659179688 163.6230773925781 L -374.2550659179688 154.5679931640625 L -312.8619384765625 154.5679931640625 L -312.8619384765625 163.6230773925781 L -374.2550659179688 163.6230773925781 Z" transform="matrix(1,0,0,1,374.25506591796875,-128.39828491210938)" fill="#464646" fill-rule="evenodd"/><path d="M -363.9981079101562 190.1085357666016 L -370.3560180664062 183.6565399169922 L -326.6043090820312 140.5820007324219 L -320.250732421875 147.0339965820312 L -363.9981079101562 190.1085357666016 Z" transform="matrix(1,0,0,1,375.99774169921875,-134.6494598388672)" fill="#464646" fill-rule="evenodd"/><path d="M -327.0804748535156 190.486328125 L -370.155029296875 146.7389373779297 L -363.7030639648438 140.3809967041016 L -320.6284790039062 184.1327209472656 L -327.0804748535156 190.486328125 Z" transform="matrix(1,0,0,1,376.08758544921875,-134.7393035888672)" fill="#464646" fill-rule="evenodd"/></g><path d="M -345.86328125 211.1780090332031 C -333.0345458984375 211.1896057128906 -322.63525390625 221.5845336914062 -322.6207885742188 234.4147338867188 C -322.63232421875 247.2463684082031 -333.0316772460938 257.6456909179688 -345.86328125 257.6572570800781 C -358.6934814453125 257.6427612304688 -369.0899047851562 247.2449340820312 -369.1000366210938 234.4147338867188 C -369.0855712890625 221.5874328613281 -358.6906127929688 211.1924743652344 -345.86328125 211.1780090332031 Z M -345.86328125 248.5978393554688 C -338.0323486328125 248.5978393554688 -331.68310546875 242.2485656738281 -331.68310546875 234.4176330566406 C -331.68310546875 226.586669921875 -338.0323486328125 220.2374267578125 -345.86328125 220.2374267578125 C -353.6957397460938 220.2374267578125 -360.0435180664062 226.586669921875 -360.0435180664062 234.4176330566406 C -360.0333862304688 242.2442321777344 -353.68994140625 248.5862731933594 -345.86328125 248.5963745117188 L -345.86328125 248.5978393554688 Z" transform="matrix(1,0,0,1,488.8735656738281,-0.7582756876945496)" fill="#464646" fill-rule="evenodd"/><path d="M -347.5549926757812 104.1352996826172 L -365.6680297851562 91.53373718261719 L -360.49658203125 84.1007080078125 L -347.5101318359375 93.13551330566406 L -334.2646484375 84.07901000976562 L -329.1568603515625 91.55400085449219 L -347.5549926757812 104.1352996826172 Z" transform="matrix(1,0,0,1,490.40753173828125,-57.56636428833008)" fill="#464646" fill-rule="evenodd"/><g><path d="M -387.7630310058594 131.761962890625 L -397.2970275878906 131.761962890625 L -397.2970275878906 65.75599670410156 L -387.7630310058594 65.75599670410156 L -387.7630310058594 131.761962890625 Z" transform="matrix(1,0,0,1,476.2706298828125,-65.75599670410156)" fill="#464646" fill-rule="evenodd"/><path d="M -442.3410034179688 131.761962890625 L -451.8750610351562 131.761962890625 L -451.8750610351562 65.75599670410156 L -442.3410034179688 65.75599670410156 L -442.3410034179688 131.761962890625 Z" transform="matrix(1,0,0,1,451.87652587890625,-65.75599670410156)" fill="#464646" fill-rule="evenodd"/><path d="M -363.368896484375 231.8418884277344 L -372.9028930664062 231.8418884277344 L -372.9028930664062 169.0308074951172 L -451.8750610351562 136.6073455810547 L -451.8750610351562 66.47899627685547 L -442.3410034179688 66.47899627685547 L -442.3410034179688 130.2161254882812 L -363.368896484375 162.6396026611328 L -363.368896484375 231.8418884277344 Z" transform="matrix(1,0,0,1,451.87652587890625,-65.43284606933594)" fill="#464646" fill-rule="evenodd"/><path d="M -442.3420104980469 231.8418884277344 L -451.8760070800781 231.8418884277344 L -451.8760070800781 162.6396026611328 L -372.9039001464844 130.2161254882812 L -372.9039001464844 66.47899627685547 L -363.3699035644531 66.47899627685547 L -363.3699035644531 136.6073455810547 L -442.3420104980469 169.0308074951172 L -442.3420104980469 231.8418884277344 Z" transform="matrix(1,0,0,1,451.8760070800781,-65.43284606933594)" fill="#464646" fill-rule="evenodd"/><path d="M -363.368896484375 301.2308959960938 L -372.9028930664062 301.2308959960938 L -372.9028930664062 238.4212646484375 L -451.8750610351562 205.9905700683594 L -451.8750610351562 135.8680114746094 L -442.3410034179688 135.8680114746094 L -442.3410034179688 199.6051330566406 L -363.368896484375 232.0358276367188 L -363.368896484375 301.2308959960938 Z" transform="matrix(1,0,0,1,451.87652587890625,-34.418792724609375)" fill="#464646" fill-rule="evenodd"/><path d="M -442.3420104980469 301.2308959960938 L -451.8760070800781 301.2308959960938 L -451.8760070800781 232.0358276367188 L -372.9039001464844 199.6123657226562 L -372.9039001464844 135.8680114746094 L -363.3699035644531 135.8680114746094 L -363.3699035644531 205.9905700683594 L -442.3420104980469 238.4140319824219 L -442.3420104980469 301.2308959960938 Z" transform="matrix(1,0,0,1,451.8760070800781,-34.418792724609375)" fill="#464646" fill-rule="evenodd"/><path d="M -372.9026184082031 304.9271850585938 L -451.8747863769531 272.4964599609375 L -451.8747863769531 202.3739166259766 L -442.3407287597656 202.3739166259766 L -442.3407287597656 266.1110229492188 L -363.3685607910156 298.541748046875 L -363.3692932128906 303.8810424804688" transform="matrix(1,0,0,1,451.8765869140625,-4.693347930908203)" fill="#464646" fill-rule="evenodd"/><path d="M -451.8746032714844 303.881103515625 L -451.8760070800781 298.5418395996094 L -372.9039001464844 266.1183471679688 L -372.9039001464844 202.3739929199219 L -363.3699035644531 202.3739929199219 L -363.3699035644531 272.4965515136719 L -442.3420104980469 304.9200134277344" transform="matrix(1,0,0,1,451.8760070800781,-4.693291664123535)" fill="#464646" fill-rule="evenodd"/></g><g transform="matrix(1,0,0,1,13.558003425598145,2.4583914279937744)"><path d="M -415.3649291992188 128.8480529785156 L -424.4200439453125 128.8480529785156 L -424.4200439453125 67.45500183105469 L -415.3649291992188 67.45500183105469 L -415.3649291992188 128.8480529785156 Z" transform="matrix(1,0,0,1,450.5897521972656,-67.45500183105469)" fill="#464646" fill-rule="evenodd"/><path d="M -442.5060424804688 94.59607696533203 L -442.5060424804688 85.54100036621094 L -381.1129760742188 85.54100036621094 L -381.1129760742188 94.59607696533203 L -442.5060424804688 94.59607696533203 Z" transform="matrix(1,0,0,1,442.50604248046875,-59.37129211425781)" fill="#464646" fill-rule="evenodd"/><path d="M -432.2490844726562 121.0815200805664 L -438.6069946289062 114.6295394897461 L -394.8552856445312 71.55500030517578 L -388.501708984375 78.00699615478516 L -432.2490844726562 121.0815200805664 Z" transform="matrix(1,0,0,1,444.24871826171875,-65.62246704101562)" fill="#464646" fill-rule="evenodd"/><path d="M -395.3314819335938 121.4593276977539 L -438.406005859375 77.71194458007812 L -431.9540405273438 71.35400390625 L -388.8795166015625 115.1057205200195 L -395.3314819335938 121.4593276977539 Z" transform="matrix(1,0,0,1,444.33856201171875,-65.71231842041016)" fill="#464646" fill-rule="evenodd"/></g><path d="M -414.1143188476562 141.6380004882812 C -401.2855834960938 141.6495819091797 -390.8862915039062 152.0445404052734 -390.871826171875 164.8747406005859 C -390.8833618164062 177.7063751220703 -401.28271484375 188.1056671142578 -414.1143188476562 188.1172332763672 C -426.9445190429688 188.1027679443359 -437.3408813476562 177.7049102783203 -437.35107421875 164.8747406005859 C -437.3365478515625 152.0474395751953 -426.941650390625 141.6524658203125 -414.1143188476562 141.6380004882812 Z M -414.1143188476562 179.0578155517578 C -406.2833862304688 179.0578155517578 -399.9341430664062 172.7085571289062 -399.9341430664062 164.8776245117188 C -399.9341430664062 157.0466766357422 -406.2833862304688 150.6974182128906 -414.1143188476562 150.6974182128906 C -421.9466552734375 150.6974182128906 -428.2945556640625 157.0466766357422 -428.2945556640625 164.8776245117188 C -428.2843627929688 172.7042236328125 -421.94091796875 179.0462493896484 -414.1143188476562 179.0563812255859 L -414.1143188476562 179.0578155517578 Z" transform="matrix(1,0,0,1,458.3681640625,-31.83981704711914)" fill="#464646" fill-rule="evenodd"/><path d="M -415.8070068359375 244.8134307861328 L -433.9200439453125 232.2133026123047 L -428.7485961914062 224.7802886962891 L -415.7621459960938 233.8150787353516 L -402.5166625976562 224.7599945068359 L -397.406005859375 232.2350006103516 L -415.8070068359375 244.8134307861328 Z" transform="matrix(1,0,0,1,459.9016418457031,5.312343120574951)" fill="#464646" fill-rule="evenodd"/><g transform="matrix(1,0,0,1,197.25279235839844,0)"><path d="M -251.4399719238281 270.5399780273438 L -260.9739990234375 270.5399780273438 L -260.9739990234375 204.5340270996094 L -251.4399719238281 204.5340270996094 L -251.4399719238281 270.5399780273438 Z" transform="matrix(1,0,0,1,339.94866943359375,-3.727888345718384)" fill="#464646" fill-rule="evenodd"/><path d="M -306.0180053710938 270.5399780273438 L -315.552001953125 270.5399780273438 L -315.552001953125 204.5340270996094 L -306.0180053710938 204.5340270996094 L -306.0180053710938 270.5399780273438 Z" transform="matrix(1,0,0,1,315.55450439453125,-3.727888345718384)" fill="#464646" fill-rule="evenodd"/><path d="M -306.0180053710938 300.5078735351562 L -315.552001953125 300.5078735351562 L -315.552001953125 230.3795318603516 L -236.5798492431641 197.9560699462891 L -236.5798492431641 135.1450042724609 L -227.0458221435547 135.1450042724609 L -227.0458221435547 204.3458404541016 L -306.0180053710938 236.7693023681641 L -306.0180053710938 300.5078735351562 Z" transform="matrix(1,0,0,1,315.55450439453125,-34.74192428588867)" fill="#464646" fill-rule="evenodd"/><path d="M -227.0458221435547 300.5078735351562 L -236.5798492431641 300.5078735351562 L -236.5798492431641 236.7707366943359 L -315.552001953125 204.3458404541016 L -315.552001953125 135.1450042724609 L -306.0180053710938 135.1450042724609 L -306.0180053710938 197.9560699462891 L -227.0458221435547 230.3795318603516 L -227.0458221435547 300.5078735351562 Z" transform="matrix(1,0,0,1,315.55450439453125,-34.74192428588867)" fill="#464646" fill-rule="evenodd"/><path d="M -315.5516052246094 304.2091064453125 L -315.5536804199219 297.8019104003906 L -236.58154296875 265.3784484863281 L -236.5815734863281 201.6398620605469 L -227.0475769042969 201.6398620605469 L -227.0475769042969 271.7682189941406 L -306.0196838378906 304.191650390625" transform="matrix(1,0,0,1,315.55377197265625,-5.021418571472168)" fill="#464646" fill-rule="evenodd"/><path d="M -236.58154296875 304.1917114257812 L -315.5536499023438 271.7682495117188 L -315.5537414550781 201.6398620605469 L -306.0197448730469 201.6398620605469 L -306.0197448730469 265.3770141601562 L -227.0475463867188 297.8019104003906 L -227.0454406738281 304.2091064453125" transform="matrix(1,0,0,1,315.5537414550781,-5.021418571472168)" fill="#464646" fill-rule="evenodd"/><path d="M -306.0180053710938 231.1116333007812 L -315.552001953125 231.1116333007812 L -315.552001953125 160.9891052246094 L -236.5798492431641 128.5656280517578 L -236.5798492431641 65.75599670410156 L -227.0458221435547 65.75599670410156 L -227.0458221435547 134.9568481445312 L -306.0180053710938 167.3817749023438 L -306.0180053710938 231.1116333007812 Z" transform="matrix(1,0,0,1,315.55450439453125,-65.75599670410156)" fill="#464646" fill-rule="evenodd"/><path d="M -227.0458221435547 231.1116333007812 L -236.5798492431641 231.1116333007812 L -236.5798492431641 167.3817749023438 L -315.552001953125 134.9568481445312 L -315.552001953125 65.75599670410156 L -306.0180053710938 65.75599670410156 L -306.0180053710938 128.5656280517578 L -227.0458221435547 160.9891052246094 L -227.0458221435547 231.1116333007812 Z" transform="matrix(1,0,0,1,315.55450439453125,-65.75599670410156)" fill="#464646" fill-rule="evenodd"/></g><g transform="matrix(1,0,0,1,210.81185913085938,202.96066284179688)"><path d="M -279.0419311523438 267.4160461425781 L -288.0969848632812 267.4160461425781 L -288.0969848632812 206.0230102539062 L -279.0419311523438 206.0230102539062 L -279.0419311523438 267.4160461425781 Z" transform="matrix(1,0,0,1,314.2667236328125,-206.02301025390625)" fill="#464646" fill-rule="evenodd"/><path d="M -244.7899627685547 233.1640930175781 L -306.1830444335938 233.1640930175781 L -306.1830444335938 224.1090087890625 L -244.7899627685547 224.1090087890625 L -244.7899627685547 233.1640930175781 Z" transform="matrix(1,0,0,1,306.18304443359375,-197.93930053710938)" fill="#464646" fill-rule="evenodd"/><path d="M -258.5322875976562 259.6495361328125 L -302.2839965820312 216.5749969482422 L -295.930419921875 210.1230010986328 L -252.1786956787109 253.1975555419922 L -258.5322875976562 259.6495361328125 Z" transform="matrix(1,0,0,1,307.92572021484375,-204.19046020507812)" fill="#464646" fill-rule="evenodd"/><path d="M -295.6310119628906 260.0273132324219 L -302.0830078125 253.6737060546875 L -259.0084533691406 209.9219970703125 L -252.5564880371094 216.2756042480469 L -295.6310119628906 260.0273132324219 Z" transform="matrix(1,0,0,1,308.01556396484375,-204.28030395507812)" fill="#464646" fill-rule="evenodd"/></g><path d="M -277.0582580566406 73.08399963378906 C -264.2295227050781 73.0955810546875 -253.8302612304688 83.49053955078125 -253.8157653808594 96.32072448730469 C -253.8273620605469 109.1523590087891 -264.2266540527344 119.5516510009766 -277.0582580566406 119.563232421875 C -289.8884582519531 119.5487670898438 -300.2848815917969 109.1509094238281 -300.2950134277344 96.32072448730469 C -300.2805480957031 83.49342346191406 -289.8855895996094 73.09848022460938 -277.0582580566406 73.08399963378906 Z M -277.0582580566406 110.5038146972656 C -269.2273559570312 110.5038146972656 -262.8780822753906 104.1545562744141 -262.8780822753906 96.3236083984375 C -262.8780822753906 88.49267578125 -269.2273559570312 82.14341735839844 -277.0582580566406 82.14341735839844 C -284.8906555175781 82.14341735839844 -291.2384948730469 88.49267578125 -291.2384948730469 96.3236083984375 C -291.2283325195312 104.1502227783203 -284.8848571777344 110.4922332763672 -277.0582580566406 110.5023651123047 L -277.0582580566406 110.5038146972656 Z" transform="matrix(1,0,0,1,519.6265869140625,-62.480674743652344)" fill="#464646" fill-rule="evenodd"/><path d="M -278.262939453125 173.4608764648438 L -296.3760375976562 160.8593139648438 L -291.20458984375 153.42626953125 L -278.2180786132812 162.4610900878906 L -264.97265625 153.406005859375 L -259.8619384765625 160.8810119628906 L -278.262939453125 173.4608764648438 Z" transform="matrix(1,0,0,1,521.3782348632812,-26.57999610900879)" fill="#464646" fill-rule="evenodd"/><ellipse cx="5.530279159545898" cy="5.530279159545898" rx="5.530279159545898" ry="5.530279159545898" transform="matrix(1,0,0,1,88.10070037841797,78.19647216796875)" fill="#464646" fill-rule="evenodd"/><path d="M -385.4042053222656 119.6759948730469 C -382.2527770996094 119.674560546875 -379.6973571777344 122.2298889160156 -379.6959533691406 125.3813629150391 L -379.6959533691406 125.3828125 C -379.6959533691406 128.5342864990234 -382.2498474121094 131.0896148681641 -385.4013366699219 131.091064453125 L -385.4042053222656 131.091064453125 C -388.5556945800781 131.091064453125 -391.1109924316406 128.5357360839844 -391.1109924316406 125.3842620849609 L -391.1109924316406 125.3828125 C -391.1109924316406 122.2313385009766 -388.5556945800781 119.6759948730469 -385.4042053222656 119.6759948730469 L -385.4042053222656 119.6759948730469 Z M -385.4042053222656 130.7380065917969 C -382.4480285644531 130.7380065917969 -380.0504455566406 128.3403930664062 -380.0504455566406 125.3842620849609 C -380.0504455566406 122.4266662597656 -382.4480285644531 120.0305023193359 -385.4042053222656 120.0305023193359 C -388.3617858886719 120.0305023193359 -390.7579650878906 122.4266662597656 -390.7579650878906 125.3842620849609 L -390.7579650878906 125.3842620849609 C -390.7579650878906 128.3403930664062 -388.3617858886719 130.7380065917969 -385.4042053222656 130.7380065917969 Z" transform="matrix(1,0,0,1,479.0354919433594,-41.65593338012695)" fill="#464646" fill-rule="evenodd"/><ellipse cx="5.530279159545898" cy="5.530279159545898" rx="5.530279159545898" ry="5.530279159545898" transform="matrix(1,0,0,1,186.72833251953125,77.67267608642578)" fill="#464646" fill-rule="evenodd"/><path d="M -317.2421875 119.3140106201172 C -314.0906982421875 119.3125610351562 -311.535400390625 121.8678894042969 -311.533935546875 125.0193634033203 L -311.533935546875 125.0208129882812 C -311.533935546875 128.1722869873047 -314.0878295898438 130.7276306152344 -317.2393188476562 130.7290649414062 L -317.2421875 130.7290649414062 C -320.3936767578125 130.7290649414062 -322.9490356445312 128.1737365722656 -322.9490356445312 125.0222625732422 L -322.9490356445312 125.0208129882812 C -322.9490356445312 121.8693389892578 -320.3936767578125 119.3140106201172 -317.2421875 119.3140106201172 L -317.2421875 119.3140106201172 Z M -317.2421875 130.3760070800781 C -314.2860717773438 130.3760070800781 -311.888427734375 127.9783935546875 -311.888427734375 125.0222625732422 C -311.888427734375 122.0646667480469 -314.2860717773438 119.6685028076172 -317.2421875 119.6685028076172 C -320.1998291015625 119.6685028076172 -322.595947265625 122.0646667480469 -322.595947265625 125.0222625732422 L -322.595947265625 125.0222625732422 C -322.595947265625 127.9783935546875 -320.1998291015625 130.3760070800781 -317.2421875 130.3760070800781 Z" transform="matrix(1,0,0,1,509.5011901855469,-41.8177490234375)" fill="#464646" fill-rule="evenodd"/><ellipse cx="5.530279159545898" cy="5.530279159545898" rx="5.530279159545898" ry="5.530279159545898" transform="matrix(1,0,0,1,187.81068420410156,177.55340576171875)" fill="#464646" fill-rule="evenodd"/><path d="M -316.4942016601562 188.3419799804688 C -313.3427429199219 188.3405456542969 -310.7873840332031 190.8958740234375 -310.7859802246094 194.04736328125 L -310.7859802246094 194.0487976074219 C -310.7859802246094 197.2002868652344 -313.33984375 199.755615234375 -316.4913330078125 199.757080078125 L -316.4942016601562 199.757080078125 C -319.6456909179688 199.757080078125 -322.2010192871094 197.2017211914062 -322.2010192871094 194.0502624511719 L -322.2010192871094 194.0487976074219 C -322.2010192871094 190.8973388671875 -319.6456909179688 188.3419799804688 -316.4942016601562 188.3419799804688 L -316.4942016601562 188.3419799804688 Z M -316.4942016601562 199.4039916992188 C -313.5380554199219 199.4039916992188 -311.1404724121094 197.0064086914062 -311.1404724121094 194.0502624511719 C -311.1404724121094 191.0926513671875 -313.5380554199219 188.6965026855469 -316.4942016601562 188.6965026855469 C -319.4517822265625 188.6965026855469 -321.8479614257812 191.0926513671875 -321.8479614257812 194.0502624511719 L -321.8479614257812 194.0502624511719 C -321.8479614257812 197.0064086914062 -319.4517822265625 199.4039916992188 -316.4942016601562 199.4039916992188 Z" transform="matrix(1,0,0,1,509.83551025390625,-10.965010643005371)" fill="#464646" fill-rule="evenodd"/><ellipse cx="5.530279159545898" cy="5.530279159545898" rx="5.530279159545898" ry="5.530279159545898" transform="matrix(1,0,0,1,87.14857482910156,178.07574462890625)" fill="#464646" fill-rule="evenodd"/><path d="M -386.062255859375 188.7030029296875 C -382.9107055664062 188.7015686035156 -380.3554077148438 191.2568969726562 -380.3539428710938 194.4083557128906 L -380.3539428710938 194.4098205566406 C -380.3539428710938 197.561279296875 -382.9078369140625 200.1166381835938 -386.059326171875 200.1180725097656 L -386.062255859375 200.1180725097656 C -389.2136840820312 200.1180725097656 -391.76904296875 197.562744140625 -391.76904296875 194.4112548828125 L -391.76904296875 194.4098205566406 C -391.76904296875 191.2583312988281 -389.2136840820312 188.7030029296875 -386.062255859375 188.7030029296875 L -386.062255859375 188.7030029296875 Z M -386.062255859375 199.7650146484375 C -383.1060791015625 199.7650146484375 -380.7084350585938 197.3674011230469 -380.7084350585938 194.4112548828125 C -380.7084350585938 191.4536743164062 -383.1060791015625 189.0574951171875 -386.062255859375 189.0574951171875 C -389.019775390625 189.0574951171875 -391.4159545898438 191.4536743164062 -391.4159545898438 194.4112548828125 L -391.4159545898438 194.4112548828125 C -391.4159545898438 197.3674011230469 -389.019775390625 199.7650146484375 -386.062255859375 199.7650146484375 Z" transform="matrix(1,0,0,1,478.7414245605469,-10.803669929504395)" fill="#464646" fill-rule="evenodd"/></g></svg>