<svg xmlns="http://www.w3.org/2000/svg" xmlns:xlink="http://www.w3.org/1999/xlink" width="50.98899045409962" height="51.41828075873582" viewBox="1809 36.29085620415481 50.98899045409962 51.41828075873582"><g transform="matrix(1,0,0,1,1809,36.290863037109375)"><path d="M 801.3750610351562 355.9276123046875 C 803.4163818359375 353.8795776367188 805.4619750976562 351.8298950195312 807.5042114257812 349.777099609375 C 809.5450439453125 347.7257690429688 811.58251953125 345.671142578125 813.609375 343.6298217773438 C 825.2281494140625 351.8255004882812 838.8492431640625 346.7060546875 844.5113525390625 337.9507446289062 C 850.3734741210938 328.8864135742188 848.759521484375 316.9713745117188 840.5308837890625 309.7725830078125 C 832.4567260742188 302.7088317871094 820.2850952148438 302.763916015625 812.1513061523438 309.8853149414062 C 803.987548828125 317.0330200195312 802.0042724609375 329.691650390625 809.3822021484375 339.5076293945312 C 805.2696533203125 343.5363159179688 801.1399536132812 347.5816650390625 797.0235595703125 351.6140747070312 C 798.547607421875 353.1248168945312 799.924560546875 354.489501953125 801.3750610351562 355.9276123046875 Z M 810.796142578125 326.0918579101562 C 810.7948608398438 317.4854125976562 817.77685546875 310.432861328125 826.3164672851562 310.4143676757812 C 835.0119018554688 310.3955383300781 842.0835571289062 317.4793701171875 842.0535278320312 326.1784362792969 C 842.0242309570312 334.6763916015625 834.9707641601562 341.68994140625 826.4526977539062 341.6912841796875 C 817.773193359375 341.6925659179688 810.7974243164062 334.7422485351562 810.796142578125 326.0918579101562 Z" transform="matrix(1,0,0,1,-797.0235595703125,-304.50933837890625)" fill="#d82616" fill-rule="evenodd"/></g></svg>