<svg xmlns="http://www.w3.org/2000/svg" xmlns:xlink="http://www.w3.org/1999/xlink" width="1891.88955824585" height="228.83242171020538" viewBox="14.591407775878906 1097.2837829589844 1891.88955824585 228.83242171020538"><g><g transform="matrix(1,0,0,1,-123.69043731689453,899.575927734375)"><g transform="matrix(1,0,0,1,173.02174377441406,250.96188354492188)"><path d="M 19.09060096740723 90.46217346191406 L -1.891741037368774 90.46217346191406 L -1.891741037368774 -1.361084287054837e-06 L 19.09060096740723 -1.361084287054837e-06 L 19.09060096740723 90.46217346191406 Z" transform="matrix(1,0,0,1,1.8917410373687744,0.0000013610842870548368)" fill="#ffffff" fill-rule="evenodd"/></g><g transform="matrix(1,0,0,1,138.28184509277344,285.7016906738281)"><path d="M 90.46217346191406 19.09060096740723 L -1.361084287054837e-06 19.09060096740723 L -1.361084287054837e-06 -1.891741037368774 L 90.46217346191406 -1.891741037368774 L 90.46217346191406 19.09060096740723 Z" transform="matrix(1,0,0,1,0.0000013610842870548368,1.8917410373687744)" fill="#ffffff" fill-rule="evenodd"/></g><g transform="matrix(1,0,0,1,144.11135864257812,256.79132080078125)"><path d="M 13.49912166595459 77.46549987792969 L -1.337663769721985 62.62872314453125 L 62.62872314453125 -1.337663769721985 L 77.46549987792969 13.49912166595459 L 13.49912166595459 77.46549987792969 Z" transform="matrix(1,0,0,1,1.3376637697219849,1.3376637697219849)" fill="#ffffff" fill-rule="evenodd"/></g><g transform="matrix(1,0,0,1,144.11135864257812,256.79132080078125)"><path d="M 62.62872314453125 77.46549987792969 L -1.337663769721985 13.49912166595459 L 13.49912166595459 -1.337663769721985 L 77.46549987792969 62.62872314453125 L 62.62872314453125 77.46549987792969 Z" transform="matrix(1,0,0,1,1.3376637697219849,1.3376637697219849)" fill="#ffffff" fill-rule="evenodd"/></g></g><g transform="matrix(1,0,0,1,-84.69048309326172,1026.229736328125)"><g transform="matrix(1,0,0,1,157.0701904296875,250.96188354492188)"><path d="M 9.456121444702148 48.92458343505859 L -1.891741037368774 48.92458343505859 L -1.891741037368774 -1.361084287054837e-06 L 9.456121444702148 -1.361084287054837e-06 L 9.456121444702148 48.92458343505859 Z" transform="matrix(1,0,0,1,1.8917410373687744,0.0000013610842870548368)" fill="#ffffff" fill-rule="evenodd"/></g><g transform="matrix(1,0,0,1,138.28184509277344,269.75018310546875)"><path d="M 48.92458343505859 9.456121444702148 L -1.361084287054837e-06 9.456121444702148 L -1.361084287054837e-06 -1.891741037368774 L 48.92458343505859 -1.891741037368774 L 48.92458343505859 9.456121444702148 Z" transform="matrix(1,0,0,1,0.0000013610842870548368,1.8917410373687744)" fill="#ffffff" fill-rule="evenodd"/></g><g transform="matrix(1,0,0,1,141.4346160888672,254.11460876464844)"><path d="M 6.686502456665039 41.28138732910156 L -1.337663769721985 33.25722503662109 L 33.25722503662109 -1.337663769721985 L 41.28138732910156 6.686502456665039 L 6.686502456665039 41.28138732910156 Z" transform="matrix(1,0,0,1,1.3376637697219849,1.3376637697219849)" fill="#ffffff" fill-rule="evenodd"/></g><g transform="matrix(1,0,0,1,141.4346160888672,254.11460876464844)"><path d="M 33.25722503662109 41.28138732910156 L -1.337663769721985 6.686502456665039 L 6.686502456665039 -1.337663769721985 L 41.28138732910156 33.25722503662109 L 33.25722503662109 41.28138732910156 Z" transform="matrix(1,0,0,1,1.3376637697219849,1.3376637697219849)" fill="#ffffff" fill-rule="evenodd"/></g></g><g transform="matrix(1,0,0,1,1703.156005859375,846.3218994140625)"><g transform="matrix(1,0,0,1,163.26014709472656,250.96188354492188)"><path d="M 13.194748878479 65.04311370849609 L -1.891740798950195 65.04311370849609 L -1.891740798950195 -1.361084287054837e-06 L 13.194748878479 -1.361084287054837e-06 L 13.194748878479 65.04311370849609 Z" transform="matrix(1,0,0,1,1.8917407989501953,0.0000013610842870548368)" fill="#ffffff" fill-rule="evenodd"/></g><g transform="matrix(1,0,0,1,138.28184509277344,275.94012451171875)"><path d="M 65.04311370849609 13.194748878479 L -1.361084287054837e-06 13.194748878479 L -1.361084287054837e-06 -1.891740798950195 L 65.04311370849609 -1.891740798950195 L 65.04311370849609 13.194748878479 Z" transform="matrix(1,0,0,1,0.0000013610842870548368,1.8917407989501953)" fill="#ffffff" fill-rule="evenodd"/></g><g transform="matrix(1,0,0,1,142.4733123779297,255.15330505371094)"><path d="M 9.330117225646973 55.3225212097168 L -1.337663650512695 44.65473937988281 L 44.65473937988281 -1.337663650512695 L 55.3225212097168 9.330117225646973 L 9.330117225646973 55.3225212097168 Z" transform="matrix(1,0,0,1,1.3376636505126953,1.3376636505126953)" fill="#ffffff" fill-rule="evenodd"/></g><g transform="matrix(1,0,0,1,142.4733123779297,255.15330505371094)"><path d="M 44.65473937988281 55.3225212097168 L -1.337663650512695 9.330117225646973 L 9.330117225646973 -1.337663650512695 L 55.3225212097168 44.65473937988281 L 44.65473937988281 55.3225212097168 Z" transform="matrix(1,0,0,1,1.3376636505126953,1.3376636505126953)" fill="#ffffff" fill-rule="evenodd"/></g></g><g transform="matrix(1,0,0,1,1641.7181396484375,904.3218994140625)"><g transform="matrix(1,0,0,1,156.2258758544922,250.96188354492188)"><path d="M 8.946161270141602 46.72597122192383 L -1.891740798950195 46.72597122192383 L -1.891740798950195 -1.361084287054837e-06 L 8.946161270141602 -1.361084287054837e-06 L 8.946161270141602 46.72597122192383 Z" transform="matrix(1,0,0,1,1.8917407989501953,0.0000013610842870548368)" fill="#ffffff" fill-rule="evenodd"/></g><g transform="matrix(1,0,0,1,138.28184509277344,268.9058532714844)"><path d="M 46.72597122192383 8.946161270141602 L -1.361084287054837e-06 8.946161270141602 L -1.361084287054837e-06 -1.891740798950195 L 46.72597122192383 -1.891740798950195 L 46.72597122192383 8.946161270141602 Z" transform="matrix(1,0,0,1,0.0000013610842870548368,1.8917407989501953)" fill="#ffffff" fill-rule="evenodd"/></g><g transform="matrix(1,0,0,1,141.29293823242188,253.97293090820312)"><path d="M 6.325906276702881 39.36614227294922 L -1.337663650512695 31.70256996154785 L 31.70256996154785 -1.337663650512695 L 39.36614227294922 6.325906276702881 L 6.325906276702881 39.36614227294922 Z" transform="matrix(1,0,0,1,1.3376636505126953,1.3376636505126953)" fill="#ffffff" fill-rule="evenodd"/></g><g transform="matrix(1,0,0,1,141.29293823242188,253.97293090820312)"><path d="M 31.70256996154785 39.36614227294922 L -1.337663650512695 6.325906276702881 L 6.325906276702881 -1.337663650512695 L 39.36614227294922 31.70256996154785 L 31.70256996154785 39.36614227294922 Z" transform="matrix(1,0,0,1,1.3376636505126953,1.3376636505126953)" fill="#ffffff" fill-rule="evenodd"/></g></g></g></svg>