<svg xmlns="http://www.w3.org/2000/svg" xmlns:xlink="http://www.w3.org/1999/xlink" width="104.23877573013306" height="97.69378662109374" viewBox="45.2347412109375 19.24893569946289 104.23877573013306 97.69378662109374"><g transform="matrix(1,0,0,1,45.2347412109375,19.24893569946289)"><path d="M 107.8044738769531 63.68405914306641 C 107.8044738769531 51.33042144775391 100.7871475219727 40.29840087890625 89.79179382324219 33.03026580810547 L 89.79179382324219 22.14345169067383 L 94.93744659423828 22.14345169067383 C 96.44094848632812 22.14345169067383 97.65842437744141 20.92597961425781 97.65842437744141 19.42394828796387 L 97.65842437744141 14.20350456237793 C 97.65842437744141 12.70147228240967 96.44094848632812 11.48400115966797 94.93744659423828 11.48400115966797 L 22.59339714050293 11.48400115966797 C 21.09136772155762 11.48400115966797 19.87242698669434 12.70147228240967 19.87242698669434 14.20350456237793 L 19.87242698669434 19.42394828796387 C 19.87242698669434 20.92597961425781 21.09136772155762 22.14345169067383 22.59339714050293 22.14345169067383 L 27.44567108154297 22.14345169067383 L 27.44567108154297 33.03026580810547 C 16.44884300231934 40.29840087890625 9.433001518249512 51.33042144775391 9.433001518249512 63.68405914306641 C 9.433001518249512 77.50306701660156 18.21491050720215 89.66749572753906 31.52639007568359 96.75960540771484 L 31.52639007568359 103.3104705810547 L 86.00444793701172 103.3104705810547 L 86.00444793701172 96.60411834716797 C 99.15163421630859 89.489990234375 107.8044738769531 77.40185546875 107.8044738769531 63.68405914306641 Z" transform="matrix(1,0,0,1,-6.499343395233154,-8.550341606140137)" fill="#ffffff" fill-rule="evenodd"/><path d="M 89.87174987792969 107.1777877807617 L 29.52639198303223 107.1777877807617 L 29.52639198303223 99.42100524902344 C 23.14258193969727 95.74319458007812 17.79801368713379 90.89913177490234 13.99843311309814 85.33180236816406 C 11.88842582702637 82.24013519287109 10.25887584686279 78.93882751464844 9.155037879943848 75.51961517333984 C 8.012378692626953 71.98011016845703 7.433000087738037 68.31220245361328 7.433000087738037 64.61772155761719 C 7.433000087738037 61.31149291992188 7.898063659667969 58.01768112182617 8.815281867980957 54.82777404785156 C 9.704023361206055 51.73690414428711 11.02248764038086 48.72431182861328 12.73404312133789 45.8736572265625 C 15.79488945007324 40.77571105957031 20.17009353637695 36.14878463745117 25.4456672668457 32.41658782958984 L 25.4456672668457 26.01077461242676 L 23.52705764770508 26.01077461242676 C 20.40908432006836 26.01077461242676 17.8724308013916 23.47478103637695 17.8724308013916 20.35761260986328 L 17.8724308013916 15.13716220855713 C 17.8724308013916 12.01999092102051 20.40908432006836 9.484001159667969 23.52705764770508 9.484001159667969 L 95.87108612060547 9.484001159667969 C 98.98905944824219 9.484001159667969 101.5257263183594 12.01999092102051 101.5257263183594 15.13716220855713 L 101.5257263183594 20.35761260986328 C 101.5257263183594 23.47478103637695 98.98905944824219 26.01077461242676 95.87108612060547 26.01077461242676 L 93.65911102294922 26.01077461242676 L 93.65911102294922 32.41670227050781 C 98.93426513671875 36.14903259277344 103.3092880249023 40.77590179443359 106.3701629638672 45.87358093261719 C 108.0818481445312 48.72430038452148 109.4004058837891 51.73688888549805 110.2892684936523 54.82767105102539 C 111.2066421508789 58.01768112182617 111.6717758178711 61.31153106689453 111.6717758178711 64.61772155761719 C 111.6717758178711 78.4298095703125 103.5573501586914 91.26468658447266 89.87174987792969 99.25358581542969 L 89.87174987792969 107.1777877807617 Z M 35.39370346069336 101.3104705810547 L 84.00442504882812 101.3104705810547 L 84.00442504882812 95.78961181640625 L 85.54193878173828 94.95764923095703 C 98.22968292236328 88.09214019775391 105.8044662475586 76.75010681152344 105.8044662475586 64.61772155761719 C 105.8044662475586 53.70617294311523 99.71873474121094 43.42530059814453 89.10772705078125 36.4112434387207 L 87.79179382324219 35.5413703918457 L 87.79179382324219 20.14345550537109 L 95.65840148925781 20.14345550537109 L 95.65840148925781 15.35131931304932 L 23.73974609375 15.35131931304932 L 23.73974609375 20.14345550537109 L 31.31298637390137 20.14345550537109 L 31.31298637390137 35.54148864746094 L 29.99688911437988 36.41133499145508 C 19.38598442077637 43.42440032958984 13.30031967163086 53.70523452758789 13.30031967163086 64.61772155761719 C 13.30031967163086 76.85525512695312 20.97850799560547 88.25204467773438 33.83947372436523 95.10415649414062 L 35.39370346069336 95.93221282958984 L 35.39370346069336 101.3104705810547 Z" transform="matrix(1,0,0,1,-7.433000087738037,-9.484001159667969)" fill="#161615" fill-rule="evenodd"/><g transform="matrix(1,0,0,1,13.149410247802734,43.971649169921875)"><g transform="matrix(1,0,0,1,6.713399887084961,1.27950711193602e-15)"><path d="M 2.90048885345459 17.82729148864746 L -1.500000238418579 17.82729148864746 L -1.500000238418579 1.313629013566242e-06 L 2.90048885345459 1.313629013566242e-06 L 2.90048885345459 17.82729148864746 Z" transform="matrix(1,0,0,1,1.500000238418579,-0.000001313629013566242)" fill="#cd0d0f" fill-rule="evenodd"/></g><g transform="matrix(1,0,0,1,-5.281784056887333e-16,6.713403224945068)"><path d="M 17.82729148864746 2.90048885345459 L 1.313629013566242e-06 2.90048885345459 L 1.313629013566242e-06 -1.500000238418579 L 17.82729148864746 -1.500000238418579 L 17.82729148864746 2.90048885345459 Z" transform="matrix(1,0,0,1,-0.000001313629013566242,1.500000238418579)" fill="#cd0d0f" fill-rule="evenodd"/></g><g transform="matrix(1,0,0,1,1.0549424886703491,1.0549452304840088)"><path d="M 2.050959587097168 14.65674877166748 L -1.060655355453491 11.54513359069824 L 11.54513359069824 -1.060655355453491 L 14.65674877166748 2.050959587097168 L 2.050959587097168 14.65674877166748 Z" transform="matrix(1,0,0,1,1.0606553554534912,1.0606553554534912)" fill="#cd0d0f" fill-rule="evenodd"/></g><g transform="matrix(1,0,0,1,1.0549424886703491,1.0549452304840088)"><path d="M 11.54513359069824 14.65674877166748 L -1.060655355453491 2.050959587097168 L 2.050959587097168 -1.060655355453491 L 14.65674877166748 11.54513359069824 L 11.54513359069824 14.65674877166748 Z" transform="matrix(1,0,0,1,1.0606553554534912,1.0606553554534912)" fill="#cd0d0f" fill-rule="evenodd"/></g></g><g transform="matrix(1,0,0,1,43.20549392700195,43.971649169921875)"><g transform="matrix(1,0,0,1,6.713403224945068,1.27950711193602e-15)"><path d="M 2.90048885345459 17.82729148864746 L -1.500000238418579 17.82729148864746 L -1.500000238418579 1.313629013566242e-06 L 2.90048885345459 1.313629013566242e-06 L 2.90048885345459 17.82729148864746 Z" transform="matrix(1,0,0,1,1.500000238418579,-0.000001313629013566242)" fill="#cd0d0f" fill-rule="evenodd"/></g><g transform="matrix(1,0,0,1,1.2795046767162966e-15,6.713403224945068)"><path d="M 17.82729148864746 2.90048885345459 L 1.313629013566242e-06 2.90048885345459 L 1.313629013566242e-06 -1.500000238418579 L 17.82729148864746 -1.500000238418579 L 17.82729148864746 2.90048885345459 Z" transform="matrix(1,0,0,1,-0.000001313629013566242,1.500000238418579)" fill="#cd0d0f" fill-rule="evenodd"/></g><g transform="matrix(1,0,0,1,1.0549452304840088,1.0549452304840088)"><path d="M 2.050959587097168 14.65674877166748 L -1.060655355453491 11.54513359069824 L 11.54513359069824 -1.060655355453491 L 14.65674877166748 2.050959587097168 L 2.050959587097168 14.65674877166748 Z" transform="matrix(1,0,0,1,1.0606553554534912,1.0606553554534912)" fill="#cd0d0f" fill-rule="evenodd"/></g><g transform="matrix(1,0,0,1,1.0549452304840088,1.0549452304840088)"><path d="M 11.54513359069824 14.65674877166748 L -1.060655355453491 2.050959587097168 L 2.050959587097168 -1.060655355453491 L 14.65674877166748 11.54513359069824 L 11.54513359069824 14.65674877166748 Z" transform="matrix(1,0,0,1,1.0606553554534912,1.0606553554534912)" fill="#cd0d0f" fill-rule="evenodd"/></g></g><g transform="matrix(1,0,0,1,73.204345703125,43.971649169921875)"><g transform="matrix(1,0,0,1,6.713403224945068,1.27950711193602e-15)"><path d="M 2.90048885345459 17.82729148864746 L -1.500000238418579 17.82729148864746 L -1.500000238418579 1.313629013566242e-06 L 2.90048885345459 1.313629013566242e-06 L 2.90048885345459 17.82729148864746 Z" transform="matrix(1,0,0,1,1.500000238418579,-0.000001313629013566242)" fill="#cd0d0f" fill-rule="evenodd"/></g><g transform="matrix(1,0,0,1,6.2096091242331165e-15,6.713403224945068)"><path d="M 17.82729148864746 2.90048885345459 L 1.313629013566242e-06 2.90048885345459 L 1.313629013566242e-06 -1.500000238418579 L 17.82729148864746 -1.500000238418579 L 17.82729148864746 2.90048885345459 Z" transform="matrix(1,0,0,1,-0.000001313629013566242,1.500000238418579)" fill="#cd0d0f" fill-rule="evenodd"/></g><g transform="matrix(1,0,0,1,1.0549452304840088,1.0549452304840088)"><path d="M 2.050959587097168 14.65674877166748 L -1.060655355453491 11.54513359069824 L 11.54513359069824 -1.060655355453491 L 14.65674877166748 2.050959587097168 L 2.050959587097168 14.65674877166748 Z" transform="matrix(1,0,0,1,1.0606553554534912,1.0606553554534912)" fill="#cd0d0f" fill-rule="evenodd"/></g><g transform="matrix(1,0,0,1,1.0549452304840088,1.0549452304840088)"><path d="M 11.54513359069824 14.65674877166748 L -1.060655355453491 2.050959587097168 L 2.050959587097168 -1.060655355453491 L 14.65674877166748 11.54513359069824 L 11.54513359069824 14.65674877166748 Z" transform="matrix(1,0,0,1,1.0606553554534912,1.0606553554534912)" fill="#cd0d0f" fill-rule="evenodd"/></g></g></g></svg>