<svg xmlns="http://www.w3.org/2000/svg" xmlns:xlink="http://www.w3.org/1999/xlink" width="90.53247308731073" height="90.53249168395992" viewBox="54.23791503906256 23.50473213195805 90.53247308731073 90.53249168395992"><g transform="matrix(1,0,0,1,54.2379150390625,23.504732131958008)"><rect x="0" y="0" width="86.01792907714844" height="86.01792907714844" transform="matrix(1,0,0,1,2.2691445350646973,2.5070087909698486)" fill="#ffffff" fill-rule="evenodd"/><path d="M -1 -1 L 87.26020050048828 -1 L 87.26020050048828 87.26020050048828 L -1 87.26020050048828 L -1 -1 Z M 85.0179443359375 1.242261052131653 L 1.242261052131653 1.242261052131653 L 1.242261052131653 85.0179443359375 L 85.0179443359375 85.0179443359375 L 85.0179443359375 1.242261052131653 Z" transform="matrix(1,0,0,1,2.148009777069092,2.385873794555664)" fill="#161615" fill-rule="evenodd"/><g transform="matrix(1,0,0,1,57.108856201171875,56.509883880615234)"><g transform="matrix(1,0,0,1,7.424888610839844,-5.198608068444921e-16)"><path d="M 2.484522104263306 19.33432388305664 L -2 19.33432388305664 L -2 2.008056583235884e-07 L 2.484522104263306 2.008056583235884e-07 L 2.484522104263306 19.33432388305664 Z" transform="matrix(1,0,0,1,2,-2.0080565832358843e-7)" fill="#cd0d0f" fill-rule="evenodd"/></g><g transform="matrix(1,0,0,1,-9.291149893366111e-18,7.424888610839844)"><path d="M 19.33432388305664 2.484522104263306 L 2.008056583235884e-07 2.484522104263306 L 2.008056583235884e-07 -2 L 19.33432388305664 -2 L 19.33432388305664 2.484522104263306 Z" transform="matrix(1,0,0,1,-2.0080565832358843e-7,2)" fill="#cd0d0f" fill-rule="evenodd"/></g><g transform="matrix(1,0,0,1,1.245906949043274,1.2459242343902588)"><path d="M 1.756821990013123 15.42825794219971 L -1.414217233657837 12.25721740722656 L 12.25721740722656 -1.414217233657837 L 15.42825794219971 1.756821990013123 L 1.756821990013123 15.42825794219971 Z" transform="matrix(1,0,0,1,1.414217233657837,1.414217233657837)" fill="#cd0d0f" fill-rule="evenodd"/></g><g transform="matrix(1,0,0,1,1.245906949043274,1.2459242343902588)"><path d="M 12.25721740722656 15.42825794219971 L -1.414217233657837 1.756821990013123 L 1.756821990013123 -1.414217233657837 L 15.42825794219971 12.25721740722656 L 12.25721740722656 15.42825794219971 Z" transform="matrix(1,0,0,1,1.414217233657837,1.414217233657837)" fill="#cd0d0f" fill-rule="evenodd"/></g></g><g transform="matrix(1,0,0,1,14.252402305603027,14.086645126342773)"><g transform="matrix(1,0,0,1,7.424923419952393,4.865216959196812e-16)"><path d="M 2.484522104263306 19.33432388305664 L -2 19.33432388305664 L -2 2.008056583235884e-07 L 2.484522104263306 2.008056583235884e-07 L 2.484522104263306 19.33432388305664 Z" transform="matrix(1,0,0,1,2,-2.0080565832358843e-7)" fill="#cd0d0f" fill-rule="evenodd"/></g><g transform="matrix(1,0,0,1,-9.291149893366111e-18,7.424906253814697)"><path d="M 19.33432388305664 2.484522104263306 L 2.008056583235884e-07 2.484522104263306 L 2.008056583235884e-07 -2 L 19.33432388305664 -2 L 19.33432388305664 2.484522104263306 Z" transform="matrix(1,0,0,1,-2.0080565832358843e-7,2)" fill="#cd0d0f" fill-rule="evenodd"/></g><g transform="matrix(1,0,0,1,1.2459412813186646,1.2459242343902588)"><path d="M 1.756821990013123 15.42825794219971 L -1.414217233657837 12.25721740722656 L 12.25721740722656 -1.414217233657837 L 15.42825794219971 1.756821990013123 L 1.756821990013123 15.42825794219971 Z" transform="matrix(1,0,0,1,1.414217233657837,1.414217233657837)" fill="#cd0d0f" fill-rule="evenodd"/></g><g transform="matrix(1,0,0,1,1.2459412813186646,1.2459242343902588)"><path d="M 12.25721740722656 15.42825794219971 L -1.414217233657837 1.756821990013123 L 1.756821990013123 -1.414217233657837 L 15.42825794219971 12.25721740722656 L 12.25721740722656 15.42825794219971 Z" transform="matrix(1,0,0,1,1.414217233657837,1.414217233657837)" fill="#cd0d0f" fill-rule="evenodd"/></g></g><path d="M -2.002777338027954 -2.002769470214844 L 88.50590515136719 -2.002769470214844 L 88.50590515136719 88.26808929443359 L -2.002777338027954 88.26808929443359 L -2.002777338027954 -2.002769470214844 Z M 84.01515960693359 2.48796272277832 L 2.487963199615479 2.48796272277832 L 2.487963199615479 83.77735900878906 L 84.01515960693359 83.77735900878906 L 84.01515960693359 2.48796272277832 Z" transform="matrix(1,0,0,1,2.0265679359436035,2.264402389526367)" fill="#161615" fill-rule="evenodd"/><path d="M 444.6420288085938 139.1199951171875 L 452.5549926757812 139.1199951171875 L 452.5549926757812 141.3622741699219 C 452.5549926757812 141.3978576660156 452.55419921875 141.4302673339844 452.5531005859375 141.4586791992188 C 452.5771484375 142.9421844482422 453.7913513183594 144.1415405273438 455.2804565429688 144.1415405273438 C 456.7695922851562 144.1415405273438 457.9839172363281 142.9419250488281 458.0077514648438 141.4582977294922 C 458.0067138671875 141.4299163818359 458.0059204101562 141.3976745605469 458.0059204101562 141.3622741699219 L 458.0059204101562 139.1199951171875 L 466.4300842285156 139.1199951171875 L 466.4300842285156 141.3622741699219 C 466.4300842285156 142.8663330078125 467.6536865234375 144.0899810791016 469.1578063964844 144.0899810791016 C 470.6618347167969 144.0899810791016 471.8854675292969 142.8663330078125 471.8854675292969 141.3622741699219 L 471.8854675292969 139.1199951171875 L 480.3074035644531 139.1199951171875 L 480.3074035644531 141.3622741699219 C 480.3074035644531 142.8663330078125 481.5316162109375 144.0899810791016 483.0362548828125 144.0899810791016 C 484.540283203125 144.0899810791016 485.7639465332031 142.8663330078125 485.7639465332031 141.3622741699219 L 485.7639465332031 139.1199951171875 L 492.1488342285156 139.1199951171875 L 492.1488342285156 186.6267852783203 L 444.6420288085938 186.6267852783203 L 444.6420288085938 139.1199951171875 Z M 462.3022766113281 143.6045074462891 L 462.1526184082031 143.6045074462891 C 461.2231750488281 146.5137329101562 458.4939270019531 148.6260833740234 455.2804565429688 148.6260833740234 C 452.6793823242188 148.6260833740234 450.3954162597656 147.2419586181641 449.1265869140625 145.1716461181641 L 449.1265869140625 182.1422729492188 L 487.6642456054688 182.1422729492188 L 487.6642456054688 146.8897247314453 C 486.410888671875 147.9409484863281 484.7962951660156 148.5744934082031 483.0362548828125 148.5744934082031 C 479.8414611816406 148.5744934082031 477.1250610351562 146.4868469238281 476.1797180175781 143.6045074462891 L 476.0132751464844 143.6045074462891 C 475.0680847167969 146.4868469238281 472.35205078125 148.5744934082031 469.1578063964844 148.5744934082031 C 465.9635009765625 148.5744934082031 463.2474670410156 146.4868469238281 462.3022766113281 143.6045074462891 Z" transform="matrix(1,0,0,1,-444.64202880859375,-96.09774017333984)" fill="#161615" fill-rule="evenodd"/><path d="M 483.0159606933594 100.7460098266602 L 530.5228271484375 100.7460098266602 L 530.5228271484375 148.2527923583984 L 522.4990844726562 148.2527923583984 L 522.6072998046875 145.9411163330078 C 522.583251953125 144.4576263427734 521.3690185546875 143.2581481933594 519.8799438476562 143.2581481933594 C 518.4049682617188 143.2581481933594 517.1998901367188 144.4347839355469 517.153564453125 145.8986358642578 L 517.3687744140625 148.2527923583984 L 508.6248779296875 148.2527923583984 L 508.72998046875 145.9423370361328 C 508.7066650390625 144.4582061767578 507.4921569824219 143.2581481933594 506.0025634765625 143.2581481933594 C 504.5130310058594 143.2581481933594 503.2985229492188 144.4582061767578 503.2752075195312 145.9423370361328 L 503.3802795410156 148.2527923583984 L 494.86376953125 148.2527923583984 L 494.8518371582031 146.0225219726562 C 494.8438415527344 144.5260467529297 493.6207580566406 143.3086242675781 492.1252136230469 143.3086242675781 C 490.6291198730469 143.3086242675781 489.4059448242188 144.5256500244141 489.3986206054688 146.0215759277344 L 489.3876342773438 148.2527923583984 L 483.0159606933594 148.2527923583984 L 483.0159606933594 100.7460098266602 Z M 526.0382690429688 105.2305374145508 L 487.5005798339844 105.2305374145508 L 487.5005798339844 140.5016021728516 C 488.7956237792969 139.4156799316406 490.41552734375 138.8240966796875 492.1252136230469 138.8240966796875 C 494.0448303222656 138.8240966796875 495.8514099121094 139.5702056884766 497.2120056152344 140.9248809814453 C 498.0263366699219 141.7356262207031 498.6236572265625 142.7072448730469 498.973876953125 143.7682800292969 L 499.1390380859375 143.7682800292969 C 500.0766296386719 140.8730010986328 502.799072265625 138.7736206054688 506.0025634765625 138.7736206054688 C 509.2060852050781 138.7736206054688 511.928466796875 140.8730010986328 512.8661499023438 143.7682800292969 L 513.0164184570312 143.7682800292969 C 513.9541015625 140.8730010986328 516.6763916015625 138.7736206054688 519.8799438476562 138.7736206054688 C 522.484130859375 138.7736206054688 524.7703247070312 140.1609039306641 526.0382690429688 142.2353973388672 L 526.0382690429688 105.2305374145508 Z" transform="matrix(1,0,0,1,-439.99371337890625,-100.74600982666016)" fill="#161615" fill-rule="evenodd"/></g></svg>