<svg xmlns="http://www.w3.org/2000/svg" xmlns:xlink="http://www.w3.org/1999/xlink" width="64.13881995464021" height="109.0939974784851" viewBox="45.92067342248016 12.989540100097656 64.13881995464021 109.0939974784851"><g transform="matrix(1,0,0,1,45.92067337036133,12.989540100097656)"><path d="M12.194319725036621 0L17.72102451324463 0A12.194319725036621 12.194319725036621 0 0 1 29.91534423828125 12.194319725036621L29.91534423828125 28.074399948120117A0 0 0 0 1 29.91534423828125 28.074399948120117L0 28.074399948120117A0 0 0 0 1 0 28.074399948120117L0 12.194319725036621A12.194319725036621 12.194319725036621 0 0 1 12.194319725036621 0z" transform="matrix(1,0,0,1,17.872188568115234,1.5021514892578125)" fill="#cd0d0f" fill-rule="evenodd"/><path d="M 15.23517322540283 -1.224637985229492 C 19.63176727294922 -1.224637985229492 23.76519203186035 0.4874733686447144 26.87404251098633 3.596324443817139 C 29.98289680480957 6.705164432525635 31.69500350952148 10.83858966827393 31.69500350952148 15.23517227172852 L 31.69500350952148 29.85406303405762 L -1.224637985229492 29.85406303405762 L -1.224637985229492 15.23517227172852 C -1.224637985229492 10.83858966827393 0.4874733686447144 6.705178260803223 3.59632682800293 3.596324443817139 C 6.705178260803223 0.4874733686447144 10.83859157562256 -1.224637985229492 15.23517322540283 -1.224637985229492 Z M 28.69070053100586 26.84975624084473 L 28.69070053100586 15.23517227172852 C 28.69070053100586 7.815785884857178 22.65458297729492 1.779669404029846 15.23519706726074 1.779669404029846 L 15.23517322540283 1.779669404029846 C 7.815785884857178 1.779669404029846 1.779669404029846 7.815785884857178 1.779669404029846 15.23517227172852 L 1.779669404029846 26.84975624084473 L 28.69070053100586 26.84975624084473 Z" transform="matrix(1,0,0,1,17.59465980529785,1.2246379852294922)" fill="#161615" fill-rule="evenodd"/><ellipse cx="7.977425575256348" cy="7.977425575256348" rx="7.977425575256348" ry="7.977425575256348" transform="matrix(1,0,0,1,25.159257888793945,7.815189838409424)" fill="#ffffff" fill-rule="evenodd"/><path d="M 8.254938125610352 -1.224636197090149 C 13.48199462890625 -1.224636197090149 17.7345142364502 3.027881383895874 17.7345142364502 8.254938125610352 C 17.7345142364502 13.48199462890625 13.48199462890625 17.7345142364502 8.254938125610352 17.7345142364502 C 3.027881383895874 17.7345142364502 -1.224636197090149 13.48199462890625 -1.224636197090149 8.254938125610352 C -1.224636197090149 3.027881383895874 3.027881383895874 -1.224636197090149 8.254938125610352 -1.224636197090149 Z M 8.254938125610352 14.73020458221436 C 11.82541084289551 14.73020458221436 14.73020458221436 11.82541084289551 14.73020458221436 8.254938125610352 C 14.73020458221436 4.684465408325195 11.82541084289551 1.779671192169189 8.254938125610352 1.779671192169189 C 4.684465408325195 1.779671192169189 1.779671192169189 4.684465408325195 1.779671192169189 8.254938125610352 C 1.779671192169189 11.82541084289551 4.684465408325195 14.73020458221436 8.254938125610352 14.73020458221436 Z" transform="matrix(1,0,0,1,24.881729125976562,7.53767728805542)" fill="#161615" fill-rule="evenodd"/><path d="M 492.7802429199219 47.75461959838867 L 481.8880004882812 47.75461959838867 L 479.7955017089844 24.58940887451172 L 494.7442626953125 24.58940887451172 L 492.7802429199219 47.75461959838867 Z" transform="matrix(1,0,0,1,-454.7640686035156,1.8296747207641602)" fill="#ffffff" fill-rule="evenodd"/><path d="M 494.4641418457031 49.53428649902344 L 480.8190612792969 49.53428649902344 L 478.4552612304688 23.36476516723633 L 496.682861328125 23.36476516723633 L 494.4641418457031 49.53428649902344 Z M 483.5643310546875 46.52998352050781 L 491.7037658691406 46.52998352050781 L 493.4130554199219 26.36907386779785 L 481.7431640625 26.36907386779785 L 483.5643310546875 46.52998352050781 Z" transform="matrix(1,0,0,1,-455.06781005859375,1.5521624088287354)" fill="#161615" fill-rule="evenodd"/><path d="M 507.0038452148438 59.28180694580078 C 507.0038452148438 50.13130569458008 499.5852661132812 42.71400451660156 490.4347839355469 42.71400451660156 L 490.4347839355469 42.71400451660156 C 481.2842407226562 42.71400451660156 473.8657531738281 50.13130569458008 473.8657531738281 59.28180694580078 L 465.8290405273438 101.6549835205078 L 469.7897644042969 101.6549835205078 C 469.7897644042969 99.56484222412109 471.4836730957031 97.87090301513672 473.5737915039062 97.87090301513672 C 475.6627502441406 97.87090301513672 477.35791015625 99.56484222412109 477.35791015625 101.6549835205078 L 481.9577026367188 101.6549835205078 C 481.9577026367188 99.56484222412109 483.6516418457031 97.87090301513672 485.7417602539062 97.87090301513672 C 487.8306579589844 97.87090301513672 489.5258483886719 99.56484222412109 489.5258483886719 101.6549835205078 L 493.1811218261719 101.6549835205078 C 493.1811218261719 99.56484222412109 494.8763427734375 97.87090301513672 496.9653015136719 97.87090301513672 C 499.0553588867188 97.87090301513672 500.7493286132812 99.56484222412109 500.7493286132812 101.6549835205078 L 504.4058227539062 101.6549835205078 C 504.4058227539062 99.56484222412109 506.0997924804688 97.87090301513672 508.1899719238281 97.87090301513672 C 510.2800903320312 97.87090301513672 511.9740600585938 99.56484222412109 511.9740600585938 101.6549835205078 L 516.3014526367188 101.6549835205078 L 507.0038452148438 59.28180694580078 Z" transform="matrix(1,0,0,1,-457.92901611328125,5.936860084533691)" fill="#ffffff" fill-rule="evenodd"/><path d="M 490.7698974609375 41.48936462402344 C 495.5967712402344 41.48936462402344 500.134765625 43.36890029907227 503.5479431152344 46.78174591064453 C 506.9220886230469 50.15554428100586 508.7976684570312 54.62827682495117 508.84033203125 59.39300537109375 L 518.504150390625 103.4346466064453 L 510.8069763183594 103.4346466064453 L 510.8069763183594 101.9324951171875 C 510.8069763183594 100.6742477416992 509.7832641601562 99.65057373046875 508.5250549316406 99.65057373046875 C 507.2667846679688 99.65057373046875 506.2430725097656 100.6742477416992 506.2430725097656 101.9324951171875 L 506.2430725097656 103.4346466064453 L 499.582275390625 103.4346466064453 L 499.582275390625 101.9324951171875 C 499.582275390625 100.6742477416992 498.5585632324219 99.65057373046875 497.3003540039062 99.65057373046875 C 496.0420227050781 99.65057373046875 495.0183715820312 100.6742477416992 495.0183715820312 101.9324951171875 L 495.0183715820312 103.4346466064453 L 488.3587951660156 103.4346466064453 L 488.3587951660156 101.9324951171875 C 488.3587951660156 100.6742477416992 487.3351135253906 99.65057373046875 486.0768737792969 99.65057373046875 C 484.818603515625 99.65057373046875 483.794921875 100.6742477416992 483.794921875 101.9324951171875 L 483.794921875 103.4346466064453 L 476.1907958984375 103.4346466064453 L 476.1907958984375 101.9324951171875 C 476.1907958984375 100.6742477416992 475.1671447753906 99.65057373046875 473.9088745117188 99.65057373046875 C 472.6506652832031 99.65057373046875 471.626953125 100.6742477416992 471.626953125 101.9324951171875 L 471.626953125 103.4346466064453 L 464.3502502441406 103.4346466064453 L 472.6992492675781 59.4151725769043 C 472.7362670898438 54.64216995239258 474.6124572753906 50.16073608398438 477.9917907714844 46.78174591064453 C 481.4049987792969 43.36890029907227 485.9429931640625 41.48936462402344 490.7698974609375 41.48936462402344 Z M 514.76904296875 100.4303359985352 L 505.8367309570312 59.72217559814453 L 505.8367309570312 59.55930328369141 C 505.8367309570312 51.25209045410156 499.0778198242188 44.49367523193359 490.7698974609375 44.49367523193359 C 482.4619445800781 44.49367523193359 475.7030029296875 51.25209045410156 475.7030029296875 59.55930328369141 L 475.7030029296875 59.70050811767578 L 467.9779052734375 100.4303359985352 L 468.8400268554688 100.4303359985352 C 469.4888000488281 98.24488067626953 471.5157165527344 96.64626312255859 473.9088745117188 96.64626312255859 C 476.3021240234375 96.64626312255859 478.3289794921875 98.24488067626953 478.977783203125 100.4303359985352 L 481.0079345703125 100.4303359985352 C 481.65673828125 98.24488067626953 483.6836242675781 96.64626312255859 486.0768737792969 96.64626312255859 C 488.4700317382812 96.64626312255859 490.4969482421875 98.24488067626953 491.145751953125 100.4303359985352 L 492.2313842773438 100.4303359985352 C 492.8802185058594 98.24488067626953 494.9070739746094 96.64626312255859 497.3003540039062 96.64626312255859 C 499.6935424804688 96.64626312255859 501.720458984375 98.24488067626953 502.3692321777344 100.4303359985352 L 503.4560546875 100.4303359985352 C 504.1048889160156 98.24488067626953 506.1318054199219 96.64626312255859 508.5250549316406 96.64626312255859 C 510.918212890625 96.64626312255859 512.9451904296875 98.24488067626953 513.5939331054688 100.4303359985352 L 514.76904296875 100.4303359985352 Z" transform="matrix(1,0,0,1,-458.26409912109375,5.659350872039795)" fill="#161615" fill-rule="evenodd"/><ellipse cx="21.17085838317871" cy="12.042842864990234" rx="21.17085838317871" ry="12.042842864990234" transform="matrix(0.4452020525932312,-0.8954301476478577,0.8954301476478577,0.4452020525932312,2.0138192176818848,81.3510513305664)" fill="#cd0d0f" fill-rule="evenodd"/><path d="M 22.67301177978516 -1.23358977350272e-15 C 28.58418655395508 -1.902545266783354e-15 34.16443634033203 1.322444319725037 38.38579559326172 3.723727703094482 C 40.51215744018555 4.933285713195801 42.19433212280273 6.358934879302979 43.3856086730957 7.961069583892822 C 44.68645477294922 9.710556983947754 45.34602737426758 11.58925533294678 45.34602737426758 13.54499626159668 C 45.34602737426758 15.50073909759521 44.68645477294922 17.37943458557129 43.3856086730957 19.1289234161377 C 42.19433212280273 20.73105812072754 40.51215744018555 22.15670776367188 38.38579559326172 23.36626625061035 C 34.16443634033203 25.76754951477051 28.58418655395508 27.08999252319336 22.67301177978516 27.08999252319336 C 16.76183700561523 27.08999252319336 11.18159198760986 25.76754951477051 6.960230350494385 23.36626625061035 C 4.83386754989624 22.15670776367188 3.151695728302002 20.73105812072754 1.96041476726532 19.1289234161377 C 0.659571647644043 17.37943458557129 1.17067806115756e-07 15.50073909759521 1.17067806115756e-07 13.54499626159668 C 1.17067806115756e-07 11.58925533294678 0.659571647644043 9.710556983947754 1.96041476726532 7.961069583892822 C 3.151695728302002 6.358934879302979 4.83386754989624 4.933285713195801 6.960230350494385 3.723727703094482 C 11.18159198760986 1.322444319725037 16.76183700561523 -5.646347037385584e-16 22.67301177978516 -1.23358977350272e-15 Z M 22.67301177978516 24.08568572998047 C 28.07172012329102 24.08568572998047 33.12441635131836 22.90278244018555 36.90033340454102 20.75487899780273 C 40.40925598144531 18.75885581970215 42.34172058105469 16.19834899902344 42.34172058105469 13.54499626159668 C 42.34172058105469 10.89164638519287 40.40925598144531 8.331137657165527 36.90033340454102 6.3351149559021 C 33.12441635131836 4.187212944030762 28.07172012329102 3.004307270050049 22.67301177978516 3.004307270050049 C 17.2743034362793 3.004307270050049 12.22160816192627 4.187212944030762 8.445691108703613 6.3351149559021 C 4.936768531799316 8.331137657165527 3.004307270050049 10.89164638519287 3.004307270050049 13.54499626159668 C 3.004307270050049 16.19834899902344 4.936768531799316 18.75885581970215 8.445691108703613 20.75487899780273 C 12.22160816192627 22.90278244018555 17.2743034362793 24.08568572998047 22.67301177978516 24.08568572998047 Z" transform="matrix(0.4452020525932312,-0.8954301476478577,0.8954301476478577,0.4452020525932312,1.5543122344752192e-15,82.02735900878906)" fill="#161615" fill-rule="evenodd"/><ellipse cx="12.042842864990234" cy="21.17085838317871" rx="12.042842864990234" ry="21.17085838317871" transform="matrix(0.8954301476478577,-0.4452020525932312,0.4452020525932312,0.8954301476478577,21.70732879638672,54.16001892089844)" fill="#cd0d0f" fill-rule="evenodd"/><path d="M 13.54499626159668 1.17067806115756e-07 C 15.50073909759521 1.17067806115756e-07 17.37943458557129 0.659571647644043 19.1289234161377 1.96041476726532 C 20.73105812072754 3.151695728302002 22.15670776367188 4.83386754989624 23.36626625061035 6.960230350494385 C 25.76754951477051 11.18159198760986 27.08999252319336 16.76183700561523 27.08999252319336 22.67301177978516 C 27.08999252319336 28.58418655395508 25.76754951477051 34.16443634033203 23.36626625061035 38.38579559326172 C 22.15670776367188 40.51215744018555 20.73105812072754 42.19433212280273 19.1289234161377 43.3856086730957 C 17.37943458557129 44.68645477294922 15.50073909759521 45.34602737426758 13.54499626159668 45.34602737426758 C 11.58925533294678 45.34602737426758 9.710556983947754 44.68645477294922 7.961069583892822 43.3856086730957 C 6.358934879302979 42.19433212280273 4.933285713195801 40.51215744018555 3.723727703094482 38.38579559326172 C 1.322444319725037 34.16443634033203 -1.944178630206798e-15 28.58418655395508 -1.275223136926163e-15 22.67301177978516 C -6.062680671620017e-16 16.76183700561523 1.322444319725037 11.18159198760986 3.723727703094482 6.960230350494385 C 4.933285713195801 4.83386754989624 6.358934879302979 3.151695728302002 7.961069583892822 1.96041476726532 C 9.710556983947754 0.659571647644043 11.58925533294678 1.17067806115756e-07 13.54499626159668 1.17067806115756e-07 Z M 13.54499626159668 42.34172058105469 C 16.19834899902344 42.34172058105469 18.75885581970215 40.40925598144531 20.75487899780273 36.90033340454102 C 22.90278244018555 33.12441635131836 24.08568572998047 28.07172012329102 24.08568572998047 22.67301177978516 C 24.08568572998047 17.2743034362793 22.90278244018555 12.22160816192627 20.75487899780273 8.445691108703613 C 18.75885581970215 4.936768531799316 16.19834899902344 3.004307270050049 13.54499626159668 3.004307270050049 C 10.89164638519287 3.004307270050049 8.331137657165527 4.936768531799316 6.3351149559021 8.445691108703613 C 4.187212944030762 12.22160816192627 3.004307270050049 17.2743034362793 3.004307270050049 22.67301177978516 C 3.004307270050049 28.07172012329102 4.187212944030762 33.12441635131836 6.3351149559021 36.90033340454102 C 8.331137657165527 40.40925598144531 10.89164638519287 42.34172058105469 13.54499626159668 42.34172058105469 Z" transform="matrix(0.8954301476478577,-0.4452020525932312,0.4452020525932312,0.8954301476478577,19.693479537963867,53.483707427978516)" fill="#161615" fill-rule="evenodd"/><path d="M1.7509797811508179 0L2.5445576906204224 0A1.7509788274765015 1.7509788274765015 0 0 1 4.295536518096924 1.7509788274765015L4.295536518096924 20.34035074710846A1.7509788274765015 1.7509788274765015 0 0 1 2.5445576906204224 22.09132957458496L1.7509797811508179 22.09132957458496A1.7509797811508179 1.7509797811508179 0 0 1 0 20.340349793434143L0 1.7509797811508179A1.7509797811508179 1.7509797811508179 0 0 1 1.7509797811508179 0z" transform="matrix(0.9226289391517639,0.385688841342926,-0.385688841342926,0.9226289391517639,21.582616806030273,29.193696975708008)" fill="#ffffff" fill-rule="evenodd"/><path d="M 3.349499464035034 2.341356122315119e-07 C 5.196415901184082 2.341356122315119e-07 6.698998928070068 1.50258207321167 6.698998928070068 3.349499702453613 L 6.698998928070068 21.14530754089355 C 6.698998928070068 22.99222373962402 5.196415901184082 24.49479484558105 3.349499464035034 24.49479484558105 C 1.502583026885986 24.49479484558105 -1.299671578278356e-15 22.99221229553223 -1.195271591155711e-15 21.14529418945312 L -1.893364673714759e-16 3.349511384963989 C -8.493583835667584e-17 1.50258207321167 1.502583026885986 2.341356122315119e-07 3.349499464035034 2.341356122315119e-07 Z M 3.349499464035034 22.09132957458496 C 3.871151208877563 22.09132957458496 4.295533657073975 21.66694641113281 4.295533657073975 21.14530754089355 L 4.295533657073975 3.349499702453613 C 4.295533657073975 2.827847957611084 3.871151208877563 2.40346622467041 3.349499464035034 2.40346622467041 C 2.827847242355347 2.40346622467041 2.403465270996094 2.827859401702881 2.403465270996094 3.349511384963989 L 2.403465270996094 21.14529418945312 C 2.403465270996094 21.66694641113281 2.827847242355347 22.09132957458496 3.349499464035034 22.09132957458496 Z" transform="matrix(0.9226289391517639,0.385688841342926,-0.385688841342926,0.9226289391517639,20.93738555908203,27.621444702148438)" fill="#161615" fill-rule="evenodd"/><path d="M1.7509793043136597 0L2.5445573329925537 0A1.7509791851043701 1.7509791851043701 0 0 1 4.295536518096924 1.7509791851043701L4.295536518096924 20.34035086631775A1.750978708267212 1.750978708267212 0 0 1 2.544557809829712 22.09132957458496L1.7509799003601074 22.09132957458496A1.7509799003601074 1.7509799003601074 0 0 1 0 20.340349674224854L0 1.7509793043136597A1.7509793043136597 1.7509793043136597 0 0 1 1.7509793043136597 0z" transform="matrix(-0.9226288199424744,0.38568902015686035,-0.38568902015686035,-0.9226288199424744,51.802066802978516,49.2970085144043)" fill="#ffffff" fill-rule="evenodd"/><path d="M 3.349499464035034 2.341356122315119e-07 C 5.196415901184082 2.341356122315119e-07 6.698998928070068 1.50258207321167 6.698998928070068 3.349499702453613 L 6.698998928070068 21.14530754089355 C 6.698998928070068 22.99222373962402 5.196415901184082 24.49479484558105 3.349499464035034 24.49479484558105 C 1.502583026885986 24.49479484558105 -1.299671578278356e-15 22.99221229553223 -1.195271591155711e-15 21.14529418945312 L -1.893358056269859e-16 3.349499702453613 C -8.493583835667584e-17 1.50258207321167 1.502583026885986 2.341356122315119e-07 3.349499464035034 2.341356122315119e-07 Z M 3.349499464035034 22.09132957458496 C 3.871151208877563 22.09132957458496 4.295533657073975 21.66694641113281 4.295533657073975 21.14530754089355 L 4.295533657073975 3.349499702453613 C 4.295533657073975 2.827847957611084 3.871151208877563 2.40346622467041 3.349499464035034 2.40346622467041 C 2.827847242355347 2.40346622467041 2.403465270996094 2.827847957611084 2.403465270996094 3.349499702453613 L 2.403465270996094 21.14529418945312 C 2.403465270996094 21.66694641113281 2.827847242355347 22.09132957458496 3.349499464035034 22.09132957458496 Z" transform="matrix(-0.9226288199424744,0.38568902015686035,-0.38568902015686035,-0.9226288199424744,53.37431335449219,49.94227600097656)" fill="#161615" fill-rule="evenodd"/></g></svg>