<svg xmlns="http://www.w3.org/2000/svg" xmlns:xlink="http://www.w3.org/1999/xlink" width="86.868896484375" height="114.53057098388672" viewBox="62.65066909790039 10.061699867248535 86.868896484375 114.53057098388672"><g transform="matrix(1,0,0,1,62.65066909790039,10.061699867248535)"><ellipse cx="33.056880950927734" cy="39.14674758911133" rx="33.056880950927734" ry="39.14674758911133" transform="matrix(1,0,0,1,10.377436637878418,34.162017822265625)" fill="#ffffff" fill-rule="evenodd"/><path d="M 33.63193893432617 -1.499996066093445 C 38.4201545715332 -1.499996066093445 43.06196975708008 -0.3910394012928009 47.428466796875 1.796076416969299 C 51.61774063110352 3.894425392150879 55.37373733520508 6.890839576721191 58.59209442138672 10.70210075378418 C 61.78880310058594 14.48773384094238 64.29639434814453 18.88984298706055 66.04519653320312 23.78617095947266 C 67.84916687011719 28.83699226379395 68.76387023925781 34.19851684570312 68.76387023925781 39.72180557250977 C 68.76387023925781 45.24509429931641 67.84916687011719 50.60662078857422 66.04519653320312 55.65744018554688 C 64.29639434814453 60.55376434326172 61.78880310058594 64.95587921142578 58.59209442138672 68.74151611328125 C 55.37373733520508 72.55278015136719 51.61774063110352 75.54918670654297 47.428466796875 77.64752960205078 C 43.06196975708008 79.83464813232422 38.4201545715332 80.94361114501953 33.63193893432617 80.94361114501953 C 28.84372901916504 80.94361114501953 24.2019100189209 79.83464813232422 19.83539772033691 77.64752960205078 C 15.64613056182861 75.54918670654297 11.89014434814453 72.55278015136719 8.671772003173828 68.74151611328125 C 5.475058078765869 64.95587921142578 2.967476844787598 60.55376434326172 1.218675971031189 55.65744018554688 C -0.5853027701377869 50.60662078857422 -1.500007510185242 45.24509429931641 -1.500007510185242 39.72180557250977 C -1.500007510185242 34.19851684570312 -0.5853027701377869 28.83699226379395 1.218675971031189 23.78617095947266 C 2.967476844787598 18.88984298706055 5.475058078765869 14.48773384094238 8.671772003173828 10.70210075378418 C 11.89014434814453 6.890839576721191 15.64613056182861 3.894425392150879 19.83539772033691 1.796076416969299 C 24.2019100189209 -0.3910394012928009 28.84372901916504 -1.499996066093445 33.63193893432617 -1.499996066093445 Z M 33.63193893432617 76.79348754882812 C 50.71536636352539 76.79348754882812 64.61375427246094 60.1631965637207 64.61375427246094 39.72180557250977 C 64.61375427246094 19.28041648864746 50.71536636352539 2.650125503540039 33.63193893432617 2.650125503540039 C 16.54850196838379 2.650125503540039 2.650113821029663 19.28041648864746 2.650113821029663 39.72180557250977 C 2.650113821029663 60.1631965637207 16.54850196838379 76.79348754882812 33.63193893432617 76.79348754882812 Z" transform="matrix(1,0,0,1,9.802349090576172,33.58695983886719)" fill="#161615" fill-rule="evenodd"/><path d="M 558.6565551757812 27.96848678588867 C 564.1858520507812 32.99428176879883 558.8212280273438 50.05819702148438 548.8082885742188 59.97560882568359 C 540.56201171875 68.14442443847656 526.396240234375 74.20360565185547 521.2334594726562 69.57759857177734 C 515.6764526367188 64.59745025634766 520.8641357421875 47.5141716003418 530.83544921875 37.57048034667969 C 539.1785888671875 29.25087547302246 553.5131225585938 23.29268074035645 558.6565551757812 27.96848678588867 Z" transform="matrix(1,0,0,1,-515.55615234375,3.530456781387329)" fill="#cd0d0f" fill-rule="evenodd"/><path d="M 548.4959716796875 27.96848678588867 C 542.9680786132812 32.99428176879883 548.3314208984375 50.05819702148438 558.34423828125 59.97560882568359 C 566.590576171875 68.14442443847656 580.7577514648438 74.20360565185547 585.9190063476562 69.57759857177734 C 591.47607421875 64.59745025634766 586.2883911132812 47.5141716003418 576.3170776367188 37.57048034667969 C 567.973876953125 29.25087547302246 553.6393432617188 23.29268074035645 548.4959716796875 27.96848678588867 Z" transform="matrix(1,0,0,1,-505.0843200683594,3.530456781387329)" fill="#cd0d0f" fill-rule="evenodd"/><path d="M 581.67236328125 25.21307373046875 C 578.6815795898438 25.21307373046875 575.8511962890625 26.03479957580566 573.3335571289062 27.49702644348145 C 570.6593627929688 20.14716148376465 569.7423095703125 6.41994047164917 559.358642578125 6.245635032653809 C 547.0369262695312 6.038129329681396 547.3634033203125 19.96040534973145 544.6395263671875 27.09031105041504 C 542.312744140625 25.8853931427002 539.7451782226562 25.21307373046875 537.0448608398438 25.21307373046875 C 526.527099609375 25.21307373046875 517.9999389648438 35.35182189941406 517.9999389648438 47.85890579223633 C 517.9999389648438 56.22969818115234 521.8221435546875 63.53252410888672 527.49951171875 67.45301055908203 C 531.359130859375 50.90232849121094 544.15673828125 38.7452392578125 559.358642578125 38.7452392578125 C 574.56201171875 38.7452392578125 587.3595581054688 50.90232849121094 591.2177734375 67.45301055908203 C 596.896484375 63.53252410888672 600.71875 56.22969818115234 600.71875 47.85890579223633 C 600.71875 35.35182189941406 592.1915893554688 25.21307373046875 581.67236328125 25.21307373046875 Z" transform="matrix(1,0,0,1,-515.9248657226562,-4.16828727722168)" fill="#ffffff" fill-rule="evenodd"/><path d="M 559.662841796875 4.743346691131592 C 559.7632446289062 4.743346691131592 559.8667602539062 4.744222640991211 559.9686279296875 4.745926856994629 C 564.3421020507812 4.819337844848633 567.8139038085938 6.953840255737305 570.287353515625 11.0900936126709 C 572.2765502929688 14.41659927368164 573.3864135742188 18.59351348876953 574.3656005859375 22.27871704101562 C 574.6297607421875 23.27289962768555 574.8861694335938 24.23774909973145 575.1476440429688 25.14118194580078 C 577.4132080078125 24.19234848022461 579.791748046875 23.71307373046875 582.2474975585938 23.71307373046875 C 585.1455688476562 23.71307373046875 587.9535522460938 24.38625526428223 590.5935668945312 25.71389579772949 C 593.114501953125 26.98166275024414 595.3720092773438 28.78885650634766 597.303466796875 31.08525657653809 C 601.2147216796875 35.73583984375 603.368896484375 41.89706039428711 603.368896484375 48.43396377563477 C 603.368896484375 52.79128265380859 602.3880004882812 57.07464218139648 600.5322875976562 60.82095718383789 C 598.7125244140625 64.49462890625 596.09814453125 67.57729339599609 592.9718017578125 69.7357177734375 L 590.4638671875 71.46713256835938 L 589.77197265625 68.49917602539062 C 586.0518188476562 52.54085159301758 573.7818603515625 41.39535522460938 559.9337158203125 41.39535522460938 C 546.0869140625 41.39535522460938 533.81689453125 52.54090881347656 530.095458984375 68.49932861328125 L 529.4033203125 71.46733856201172 L 526.8954467773438 69.73558044433594 C 523.7697143554688 67.57710266113281 521.1558227539062 64.49443054199219 519.3363647460938 60.82088088989258 C 517.4807739257812 57.07445526123047 516.5 52.79113006591797 516.5 48.43396377563477 C 516.5 41.89716720581055 518.6539916992188 35.73594284057617 522.565185546875 31.08528709411621 C 524.4964599609375 28.78890037536621 526.7537841796875 26.98171234130859 529.2745971679688 25.71392250061035 C 531.9144897460938 24.38625526428223 534.7222900390625 23.71307373046875 537.6199340820312 23.71307373046875 C 539.7872924804688 23.71307373046875 541.9051513671875 24.09126091003418 543.9422607421875 24.83992004394531 C 544.22216796875 23.82433700561523 544.4825439453125 22.71664047241211 544.75146484375 21.57247161865234 C 545.593994140625 17.98745918273926 546.549072265625 13.92410469055176 548.5884399414062 10.69773769378662 C 551.085693359375 6.746685981750488 554.811767578125 4.743346691131592 559.662841796875 4.743346691131592 Z M 572.8065185546875 31.11184501647949 L 571.9586181640625 28.78155708312988 C 571.3682250976562 27.15881156921387 570.8759155273438 25.30604553222656 570.3546752929688 23.34448051452637 C 568.1239624023438 14.94946098327637 566.0682983398438 8.99903392791748 559.8988037109375 8.895462989807129 C 559.8201293945312 8.894145011901855 559.7402954101562 8.893468856811523 559.662841796875 8.893468856811523 C 556.2349853515625 8.893468856811523 553.8307495117188 10.17136859893799 552.0964965820312 12.91511821746826 C 550.4296264648438 15.55224418640137 549.5968017578125 19.09548187255859 548.7914428710938 22.52205276489258 C 548.2902221679688 24.65432357788086 547.81689453125 26.66833305358887 547.153076171875 28.40590858459473 L 546.3237915039062 30.57651138305664 L 544.2604370117188 29.50802612304688 C 542.15283203125 28.41658782958984 539.9185791015625 27.86319541931152 537.6199340820312 27.86319541931152 C 528.2627563476562 27.86319541931152 520.6500854492188 37.09120941162109 520.6500854492188 48.43396377563477 C 520.6500854492188 54.6490592956543 522.9959716796875 60.49843597412109 526.9152221679688 64.37629699707031 C 527.87841796875 61.26419067382812 529.1598510742188 58.30001068115234 530.7411499023438 55.53110122680664 C 532.8301391601562 51.87343215942383 535.3900756835938 48.64545440673828 538.3499755859375 45.93683242797852 C 541.360107421875 43.18222808837891 544.7063598632812 41.03660202026367 548.2954711914062 39.55952453613281 C 552.0269775390625 38.02387619018555 555.9426879882812 37.24523544311523 559.9337158203125 37.24523544311523 C 563.9251098632812 37.24523544311523 567.8409423828125 38.02387619018555 571.5726928710938 39.55950927734375 C 575.1620483398438 41.03658676147461 578.5083618164062 43.18222808837891 581.5185546875 45.93683242797852 C 584.478515625 48.64546585083008 587.0384521484375 51.87347793579102 589.1270751953125 55.53117752075195 C 590.708251953125 58.30009841918945 591.9895629882812 61.2643928527832 592.95263671875 64.37652587890625 C 596.8728637695312 60.4988899230957 599.21875 54.64975738525391 599.21875 48.43396377563477 C 599.21875 37.09120941162109 591.6054077148438 27.86319541931152 582.2474975585938 27.86319541931152 C 579.6944580078125 27.86319541931152 577.2394409179688 28.53719329833984 574.9507446289062 29.86645889282227 L 572.8065185546875 31.11184501647949 Z" transform="matrix(1,0,0,1,-516.5,-4.743346691131592)" fill="#161615" fill-rule="evenodd"/><g transform="matrix(1,0,0,1,37.19807815551758,10.758964538574219)"><g transform="matrix(1,0,0,1,4.789709091186523,-2.5994274758413195e-23)"><path d="M 1.847311735153198 12.47238349914551 L -1.045599937438965 12.47238349914551 L -1.045599937438965 -3.972015292674769e-06 L 1.847311735153198 -3.972015292674769e-06 L 1.847311735153198 12.47238349914551 Z" transform="matrix(1,0,0,1,1.0455999374389648,0.000003972015292674769)" fill="#cd0d0f" fill-rule="evenodd"/></g><g transform="matrix(1,0,0,1,-1.1635630186543648e-15,4.78973913192749)"><path d="M 12.47238349914551 1.847311735153198 L -3.972015292674769e-06 1.847311735153198 L -3.972015292674769e-06 -1.045599937438965 L 12.47238349914551 -1.045599937438965 L 12.47238349914551 1.847311735153198 Z" transform="matrix(1,0,0,1,0.000003972015292674769,1.0455999374389648)" fill="#cd0d0f" fill-rule="evenodd"/></g><g transform="matrix(1,0,0,1,0.8036887645721436,0.8037403225898743)"><path d="M 1.306255102157593 10.12555408477783 L -0.7393536567687988 8.07994556427002 L 8.07994556427002 -0.7393536567687988 L 10.12555408477783 1.306255102157593 L 1.306255102157593 10.12555408477783 Z" transform="matrix(1,0,0,1,0.7393536567687988,0.7393536567687988)" fill="#cd0d0f" fill-rule="evenodd"/></g><g transform="matrix(1,0,0,1,0.8036887645721436,0.8037403225898743)"><path d="M 8.07994556427002 10.12555408477783 L -0.7393536567687988 1.306255102157593 L 1.306255102157593 -0.7393536567687988 L 10.12555408477783 8.07994556427002 L 8.07994556427002 10.12555408477783 Z" transform="matrix(1,0,0,1,0.7393536567687988,0.7393536567687988)" fill="#cd0d0f" fill-rule="evenodd"/></g></g><g transform="matrix(1,0,0,1,65.6348648071289,28.855106353759766)"><g transform="matrix(1,0,0,1,4.789709091186523,-2.5994274758413195e-23)"><path d="M 1.847311735153198 12.47238349914551 L -1.045599937438965 12.47238349914551 L -1.045599937438965 -3.972015292674769e-06 L 1.847311735153198 -3.972015292674769e-06 L 1.847311735153198 12.47238349914551 Z" transform="matrix(1,0,0,1,1.0455999374389648,0.000003972015292674769)" fill="#cd0d0f" fill-rule="evenodd"/></g><g transform="matrix(1,0,0,1,5.941864550704874e-15,4.789738178253174)"><path d="M 12.47238349914551 1.847311735153198 L -3.972015292674769e-06 1.847311735153198 L -3.972015292674769e-06 -1.045599937438965 L 12.47238349914551 -1.045599937438965 L 12.47238349914551 1.847311735153198 Z" transform="matrix(1,0,0,1,0.000003972015292674769,1.0455999374389648)" fill="#cd0d0f" fill-rule="evenodd"/></g><g transform="matrix(1,0,0,1,0.8037732243537903,0.8037415742874146)"><path d="M 1.306255102157593 10.12555408477783 L -0.7393536567687988 8.07994556427002 L 8.07994556427002 -0.7393536567687988 L 10.12555408477783 1.306255102157593 L 1.306255102157593 10.12555408477783 Z" transform="matrix(1,0,0,1,0.7393536567687988,0.7393536567687988)" fill="#cd0d0f" fill-rule="evenodd"/></g><g transform="matrix(1,0,0,1,0.8037732243537903,0.8037415742874146)"><path d="M 8.07994556427002 10.12555408477783 L -0.7393536567687988 1.306255102157593 L 1.306255102157593 -0.7393536567687988 L 10.12555408477783 8.07994556427002 L 8.07994556427002 10.12555408477783 Z" transform="matrix(1,0,0,1,0.7393536567687988,0.7393536567687988)" fill="#cd0d0f" fill-rule="evenodd"/></g></g><g transform="matrix(1,0,0,1,7.653411865234375,29.855674743652344)"><g transform="matrix(1,0,0,1,4.789709091186523,-2.5994274758413195e-23)"><path d="M 1.847311735153198 12.47238349914551 L -1.045599937438965 12.47238349914551 L -1.045599937438965 -3.972015292674769e-06 L 1.847311735153198 -3.972015292674769e-06 L 1.847311735153198 12.47238349914551 Z" transform="matrix(1,0,0,1,1.0455999374389648,0.000003972015292674769)" fill="#cd0d0f" fill-rule="evenodd"/></g><g transform="matrix(1,0,0,1,-2.7538459895423955e-16,4.789738178253174)"><path d="M 12.47238349914551 1.847311735153198 L -3.972015292674769e-06 1.847311735153198 L -3.972015292674769e-06 -1.045599937438965 L 12.47238349914551 -1.045599937438965 L 12.47238349914551 1.847311735153198 Z" transform="matrix(1,0,0,1,0.000003972015292674769,1.0455999374389648)" fill="#cd0d0f" fill-rule="evenodd"/></g><g transform="matrix(1,0,0,1,0.8036887645721436,0.8037415742874146)"><path d="M 1.306255102157593 10.12555408477783 L -0.7393536567687988 8.07994556427002 L 8.07994556427002 -0.7393536567687988 L 10.12555408477783 1.306255102157593 L 1.306255102157593 10.12555408477783 Z" transform="matrix(1,0,0,1,0.7393536567687988,0.7393536567687988)" fill="#cd0d0f" fill-rule="evenodd"/></g><g transform="matrix(1,0,0,1,0.8036887645721436,0.8037415742874146)"><path d="M 8.07994556427002 10.12555408477783 L -0.7393536567687988 1.306255102157593 L 1.306255102157593 -0.7393536567687988 L 10.12555408477783 8.07994556427002 L 8.07994556427002 10.12555408477783 Z" transform="matrix(1,0,0,1,0.7393536567687988,0.7393536567687988)" fill="#cd0d0f" fill-rule="evenodd"/></g></g><ellipse cx="4.526966571807861" cy="4.526966571807861" rx="4.526966571807861" ry="4.526966571807861" transform="matrix(1,0,0,1,17.66130256652832,85.91078186035156)" fill="#cd0d0f" fill-rule="evenodd"/><ellipse cx="4.526966571807861" cy="4.526966571807861" rx="4.526966571807861" ry="4.526966571807861" transform="matrix(1,0,0,1,60.38461685180664,85.91078186035156)" fill="#cd0d0f" fill-rule="evenodd"/><path d="M 542.5673217773438 66.24486541748047 C 542.5572509765625 66.24486541748047 542.54736328125 66.24485778808594 542.5372314453125 66.24483489990234 C 539.3026123046875 66.23755645751953 536.7431640625 65.16574859619141 535.1654663085938 64.26789093017578 L 536.9541015625 61.12508010864258 C 538.1539916992188 61.8079833984375 540.0980224609375 62.62319564819336 542.5450439453125 62.62870025634766 C 542.552490234375 62.62871551513672 542.56005859375 62.62871551513672 542.5675659179688 62.62871551513672 C 543.96044921875 62.62871551513672 545.3341064453125 62.36940383911133 546.650146484375 61.85785675048828 L 547.9602661132812 65.22836303710938 C 546.2247924804688 65.90288543701172 544.4104614257812 66.24486541748047 542.5673217773438 66.24486541748047 Z" transform="matrix(1,0,0,1,-509.34405517578125,16.871944427490234)" fill="#161615" fill-rule="evenodd"/><path d="M 556.58251953125 66.244873046875 C 554.73974609375 66.244873046875 552.926025390625 65.90294647216797 551.1904296875 65.22837066650391 L 552.50048828125 61.85786437988281 C 553.8165893554688 62.36938095092773 555.1898193359375 62.62872314453125 556.5821533203125 62.62872314453125 C 556.58984375 62.62872314453125 556.59716796875 62.62872314453125 556.6048583984375 62.62870788574219 C 559.0523071289062 62.62320327758789 560.9967041015625 61.80797576904297 562.1966552734375 61.12504959106445 L 563.9851684570312 64.26792144775391 C 562.4075927734375 65.16578674316406 559.84765625 66.23756408691406 556.6124877929688 66.24484252929688 C 556.6024780273438 66.244873046875 556.5924072265625 66.244873046875 556.58251953125 66.244873046875 Z" transform="matrix(1,0,0,1,-503.20050048828125,16.871932983398438)" fill="#161615" fill-rule="evenodd"/></g></svg>