<svg xmlns="http://www.w3.org/2000/svg" xmlns:xlink="http://www.w3.org/1999/xlink" width="126.63708255373732" height="141.73057127223422" viewBox="37.35040421582909 -7.976260315389199e-10 126.63708255373732 141.73057127223422"><g transform="matrix(0.8290375471115112,0.5591928958892822,-0.5591928958892822,0.8290375471115112,107.0399169921875,0)"><path d="M 45.79631805419922 118.5022811889648 L 43.07869338989258 115.6864471435547 C 45.67523956298828 113.1803817749023 47.87475204467773 110.3427200317383 49.61609268188477 107.2523574829102 C 51.63926315307617 103.6639862060547 55.84845733642578 96.19803619384766 54.07625198364258 88.44340515136719 C 52.19405364990234 80.19964599609375 44.4844970703125 75.68885040283203 40.34261322021484 73.26549530029297 C 34.60575866699219 69.90972137451172 30.47028541564941 69.43608856201172 26.4711742401123 68.97808074951172 C 22.44269180297852 68.51668548583984 18.27701187133789 68.03960418701172 13.32727336883545 64.50999450683594 C 5.754495143890381 59.11049270629883 0.6772063374519348 49.783935546875 0.0768602043390274 40.17006683349609 C -0.7969264388084412 26.1665096282959 5.99095344543457 14.93881130218506 9.702359199523926 10.95843029022217 C 15.80166339874268 4.415565490722656 24.14609146118164 2.103826522827148 29.13149261474609 0.7226061820983887 C 30.10843467712402 0.4519828855991364 30.95201110839844 0.2182818204164505 31.6112174987793 -1.786870212341571e-15 L 32.84128189086914 3.715069055557251 C 32.09012985229492 3.963762283325195 31.20339584350586 4.20944356918335 30.17634582519531 4.493942737579346 C 25.29217910766602 5.847089290618896 17.91102600097656 7.89198112487793 12.56473255157471 13.62703704833984 C 10.9508228302002 15.35787963867188 8.57347297668457 18.83540534973145 6.740786552429199 23.40498924255371 C 4.595699787139893 28.75331497192383 3.641895055770874 34.46625137329102 3.982706785202026 39.92625045776367 C 4.511366367340088 48.39254760742188 8.96259593963623 56.59159469604492 15.59937000274658 61.32368469238281 C 19.72638893127441 64.26664733886719 23.05832290649414 64.64827728271484 26.9163990020752 65.09012603759766 C 31.11324691772461 65.57076263427734 35.86992645263672 66.11558532714844 42.31783294677734 69.88718414306641 C 46.64031219482422 72.41616821289062 55.63232040405273 77.67729949951172 57.89134979248047 87.57188415527344 C 58.80601501464844 91.57421112060547 58.51327514648438 95.92912292480469 57.02104187011719 100.5153198242188 C 55.81201553344727 104.2311248779297 54.06755828857422 107.3252258300781 53.02522659301758 109.1738662719727 C 51.09801483154297 112.5942153930664 48.66576385498047 115.7328720092773 45.79631805419922 118.5022811889648 Z" transform="matrix(1,0,0,1,2.666730768499659e-16,5.893735408782959)" fill="#d9000d" fill-rule="evenodd"/><path d="M 6.218282222747803 122.5630569458008 L 4.002243381270778e-16 7.080290794372559 C 4.002243381270778e-16 7.080290794372559 0.888651430606842 0 6.218282222747803 0 C 11.54617500305176 0 12.4348258972168 7.352839946746826 12.4348258972168 7.352839946746826 L 6.218282222747803 122.5630569458008 Z" transform="matrix(1,0,0,1,29.117162704467773,1.9566755294799805)" fill="#ffffff" fill-rule="evenodd"/><path d="M 10.13551712036133 124.6251754760742 L 6.227692604064941 124.6249465942383 L 0 8.967162132263184 L 0.02193756960332394 8.793264389038086 C 0.0489099957048893 8.577972412109375 0.315037876367569 6.631537437438965 1.3250652551651 4.619139671325684 C 2.820116519927979 1.640440225601196 5.255067348480225 -2.970510664702941e-16 8.181574821472168 -4.62476601069059e-16 C 11.12061023712158 -6.286102552117284e-16 13.55981636047363 1.698221206665039 15.04977321624756 4.781843185424805 C 16.06795120239258 6.889019012451172 16.3301830291748 8.986469268798828 16.34085083007812 9.074736595153809 L 16.36128997802734 9.244340896606445 L 16.35211944580078 9.414941787719727 L 10.13551712036133 124.6251754760742 Z M 3.928263425827026 9.135604858398438 L 8.183672904968262 88.16641235351562 L 12.43374729156494 9.400510787963867 C 12.2892951965332 8.521045684814453 11.37894630432129 3.913368940353394 8.181574821472168 3.913368940353394 C 4.994034290313721 3.913368940353394 4.079549312591553 8.261960029602051 3.928263425827026 9.135604858398438 Z" transform="matrix(1,0,0,1,27.15382194519043,-1.5787857691784745e-15)" fill="#161615" fill-rule="evenodd"/><path d="M 13.69821453094482 60.80025482177734 L 12.07573318481445 57.23900985717773 C 23.3758602142334 52.09102249145508 30.32395553588867 40.91500091552734 29.36511611938477 29.42889785766602 C 28.17910957336426 15.19301891326904 15.28047657012939 3.985392808914185 2.212060423072496e-16 3.91330885887146 L 0.01852106302976608 -1.046932722806315e-18 C 8.452378273010254 0.03976184502243996 16.52216720581055 3.104900360107422 22.74140930175781 8.630725860595703 C 25.73924255371094 11.29432773590088 28.1744327545166 14.40120601654053 29.97948837280273 17.86501121520996 C 31.83489036560059 21.42561912536621 32.94028091430664 25.20686721801758 33.26490783691406 29.10367012023926 C 33.53289413452148 32.31193542480469 33.26227188110352 35.55601501464844 32.46100997924805 38.74553298950195 C 31.67839050292969 41.86045837402344 30.4060115814209 44.86066055297852 28.67929649353027 47.662841796875 C 25.14159393310547 53.40414428710938 19.96121025085449 57.94699096679688 13.69821453094482 60.80025482177734 Z" transform="matrix(1,0,0,1,35.326148986816406,6.683341026306152)" fill="#d9000d" fill-rule="evenodd"/></g></svg>