<svg xmlns="http://www.w3.org/2000/svg" xmlns:xlink="http://www.w3.org/1999/xlink" width="69.22414207458496" height="105.3162231445313" viewBox="62.89984893798828 16.090530395507812 69.22414207458496 105.3162231445313"><g transform="matrix(1,0,0,1,62.89984893798828,16.090530395507812)"><path d="M 32.06472015380859 250.2530059814453 L 23.42199897766113 296.74853515625 C 23.42199897766113 296.74853515625 23.31227874755859 303.0939331054688 32.06472015380859 302.656005859375 C 40.81619644165039 302.2181091308594 40.70647811889648 296.4203491210938 40.70647811889648 296.4203491210938 L 32.06472015380859 250.2530059814453 Z" transform="matrix(1,0,0,1,-20.2828369140625,-199.76751708984375)" fill="#ffffff" fill-rule="evenodd"/><path d="M 31.96257209777832 236.619384765625 L 43.01446914672852 295.6624755859375 L 43.01825332641602 295.8627624511719 C 43.02533721923828 296.2369384765625 42.98717498779297 298.207275390625 41.53631210327148 300.2535705566406 C 40.68437194824219 301.4551086425781 39.52217864990234 302.4264221191406 38.08199310302734 303.1405334472656 C 36.4346923828125 303.9573059082031 34.41905975341797 304.4305419921875 32.09106826782227 304.5470275878906 C 31.76385116577148 304.5634155273438 31.43856048583984 304.5716857910156 31.12422561645508 304.5716857910156 C 27.73126029968262 304.5716857910156 25.08346748352051 303.6282348632812 23.25442123413086 301.7674865722656 C 20.93532371520996 299.4082641601562 20.91683006286621 296.5170593261719 20.92236328125 296.1951599121094 L 20.9257984161377 295.9942626953125 L 20.96252822875977 295.7967529296875 L 31.96257209777832 236.619384765625 Z M 38.19169616699219 296.0525207519531 L 31.97907066345215 262.8624572753906 L 25.7467098236084 296.3909301757812 C 25.78129196166992 296.6914978027344 25.90897941589355 297.381591796875 26.3753490447998 298.0262451171875 C 27.20736122131348 299.1763610839844 28.80511474609375 299.759521484375 31.12422561645508 299.759521484375 C 31.35873031616211 299.759521484375 31.60309982299805 299.7532043457031 31.85058403015137 299.7408142089844 C 34.53972625732422 299.6063232421875 36.48723983764648 298.8797607421875 37.48259735107422 297.6398620605469 C 38.00633239746094 296.9874877929688 38.15164184570312 296.3405456542969 38.19169616699219 296.0525207519531 Z" transform="matrix(1,0,0,1,-20.188940048217773,-199.25546264648438)" fill="#161615" fill-rule="evenodd"/><ellipse cx="9.856550216674805" cy="9.856550216674805" rx="9.856550216674805" ry="9.856550216674805" transform="matrix(1,0,0,1,1.9248863458633423,17.93921661376953)" fill="#ffffff" fill-rule="evenodd"/><path d="M 9.78143310546875 -2.000003814697266 C 12.92836570739746 -2.000003814697266 15.88694953918457 -0.7745179533958435 18.11216926574707 1.450694441795349 C 20.33738136291504 3.675915718078613 21.56286811828613 6.634499549865723 21.56286811828613 9.78143310546875 C 21.56286811828613 12.92836570739746 20.33738136291504 15.88694953918457 18.11216926574707 18.11216926574707 C 15.88694953918457 20.33738136291504 12.92836570739746 21.56286811828613 9.78143310546875 21.56286811828613 C 6.634499549865723 21.56286811828613 3.675915718078613 20.33738136291504 1.450694441795349 18.11216926574707 C -0.7745179533958435 15.88694953918457 -2.000003814697266 12.92836570739746 -2.000003814697266 9.78143310546875 C -2.000003814697266 6.634499549865723 -0.7745179533958435 3.675915718078613 1.450694441795349 1.450694441795349 C 3.675915718078613 -0.7745179533958435 6.634499549865723 -2.000003814697266 9.78143310546875 -2.000003814697266 Z M 9.78143310546875 17.71310424804688 C 14.15496826171875 17.71310424804688 17.71310424804688 14.15496826171875 17.71310424804688 9.78143310546875 C 17.71310424804688 5.407896518707275 14.15496826171875 1.849761486053467 9.78143310546875 1.849761486053467 C 5.407896518707275 1.849761486053467 1.849761486053467 5.407896518707275 1.849761486053467 9.78143310546875 C 1.849761486053467 14.15496826171875 5.407896518707275 17.71310424804688 9.78143310546875 17.71310424804688 Z" transform="matrix(1,0,0,1,2.0000038146972656,18.014331817626953)" fill="#161615" fill-rule="evenodd"/><ellipse cx="6.043172359466553" cy="6.043172359466553" rx="6.043172359466553" ry="6.043172359466553" transform="matrix(1,0,0,1,5.738264083862305,38.399051666259766)" fill="#cd0d0f" fill-rule="evenodd"/><path d="M 5.968054294586182 -1.999997019767761 C 10.36165618896484 -1.999997019767761 13.93610668182373 1.574452757835388 13.93610668182373 5.968054294586182 C 13.93610668182373 10.36165618896484 10.36165618896484 13.93610668182373 5.968054294586182 13.93610668182373 C 1.574452757835388 13.93610668182373 -1.999997019767761 10.36165618896484 -1.999997019767761 5.968054294586182 C -1.999997019767761 1.574452757835388 1.574452757835388 -1.999997019767761 5.968054294586182 -1.999997019767761 Z M 5.968054294586182 10.08634090423584 C 8.238887786865234 10.08634090423584 10.08634090423584 8.238887786865234 10.08634090423584 5.968054294586182 C 10.08634090423584 3.697222471237183 8.238887786865234 1.849768161773682 5.968054294586182 1.849768161773682 C 3.697222471237183 1.849768161773682 1.849768161773682 3.697222471237183 1.849768161773682 5.968054294586182 C 1.849768161773682 8.238887786865234 3.697222471237183 10.08634090423584 5.968054294586182 10.08634090423584 Z" transform="matrix(1,0,0,1,5.813381195068359,38.47417068481445)" fill="#161615" fill-rule="evenodd"/><path d="M3.6908087730407715 0L3.6908087730407715 0A3.6908087730407715 3.6908087730407715 0 0 1 7.381617546081543 3.6908087730407715L7.381617546081543 12.323521137237549A3.6908087730407715 3.6908087730407715 0 0 1 3.6908087730407715 16.01432991027832L3.6908087730407715 16.01432991027832A3.6908087730407715 3.6908087730407715 0 0 1 0 12.323521137237549L0 3.6908087730407715A3.6908087730407715 3.6908087730407715 0 0 1 3.6908087730407715 0z" transform="matrix(1,0,0,1,8.090627670288086,1.9248825311660767)" fill="#ffffff" fill-rule="evenodd"/><path d="M 3.615691423416138 -2 C 6.712192058563232 -2 9.231382369995117 0.5191904306411743 9.231382369995117 3.6156907081604 L 9.231382369995117 12.24840450286865 C 9.231382369995117 15.34490489959717 6.712192058563232 17.86409568786621 3.615691423416138 17.86409568786621 C 0.5191904306411743 17.86409568786621 -1.999999523162842 15.34490489959717 -1.999999523162842 12.24840450286865 L -1.999999523162842 3.6156907081604 C -1.999999523162842 0.5191904306411743 0.5191904306411743 -2 3.615691423416138 -2 Z M 3.615691423416138 14.01432991027832 C 4.589422225952148 14.01432991027832 5.381617069244385 13.22213554382324 5.381617069244385 12.24840450286865 L 5.381617069244385 3.6156907081604 C 5.381617069244385 2.641960859298706 4.589422225952148 1.849765181541443 3.615691423416138 1.849765181541443 C 2.641960859298706 1.849765181541443 1.849765658378601 2.641960859298706 1.849765658378601 3.6156907081604 L 1.849765658378601 12.24840450286865 C 1.849765658378601 13.22213554382324 2.641960859298706 14.01432991027832 3.615691423416138 14.01432991027832 Z" transform="matrix(1,0,0,1,8.165743827819824,2)" fill="#161615" fill-rule="evenodd"/><path d="M 79.50772094726562 250.2530059814453 L 70.86499786376953 296.74853515625 C 70.86499786376953 296.74853515625 70.75527954101562 303.0939331054688 79.50772094726562 302.656005859375 C 88.25920104980469 302.2181091308594 88.15044403076172 296.4203491210938 88.15044403076172 296.4203491210938 L 79.50772094726562 250.2530059814453 Z" transform="matrix(1,0,0,1,-22.06473159790039,-199.76751708984375)" fill="#ffffff" fill-rule="evenodd"/><path d="M 79.40544891357422 236.6201171875 L 90.45845031738281 295.6626586914062 L 90.46221923828125 295.8631286621094 C 90.46923828125 296.2373352050781 90.43074798583984 298.2076110839844 88.97963714599609 300.2537841796875 C 88.1275634765625 301.4552612304688 86.96529388427734 302.426513671875 85.52508544921875 303.1405944824219 C 83.87770843505859 303.9573364257812 81.86203002929688 304.4305725097656 79.53406524658203 304.5470581054688 C 79.20685577392578 304.5634460449219 78.88156127929688 304.5717163085938 78.56722259521484 304.5717163085938 C 75.17426300048828 304.5717163085938 72.52647399902344 303.6282653808594 70.69741821289062 301.7675170898438 C 68.37832641601562 299.4082946777344 68.35981750488281 296.51708984375 68.36534881591797 296.1951904296875 L 68.36878204345703 295.9942932128906 L 68.405517578125 295.7967834472656 L 79.40544891357422 236.6201171875 Z M 85.63560485839844 296.0523071289062 L 79.42219543457031 262.8617858886719 L 73.189697265625 296.3909606933594 C 73.22427368164062 296.6915283203125 73.35196685791016 297.3816223144531 73.81833648681641 298.0262756347656 C 74.65034484863281 299.1763916015625 76.24811553955078 299.7595520019531 78.56722259521484 299.7595520019531 C 78.80172729492188 299.7595520019531 79.04608917236328 299.7532348632812 79.29358673095703 299.7408447265625 C 81.98281097412109 299.6063232421875 83.9305419921875 298.8797302246094 84.92617797851562 297.6397399902344 C 85.44998931884766 296.9873352050781 85.59546661376953 296.3404541015625 85.63560485839844 296.0523071289062 Z" transform="matrix(1,0,0,1,-21.970834732055664,-199.2554931640625)" fill="#161615" fill-rule="evenodd"/><ellipse cx="9.856550216674805" cy="9.856550216674805" rx="9.856550216674805" ry="9.856550216674805" transform="matrix(1,0,0,1,47.586151123046875,17.93921661376953)" fill="#ffffff" fill-rule="evenodd"/><path d="M 9.78143310546875 -2.000003814697266 C 12.92836570739746 -2.000003814697266 15.88694953918457 -0.7745179533958435 18.11216926574707 1.450694441795349 C 20.33738136291504 3.675915718078613 21.56286811828613 6.634499549865723 21.56286811828613 9.78143310546875 C 21.56286811828613 12.92836570739746 20.33738136291504 15.88694953918457 18.11216926574707 18.11216926574707 C 15.88694953918457 20.33738136291504 12.92836570739746 21.56286811828613 9.78143310546875 21.56286811828613 C 6.634499549865723 21.56286811828613 3.675915718078613 20.33738136291504 1.450694441795349 18.11216926574707 C -0.7745179533958435 15.88694953918457 -2.000003814697266 12.92836570739746 -2.000003814697266 9.78143310546875 C -2.000003814697266 6.634499549865723 -0.7745179533958435 3.675915718078613 1.450694441795349 1.450694441795349 C 3.675915718078613 -0.7745179533958435 6.634499549865723 -2.000003814697266 9.78143310546875 -2.000003814697266 Z M 9.78143310546875 17.71310424804688 C 14.15496826171875 17.71310424804688 17.71310424804688 14.15496826171875 17.71310424804688 9.78143310546875 C 17.71310424804688 5.407896518707275 14.15496826171875 1.849761486053467 9.78143310546875 1.849761486053467 C 5.407896518707275 1.849761486053467 1.849761486053467 5.407896518707275 1.849761486053467 9.78143310546875 C 1.849761486053467 14.15496826171875 5.407896518707275 17.71310424804688 9.78143310546875 17.71310424804688 Z" transform="matrix(1,0,0,1,47.66127395629883,18.014331817626953)" fill="#161615" fill-rule="evenodd"/><ellipse cx="6.043172359466553" cy="6.043172359466553" rx="6.043172359466553" ry="6.043172359466553" transform="matrix(1,0,0,1,51.3995361328125,38.399051666259766)" fill="#cd0d0f" fill-rule="evenodd"/><path d="M 5.968054294586182 -1.999997019767761 C 10.36165618896484 -1.999997019767761 13.93610668182373 1.574452757835388 13.93610668182373 5.968054294586182 C 13.93610668182373 10.36165618896484 10.36165618896484 13.93610668182373 5.968054294586182 13.93610668182373 C 1.574452757835388 13.93610668182373 -1.999997019767761 10.36165618896484 -1.999997019767761 5.968054294586182 C -1.999997019767761 1.574452757835388 1.574452757835388 -1.999997019767761 5.968054294586182 -1.999997019767761 Z M 5.968054294586182 10.08634090423584 C 8.238887786865234 10.08634090423584 10.08634090423584 8.238887786865234 10.08634090423584 5.968054294586182 C 10.08634090423584 3.697222471237183 8.238887786865234 1.849768161773682 5.968054294586182 1.849768161773682 C 3.697222471237183 1.849768161773682 1.849768161773682 3.697222471237183 1.849768161773682 5.968054294586182 C 1.849768161773682 8.238887786865234 3.697222471237183 10.08634090423584 5.968054294586182 10.08634090423584 Z" transform="matrix(1,0,0,1,51.47465133666992,38.47417068481445)" fill="#161615" fill-rule="evenodd"/><path d="M3.6908087730407715 0L3.6908087730407715 0A3.6908087730407715 3.6908087730407715 0 0 1 7.381617546081543 3.6908087730407715L7.381617546081543 12.323521137237549A3.6908087730407715 3.6908087730407715 0 0 1 3.6908087730407715 16.01432991027832L3.6908087730407715 16.01432991027832A3.6908087730407715 3.6908087730407715 0 0 1 0 12.323521137237549L0 3.6908087730407715A3.6908087730407715 3.6908087730407715 0 0 1 3.6908087730407715 0z" transform="matrix(1,0,0,1,53.751895904541016,1.9248825311660767)" fill="#ffffff" fill-rule="evenodd"/><path d="M 3.615691423416138 -2 C 6.712192058563232 -2 9.231382369995117 0.5191904306411743 9.231382369995117 3.6156907081604 L 9.231382369995117 12.24840450286865 C 9.231382369995117 15.34490489959717 6.712192058563232 17.86409568786621 3.615691423416138 17.86409568786621 C 0.5191904306411743 17.86409568786621 -1.999999523162842 15.34490489959717 -1.999999523162842 12.24840450286865 L -1.999999523162842 3.6156907081604 C -1.999999523162842 0.5191904306411743 0.5191904306411743 -2 3.615691423416138 -2 Z M 3.615691423416138 14.01432991027832 C 4.589422225952148 14.01432991027832 5.381617069244385 13.22213554382324 5.381617069244385 12.24840450286865 L 5.381617069244385 3.6156907081604 C 5.381617069244385 2.641960859298706 4.589422225952148 1.849765181541443 3.615691423416138 1.849765181541443 C 2.641960859298706 1.849765181541443 1.849765658378601 2.641960859298706 1.849765658378601 3.6156907081604 L 1.849765658378601 12.24840450286865 C 1.849765658378601 13.22213554382324 2.641960859298706 14.01432991027832 3.615691423416138 14.01432991027832 Z" transform="matrix(1,0,0,1,53.8270149230957,2)" fill="#161615" fill-rule="evenodd"/><g transform="matrix(1,0,0,1,5.342877388000488,21.357210159301758)"><g transform="matrix(1,0,0,1,5.318506240844727,-6.169385647150378e-16)"><path d="M 1.076341390609741 12.877121925354 L -1.16375994682312 12.877121925354 L -1.16375994682312 3.627471869549481e-06 L 1.076341390609741 3.627471869549481e-06 L 1.076341390609741 12.877121925354 Z" transform="matrix(1,0,0,1,1.1637599468231201,-0.000003627471869549481)" fill="#cd0d0f" fill-rule="evenodd"/></g><g transform="matrix(1,0,0,1,1.2232397191015416e-16,5.318504333496094)"><path d="M 12.877121925354 1.076341390609741 L 3.627471869549481e-06 1.076341390609741 L 3.627471869549481e-06 -1.16375994682312 L 12.877121925354 -1.16375994682312 L 12.877121925354 1.076341390609741 Z" transform="matrix(1,0,0,1,-0.000003627471869549481,1.1637599468231201)" fill="#cd0d0f" fill-rule="evenodd"/></g><g transform="matrix(1,0,0,1,1.0938146114349365,1.0938072204589844)"><path d="M 0.761085569858551 9.866588592529297 L -0.8229003548622131 8.282602310180664 L 8.282602310180664 -0.8229003548622131 L 9.866588592529297 0.761085569858551 L 0.761085569858551 9.866588592529297 Z" transform="matrix(1,0,0,1,0.8229003548622131,0.8229003548622131)" fill="#cd0d0f" fill-rule="evenodd"/></g><g transform="matrix(1,0,0,1,1.0938146114349365,1.0938072204589844)"><path d="M 8.282602310180664 9.866588592529297 L -0.8229003548622131 0.761085569858551 L 0.761085569858551 -0.8229003548622131 L 9.866588592529297 8.282602310180664 L 8.282602310180664 9.866588592529297 Z" transform="matrix(1,0,0,1,0.8229003548622131,0.8229003548622131)" fill="#cd0d0f" fill-rule="evenodd"/></g></g><g transform="matrix(1,0,0,1,51.00414276123047,21.357210159301758)"><g transform="matrix(1,0,0,1,5.318511486053467,-6.169385647150378e-16)"><path d="M 1.076341390609741 12.877121925354 L -1.16375994682312 12.877121925354 L -1.16375994682312 3.627471869549481e-06 L 1.076341390609741 3.627471869549481e-06 L 1.076341390609741 12.877121925354 Z" transform="matrix(1,0,0,1,1.1637599468231201,-0.000003627471869549481)" fill="#cd0d0f" fill-rule="evenodd"/></g><g transform="matrix(1,0,0,1,-4.169652243515539e-15,5.318504333496094)"><path d="M 12.877121925354 1.076341390609741 L 3.627471869549481e-06 1.076341390609741 L 3.627471869549481e-06 -1.16375994682312 L 12.877121925354 -1.16375994682312 L 12.877121925354 1.076341390609741 Z" transform="matrix(1,0,0,1,-0.000003627471869549481,1.1637599468231201)" fill="#cd0d0f" fill-rule="evenodd"/></g><g transform="matrix(1,0,0,1,1.0938146114349365,1.0938072204589844)"><path d="M 0.761085569858551 9.866588592529297 L -0.8229003548622131 8.282602310180664 L 8.282602310180664 -0.8229003548622131 L 9.866588592529297 0.761085569858551 L 0.761085569858551 9.866588592529297 Z" transform="matrix(1,0,0,1,0.8229003548622131,0.8229003548622131)" fill="#cd0d0f" fill-rule="evenodd"/></g><g transform="matrix(1,0,0,1,1.0938146114349365,1.0938072204589844)"><path d="M 8.282602310180664 9.866588592529297 L -0.8229003548622131 0.761085569858551 L 0.761085569858551 -0.8229003548622131 L 9.866588592529297 8.282602310180664 L 8.282602310180664 9.866588592529297 Z" transform="matrix(1,0,0,1,0.8229003548622131,0.8229003548622131)" fill="#cd0d0f" fill-rule="evenodd"/></g></g></g></svg>