<svg xmlns="http://www.w3.org/2000/svg" xmlns:xlink="http://www.w3.org/1999/xlink" width="114.5666461294449" height="115.50447325107778" viewBox="51.636015738692606 6.6562275469568855 114.5666461294449 115.50447325107778"><g transform="matrix(1,0,0,1,51.636016845703125,6.6562299728393555)"><path d="M 133.8324432373047 315.9593505859375 C 133.0868682861328 315.9593505859375 132.3396148681641 315.9207763671875 131.5923156738281 315.843505859375 C 129.2561798095703 315.6019287109375 127.0202102661133 314.9906005859375 124.946533203125 314.0264587402344 C 122.732063293457 312.9968872070312 120.7650451660156 311.5914611816406 119.1001281738281 309.8492431640625 C 115.9845733642578 306.5886840820312 114.0402297973633 302.1951904296875 113.6251907348633 297.4779968261719 C 113.2413558959961 293.1152648925781 114.2012481689453 288.7756958007812 116.2587509155273 285.5719604492188 C 118.4142227172852 282.2164611816406 121.3284606933594 280.7530822753906 123.8996429443359 279.4619445800781 C 126.3778305053711 278.217529296875 128.5180969238281 277.142822265625 129.8273620605469 274.5260314941406 C 131.3074340820312 271.5679931640625 131.2203826904297 267.7133483886719 129.5686340332031 263.0691833496094 L 133.3394927978516 261.7280578613281 C 135.3704681396484 267.4384460449219 135.3930206298828 272.3468627929688 133.4065856933594 276.3169250488281 C 131.5023498535156 280.1227416992188 128.4174194335938 281.6718444824219 125.6956481933594 283.03857421875 C 123.3782806396484 284.2022399902344 121.1894073486328 285.3013916015625 119.6261901855469 287.7349243164062 C 116.5098114013672 292.5873413085938 116.5287628173828 301.364990234375 121.9936828613281 307.0841979980469 C 127.6554260253906 313.0088806152344 136.7619323730469 313.0608520507812 142.2950134277344 309.6881713867188 C 143.5415802001953 308.9279479980469 149.7251739501953 304.8443298339844 149.0023651123047 299.1131896972656 C 148.4623870849609 294.8320617675781 144.4301300048828 292.2692565917969 143.6272888183594 291.7989807128906 L 145.6501922607422 288.3455810546875 C 147.1770935058594 289.239990234375 152.2178039550781 292.6236877441406 152.9731597900391 298.6123352050781 C 153.2215270996094 300.5814514160156 152.9624633789062 302.544189453125 152.2032623291016 304.4461364746094 C 151.6017608642578 305.9530334472656 150.6842346191406 307.4226379394531 149.4762115478516 308.814208984375 C 147.5075836181641 311.0818786621094 145.2553863525391 312.5705871582031 144.3784484863281 313.1053466796875 C 142.5538940429688 314.217529296875 140.5069580078125 315.0200500488281 138.2942657470703 315.4907836914062 C 136.8277130126953 315.8027954101562 135.3339996337891 315.9593200683594 133.8324432373047 315.9593505859375 Z" transform="matrix(1,0,0,1,-113.54222869873047,-200.4548797607422)" fill="#cd0d0f" fill-rule="evenodd"/><g transform="matrix(1,0,0,1,28.047809600830078,7.871273890926872e-16)"><g transform="matrix(1,0,0,1,10.947961807250977,1.4414203608915238e-14)"><ellipse cx="42.812828063964844" cy="8.538091659545898" rx="42.812828063964844" ry="8.538091659545898" transform="matrix(0.6427763104438782,-0.7660539150238037,0.7660539150238037,0.6427763104438782,3.725726366043091,69.31958770751953)" fill="#ffffff" fill-rule="evenodd"/><path d="M 45.45738983154297 2.569551737252357e-15 C 57.06150054931641 3.22549256929843e-15 67.99643707275391 0.9062516689300537 76.24784851074219 2.551814317703247 C 80.39047241210938 3.377971887588501 83.68286895751953 4.358853816986084 86.03360748291016 5.467237949371338 C 87.41144561767578 6.116880416870117 88.4622802734375 6.80405855178833 89.24616241455078 7.568015575408936 C 90.62527465820312 8.912082672119141 90.91477203369141 10.2755241394043 90.91477203369141 11.18264102935791 C 90.91477203369141 12.08975601196289 90.62527465820312 13.45319938659668 89.24616241455078 14.79726409912109 C 88.4622802734375 15.56122398376465 87.41144561767578 16.24840354919434 86.03360748291016 16.89804267883301 C 83.68286895751953 18.00642776489258 80.39047241210938 18.9873104095459 76.24784851074219 19.81346893310547 C 67.99643707275391 21.45903015136719 57.06150054931641 22.36528205871582 45.45738983154297 22.36528205871582 C 33.85327911376953 22.36528205871582 22.91834259033203 21.45903015136719 14.66692638397217 19.81346893310547 C 10.52430725097656 18.9873104095459 7.231894969940186 18.00642776489258 4.881168842315674 16.89804267883301 C 3.503319263458252 16.24840354919434 2.45248007774353 15.56122398376465 1.668605804443359 14.79726409912109 C 0.2894898056983948 13.45319938659668 -8.317069448649178e-16 12.08975601196289 -6.776704035166975e-16 11.18264102935791 C -5.236336504102403e-16 10.2755241394043 0.2894898056983948 8.912082672119141 1.668605804443359 7.568015575408936 C 2.45248007774353 6.80405855178833 3.503319263458252 6.116880416870117 4.881168842315674 5.467237949371338 C 7.231894969940186 4.358853816986084 10.52430725097656 3.377971887588501 14.66692638397217 2.551814317703247 C 22.91834259033203 0.9062516689300537 33.85327911376953 1.913610693448048e-15 45.45738983154297 2.569551737252357e-15 Z M 85.35715484619141 11.18264102935791 C 84.95184326171875 10.85593795776367 84.10269927978516 10.31558799743652 82.40104675292969 9.673395156860352 C 80.16519165039062 8.82958984375 77.17452239990234 8.07076358795166 73.51206970214844 7.417999267578125 C 65.80960083007812 6.045160293579102 55.84626388549805 5.289101600646973 45.45738983154297 5.289101600646973 C 35.06851577758789 5.289101600646973 25.10517883300781 6.045160293579102 17.40271377563477 7.417999267578125 C 13.74027538299561 8.07076358795166 10.74958801269531 8.82958984375 8.513721466064453 9.673395156860352 C 6.812074184417725 10.31558799743652 5.962925434112549 10.85593795776367 5.557615756988525 11.18264102935791 C 5.962925434112549 11.50934219360352 6.812074184417725 12.0496940612793 8.513721466064453 12.69188594818115 C 10.74958801269531 13.5356912612915 13.74027538299561 14.29451847076416 17.40271377563477 14.94728088378906 C 25.10517883300781 16.32012176513672 35.06851577758789 17.07618141174316 45.45738983154297 17.07618141174316 C 55.84626388549805 17.07618141174316 65.80960083007812 16.32012176513672 73.51206970214844 14.94728088378906 C 77.17452239990234 14.29451847076416 80.16519165039062 13.5356912612915 82.40104675292969 12.69188594818115 C 84.10269927978516 12.0496940612793 84.95184326171875 11.50934219360352 85.35715484619141 11.18264102935791 Z" transform="matrix(0.6427763104438782,-0.7660539150238037,0.7660539150238037,0.6427763104438782,4.884981308350689e-15,69.64561462402344)" fill="#161615" fill-rule="evenodd"/><path d="M 173.8371734619141 247.6630096435547 L 185.6011962890625 257.5335388183594 C 185.6011962890625 257.5335388183594 181.9548645019531 260.9957580566406 179.2331085205078 263.4964599609375 C 176.5123901367188 265.99609375 167.9980010986328 256.0547180175781 167.9980010986328 256.0547180175781 C 167.9980010986328 256.0547180175781 171.2232971191406 249.5554351806641 173.8371734619141 247.6630096435547 Z" transform="matrix(1,0,0,1,-149.3893585205078,-201.26817321777344)" fill="#d9000d" fill-rule="evenodd"/><path d="M 174.1289672851562 244.4945831298828 L 189.7422637939453 257.5947570800781 L 187.5941619873047 259.6344604492188 C 187.5575408935547 259.6692199707031 183.9007873535156 263.1404724121094 181.1943359375 265.6270446777344 C 180.4108276367188 266.3469543457031 179.4088745117188 266.7273254394531 178.2967529296875 266.7273254394531 C 176.1336059570312 266.7273254394531 173.5458984375 265.255615234375 170.153076171875 262.0955505371094 C 167.9634094238281 260.0560913085938 166.2339935302734 258.0428771972656 166.1614685058594 257.9581604003906 L 165.0234069824219 256.6294555664062 L 165.8011016845703 255.0623168945312 C 165.8361053466797 254.9918365478516 166.6716613769531 253.3131561279297 167.8504486083984 251.3766632080078 C 169.5615692138672 248.5656127929688 171.0688323974609 246.7100982666016 172.4582977294922 245.7041320800781 L 174.1289672851562 244.4945831298828 Z M 181.7982482910156 257.8336791992188 L 174.181884765625 251.4432067871094 C 173.2405090332031 252.6576843261719 172.2037811279297 254.3313903808594 171.3706665039062 255.8347930908203 C 171.9828033447266 256.4883117675781 172.7842864990234 257.3128051757812 173.6631774902344 258.1366882324219 C 176.1351318359375 260.4537963867188 177.482421875 261.1482849121094 178.0268096923828 261.3539123535156 C 179.2764892578125 260.2009582519531 180.6742248535156 258.8915100097656 181.7982482910156 257.8336791992188 Z" transform="matrix(1,0,0,1,-149.56134033203125,-201.4513702392578)" fill="#161615" fill-rule="evenodd"/></g><path d="M 146.1334686279297 292.3046875 C 151.2057037353516 294.3177185058594 156.3879699707031 292.24755859375 157.3399963378906 291.7260437011719 C 159.5106658935547 290.5391845703125 163.4817199707031 287.6058349609375 164.2750701904297 283.3099975585938 C 164.9414978027344 279.7070617675781 163.0247344970703 276.8647155761719 162.6809387207031 276.3717956542969 C 160.6922454833984 273.5273132324219 156.7433929443359 271.2868347167969 152.8664703369141 272.3753051757812 C 149.1884460449219 273.4067077636719 146.8633575439453 277.0720520019531 146.5460205078125 280.087890625 C 146.2551116943359 282.843505859375 147.7127838134766 284.3530578613281 146.5840911865234 286.1756591796875 C 145.3675994873047 288.1400451660156 142.7325744628906 287.8999328613281 142.5654449462891 289.1608276367188 C 142.4110107421875 290.3307800292969 144.5319213867188 291.6699829101562 146.1334686279297 292.3046875 Z" transform="matrix(1,0,0,1,-139.91236877441406,-199.85549926757812)" fill="#ffffff" fill-rule="evenodd"/><path d="M 150.9675445556641 295.9566345214844 C 150.9671173095703 295.9566345214844 150.9669952392578 295.9566345214844 150.9665679931641 295.9566345214844 C 148.9624176025391 295.9565124511719 147.0567626953125 295.6034851074219 145.3025207519531 294.9072570800781 C 144.1774597167969 294.46142578125 143.0457153320312 293.8226013183594 142.1986999511719 293.1551513671875 C 140.2041015625 291.5833129882812 139.9500732421875 290.005859375 140.0882110595703 288.9593200683594 C 140.1839141845703 288.2374267578125 140.5429534912109 287.2127380371094 141.7111511230469 286.4220581054688 C 142.2023620605469 286.0896301269531 142.7294006347656 285.8732604980469 143.1944274902344 285.6824645996094 C 143.8574676513672 285.4102783203125 144.30517578125 285.2107543945312 144.4803314208984 284.9278564453125 C 144.5189666748047 284.865478515625 144.5189971923828 284.8600463867188 144.5192718505859 284.7929077148438 C 144.5203094482422 284.5679321289062 144.4390411376953 284.1782836914062 144.3529815673828 283.7657775878906 C 144.1583557128906 282.8325500488281 143.8917999267578 281.554443359375 144.0606842041016 279.9548034667969 C 144.4739685058594 276.0269775390625 147.4358825683594 271.336669921875 152.2970275878906 269.9735717773438 C 153.191162109375 269.7224731445312 154.1196746826172 269.5951232910156 155.0559234619141 269.5951232910156 C 157.0106811523438 269.5951232910156 159.0095062255859 270.1534729003906 160.8363189697266 271.2099914550781 C 162.4904174804688 272.1665649414062 163.927734375 273.4774780273438 164.9928894042969 275.0009765625 C 165.4146728515625 275.6057739257812 166.0151824951172 276.6016540527344 166.4904937744141 277.9256896972656 C 167.2091827392578 279.9278869628906 167.3873748779297 281.9498901367188 167.0200958251953 283.9355773925781 C 165.9268951416016 289.8548583984375 160.416259765625 293.2817077636719 158.7533264160156 294.1909484863281 C 157.6394805908203 294.8010559082031 154.5761108398438 295.9566345214844 150.9675445556641 295.9566345214844 Z M 146.8146057128906 289.801513671875 C 146.9550170898438 289.8672180175781 147.1013946533203 289.9308776855469 147.2523651123047 289.9906616210938 C 148.3842468261719 290.4398803710938 149.6335754394531 290.66748046875 150.9668731689453 290.6675415039062 C 150.9670104980469 290.6675415039062 150.9674072265625 290.6675415039062 150.9675598144531 290.6675415039062 C 153.6035461425781 290.6675415039062 155.809326171875 289.7727355957031 156.2141418457031 289.5512084960938 C 158.4678192138672 288.3189086914062 161.2865447998047 285.8578491210938 161.8191070556641 282.9742736816406 C 162.2637786865234 280.5701293945312 161.0415954589844 278.5814208984375 160.6564178466797 278.0291442871094 C 159.5628509521484 276.4649658203125 157.4058227539062 274.8842163085938 155.0559234619141 274.8842163085938 C 154.6030120849609 274.8842163085938 154.1555328369141 274.9453430175781 153.7259216308594 275.0659484863281 C 151.2537078857422 275.7592163085938 149.5448913574219 278.3778686523438 149.3206176757812 280.5092163085938 C 149.2386627197266 281.2857055664062 149.3739776611328 281.9345703125 149.5307006835938 282.6858825683594 C 149.8027648925781 283.9905395507812 150.1754760742188 285.77734375 148.9770355224609 287.7125549316406 C 148.36669921875 288.6980590820312 147.5721130371094 289.3479919433594 146.8146057128906 289.801513671875 Z" transform="matrix(1,0,0,1,-140.05694580078125,-200.00006103515625)" fill="#161615" fill-rule="evenodd"/></g><g transform="matrix(1,0,0,1,26.170080184936523,49.88447952270508)"><g transform="matrix(1,0,0,1,6.62640380859375,-6.217523800092261e-15)"><path d="M 2.110501527786255 17.25505828857422 L -1.891739964485168 17.25505828857422 L -1.891739964485168 -1.361083945994324e-06 L 2.110501527786255 -1.361083945994324e-06 L 2.110501527786255 17.25505828857422 Z" transform="matrix(1,0,0,1,1.8917399644851685,0.0000013610839459943236)" fill="#cd0d0f" fill-rule="evenodd"/></g><g transform="matrix(1,0,0,1,1.9553852996154458e-15,6.626388072967529)"><path d="M 17.25505828857422 2.110501527786255 L -1.361083945994324e-06 2.110501527786255 L -1.361083945994324e-06 -1.891739964485168 L 17.25505828857422 -1.891739964485168 L 17.25505828857422 2.110501527786255 Z" transform="matrix(1,0,0,1,0.0000013610839459943236,1.8917399644851685)" fill="#cd0d0f" fill-rule="evenodd"/></g><g transform="matrix(1,0,0,1,1.1119409799575806,1.1119247674942017)"><path d="M 1.492354869842529 13.69351768493652 L -1.337663412094116 10.86349868774414 L 10.86349868774414 -1.337663412094116 L 13.69351768493652 1.492354869842529 L 1.492354869842529 13.69351768493652 Z" transform="matrix(1,0,0,1,1.3376634120941162,1.3376634120941162)" fill="#cd0d0f" fill-rule="evenodd"/></g><g transform="matrix(1,0,0,1,1.1119409799575806,1.1119247674942017)"><path d="M 10.86349868774414 13.69351768493652 L -1.337663412094116 1.492354869842529 L 1.492354869842529 -1.337663412094116 L 13.69351768493652 10.86349868774414 L 10.86349868774414 13.69351768493652 Z" transform="matrix(1,0,0,1,1.3376634120941162,1.3376634120941162)" fill="#cd0d0f" fill-rule="evenodd"/></g></g><g transform="matrix(1,0,0,1,11.133219718933105,90.38240814208984)"><g transform="matrix(1,0,0,1,6.62640380859375,-5.706954785860471e-15)"><path d="M 2.110501527786255 17.25505828857422 L -1.891739964485168 17.25505828857422 L -1.891739964485168 -1.361083945994324e-06 L 2.110501527786255 -1.361083945994324e-06 L 2.110501527786255 17.25505828857422 Z" transform="matrix(1,0,0,1,1.8917399644851685,0.0000013610839459943236)" fill="#cd0d0f" fill-rule="evenodd"/></g><g transform="matrix(1,0,0,1,-6.33168457138259e-16,6.62640380859375)"><path d="M 17.25505828857422 2.110501527786255 L -1.361083945994324e-06 2.110501527786255 L -1.361083945994324e-06 -1.891739964485168 L 17.25505828857422 -1.891739964485168 L 17.25505828857422 2.110501527786255 Z" transform="matrix(1,0,0,1,0.0000013610839459943236,1.8917399644851685)" fill="#cd0d0f" fill-rule="evenodd"/></g><g transform="matrix(1,0,0,1,1.1119409799575806,1.111940860748291)"><path d="M 1.492354869842529 13.69351768493652 L -1.337663412094116 10.86349868774414 L 10.86349868774414 -1.337663412094116 L 13.69351768493652 1.492354869842529 L 1.492354869842529 13.69351768493652 Z" transform="matrix(1,0,0,1,1.3376634120941162,1.3376634120941162)" fill="#cd0d0f" fill-rule="evenodd"/></g><g transform="matrix(1,0,0,1,1.1119409799575806,1.111940860748291)"><path d="M 10.86349868774414 13.69351768493652 L -1.337663412094116 1.492354869842529 L 1.492354869842529 -1.337663412094116 L 13.69351768493652 10.86349868774414 L 10.86349868774414 13.69351768493652 Z" transform="matrix(1,0,0,1,1.3376634120941162,1.3376634120941162)" fill="#cd0d0f" fill-rule="evenodd"/></g></g></g></svg>