<svg xmlns="http://www.w3.org/2000/svg" xmlns:xlink="http://www.w3.org/1999/xlink" width="83.73240536122165" height="100.57928466796872" viewBox="25.02347309366382 18.232561111450224 83.73240536122165 100.57928466796872"><g transform="matrix(1,0,0,1,25.023473739624023,18.232561111450195)"><g transform="matrix(1,0,0,1,-3.0421440292940005e-15,-5.31843358432825e-16)"><path d="M 283.1396179199219 310.6512756347656 C 282.7252807617188 310.06494140625 282.2081909179688 309.5255126953125 281.913330078125 308.8855590820312 C 277.9898376464844 300.3628234863281 270.6085205078125 296.8994750976562 261.9674377441406 297.3049011230469 C 258.8648681640625 297.4512023925781 255.8001861572266 298.3190002441406 252.7053680419922 298.7646179199219 C 252.0609436035156 298.8573303222656 251.19873046875 298.7523498535156 250.7084197998047 298.3804321289062 C 246.0735015869141 294.8634643554688 243.0948333740234 290.2430419921875 241.9422302246094 284.5258483886719 C 241.8138122558594 283.8926391601562 242.0941467285156 282.92431640625 242.5453491210938 282.4619140625 C 252.7064666748047 272.0182189941406 252.7299346923828 252.201904296875 242.7006072998047 241.6688842773438 C 242.1153564453125 241.0546112060547 241.8573760986328 239.6998596191406 242.0595245361328 238.8320465087891 C 243.2835845947266 233.5638885498047 246.1237640380859 229.2651062011719 250.3163909912109 225.8453216552734 C 251.1250305175781 225.1852569580078 251.8688201904297 225.0880737304688 252.9030456542969 225.3918609619141 C 254.8966217041016 225.9781951904297 256.9416198730469 226.5611877441406 258.9988403320312 226.7276000976562 C 264.9896545410156 227.2123107910156 269.2772521972656 224.6536407470703 271.7979736328125 219.1486511230469 C 272.6155090332031 217.3616943359375 272.9695739746094 215.3658599853516 273.6966247558594 213.5286560058594 C 273.9825744628906 212.8071594238281 274.5879211425781 211.9438323974609 275.254638671875 211.6914215087891 C 277.0907592773438 210.9978637695312 279.0374450683594 210.5924377441406 280.9394226074219 210.0719909667969 L 286.5973815917969 210.0719909667969 C 288.4446716308594 210.5924377441406 290.2897338867188 211.1218109130859 292.1414489746094 211.6300048828125 C 293.2091674804688 211.9237365722656 293.6637573242188 212.5771026611328 293.9686584472656 213.6850128173828 C 294.5884704589844 215.9365692138672 295.261962890625 218.2306060791016 296.3385925292969 220.2855987548828 C 298.9129638671875 225.2031097412109 303.7611999511719 227.494873046875 309.2181396484375 226.5891265869141 C 311.0676574707031 226.281982421875 312.8691711425781 225.6889190673828 314.7164001464844 225.3672637939453 C 315.4100036621094 225.2466735839844 316.3670959472656 225.2712249755859 316.8752746582031 225.6598968505859 C 321.4488220214844 229.1523132324219 324.4375 233.7135314941406 325.566650390625 239.3860168457031 C 325.7006530761719 240.0628356933594 325.4091796875 241.0691070556641 324.9423217773438 241.5850830078125 C 314.9855651855469 252.5682220458984 314.8258361816406 270.9784240722656 324.6876525878906 282.0208129882812 C 325.60009765625 283.0438232421875 325.8324279785156 284.0690612792969 325.4984741210938 285.32666015625 C 324.1392822265625 290.444091796875 321.4320678710938 294.6847839355469 317.3421325683594 298.06103515625 C 316.4441833496094 298.8014831542969 315.6322326660156 298.9343872070312 314.486328125 298.5870666503906 C 309.0841064453125 296.9486389160156 303.6092834472656 296.52197265625 298.0887145996094 298.0330810546875 C 292.5055541992188 299.5609436035156 288.5384826660156 303.0343627929688 285.9250793457031 308.1484069824219 C 285.4816589355469 309.0162048339844 284.9098510742188 309.818115234375 284.397216796875 310.6512756347656 L 283.1396179199219 310.6512756347656 Z M 283.8722839355469 304.9251708984375 C 287.3077392578125 299.2001953125 292.2765808105469 295.7200622558594 298.7052307128906 294.4032897949219 C 303.6997680664062 293.3814086914062 308.7055053710938 293.6192626953125 313.6397705078125 294.8489379882812 C 314.9018249511719 295.1638793945312 315.7484130859375 294.9617309570312 316.6664123535156 294.0246887207031 C 318.9827880859375 291.6591796875 320.6412963867188 288.9329528808594 321.7346801757812 285.8236389160156 C 322.1122131347656 284.75146484375 322.0273132324219 283.9663391113281 321.2455444335938 283.0058288574219 C 311.4417724609375 270.9449462890625 311.5847473144531 252.2890167236328 321.4655456542969 240.2806243896484 C 321.8140258789062 239.8562316894531 321.9804077148438 239.0442657470703 321.8508605957031 238.5048370361328 C 321.1661987304688 235.6613159179688 319.708740234375 233.2031402587891 317.8782043457031 230.9325561523438 C 316.46875 229.1858215332031 315.0079040527344 227.8545227050781 312.614501953125 229.2226409912109 C 312.396728515625 229.3466339111328 312.1097106933594 229.3477325439453 311.8550109863281 229.4058074951172 C 303.4451293945312 231.3123016357422 296.5753479003906 228.3291931152344 292.9723815917969 221.0919799804688 C 292.1414489746094 219.4211578369141 291.4892272949219 217.6241455078125 291.0357666015625 215.8148498535156 C 290.7286682128906 214.5896606445312 290.1423034667969 213.9564056396484 288.9896850585938 213.8893890380859 C 286.1383666992188 213.7229919433594 283.281494140625 213.5409240722656 280.4279174804688 213.5442810058594 C 278.1908264160156 213.5476379394531 276.8048400878906 214.3841552734375 276.1324768066406 216.9730377197266 C 274.6961975097656 222.5014495849609 271.623779296875 226.9978790283203 265.93896484375 229.0551452636719 C 261.8289489746094 230.5427703857422 257.6798706054688 230.0703582763672 253.6055450439453 228.8339996337891 C 252.5389556884766 228.5101013183594 251.8431549072266 228.6954803466797 251.1094055175781 229.4482727050781 C 248.6243743896484 232.0002593994141 246.6587219238281 234.8717041015625 245.7417755126953 238.3428802490234 C 245.5798645019531 238.9560241699219 245.766357421875 239.9031066894531 246.1650695800781 240.3889465332031 C 256.1084289550781 252.5045623779297 256.074951171875 271.3972778320312 246.0790710449219 283.5508728027344 C 245.7328491210938 283.9730529785156 245.5642242431641 284.7894287109375 245.7015686035156 285.3210754394531 C 246.6576080322266 289.0167236328125 248.6902923583984 292.0925598144531 251.4946899414062 294.6401062011719 C 251.8956451416016 295.0042114257812 252.6941986083984 295.1259155273438 253.2760925292969 295.0633544921875 C 256.3876647949219 294.7283325195312 259.480224609375 294.0470275878906 262.5928649902344 293.95654296875 C 269.2794799804688 293.760009765625 275.3194274902344 295.6508178710938 280.162109375 300.49462890625 C 281.4777526855469 301.810302734375 282.5678100585938 303.3526306152344 283.8722839355469 304.9251708984375 Z" transform="matrix(1,0,0,1,-241.91098022460938,-210.07199096679688)" fill="#000000" fill-rule="evenodd"/><path d="M 307.5930786132812 278.260986328125 C 307.0447387695312 277.3775634765625 306.488525390625 276.5544128417969 306.0093994140625 275.6877746582031 C 305.4520874023438 274.6814880371094 305.5514831542969 273.7444458007812 306.6102600097656 273.1245422363281 C 307.6578369140625 272.5125732421875 308.3916320800781 273.0430603027344 308.97021484375 273.9208984375 C 309.6581420898438 274.968505859375 310.3629150390625 276.0071716308594 311.0151062011719 277.0760498046875 C 311.2228393554688 277.4177856445312 311.4763793945312 277.9013671875 311.3836669921875 278.2263793945312 C 310.7392578125 280.474609375 309.6078491210938 282.459228515625 307.7673645019531 283.94580078125 C 307.4601745605469 284.1925659179688 306.8570861816406 284.1836242675781 306.4114379882812 284.1278076171875 C 305.1170043945312 283.9647827148438 303.7633972167969 283.8966064453125 302.5706176757812 283.4353942871094 C 301.9239501953125 283.1863098144531 301.5576477050781 282.2124328613281 301.0639953613281 281.5657653808594 C 301.7318420410156 281.1044921875 302.3740234375 280.5997009277344 303.0798645019531 280.2098999023438 C 303.2954711914062 280.0904235839844 303.7008361816406 280.2411804199219 303.9912414550781 280.3461608886719 C 305.9591369628906 281.0531311035156 307.0335388183594 280.1574401855469 307.5930786132812 278.260986328125 Z" transform="matrix(1,0,0,1,-234.9988250732422,-202.7349395751953)" fill="#000000" fill-rule="evenodd"/><path d="M 256.52587890625 234.2397918701172 C 255.9551544189453 234.1738891601562 255.3542938232422 234.2018127441406 254.8226776123047 234.0220031738281 C 253.779541015625 233.6701812744141 253.2322998046875 234.0778350830078 252.6559753417969 234.9344635009766 C 252.0886383056641 235.7788238525391 252.3444061279297 236.3294067382812 252.8492126464844 237.0062561035156 C 253.2836761474609 237.5869903564453 253.8454284667969 238.2169189453125 253.9269714355469 238.8769378662109 C 254.0152282714844 239.5839385986328 253.8264465332031 240.6907501220703 253.3529357910156 240.9978485107422 C 252.8771362304688 241.3072509765625 251.5983428955078 241.1173553466797 251.2029724121094 240.6739654541016 C 250.1777038574219 239.520263671875 249.4115295410156 238.1264190673828 248.6174468994141 236.7828521728516 C 248.4387664794922 236.4801788330078 248.4901428222656 235.9720306396484 248.5839538574219 235.5956573486328 C 248.7090454101562 235.0975189208984 248.9569702148438 234.6239624023438 249.1937713623047 234.1616058349609 C 251.2845153808594 230.0817413330078 253.0558319091797 229.3669586181641 257.3132629394531 231.1036529541016 C 257.8951416015625 231.3404541015625 258.5898132324219 232.4193267822266 258.47705078125 232.9487152099609 C 258.3440856933594 233.5763854980469 257.3936767578125 234.0309295654297 256.7983703613281 234.5614318847656 L 256.52587890625 234.2397918701172 Z" transform="matrix(1,0,0,1,-241.14126586914062,-207.7178955078125)" fill="#000000" fill-rule="evenodd"/><path d="M 253.2669219970703 284.1538696289062 C 251.0957641601562 284.1628112792969 247.9417724609375 278.8722534179688 248.9793090820312 277.0931091308594 C 249.6371307373047 275.9662780761719 250.3541564941406 274.8705749511719 251.0935211181641 273.7950439453125 C 251.7267608642578 272.8735961914062 252.6582336425781 272.6681518554688 253.561767578125 273.2533874511719 C 254.4307098388672 273.8162536621094 254.4854125976562 274.725341796875 253.9906463623047 275.6155700683594 C 253.7125396728516 276.1169738769531 253.3886566162109 276.5994262695312 253.0346069335938 277.0484619140625 C 252.4784393310547 277.7542724609375 251.8876037597656 278.3540649414062 252.6247406005859 279.3614196777344 C 253.262451171875 280.2315063476562 253.8152923583984 280.8826293945312 255.0248413085938 280.4302978515625 C 255.5989074707031 280.2158203125 256.3226013183594 280.0192565917969 256.8609313964844 280.1879272460938 C 257.5511474609375 280.4046020507812 258.4044189453125 280.8669738769531 258.6825256347656 281.4599914550781 C 259.1281433105469 282.4104614257812 258.4747619628906 283.2235107421875 257.4897155761719 283.4502563476562 C 256.0679626464844 283.7763366699219 254.6082763671875 283.9383544921875 253.2669219970703 284.1538696289062 Z" transform="matrix(1,0,0,1,-241.10887145996094,-202.7274627685547)" fill="#000000" fill-rule="evenodd"/><path d="M 306.6842346191406 230.2700958251953 C 306.8752136230469 230.2700958251953 306.927734375 230.2678527832031 306.9790954589844 230.2711639404297 C 308.83642578125 230.3851013183594 311.7637023925781 235.4969329833984 310.8590087890625 237.1275482177734 C 310.22802734375 238.2622680664062 309.4864196777344 239.3389129638672 308.7571105957031 240.4155731201172 C 308.2053833007812 241.2297210693359 307.3286437988281 241.8082733154297 306.546875 241.0599822998047 C 306.05322265625 240.5886535644531 305.9371032714844 239.5399627685547 305.9683532714844 238.7637176513672 C 305.9906616210938 238.213134765625 306.4955139160156 237.6468811035156 306.8729858398438 237.1543579101562 C 307.4470825195312 236.4049377441406 307.7474670410156 235.8040924072266 307.1165161132812 234.8190002441406 C 306.4820861816406 233.8294830322266 305.8242492675781 233.8417663574219 304.8905944824219 234.0818786621094 C 304.2405700683594 234.2482757568359 303.4632263183594 234.4895477294922 302.8992309570312 234.2784423828125 C 302.2291259765625 234.0271606445312 301.4115905761719 233.4073028564453 301.25634765625 232.7963714599609 C 301.1390686035156 232.3306579589844 301.8415832519531 231.2774658203125 302.3798828125 231.1010131835938 C 303.8016357421875 230.6375122070312 305.3317260742188 230.5090789794922 306.6842346191406 230.2700958251953 Z" transform="matrix(1,0,0,1,-234.9778594970703,-207.71189880371094)" fill="#000000" fill-rule="evenodd"/><path d="M 279.9882202148438 216.0279998779297 C 280.8716430664062 216.1195831298828 281.7036743164062 216.1988830566406 282.53466796875 216.2960357666016 C 282.739013671875 216.3194885253906 282.9467468261719 216.3775787353516 283.1366271972656 216.4568634033203 C 284.154052734375 216.8812866210938 285.9588623046875 221.6111450195312 285.483154296875 222.58837890625 C 284.9280395507812 223.7309112548828 283.3834228515625 223.8571319580078 282.6619567871094 222.7637481689453 C 282.2643432617188 222.16064453125 281.9717102050781 221.4670562744141 281.74951171875 220.77685546875 C 281.43115234375 219.7828521728516 280.9498291015625 219.1786346435547 279.7793579101562 219.2043304443359 C 278.6748046875 219.2288818359375 278.039306640625 219.6242523193359 277.779052734375 220.7254638671875 C 277.6372680664062 221.3263397216797 277.4116516113281 221.9763641357422 277.0195922851562 222.4275665283203 C 276.6130676269531 222.8943939208984 275.9596862792969 223.1479187011719 275.4147338867188 223.4952850341797 C 275.00927734375 222.8541870117188 274.1738891601562 222.1293487548828 274.2799377441406 221.5888061523438 C 274.5770874023438 220.0721435546875 275.1924743652344 218.60009765625 275.8413391113281 217.1828155517578 C 276.0311889648438 216.7662353515625 276.7169494628906 216.4501800537109 277.2306823730469 216.3351287841797 C 278.1431579589844 216.1318664550781 279.0969848632812 216.1173553466797 279.9882202148438 216.0279998779297 Z" transform="matrix(1,0,0,1,-238.12969970703125,-209.37603759765625)" fill="#000000" fill-rule="evenodd"/><path d="M 295.0211181640625 234.1642303466797 C 293.4452209472656 233.4203948974609 292.0726318359375 232.9033203125 290.8407287597656 232.155029296875 C 289.5574645996094 231.3754425048828 288.293212890625 230.4842071533203 287.2623291015625 229.4097900390625 C 286.8624877929688 228.9954376220703 286.8446350097656 227.7657928466797 287.1774597167969 227.2430877685547 C 287.4276428222656 226.8499603271484 288.6706848144531 226.6857757568359 289.2078857421875 226.9516143798828 C 291.4762573242188 228.0729217529297 293.6898498535156 229.3260192871094 295.8174743652344 230.6963958740234 C 296.3077392578125 231.0124664306641 296.6807250976562 232.0522766113281 296.5511779785156 232.6352386474609 C 296.421630859375 233.2126922607422 295.5895690917969 233.6337280273438 295.0211181640625 234.1642303466797 Z" transform="matrix(1,0,0,1,-236.6488037109375,-208.11477661132812)" fill="#000000" fill-rule="evenodd"/><path d="M 279.9060363769531 286.1696472167969 C 280.5235900878906 285.6513977050781 281.0787048339844 285.1901550292969 281.6270751953125 284.7210998535156 C 282.4903869628906 283.981689453125 283.4553527832031 283.7337951660156 284.2528076171875 284.6596374511719 C 285.0334777832031 285.5665283203125 284.7129211425781 286.5069274902344 283.8429260253906 287.2496032714844 C 282.9315490722656 288.0292053222656 282.0023498535156 288.7886657714844 281.0876159667969 289.5648803710938 C 280.2924194335938 290.2405700683594 279.4927673339844 290.2618103027344 278.6897583007812 289.5939331054688 C 277.690185546875 288.7618408203125 276.5543518066406 288.0347900390625 275.76025390625 287.0363159179688 C 275.3302307128906 286.4957580566406 275.4910888671875 285.4861145019531 275.385009765625 284.6875915527344 C 276.1388854980469 284.59375 276.9798583984375 284.2475280761719 277.6242980957031 284.4709167480469 C 278.4150085449219 284.7456359863281 279.0415649414062 285.4950561523438 279.9060363769531 286.1696472167969 Z" transform="matrix(1,0,0,1,-237.99948120117188,-201.42620849609375)" fill="#000000" fill-rule="evenodd"/><path d="M 273.2395935058594 228.1855621337891 C 272.8118591308594 228.7908935546875 272.5694885253906 229.4487457275391 272.0993041992188 229.7446899414062 C 269.9102783203125 231.1195373535156 267.6810302734375 232.4385223388672 265.4149475097656 233.683837890625 C 264.3885498046875 234.2478332519531 263.5375061035156 233.6693115234375 263.1186828613281 232.7333984375 C 262.6607971191406 231.7103576660156 263.1756591796875 230.9799194335938 264.1417236328125 230.4561462402344 C 266.1408996582031 229.3705444335938 268.0808715820312 228.1755218505859 270.1001281738281 227.130126953125 C 270.6741638183594 226.8341522216797 271.4772033691406 226.7224884033203 272.0981750488281 226.8654327392578 C 272.5180969238281 226.9603881835938 272.8017883300781 227.6483612060547 273.2395935058594 228.1855621337891 Z" transform="matrix(1,0,0,1,-239.45257568359375,-208.11683654785156)" fill="#000000" fill-rule="evenodd"/><path d="M 300.6471862792969 261.1337585449219 C 300.6092224121094 259.9364318847656 301.2592163085938 259.3009643554688 302.2889709472656 259.1278686523438 C 303.3924255371094 258.9435729980469 303.8882751464844 259.7197875976562 304.0814819335938 260.66796875 C 304.5673217773438 263.0614624023438 305.1000671386719 265.4504089355469 305.4127807617188 267.8672485351562 C 305.4831237792969 268.4133911132812 304.7359619140625 269.0633850097656 304.3651733398438 269.6664733886719 C 303.6325378417969 269.209716796875 302.4375 268.8947448730469 302.2476196289062 268.2715759277344 C 301.5350646972656 265.9473571777344 301.1531066894531 263.5215759277344 300.6471862792969 261.1337585449219 Z" transform="matrix(1,0,0,1,-235.04771423339844,-204.34291076660156)" fill="#000000" fill-rule="evenodd"/><path d="M 258.7243041992188 253.6118316650391 C 258.330078125 254.0496368408203 257.8252563476562 255.0514678955078 257.3472290039062 255.0391693115234 C 256.6514587402344 255.0201873779297 255.5301361083984 254.3958740234375 255.365966796875 253.8128814697266 C 254.6790771484375 251.3636322021484 254.1977081298828 248.8439788818359 253.8504028320312 246.3221130371094 C 253.7856292724609 245.8441314697266 254.5740966796875 244.9919891357422 255.1537475585938 244.7429046630859 C 256.0416870117188 244.3620758056641 256.8011474609375 244.8981628417969 257.0255737304688 245.8664398193359 C 257.5906982421875 248.3011779785156 258.1011047363281 250.7482147216797 258.7243041992188 253.6118316650391 Z" transform="matrix(1,0,0,1,-240.5163116455078,-206.03504943847656)" fill="#000000" fill-rule="evenodd"/><path d="M 253.7329864501953 268.3999328613281 C 254.251220703125 265.3788452148438 254.5974578857422 262.8447265625 255.1792907714844 260.3664245605469 C 255.3032989501953 259.84375 256.5151062011719 259.0541076660156 256.8300476074219 259.2060241699219 C 257.4934387207031 259.5265502929688 258.3903198242188 260.4501953125 258.3199157714844 261.0187072753906 C 258.0027160644531 263.5952453613281 257.4644165039062 266.1573181152344 256.7976379394531 268.66796875 C 256.6736755371094 269.1315002441406 255.5344543457031 269.6642150878906 254.9592742919922 269.5715026855469 C 254.3964080810547 269.4810485839844 253.9563598632812 268.6322631835938 253.7329864501953 268.3999328613281 Z" transform="matrix(1,0,0,1,-240.52957153320312,-204.33282470703125)" fill="#000000" fill-rule="evenodd"/><path d="M 300.6830139160156 252.8642272949219 C 301.169921875 250.5646209716797 301.6021728515625 248.2527465820312 302.1661376953125 245.9732360839844 C 302.4152526855469 244.9703216552734 303.1869506835938 244.2946319580078 304.2904357910156 244.6196136474609 C 305.3793334960938 244.9401550292969 305.5747985839844 245.8090667724609 305.3469543457031 246.8868255615234 C 304.8934936523438 249.0300598144531 304.5149230957031 251.1889495849609 304.1228942871094 253.344482421875 C 303.9341125488281 254.3831329345703 303.4717407226562 255.2151947021484 302.2968139648438 255.0610961914062 C 301.1129760742188 254.9069519042969 300.6930236816406 254.0279693603516 300.6830139160156 252.8642272949219 Z" transform="matrix(1,0,0,1,-235.04335021972656,-206.04466247558594)" fill="#000000" fill-rule="evenodd"/><path d="M 264.0690307617188 279.1489868164062 C 266.6232299804688 279.7688598632812 268.8033447265625 280.2759094238281 270.9711608886719 280.8332214355469 C 272.02099609375 281.1034545898438 272.6307983398438 281.7959594726562 272.333740234375 282.9228515625 C 272.0254516601562 284.0932922363281 271.0671691894531 284.2138977050781 270.0709533691406 284.0274353027344 C 267.9690856933594 283.6331787109375 265.8705139160156 283.2143249511719 263.7808532714844 282.7564697265625 C 262.8271179199219 282.5475769042969 261.9715576171875 281.9321899414062 262.3401184082031 280.9180908203125 C 262.600341796875 280.2010498046875 263.4893798828125 279.7130126953125 264.0690307617188 279.1489868164062 Z" transform="matrix(1,0,0,1,-239.5340118408203,-202.0001678466797)" fill="#000000" fill-rule="evenodd"/><path d="M 288.6888427734375 283.9780883789062 C 288.4788818359375 283.7748413085938 287.6691589355469 283.3537902832031 287.5932312011719 282.82666015625 C 287.5049743652344 282.2179260253906 287.9349670410156 281.0463256835938 288.3627319335938 280.9302062988281 C 290.8611145019531 280.2467041015625 293.4131469726562 279.7172546386719 295.9774475097656 279.3543395996094 C 296.4330749511719 279.2906494140625 297.3277282714844 280.1785888671875 297.4728698730469 280.7615661621094 C 297.5845642089844 281.211669921875 296.9367980957031 282.2536926269531 296.4576721191406 282.3776550292969 C 294.0486145019531 282.9997253417969 291.583740234375 283.40625 288.6888427734375 283.9780883789062 Z" transform="matrix(1,0,0,1,-236.5742645263672,-201.9765625)" fill="#000000" fill-rule="evenodd"/></g><g transform="matrix(1,0,0,1,42.041160583496094,28.95439338684082)"><g transform="matrix(1,0,0,1,7.39655876159668,1.5588750950829597e-15)"><path d="M 2.467410802841187 19.26054954528809 L -2 19.26054954528809 L -2 2.008056441127337e-07 L 2.467410802841187 2.008056441127337e-07 L 2.467410802841187 19.26054954528809 Z" transform="matrix(1,0,0,1,2,-2.0080564411273372e-7)" fill="#cd0d0f" fill-rule="evenodd"/></g><g transform="matrix(1,0,0,1,1.0483057632138144e-15,7.396576404571533)"><path d="M 19.26054954528809 2.467410802841187 L 2.008056441127337e-07 2.467410802841187 L 2.008056441127337e-07 -2 L 19.26054954528809 -2 L 19.26054954528809 2.467410802841187 Z" transform="matrix(1,0,0,1,-2.0080564411273372e-7,2)" fill="#cd0d0f" fill-rule="evenodd"/></g><g transform="matrix(1,0,0,1,1.241187334060669,1.2411701679229736)"><path d="M 1.744722485542297 15.36399364471436 L -1.414217114448547 12.20505237579346 L 12.20505237579346 -1.414217114448547 L 15.36399364471436 1.744722485542297 L 1.744722485542297 15.36399364471436 Z" transform="matrix(1,0,0,1,1.4142171144485474,1.4142171144485474)" fill="#cd0d0f" fill-rule="evenodd"/></g><g transform="matrix(1,0,0,1,1.241187334060669,1.2411701679229736)"><path d="M 12.20505237579346 15.36399364471436 L -1.414217114448547 1.744722485542297 L 1.744722485542297 -1.414217114448547 L 15.36399364471436 12.20505237579346 L 12.20505237579346 15.36399364471436 Z" transform="matrix(1,0,0,1,1.4142171144485474,1.4142171144485474)" fill="#cd0d0f" fill-rule="evenodd"/></g></g><g transform="matrix(1,0,0,1,24.156402587890625,54.75798416137695)"><g transform="matrix(1,0,0,1,7.39659309387207,-6.55190903485287e-17)"><path d="M 2.467410802841187 19.26054954528809 L -2 19.26054954528809 L -2 2.008056441127337e-07 L 2.467410802841187 2.008056441127337e-07 L 2.467410802841187 19.26054954528809 Z" transform="matrix(1,0,0,1,2,-2.0080564411273372e-7)" fill="#cd0d0f" fill-rule="evenodd"/></g><g transform="matrix(1,0,0,1,1.0483057632138144e-15,7.39659309387207)"><path d="M 19.26054954528809 2.467410802841187 L 2.008056441127337e-07 2.467410802841187 L 2.008056441127337e-07 -2 L 19.26054954528809 -2 L 19.26054954528809 2.467410802841187 Z" transform="matrix(1,0,0,1,-2.0080564411273372e-7,2)" fill="#cd0d0f" fill-rule="evenodd"/></g><g transform="matrix(1,0,0,1,1.241187334060669,1.241187334060669)"><path d="M 1.744722485542297 15.36399364471436 L -1.414217114448547 12.20505237579346 L 12.20505237579346 -1.414217114448547 L 15.36399364471436 1.744722485542297 L 1.744722485542297 15.36399364471436 Z" transform="matrix(1,0,0,1,1.4142171144485474,1.4142171144485474)" fill="#cd0d0f" fill-rule="evenodd"/></g><g transform="matrix(1,0,0,1,1.241187334060669,1.241187334060669)"><path d="M 12.20505237579346 15.36399364471436 L -1.414217114448547 1.744722485542297 L 1.744722485542297 -1.414217114448547 L 15.36399364471436 12.20505237579346 L 12.20505237579346 15.36399364471436 Z" transform="matrix(1,0,0,1,1.4142171144485474,1.4142171144485474)" fill="#cd0d0f" fill-rule="evenodd"/></g></g></g></svg>