<svg xmlns="http://www.w3.org/2000/svg" xmlns:xlink="http://www.w3.org/1999/xlink" width="115.231559180234" height="111.19744873046868" viewBox="33.64715576171869 12.690606117248663 115.231559180234 111.19744873046868"><g transform="matrix(1,0,0,1,33.64715576171875,12.690606117248535)"><g transform="matrix(1,0,0,1,22.494539260864258,1.2342367796194798e-13)"><path d="M5.126204967498779 0L5.748652935028076 0A5.126204967498779 5.126204967498779 0 0 1 10.874857902526855 5.126204967498779L10.874857902526855 23.436676502227783A5.126204967498779 5.126204967498779 0 0 1 5.748652935028076 28.562881469726562L5.126204967498779 28.562881469726562A5.126204967498779 5.126204967498779 0 0 1 0 23.436676502227783L0 5.126204967498779A5.126204967498779 5.126204967498779 0 0 1 5.126204967498779 0z" transform="matrix(0.683357834815979,0.7300836443901062,-0.7300836443901062,0.683357834815979,82.30709838867188,2.998505115509033)" fill="#ffffff" fill-rule="evenodd"/><path d="M 7.558841228485107 4.272755793772852e-16 C 11.72681045532227 6.628767083951051e-16 15.11770248413086 3.390882015228271 15.11770248413086 7.558840751647949 L 15.11770248413086 25.24687957763672 C 15.11770248413086 29.41483688354492 11.72682189941406 32.80572128295898 7.558862209320068 32.80572128295898 C 3.390892028808594 32.80572128295898 -4.407146305882015e-16 29.41483688354492 -4.411928865660449e-16 25.24687957763672 L -4.43222059870311e-16 7.558840751647949 C -4.437001834992565e-16 3.390882015228271 3.390881776809692 1.916750194597266e-16 7.558841228485107 4.272755793772852e-16 Z M 7.558841228485107 28.56287574768066 C 9.387295722961426 28.56287574768066 10.87485790252686 27.07532501220703 10.87485790252686 25.24687957763672 L 10.87485790252686 7.558840751647949 C 10.87485790252686 5.730397701263428 9.38730525970459 4.242845058441162 7.558862209320068 4.242845058441162 L 7.558841228485107 4.242845058441162 C 5.73039722442627 4.242845058441162 4.242845058441162 5.730397701263428 4.242845058441162 7.558840751647949 L 4.242845058441162 25.24687957763672 C 4.242845058441162 27.07532501220703 5.73039722442627 28.56287574768066 7.558841228485107 28.56287574768066 Z" transform="matrix(0.683357834815979,0.7300836443901062,-0.7300836443901062,0.683357834815979,82.40621948242188,4.884981308350689e-15)" fill="#161615" fill-rule="evenodd"/><path d="M 509.152587890625 346.1501159667969 L 493.3944396972656 329.314453125 L 537.105224609375 294.1439208984375 L 547.4017333984375 305.14453125 L 509.152587890625 346.1501159667969 Z" transform="matrix(1,0,0,1,-486.61102294921875,-263.9707336425781)" fill="#ffffff" fill-rule="evenodd"/><path d="M 509.3333435058594 349.4225769042969 L 490.4613037109375 329.2601013183594 L 537.4869384765625 291.4223327636719 L 550.483154296875 305.3072204589844 L 509.3333435058594 349.4225769042969 Z M 496.6836853027344 329.6991882324219 L 509.3280334472656 343.2080688476562 L 544.6764526367188 305.3122253417969 L 537.07958984375 297.1959228515625 L 496.6836853027344 329.6991882324219 Z" transform="matrix(1,0,0,1,-486.78912353515625,-264.13592529296875)" fill="#161615" fill-rule="evenodd"/><path d="M2.09989333152771 0L17.029377222061157 0A2.09989333152771 2.09989333152771 0 0 1 19.129270553588867 2.09989333152771L19.129270553588867 23.711519479751587A2.09989333152771 2.09989333152771 0 0 1 17.029377222061157 25.811412811279297L2.09989333152771 25.811412811279297A2.09989333152771 2.09989333152771 0 0 1 0 23.711519479751587L0 2.09989333152771A2.09989333152771 2.09989333152771 0 0 1 2.09989333152771 0z" transform="matrix(0.683357834815979,0.7300835847854614,-0.7300835847854614,0.683357834815979,62.93804931640625,15.474876403808594)" fill="#d9000d" fill-rule="evenodd"/><path d="M 4.348800659179688 -2.215457289888781e-16 L 19.02331733703613 -2.198622245364306e-16 C 21.42125701904297 -2.195871505868098e-16 23.37211608886719 1.950859189033508 23.37211608886719 4.348799705505371 L 23.37211608886719 25.7054557800293 C 23.37211608886719 28.10339736938477 21.42125701904297 30.05425643920898 19.02331733703613 30.05425643920898 L 4.348800659179688 30.05425643920898 C 1.95086133480072 30.05425643920898 4.328127025749135e-15 28.10339736938477 3.920934994597943e-15 25.7054557800293 L 2.943771952140491e-16 4.348799705505371 C -1.128152859233958e-16 1.950859189033508 1.95086133480072 -2.21820802938499e-16 4.348800659179688 -2.215457289888781e-16 Z M 19.02331733703613 25.81141090393066 C 19.08174133300781 25.81141090393066 19.12926864624023 25.76387977600098 19.12926864624023 25.7054557800293 L 19.12926864624023 4.348799705505371 C 19.12926864624023 4.290374755859375 19.08174133300781 4.242845058441162 19.02331733703613 4.242845058441162 L 4.348800659179688 4.242845058441162 C 4.290377140045166 4.242845058441162 4.242845058441162 4.290374755859375 4.242845058441162 4.348799705505371 L 4.242845058441162 25.7054557800293 C 4.242845058441162 25.76387977600098 4.290377140045166 25.81141090393066 4.348800659179688 25.81141090393066 L 19.02331733703613 25.81141090393066 Z" transform="matrix(0.683357834815979,0.7300835847854614,-0.7300835847854614,0.683357834815979,63.037166595458984,12.476367950439453)" fill="#161615" fill-rule="evenodd"/><path d="M 514.3775024414062 348.6444396972656 C 515.8211059570312 347.2931213378906 515.8953857421875 345.0274047851562 514.5440063476562 343.5848693847656 L 504.2615356445312 334.8753662109375 C 503.7587585449219 334.448974609375 503.3069152832031 333.9674377441406 502.91552734375 333.4380798339844 L 494.9049682617188 322.6018676757812 C 493.5536499023438 321.1582336425781 491.2880249023438 321.0829772949219 489.8443603515625 322.4342956542969 L 489.8443603515625 322.4342956542969 C 489.455078125 322.7991638183594 489.2132263183594 323.259521484375 489.1124267578125 323.7453002929688 C 488.2723388671875 325.9049072265625 492.178955078125 332.4548034667969 498.364013671875 339.0609436035156 C 504.6423645019531 345.7688903808594 511.0171813964844 350.131591796875 513.13330078125 349.2681274414062 C 513.5841064453125 349.184326171875 514.0179443359375 348.980712890625 514.3775024414062 348.6444396972656 L 514.3775024414062 348.6444396972656 Z" transform="matrix(1,0,0,1,-486.8778991699219,-262.31182861328125)" fill="#ffffff" fill-rule="evenodd"/><path d="M 512.6292114257812 351.6196899414062 C 512.6290893554688 351.6196899414062 512.6290283203125 351.6196899414062 512.6289672851562 351.6196899414062 C 510.857177734375 351.6195678710938 508.5264587402344 350.5532836914062 505.5035400390625 348.3599853515625 C 502.7840576171875 346.3868103027344 499.8216552734375 343.7145080566406 496.9365539550781 340.6319885253906 C 493.8623352050781 337.3484497070312 491.1884155273438 333.9102172851562 489.4075622558594 330.9509582519531 C 488.4984130859375 329.4402160644531 487.8382568359375 328.0841979980469 487.4453125 326.9205932617188 C 486.9517517089844 325.4588012695312 486.868408203125 324.2642517089844 487.1924438476562 323.27734375 C 487.4051818847656 322.4035034179688 487.8602905273438 321.62158203125 488.5150146484375 321.0079040527344 C 489.5762023925781 320.0145568847656 490.9596862792969 319.468017578125 492.411376953125 319.468017578125 C 493.9834289550781 319.468017578125 495.5010986328125 320.1260986328125 496.5751953125 321.2735595703125 L 496.6592407226562 321.3633117675781 L 504.7428283691406 332.2984619140625 C 505.0347900390625 332.6932678222656 505.3754272460938 333.056884765625 505.755126953125 333.37890625 L 516.1299438476562 342.1666259765625 L 516.2136840820312 342.2559509277344 C 517.2548217773438 343.3673400878906 517.8006591796875 344.8177490234375 517.7506103515625 346.3399963378906 C 517.7005615234375 347.8622131347656 517.0606689453125 349.2738037109375 515.94873046875 350.3146362304688 C 515.3563232421875 350.8685913085938 514.6283569335938 351.253662109375 513.8328247070312 351.4358215332031 C 513.46044921875 351.5579223632812 513.0567016601562 351.6196899414062 512.6292114257812 351.6196899414062 Z M 491.2408752441406 324.55908203125 C 491.2291870117188 324.9453430175781 491.5702514648438 326.4123229980469 493.31884765625 329.2132263183594 C 494.9460144042969 331.8196716308594 497.3308410644531 334.8451538085938 500.0340576171875 337.7324523925781 C 502.69921875 340.5800170898438 505.5265197753906 343.1346130371094 507.9952392578125 344.9258422851562 C 511.0097961425781 347.1131591796875 512.3161010742188 347.3487243652344 512.5795288085938 347.3738403320312 L 512.6539916992188 347.3435363769531 L 512.866943359375 347.3039245605469 C 512.9785766601562 347.2831420898438 513.0322875976562 347.2329406738281 513.0499267578125 347.2164001464844 C 513.3336181640625 346.950927734375 513.4972534179688 346.5899353027344 513.5100708007812 346.2005920410156 C 513.5217895507812 345.8435363769531 513.4053344726562 345.5019836425781 513.1805419921875 345.2286987304688 L 503.0118408203125 336.6156005859375 C 502.3823852539062 336.0816955566406 501.8172607421875 335.4781799316406 501.3312377929688 334.8208923339844 L 493.4094543457031 324.104736328125 C 493.138427734375 323.8500366210938 492.7876281738281 323.7108459472656 492.411376953125 323.7108459472656 C 492.0403442382812 323.7108459472656 491.6867370605469 323.8506164550781 491.4154968261719 324.1044616699219 C 491.3620910644531 324.154541015625 491.3275756835938 324.2180786132812 491.3110656738281 324.2976379394531 L 491.2751770019531 324.4708862304688 L 491.2408752441406 324.55908203125 Z" transform="matrix(1,0,0,1,-486.99932861328125,-262.4332580566406)" fill="#161615" fill-rule="evenodd"/><ellipse cx="2.1807751655578613" cy="2.1807751655578613" rx="2.1807751655578613" ry="2.1807751655578613" transform="matrix(1,0,0,1,62.20970916748047,25.035358428955078)" fill="#161615" fill-rule="evenodd"/><path d="M 2.271842002868652 -1.500004529953003 C 4.35164213180542 -1.500004529953003 6.043689250946045 0.1920420229434967 6.043689250946045 2.271842002868652 C 6.043689250946045 4.35164213180542 4.35164213180542 6.043689250946045 2.271842002868652 6.043689250946045 C 0.1920420229434967 6.043689250946045 -1.500004529953003 4.35164213180542 -1.500004529953003 2.271842002868652 C -1.500004529953003 0.1920420229434967 0.1920420229434967 -1.500004529953003 2.271842002868652 -1.500004529953003 Z M 2.271842002868652 2.861555099487305 C 2.597013711929321 2.861555099487305 2.861555099487305 2.597013711929321 2.861555099487305 2.271842002868652 C 2.861555099487305 1.946670413017273 2.597013711929321 1.682129263877869 2.271842002868652 1.682129263877869 C 1.946670413017273 1.682129263877869 1.682129263877869 1.946670413017273 1.682129263877869 2.271842002868652 C 1.682129263877869 2.597013711929321 1.946670413017273 2.861555099487305 2.271842002868652 2.861555099487305 Z" transform="matrix(1,0,0,1,62.11863708496094,24.944290161132812)" fill="#161615" fill-rule="evenodd"/><ellipse cx="2.1807751655578613" cy="2.1807751655578613" rx="2.1807751655578613" ry="2.1807751655578613" transform="matrix(1,0,0,1,54.17448425292969,32.55631637573242)" fill="#161615" fill-rule="evenodd"/><path d="M 2.271842002868652 -1.500004529953003 C 4.35164213180542 -1.500004529953003 6.043689250946045 0.1920420229434967 6.043689250946045 2.271842002868652 C 6.043689250946045 4.35164213180542 4.35164213180542 6.043689250946045 2.271842002868652 6.043689250946045 C 0.1920420229434967 6.043689250946045 -1.500004529953003 4.35164213180542 -1.500004529953003 2.271842002868652 C -1.500004529953003 0.1920420229434967 0.1920420229434967 -1.500004529953003 2.271842002868652 -1.500004529953003 Z M 2.271842002868652 2.861555099487305 C 2.597013711929321 2.861555099487305 2.861555099487305 2.597013711929321 2.861555099487305 2.271842002868652 C 2.861555099487305 1.946670413017273 2.597013711929321 1.682129263877869 2.271842002868652 1.682129263877869 C 1.946670413017273 1.682129263877869 1.682129263877869 1.946670413017273 1.682129263877869 2.271842002868652 C 1.682129263877869 2.597013711929321 1.946670413017273 2.861555099487305 2.271842002868652 2.861555099487305 Z" transform="matrix(1,0,0,1,54.08341598510742,32.46525192260742)" fill="#161615" fill-rule="evenodd"/></g><path d="M 478.462646484375 326.2254028320312 C 477.6162109375 325.7947692871094 476.1280212402344 325.03955078125 474.9517211914062 325.2665405273438 L 474.9517211914062 325.2219543457031 L 473.1123962402344 325.2219543457031 L 473.1123962402344 338.1435546875 C 472.4346313476562 337.8603515625 471.6168212890625 337.6938171386719 470.7353820800781 337.6938171386719 C 468.4060668945312 337.6938171386719 466.5180053710938 338.8500061035156 466.5180053710938 340.2755737304688 C 466.5180053710938 341.701171875 468.4060668945312 342.8573303222656 470.7353820800781 342.8573303222656 C 473.0636291503906 342.8573303222656 474.9517211914062 341.701171875 474.9517211914062 340.2755737304688 C 474.9517211914062 340.1270751953125 474.9273071289062 339.9828186035156 474.8880920410156 339.8407287597656 L 474.9517211914062 339.8407287597656 L 474.9517211914062 330.095947265625 C 475.5245056152344 329.7723999023438 476.2245483398438 328.8241577148438 477.8824462890625 328.3383483886719 C 479.182861328125 327.9564514160156 480.0929870605469 328.1474304199219 480.2000732421875 327.7591857910156 C 480.3539123535156 327.2012634277344 478.6143188476562 326.3027954101562 478.462646484375 326.2254028320312 Z" transform="matrix(1,0,0,1,-465.74822998046875,-262.08392333984375)" fill="#cd0d0f" fill-rule="evenodd"/><path d="M 472.3866882324219 324.4962463378906 L 475.7655029296875 324.4962463378906 L 475.7655029296875 324.51220703125 C 476.9386291503906 324.6079711914062 478.1236572265625 325.2109375 478.8557434082031 325.5834350585938 C 478.9933166503906 325.6536254882812 479.4744873046875 325.9059448242188 479.9312133789062 326.2254333496094 C 480.2857666015625 326.4734497070312 481.2276000976562 327.1322937011719 480.9862365722656 328.0079040527344 C 480.7880554199219 328.7260437011719 480.0570373535156 328.8100891113281 479.4696044921875 328.8775939941406 C 479.1054992675781 328.9194030761719 478.6524047851562 328.9714965820312 478.1433715820312 329.1209716796875 C 477.1222534179688 329.4202270507812 476.523681640625 329.9168090820312 476.0428466796875 330.3157958984375 C 475.9462890625 330.3959045410156 475.8551025390625 330.4715881347656 475.7655029296875 330.5418090820312 L 475.7655029296875 340.654541015625 L 475.7420043945312 340.654541015625 C 475.4994506835938 342.3709411621094 473.4069519042969 343.6712036132812 470.7794494628906 343.6712036132812 C 467.9828491210938 343.6712036132812 465.7922973632812 342.1990051269531 465.7922973632812 340.3196716308594 C 465.7922973632812 338.4402770996094 467.9828491210938 336.9681701660156 470.7794494628906 336.9681701660156 C 471.3307800292969 336.9681701660156 471.8731079101562 337.0272216796875 472.3866882324219 337.1417236328125 L 472.3866882324219 324.4962463378906 Z M 474.2259826660156 326.0357971191406 L 473.9262084960938 326.0357971191406 L 473.9262084960938 339.1150207519531 L 474.2259826660156 339.1150207519531 L 474.2259826660156 329.6907043457031 L 474.6172180175781 329.4697570800781 C 474.7246704101562 329.4090881347656 474.8874206542969 329.2739868164062 475.0597839355469 329.1309814453125 C 475.5871887207031 328.6934814453125 476.3840026855469 328.0322875976562 477.7099914550781 327.6437377929688 C 478.1627502441406 327.5107727050781 478.5711669921875 327.4405822753906 478.9133605957031 327.3945617675781 C 478.6964111328125 327.2513122558594 478.4364929199219 327.097900390625 478.1567077636719 326.9551086425781 C 477.4836730957031 326.6126403808594 476.3556518554688 326.0387268066406 475.4538269042969 326.0386962890625 C 475.3419189453125 326.0386962890625 475.2368469238281 326.0480346679688 475.1416015625 326.06640625 L 474.2259826660156 326.2431030273438 L 474.2259826660156 326.0357971191406 Z M 473.9262084960938 339.3435363769531 L 472.8596801757812 338.8978881835938 C 472.248779296875 338.642578125 471.5294494628906 338.5076904296875 470.7794494628906 338.5076904296875 C 468.7476806640625 338.5076904296875 467.3318176269531 339.4626159667969 467.3318176269531 340.3196716308594 C 467.3318176269531 341.1767272949219 468.7476806640625 342.1316833496094 470.7794494628906 342.1316833496094 C 472.8105163574219 342.1316833496094 474.2259826660156 341.1767272949219 474.2259826660156 340.3196716308594 C 474.2259826660156 340.2522583007812 474.2142333984375 340.1770935058594 474.1901550292969 340.0897216796875 L 473.9262084960938 339.1343688964844 L 473.9262084960938 339.3435363769531 Z" transform="matrix(1,0,0,1,-465.79229736328125,-262.1279602050781)" fill="#161615" fill-rule="evenodd"/><path d="M 530.3671264648438 341.1573791503906 C 529.84521484375 340.8911437988281 528.9288330078125 340.4265441894531 528.204345703125 340.5665283203125 L 528.204345703125 340.5389709472656 L 527.071533203125 340.5389709472656 L 527.071533203125 348.4985656738281 C 526.6546020507812 348.3245849609375 526.1497192382812 348.2217407226562 525.606689453125 348.2217407226562 C 524.172607421875 348.2217407226562 523.0089721679688 348.9334411621094 523.0089721679688 349.8117370605469 C 523.0089721679688 350.6899719238281 524.172607421875 351.4017333984375 525.606689453125 351.4017333984375 C 527.0418090820312 351.4017333984375 528.204345703125 350.6899719238281 528.204345703125 349.8117370605469 C 528.204345703125 349.7204895019531 528.1895141601562 349.6313781738281 528.1651000976562 349.5444030761719 L 528.204345703125 349.5444030761719 L 528.204345703125 343.5418395996094 C 528.5575561523438 343.3413696289062 528.9882202148438 342.7580261230469 530.0097045898438 342.4588623046875 C 530.8115844726562 342.223388671875 531.3716430664062 342.3411560058594 531.4374389648438 342.1014099121094 C 531.5317993164062 341.7577209472656 530.46044921875 341.2051086425781 530.3671264648438 341.1573791503906 Z" transform="matrix(1,0,0,1,-462.318603515625,-261.15399169921875)" fill="#cd0d0f" fill-rule="evenodd"/><path d="M 526.3457641601562 339.8132629394531 L 529.0181274414062 339.8132629394531 L 529.0181274414062 339.8585510253906 C 529.702392578125 339.9756774902344 530.3450317382812 340.3035583496094 530.7609252929688 340.5157165527344 C 531.9375610351562 341.1171569824219 532.4021606445312 341.6996765136719 532.2236938476562 342.3493347167969 C 532.0493774414062 342.9849548339844 531.4163208007812 343.057861328125 531.0380249023438 343.1014404296875 C 530.81396484375 343.1272277832031 530.5599365234375 343.156494140625 530.2706298828125 343.2414855957031 C 529.6990966796875 343.4088745117188 529.3709106445312 343.681396484375 529.081298828125 343.9218139648438 C 529.0601196289062 343.9394226074219 529.0390625 343.9568786621094 529.0181274414062 343.9741821289062 L 529.0181274414062 350.3582153320312 L 528.9447021484375 350.3582153320312 C 528.62451171875 351.4322814941406 527.292236328125 352.2155151367188 525.6507568359375 352.2155151367188 C 523.762451171875 352.2155151367188 522.2832641601562 351.1789855957031 522.2832641601562 349.8557739257812 C 522.2832641601562 348.5325317382812 523.762451171875 347.4960021972656 525.6507568359375 347.4960021972656 C 525.8858642578125 347.4960021972656 526.1187133789062 347.5124816894531 526.3457641601562 347.544677734375 L 526.3457641601562 339.8132629394531 Z M 529.8245239257812 341.7679748535156 C 529.447265625 341.5827026367188 528.9258422851562 341.3546142578125 528.5310668945312 341.3546142578125 C 528.480712890625 341.3546142578125 528.4347534179688 341.3586120605469 528.3944091796875 341.3663635253906 L 527.8853149414062 341.4647827148438 L 527.8853149414062 342.9059143066406 C 527.9342041015625 342.8732299804688 528.0205688476562 342.801513671875 528.0977783203125 342.7374267578125 C 528.4397583007812 342.4534912109375 528.95556640625 342.0251159667969 529.8245239257812 341.7679748535156 Z M 527.38134765625 349.4876098632812 L 526.8190307617188 349.2530212402344 C 526.4782104492188 349.1107177734375 526.07421875 349.0355224609375 525.6507568359375 349.0355224609375 C 524.5518188476562 349.0355224609375 523.82275390625 349.5292053222656 523.82275390625 349.8557739257812 C 523.82275390625 350.1823120117188 524.5518188476562 350.6759948730469 525.6507568359375 350.6759948730469 C 526.7495727539062 350.6759948730469 527.4786376953125 350.1823120117188 527.4786376953125 349.8557739257812 C 527.4786376953125 349.8477172851562 527.4772338867188 349.8292846679688 527.468017578125 349.7964477539062 L 527.38134765625 349.4876098632812 Z" transform="matrix(1,0,0,1,-462.3626403808594,-261.19805908203125)" fill="#161615" fill-rule="evenodd"/><path d="M 484.4649353027344 351.2730102539062 L 484.4649353027344 351.8627319335938 L 484.4649353027344 353.50048828125 L 484.4649353027344 366.1155090332031 C 483.8963928222656 365.9288024902344 483.2504272460938 365.8217163085938 482.565185546875 365.8217163085938 C 480.2857360839844 365.8217163085938 478.43798828125 366.9852905273438 478.43798828125 368.4204406738281 C 478.43798828125 369.8555908203125 480.2857360839844 371.0192260742188 482.565185546875 371.0192260742188 C 484.8446350097656 371.0192260742188 486.6923828125 369.8555908203125 486.6923828125 368.4204406738281 C 486.6923828125 368.2231140136719 486.6542053222656 368.0322265625 486.5885009765625 367.8476257324219 L 486.6923828125 367.8476257324219 L 486.6923828125 353.50048828125 L 498.6148376464844 353.50048828125 L 498.6148376464844 366.0168762207031 C 498.0463256835938 365.8312377929688 497.4013671875 365.7241516113281 496.715087890625 365.7241516113281 C 494.4356384277344 365.7241516113281 492.587890625 366.8877258300781 492.587890625 368.3228454589844 C 492.587890625 369.7579956054688 494.4356384277344 370.9216003417969 496.715087890625 370.9216003417969 C 498.9945373535156 370.9216003417969 500.8423156738281 369.7579956054688 500.8423156738281 368.3228454589844 C 500.8423156738281 368.1594848632812 500.8158264160156 368.0014953613281 500.7702026367188 367.8476257324219 L 500.8423156738281 367.8476257324219 L 500.8423156738281 353.50048828125 L 500.8423156738281 351.8627319335938 L 500.8423156738281 351.2730102539062 L 484.4649353027344 351.2730102539062 Z" transform="matrix(1,0,0,1,-465.0245666503906,-260.5023498535156)" fill="#161615" fill-rule="evenodd"/><path d="M 483.8233032226562 350.6313171386719 L 501.5618286132812 350.6313171386719 L 501.5618286132812 368.5671691894531 L 501.552978515625 368.5671691894531 C 501.4024963378906 370.3067932128906 499.3487854003906 371.6411437988281 496.7540283203125 371.6411437988281 C 494.05810546875 371.6411437988281 491.9462585449219 370.2006530761719 491.9462585449219 368.3617553710938 C 491.9462585449219 366.5229187011719 494.05810546875 365.0824584960938 496.7540283203125 365.0824584960938 C 497.1703186035156 365.0824584960938 497.577880859375 365.117431640625 497.9732055664062 365.1868286132812 L 497.9732055664062 354.2200012207031 L 487.4119567871094 354.2200012207031 L 487.4095764160156 368.5671691894531 C 487.3287658691406 370.3541259765625 485.2471618652344 371.7387084960938 482.6041564941406 371.7387084960938 C 479.9081420898438 371.7387084960938 477.7963562011719 370.2982482910156 477.7963562011719 368.4593811035156 C 477.7963562011719 366.6204833984375 479.9081420898438 365.1800537109375 482.6041564941406 365.1800537109375 C 483.020751953125 365.1800537109375 483.4283752441406 365.215087890625 483.8233032226562 365.2846374511719 L 483.8233032226562 350.6313171386719 Z M 500.2006530761719 351.9925231933594 L 485.1844787597656 351.9925231933594 L 485.1844787597656 367.0942687988281 L 484.2915649414062 366.8010559082031 C 483.7738952636719 366.6310729980469 483.1904296875 366.5411987304688 482.6041564941406 366.5411987304688 C 480.572998046875 366.5411987304688 479.157470703125 367.5521240234375 479.157470703125 368.4593811035156 C 479.157470703125 369.3666381835938 480.572998046875 370.3775329589844 482.6041564941406 370.3775329589844 C 484.6353454589844 370.3775329589844 486.0508422851562 369.3666381835938 486.0508422851562 368.4593811035156 C 486.0508422851562 368.3494262695312 486.0297546386719 368.2367248535156 485.986328125 368.1149291992188 L 485.66259765625 367.2059936523438 L 486.0508422851562 367.2059936523438 L 486.0508422851562 352.8587951660156 L 499.3344116210938 352.8587951660156 L 499.3344116210938 366.9939880371094 L 498.4425354003906 366.7027587890625 C 497.9233093261719 366.5332336425781 497.3394775390625 366.4436340332031 496.7540283203125 366.4436340332031 C 494.722900390625 366.4436340332031 493.3074340820312 367.4545288085938 493.3074340820312 368.3617553710938 C 493.3074340820312 369.26904296875 494.722900390625 370.2799072265625 496.7540283203125 370.2799072265625 C 498.7852172851562 370.2799072265625 500.2006530761719 369.26904296875 500.2006530761719 368.3617553710938 C 500.2006530761719 368.2721252441406 500.186279296875 368.1799621582031 500.1566772460938 368.0800476074219 L 499.8974914550781 367.2059936523438 L 500.2006530761719 367.2059936523438 L 500.2006530761719 351.9925231933594 Z" transform="matrix(1,0,0,1,-465.0635070800781,-260.541259765625)" fill="#161615" fill-rule="evenodd"/><path d="M 479.0022888183594 301.2209777832031 L 479.0022888183594 301.577392578125 L 479.0022888183594 302.5659790039062 L 479.0022888183594 310.1829528808594 C 478.6586303710938 310.0704956054688 478.2693481445312 310.0068359375 477.8556823730469 310.0068359375 C 476.4788513183594 310.0068359375 475.3629760742188 310.7090148925781 475.3629760742188 311.57568359375 C 475.3629760742188 312.4422302246094 476.4788513183594 313.1444396972656 477.8556823730469 313.1444396972656 C 479.2313537597656 313.1444396972656 480.3472595214844 312.4422302246094 480.3472595214844 311.57568359375 C 480.3472595214844 311.4568481445312 480.3249816894531 311.3412170410156 480.2846984863281 311.2288208007812 L 480.3472595214844 311.2288208007812 L 480.3472595214844 302.5659790039062 L 487.54736328125 302.5659790039062 L 487.54736328125 310.12353515625 C 487.2037048339844 310.0111083984375 486.8133544921875 309.9474792480469 486.3996887207031 309.9474792480469 C 485.02392578125 309.9474792480469 483.9080505371094 310.649658203125 483.9080505371094 311.5162353515625 C 483.9080505371094 312.3828430175781 485.02392578125 313.0850524902344 486.3996887207031 313.0850524902344 C 487.7764892578125 313.0850524902344 488.8923950195312 312.3828430175781 488.8923950195312 311.5162353515625 C 488.8923950195312 311.4176025390625 488.8753662109375 311.3221435546875 488.848876953125 311.2288208007812 L 488.8923950195312 311.2288208007812 L 488.8923950195312 302.5659790039062 L 488.8923950195312 301.577392578125 L 488.8923950195312 301.2209777832031 L 479.0022888183594 301.2209777832031 Z" transform="matrix(1,0,0,1,-465.2112121582031,-263.54107666015625)" fill="#161615" fill-rule="evenodd"/><path d="M 478.6148681640625 300.8335266113281 L 489.3267822265625 300.8335266113281 L 489.3267822265625 311.6632385253906 L 489.3215026855469 311.6632385253906 C 489.2308349609375 312.7136535644531 487.9904479980469 313.5194702148438 486.4231872558594 313.5194702148438 C 484.7955932617188 313.5194702148438 483.5206298828125 312.64990234375 483.5206298828125 311.5397338867188 C 483.5206298828125 310.4295959472656 484.7955932617188 309.5600280761719 486.4231872558594 309.5600280761719 C 486.6754150390625 309.5600280761719 486.9217529296875 309.5809936523438 487.1599426269531 309.6225891113281 L 487.1599426269531 303.0004272460938 L 480.7817077636719 303.0004272460938 L 480.7803039550781 311.6632385253906 C 480.7322692871094 312.7425231933594 479.4752807617188 313.5788879394531 477.8791809082031 313.5788879394531 C 476.2509460449219 313.5788879394531 474.9754943847656 312.7092895507812 474.9754943847656 311.5991516113281 C 474.9754943847656 310.489013671875 476.2509460449219 309.6194152832031 477.8791809082031 309.6194152832031 C 478.1309509277344 309.6194152832031 478.3768920898438 309.6403503417969 478.6148681640625 309.6819458007812 L 478.6148681640625 300.8335266113281 Z M 488.5049133300781 301.6554260253906 L 479.4367370605469 301.6554260253906 L 479.4367370605469 310.7732849121094 L 478.8980102539062 310.5970153808594 C 478.5821838378906 310.4937133789062 478.2394409179688 310.4412536621094 477.8791809082031 310.4412536621094 C 476.6523132324219 310.4412536621094 475.7974548339844 311.051513671875 475.7974548339844 311.5991516113281 C 475.7974548339844 312.1467895507812 476.6523132324219 312.7569885253906 477.8791809082031 312.7569885253906 C 479.1053161621094 312.7569885253906 479.9598388671875 312.1467895507812 479.9598388671875 311.5991516113281 C 479.9598388671875 311.5313415527344 479.9472045898438 311.4632263183594 479.92138671875 311.3909606933594 L 479.7242736816406 310.8413696289062 L 479.9598388671875 310.8413696289062 L 479.9598388671875 302.1785278320312 L 487.9818115234375 302.1785278320312 L 487.9818115234375 310.7138671875 L 487.4430847167969 310.53759765625 C 487.1317443847656 310.4357604980469 486.7791137695312 310.3818969726562 486.4231872558594 310.3818969726562 C 485.1970520019531 310.3818969726562 484.342529296875 310.9920959472656 484.342529296875 311.5397338867188 C 484.342529296875 312.08740234375 485.1970520019531 312.6976013183594 486.4231872558594 312.6976013183594 C 487.6499633789062 312.6976013183594 488.5049133300781 312.08740234375 488.5049133300781 311.5397338867188 C 488.5049133300781 311.4878845214844 488.4958190917969 311.4305725097656 488.47705078125 311.3645629882812 L 488.3284301757812 310.8413696289062 L 488.5049133300781 310.8413696289062 L 488.5049133300781 301.6554260253906 Z" transform="matrix(1,0,0,1,-465.23468017578125,-263.5645446777344)" fill="#161615" fill-rule="evenodd"/></g></svg>