<svg xmlns="http://www.w3.org/2000/svg" xmlns:xlink="http://www.w3.org/1999/xlink" width="131.28612518310547" height="100.68566131591797" viewBox="45.23472595214844 84.45523643493652 131.28612518310547 100.68566131591797"><g transform="matrix(1,0,0,1,45.23472595214844,0)"><path d="M -85.67725372314453 69.60346984863281 C -77.47561645507812 67.98033905029297 -70.83090209960938 75.91143798828125 -70.50965881347656 76.30594635009766 C -78.65633392333984 78.58848571777344 -84.63742828369141 81.54029846191406 -88.77135467529297 83.97920989990234 C -91.71750640869141 85.71788787841797 -93.62949371337891 87.13954162597656 -94.869384765625 86.36885070800781 C -97.11247253417969 84.97535705566406 -96.26144409179688 76.96253204345703 -91.51181030273438 72.57921600341797 C -90.86649322509766 71.98464202880859 -88.81503295898438 70.22482299804688 -85.67725372314453 69.60346984863281 Z" transform="matrix(1,0,0,1,196.8965301513672,28.376497268676758)" fill="#ffffff" fill-rule="evenodd"/><path d="M -82.62419891357422 67.38475799560547 C -79.08477783203125 67.38475799560547 -75.38485717773438 68.72300720214844 -71.92442321777344 71.25482177734375 C -69.30893707275391 73.16842651367188 -67.68317413330078 75.12749481201172 -67.50640869140625 75.34458160400391 L -64.79228973388672 78.67768859863281 L -68.93128967285156 79.83735656738281 C -75.33743286132812 81.63222503662109 -81.25558471679688 84.11751556396484 -86.52133941650391 87.22420501708984 C -86.94224548339844 87.47259521484375 -87.34381103515625 87.71580505371094 -87.73213958740234 87.95099639892578 C -89.82477569580078 89.21839904785156 -91.47765350341797 90.21947479248047 -93.26271057128906 90.21947479248047 C -94.09050750732422 90.21947479248047 -94.85631561279297 90.00436401367188 -95.53889465332031 89.58006286621094 C -96.51644134521484 88.9727783203125 -97.73792266845703 87.66436004638672 -98.00224304199219 84.88191986083984 C -98.19725036621094 82.82911682128906 -97.83285522460938 80.40418243408203 -96.9761962890625 78.05385589599609 C -96.00845336914062 75.39876556396484 -94.49683380126953 73.07242584228516 -92.60482788085938 71.32630920410156 C -91.44532775878906 70.25798797607422 -88.97079467773438 68.36296844482422 -85.40653228759766 67.65715026855469 C -84.49315643310547 67.47639465332031 -83.55714416503906 67.38475799560547 -82.62419891357422 67.38475799560547 Z M -75.15289306640625 75.8714599609375 C -77.09004974365234 74.43160247802734 -79.72746276855469 73.02066040039062 -82.62419891357422 73.02066040039062 C -83.19065093994141 73.02066040039062 -83.758544921875 73.07620239257812 -84.31204986572266 73.18575286865234 C -86.52135467529297 73.62323760986328 -88.06234741210938 74.80442810058594 -88.78424072265625 75.46955108642578 C -90.27128601074219 76.84190368652344 -91.46173095703125 78.91646575927734 -92.04869079589844 81.15972900390625 C -92.38179016113281 82.43283081054688 -92.44712829589844 83.46182250976562 -92.40775299072266 84.16001129150391 C -91.85845184326172 83.86112976074219 -91.19769287109375 83.46095275878906 -90.65180206298828 83.13034057617188 C -90.24993133544922 82.88693237304688 -89.83438110351562 82.63523864746094 -89.38544464111328 82.37031555175781 C -85.01751708984375 79.79332733154297 -80.24684906005859 77.61591339111328 -75.15289306640625 75.8714599609375 Z" transform="matrix(1,0,0,1,196.0784149169922,27.558547973632812)" fill="#cd0d0f" fill-rule="evenodd"/><rect x="0" y="0" width="0" height="0" transform="matrix(1,0,0,1,236.17967224121094,0)" fill="#161615" fill-rule="evenodd"/><rect x="0" y="0" width="0" height="0" transform="matrix(1,0,0,1,236.17967224121094,0)" fill="#161615" fill-rule="evenodd"/><path d="M -57.13861846923828 77.06207275390625 C -57.13861846923828 68.71110534667969 -63.90872192382812 61.94100189208984 -72.26111602783203 61.94100189208984 C -74.71273040771484 61.94100189208984 -77.02625274658203 62.52854156494141 -79.07490539550781 63.56413269042969 L -79.07490539550781 63.56413269042969 L -79.07490539550781 63.56413269042969 C -80.49375152587891 64.28129577636719 -81.7857666015625 65.21402740478516 -82.90449523925781 66.32289123535156 L -164.22900390625 124.9079742431641 C -164.22900390625 124.9079742431641 -152.7346038818359 133.3773040771484 -139.9016723632812 131.8373260498047 C -127.068733215332 130.2987213134766 -121.6512298583984 123.6244049072266 -121.6512298583984 123.6244049072266 C -121.6512298583984 123.6244049072266 -84.11761474609375 150.4935302734375 -66.66749572753906 91.11093902587891 L -66.66749572753906 91.11093902587891 C -61.08514785766602 88.88618469238281 -57.13861846923828 83.43627166748047 -57.13861846923828 77.06207275390625 Z" transform="matrix(1,0,0,1,169.01449584960938,25.332178115844727)" fill="#ffffff" fill-rule="evenodd"/><path d="M -70.8720703125 59.94100189208984 C -66.07988739013672 59.94100189208984 -61.57459259033203 61.80698776245117 -58.18615341186523 65.19520568847656 C -54.79771041870117 68.58342742919922 -52.93161010742188 73.08831024169922 -52.93161010742188 77.88004302978516 C -52.93161010742188 81.53995513916016 -54.02807235717773 85.06102752685547 -56.10239791870117 88.06259155273438 C -57.85747146606445 90.60214233398438 -60.20589065551758 92.62574005126953 -62.94951248168945 93.97532653808594 C -65.11325836181641 101.0741729736328 -67.68441772460938 107.2973556518555 -70.59930419921875 112.4878005981445 C -73.44246673583984 117.5505142211914 -76.6826171875 121.7569198608398 -80.22975921630859 124.9901962280273 C -86.29644775390625 130.5200653076172 -93.29400634765625 133.3239440917969 -101.0280456542969 133.3239440917969 C -109.4859085083008 133.3239440917969 -116.5613021850586 129.9254913330078 -119.8825378417969 128.0062255859375 C -122.6003494262695 130.3505401611328 -128.4705657958984 134.2893829345703 -138.1771697998047 135.4531555175781 C -139.3227844238281 135.5906372070312 -140.5038604736328 135.6603546142578 -141.6872863769531 135.6603546142578 C -153.9658355712891 135.6603546142578 -164.0866394042969 128.3076019287109 -164.5114593505859 127.9945907592773 L -167.6254272460938 125.7003021240234 L -83.33438110351562 64.97815704345703 C -82.03984832763672 63.7275505065918 -80.5682373046875 62.6815185546875 -78.95706939697266 61.86714553833008 C -76.42871856689453 60.58906555175781 -73.70850372314453 59.94100189208984 -70.8720703125 59.94100189208984 Z M -101.0280456542969 127.6880645751953 C -94.74264526367188 127.6880645751953 -89.0224609375 125.3789978027344 -84.02638244628906 120.8250122070312 C -77.39265441894531 114.7782516479492 -71.99457550048828 104.7889022827148 -67.98209381103516 91.13442993164062 L -67.59548187255859 89.81881713867188 L -66.32171630859375 89.31119537353516 C -61.6112060546875 87.43387603759766 -58.56750869750977 82.94687652587891 -58.56750869750977 77.88004302978516 C -58.56750869750977 71.0960693359375 -64.08731842041016 65.57688903808594 -70.8720703125 65.57688903808594 C -72.81699371337891 65.57688903808594 -74.6817626953125 66.02104187011719 -76.41458892822266 66.89697265625 C -77.56810760498047 67.48001098632812 -78.61684417724609 68.23541259765625 -79.53174591064453 69.14225006103516 L -79.6888427734375 69.29798126220703 L -157.7604827880859 125.5397567749023 C -157.0259704589844 125.9370269775391 -156.1897277832031 126.3608856201172 -155.2685546875 126.7827911376953 C -152.0397186279297 128.2616271972656 -147.0624847412109 130.0244903564453 -141.6872863769531 130.0244903564453 C -140.7274627685547 130.0244903564453 -139.7723083496094 129.96826171875 -138.8483734130859 129.8573760986328 C -132.7387084960938 129.1248626708984 -128.5301818847656 127.1305541992188 -126.0754318237305 125.5865173339844 C -123.6212844848633 124.042839050293 -122.4607238769531 122.6795043945312 -122.4501113891602 122.6664505004883 L -120.7786026000977 120.607177734375 L -118.6219787597656 122.1509704589844 C -118.6069030761719 122.1616134643555 -116.6082153320312 123.5694580078125 -113.4165878295898 124.9513931274414 C -110.5332641601562 126.1998672485352 -106.0434494018555 127.6880645751953 -101.0280456542969 127.6880645751953 Z" transform="matrix(1,0,0,1,167.6254425048828,24.51423454284668)" fill="#161615" fill-rule="evenodd"/><path d="M 7.798939228057861 17.63409996032715 L -1.712188363075256 1.879092216491699 L 3.112668991088867 -1.033634781837463 L 12.62379837036133 14.72136974334717 L 7.798939228057861 17.63409996032715 Z" transform="matrix(1,0,0,1,62.02046203613281,154.3388214111328)" fill="#161615" fill-rule="evenodd"/><path d="M 8.139897346496582 17.03806304931641 L -1.675288438796997 1.985979557037354 L 3.045587301254272 -1.092428803443909 L 12.86077213287354 13.95965385437012 L 8.139897346496582 17.03806304931641 Z" transform="matrix(1,0,0,1,75.8243637084961,154.31478881835938)" fill="#161615" fill-rule="evenodd"/><rect x="0" y="0" width="51.67435073852539" height="11.806391716003418" transform="matrix(1,0,0,1,50.67234420776367,170.51657104492188)" fill="#ffffff" fill-rule="evenodd"/><path d="M -2 -2.000003576278687 L 55.31024169921875 -2.000003576278687 L 55.31024169921875 15.44228935241699 L -2 15.44228935241699 L -2 -2.000003576278687 Z M 49.67435455322266 3.635886907577515 L 3.63589072227478 3.635886907577515 L 3.63589072227478 9.806398391723633 L 49.67435455322266 9.806398391723633 L 49.67435455322266 3.635886907577515 Z" transform="matrix(1,0,0,1,49.85439682006836,169.6986083984375)" fill="#cd0d0f" fill-rule="evenodd"/><path d="M -72.26111602783203 61.94100189208984 C -74.71273040771484 61.94100189208984 -77.02625274658203 62.52854156494141 -79.07490539550781 63.56413269042969 L -79.07490539550781 63.56413269042969 C -80.49375152587891 64.28129577636719 -81.7857666015625 65.21402740478516 -82.90449523925781 66.32289123535156 L -85.51249694824219 68.20246887207031 C -86.57909393310547 77.17902374267578 -92.05294036865234 88.59030914306641 -101.0576934814453 99.06460571289062 C -115.9336166381836 116.3710098266602 -134.7913360595703 124.5585632324219 -143.1761322021484 117.3502349853516 C -144.73583984375 116.008903503418 -145.8207702636719 114.2293853759766 -146.4618530273438 112.1088714599609 L -164.22900390625 124.9079742431641 C -164.22900390625 124.9079742431641 -152.7346038818359 133.3773040771484 -139.9016723632812 131.8373260498047 C -127.068733215332 130.2987213134766 -121.6512298583984 123.6244049072266 -121.6512298583984 123.6244049072266 C -121.6512298583984 123.6244049072266 -84.11761474609375 150.4935302734375 -66.66749572753906 91.11093902587891 L -66.66749572753906 91.11093902587891 C -61.08514785766602 88.88618469238281 -57.13861846923828 83.43627166748047 -57.13861846923828 77.06207275390625 C -57.13861846923828 68.71110534667969 -63.90872192382812 61.94100189208984 -72.26111602783203 61.94100189208984 Z" transform="matrix(1,0,0,1,169.01449584960938,25.332178115844727)" fill="#ffffff" fill-rule="evenodd"/><path d="M -70.87206268310547 59.94100189208984 C -66.07988739013672 59.94100189208984 -61.5745849609375 61.80698776245117 -58.1861457824707 65.19520568847656 C -54.79770278930664 68.58342742919922 -52.93160247802734 73.08831024169922 -52.93160247802734 77.88004302978516 C -52.93160247802734 81.53995513916016 -54.0280647277832 85.06102752685547 -56.10239028930664 88.06259155273438 C -57.85746383666992 90.60214233398438 -60.20588302612305 92.62574005126953 -62.94950485229492 93.97532653808594 C -65.11325073242188 101.0741729736328 -67.68441009521484 107.2973556518555 -70.59930419921875 112.4878005981445 C -73.44246673583984 117.5505142211914 -76.68260955810547 121.7569198608398 -80.22975158691406 124.9901962280273 C -86.29644012451172 130.5200653076172 -93.29400634765625 133.3239440917969 -101.0280456542969 133.3239440917969 C -109.4859008789062 133.3239440917969 -116.5612945556641 129.9254913330078 -119.8825378417969 128.0062255859375 C -122.600341796875 130.3505401611328 -128.4705505371094 134.2893829345703 -138.1771545410156 135.4531555175781 C -139.3227691650391 135.5906372070312 -140.5038604736328 135.6603546142578 -141.6872863769531 135.6603546142578 C -153.9658203125 135.6603546142578 -164.0866394042969 128.3076019287109 -164.5114593505859 127.9945907592773 L -167.6254425048828 125.7003021240234 L -143.5175476074219 108.3334655761719 L -142.3753814697266 112.111328125 C -141.878173828125 113.7560729980469 -141.0620574951172 115.0750427246094 -139.9496765136719 116.0316619873047 C -138.4549255371094 117.3166580200195 -136.4175720214844 117.9683456420898 -133.8945465087891 117.9683456420898 C -129.7132568359375 117.9683456420898 -124.3740081787109 116.1369247436523 -118.8603134155273 112.8114166259766 C -112.9337310791016 109.2369155883789 -107.0363311767578 104.130989074707 -101.8056259155273 98.04566955566406 C -93.52561950683594 88.41436767578125 -87.96157836914062 77.4395751953125 -86.92172241210938 68.68792724609375 L -86.77561950683594 67.45830535888672 L -83.33463287353516 64.97838592529297 C -82.04002380371094 63.72768783569336 -80.56835174560547 62.68157196044922 -78.95706176757812 61.86714553833008 C -76.4287109375 60.58906555175781 -73.70849609375 59.94100189208984 -70.87206268310547 59.94100189208984 Z M -101.0280456542969 127.6880645751953 C -94.74264526367188 127.6880645751953 -89.0224609375 125.3789978027344 -84.02638244628906 120.8250122070312 C -77.39265441894531 114.7782516479492 -71.99457550048828 104.7889022827148 -67.98209381103516 91.13442993164062 L -67.59547424316406 89.81881713867188 L -66.32170867919922 89.31119537353516 C -61.61119842529297 87.43387603759766 -58.56750106811523 82.94687652587891 -58.56750106811523 77.88004302978516 C -58.56750106811523 71.0960693359375 -64.08731079101562 65.57688903808594 -70.87206268310547 65.57688903808594 C -72.81699371337891 65.57688903808594 -74.6817626953125 66.02104187011719 -76.41458892822266 66.89697265625 C -77.56809997558594 67.48001098632812 -78.61683654785156 68.23541259765625 -79.53173828125 69.14225006103516 L -79.68865966796875 69.29776763916016 L -81.49777221679688 70.60160827636719 C -82.20391845703125 75.09639739990234 -83.88491821289062 80.09417724609375 -86.39598083496094 85.14443969726562 C -89.23019409179688 90.84455871582031 -92.97682189941406 96.42122650146484 -97.53179931640625 101.7196044921875 C -103.1478271484375 108.2531814575195 -109.5166320800781 113.7575378417969 -115.9495391845703 117.6374664306641 C -122.4215774536133 121.5409622192383 -128.6268463134766 123.604248046875 -133.8945465087891 123.604248046875 C -137.8040924072266 123.604248046875 -141.0776062011719 122.4942321777344 -143.6240692138672 120.305046081543 C -144.6445770263672 119.4274520874023 -145.5143127441406 118.4001388549805 -146.2277984619141 117.2318649291992 L -157.7604675292969 125.5397567749023 C -157.0259246826172 125.9370269775391 -156.1897277832031 126.3608856201172 -155.2685546875 126.7827911376953 C -152.0397033691406 128.2616271972656 -147.0624694824219 130.0244903564453 -141.6872863769531 130.0244903564453 C -140.7274627685547 130.0244903564453 -139.7722930908203 129.96826171875 -138.8483581542969 129.8573760986328 C -132.7387084960938 129.1248626708984 -128.5301818847656 127.1305541992188 -126.0754318237305 125.5865173339844 C -123.6212768554688 124.042839050293 -122.4607238769531 122.6795043945312 -122.4501037597656 122.6664505004883 L -120.7785949707031 120.607177734375 L -118.6219787597656 122.1509704589844 C -118.6069030761719 122.1616134643555 -116.6082153320312 123.5694580078125 -113.4165878295898 124.9513931274414 C -110.5332565307617 126.1998672485352 -106.0434494018555 127.6880645751953 -101.0280456542969 127.6880645751953 Z" transform="matrix(1,0,0,1,167.6254425048828,24.51423454284668)" fill="#161615" fill-rule="evenodd"/><path d="M -95.36455535888672 95.82048034667969 C -99.44953918457031 95.82048034667969 -103.4479827880859 94.40969848632812 -106.6233367919922 91.84804534912109 L -103.0846633911133 87.46159362792969 C -100.8764724731445 89.24299621582031 -98.20692443847656 90.18458557128906 -95.36455535888672 90.18458557128906 C -88.57980346679688 90.18458557128906 -83.06000518798828 84.664794921875 -83.06000518798828 77.88002777099609 C -83.06000518798828 71.0960693359375 -88.57980346679688 65.57688903808594 -95.36455535888672 65.57688903808594 C -98.53911590576172 65.57688903808594 -101.5526351928711 66.78232574462891 -103.8499755859375 68.97112274169922 L -107.7376022338867 64.89070129394531 C -104.3874282836914 61.69884872436523 -99.99327850341797 59.94100189208984 -95.36455535888672 59.94100189208984 C -90.57238006591797 59.94100189208984 -86.06710052490234 61.80698776245117 -82.67865753173828 65.19522094726562 C -79.29022216796875 68.58342742919922 -77.42411804199219 73.08831024169922 -77.42411804199219 77.88002777099609 C -77.42411804199219 82.67176818847656 -79.29017639160156 87.17686462402344 -82.67851257324219 90.5654296875 C -86.06707000732422 93.95419311523438 -90.57239532470703 95.82048034667969 -95.36455535888672 95.82048034667969 Z" transform="matrix(1,0,0,1,192.11795043945312,24.51423454284668)" fill="#161615" fill-rule="evenodd"/><path d="M 2.868044137954712 -1.999998807907104 C 5.552292346954346 -1.999998807907104 7.736086845397949 0.1837964057922363 7.736086845397949 2.868044137954712 C 7.736086845397949 5.552292346954346 5.552292346954346 7.736086845397949 2.868044137954712 7.736086845397949 C 0.1837964057922363 7.736086845397949 -1.999998807907104 5.552292346954346 -1.999998807907104 2.868044137954712 C -1.999998807907104 0.1837964057922363 0.1837964057922363 -1.999998807907104 2.868044137954712 -1.999998807907104 Z" transform="matrix(1,0,0,1,95.2865219116211,97.47637939453125)" fill="#161615" fill-rule="evenodd"/></g></svg>