<svg xmlns="http://www.w3.org/2000/svg" xmlns:xlink="http://www.w3.org/1999/xlink" width="141.9254150390626" height="74.37639808654785" viewBox="34.225070953369084 32.36244201660156 141.9254150390626 74.37639808654785"><g transform="matrix(1,0,0,1,34.22507095336914,32.36244201660156)"><path d="M 309.6394653320312 316.4983520507812 L 325.6563415527344 316.4983520507812 L 439.4557189941406 316.4983520507812 L 374.5475463867188 372.8655090332031 L 309.6394653320312 316.4983520507812 Z" transform="matrix(1,0,0,1,-303.5848693847656,-314.2363586425781)" fill="#cd0d0f" fill-rule="evenodd"/><path d="M 304.3867797851562 314.5359802246094 L 446.3121948242188 314.5359802246094 L 375.3494873046875 376.1609802246094 L 304.3867797851562 314.5359802246094 Z M 434.2030029296875 319.0599670410156 L 316.4959106445312 319.0599670410156 L 375.3494873046875 370.1692199707031 L 434.2030029296875 319.0599670410156 Z" transform="matrix(1,0,0,1,-304.38677978515625,-314.5359802246094)" fill="#161615" fill-rule="evenodd"/><path d="M 373.697021484375 359.9287719726562 L 321.7255859375 316.4983520507812 L 423.6792907714844 316.4983520507812 L 373.697021484375 359.9287719726562 Z" transform="matrix(1,0,0,1,-301.7397155761719,-314.2363586425781)" fill="#ffffff" fill-rule="evenodd"/><path d="M 374.5513610839844 363.2001342773438 L 316.3169250488281 314.5359802246094 L 430.556884765625 314.5359802246094 L 374.5513610839844 363.2001342773438 Z M 328.7857055664062 319.0599670410156 L 374.494140625 357.2566223144531 L 418.4530029296875 319.0599670410156 L 328.7857055664062 319.0599670410156 Z" transform="matrix(1,0,0,1,-302.5654602050781,-314.5359802246094)" fill="#161615" fill-rule="evenodd"/><path d="M 2.561599731445312 15.24685096740723 L -1.962410092353821 15.24685096740723 L -1.962410092353821 -1.953582795977127e-06 L 2.561599731445312 -1.953582795977127e-06 L 2.561599731445312 15.24685096740723 Z" transform="matrix(1,0,0,1,5.755011081695557,2.262007236480713)" fill="#161615" fill-rule="evenodd"/><path d="M 2.561599731445312 15.24685096740723 L -1.962410092353821 15.24685096740723 L -1.962410092353821 -1.953582795977127e-06 L 2.561599731445312 -1.953582795977127e-06 L 2.561599731445312 15.24685096740723 Z" transform="matrix(1,0,0,1,70.6631088256836,58.629119873046875)" fill="#161615" fill-rule="evenodd"/><path d="M 2.561599731445312 15.24685096740723 L -1.962410092353821 15.24685096740723 L -1.962410092353821 -1.953582795977127e-06 L 2.561599731445312 -1.953582795977127e-06 L 2.561599731445312 15.24685096740723 Z" transform="matrix(1,0,0,1,135.5712432861328,2.262007236480713)" fill="#161615" fill-rule="evenodd"/><path d="M 2.561599731445312 15.24685096740723 L -1.962410092353821 15.24685096740723 L -1.962410092353821 -1.953582795977127e-06 L 2.561599731445312 -1.953582795977127e-06 L 2.561599731445312 15.24685096740723 Z" transform="matrix(1,0,0,1,127.76502990722656,9.885406494140625)" fill="#161615" fill-rule="evenodd"/><path d="M 2.561599731445312 15.24685096740723 L -1.962410092353821 15.24685096740723 L -1.962410092353821 -1.953582795977127e-06 L 2.561599731445312 -1.953582795977127e-06 L 2.561599731445312 15.24685096740723 Z" transform="matrix(1,0,0,1,118.9865493774414,16.353778839111328)" fill="#161615" fill-rule="evenodd"/><path d="M 2.561599731445312 15.24685096740723 L -1.962410092353821 15.24685096740723 L -1.962410092353821 -1.953582795977127e-06 L 2.561599731445312 -1.953582795977127e-06 L 2.561599731445312 15.24685096740723 Z" transform="matrix(1,0,0,1,110.67007446289062,23.9771785736084)" fill="#161615" fill-rule="evenodd"/><path d="M 2.561599731445312 15.24685096740723 L -1.962410092353821 15.24685096740723 L -1.962410092353821 -1.953582795977127e-06 L 2.561599731445312 -1.953582795977127e-06 L 2.561599731445312 15.24685096740723 Z" transform="matrix(1,0,0,1,102.40182495117188,31.600605010986328)" fill="#161615" fill-rule="evenodd"/><path d="M 2.561599731445312 15.24685096740723 L -1.962410092353821 15.24685096740723 L -1.962410092353821 -1.953582795977127e-06 L 2.561599731445312 -1.953582795977127e-06 L 2.561599731445312 15.24685096740723 Z" transform="matrix(1,0,0,1,94.89379119873047,38.31916046142578)" fill="#161615" fill-rule="evenodd"/><path d="M 2.561599731445312 15.24685096740723 L -1.962410092353821 15.24685096740723 L -1.962410092353821 -1.953582795977127e-06 L 2.561599731445312 -1.953582795977127e-06 L 2.561599731445312 15.24685096740723 Z" transform="matrix(1,0,0,1,86.1827392578125,45.94259262084961)" fill="#161615" fill-rule="evenodd"/><path d="M 2.561599731445312 15.24685096740723 L -1.962410092353821 15.24685096740723 L -1.962410092353821 -1.953582795977127e-06 L 2.561599731445312 -1.953582795977127e-06 L 2.561599731445312 15.24685096740723 Z" transform="matrix(1,0,0,1,78.3091049194336,52.41096496582031)" fill="#161615" fill-rule="evenodd"/><path d="M 2.561599731445312 15.24685096740723 L -1.962410092353821 15.24685096740723 L -1.962410092353821 -1.953582795977127e-06 L 2.561599731445312 -1.953582795977127e-06 L 2.561599731445312 15.24685096740723 Z" transform="matrix(1,0,0,1,13.400938987731934,8.980563163757324)" fill="#161615" fill-rule="evenodd"/><path d="M 2.561599731445312 15.24685096740723 L -1.962410092353821 15.24685096740723 L -1.962410092353821 -1.953582795977127e-06 L 2.561599731445312 -1.953582795977127e-06 L 2.561599731445312 15.24685096740723 Z" transform="matrix(1,0,0,1,21.207176208496094,16.603992462158203)" fill="#161615" fill-rule="evenodd"/><path d="M 2.561599731445312 15.24685096740723 L -1.962410092353821 15.24685096740723 L -1.962410092353821 -1.953582795977127e-06 L 2.561599731445312 -1.953582795977127e-06 L 2.561599731445312 15.24685096740723 Z" transform="matrix(1,0,0,1,29.98566246032715,23.07233428955078)" fill="#161615" fill-rule="evenodd"/><path d="M 2.561599731445312 15.24685096740723 L -1.962410092353821 15.24685096740723 L -1.962410092353821 -1.953582795977127e-06 L 2.561599731445312 -1.953582795977127e-06 L 2.561599731445312 15.24685096740723 Z" transform="matrix(1,0,0,1,38.3021125793457,30.695762634277344)" fill="#161615" fill-rule="evenodd"/><path d="M 2.561599731445312 15.24685096740723 L -1.962410092353821 15.24685096740723 L -1.962410092353821 -1.953582795977127e-06 L 2.561599731445312 -1.953582795977127e-06 L 2.561599731445312 15.24685096740723 Z" transform="matrix(1,0,0,1,46.57036209106445,38.31916046142578)" fill="#161615" fill-rule="evenodd"/><path d="M 2.561599731445312 15.24685096740723 L -1.962410092353821 15.24685096740723 L -1.962410092353821 -1.953582795977127e-06 L 2.561599731445312 -1.953582795977127e-06 L 2.561599731445312 15.24685096740723 Z" transform="matrix(1,0,0,1,54.07838821411133,45.037750244140625)" fill="#161615" fill-rule="evenodd"/><path d="M 2.561599731445312 15.24685096740723 L -1.962410092353821 15.24685096740723 L -1.962410092353821 -1.953582795977127e-06 L 2.561599731445312 -1.953582795977127e-06 L 2.561599731445312 15.24685096740723 Z" transform="matrix(1,0,0,1,62.78949737548828,52.66114807128906)" fill="#161615" fill-rule="evenodd"/><path d="M 2.561599731445312 15.24685096740723 L -1.962410092353821 15.24685096740723 L -1.962410092353821 -1.953582795977127e-06 L 2.561599731445312 -1.953582795977127e-06 L 2.561599731445312 15.24685096740723 Z" transform="matrix(1,0,0,1,70.6631088256836,59.129547119140625)" fill="#161615" fill-rule="evenodd"/><g transform="matrix(1,0,0,1,63.16091537475586,11.739768981933594)"><g transform="matrix(1,0,0,1,6.07278299331665,-5.766382193923359e-16)"><path d="M 1.958000183105469 15.60362720489502 L -1.5 15.60362720489502 L -1.5 -1.623535297312628e-07 L 1.958000183105469 -1.623535297312628e-07 L 1.958000183105469 15.60362720489502 Z" transform="matrix(1,0,0,1,1.5,1.6235352973126282e-7)" fill="#cd0d0f" fill-rule="evenodd"/></g><g transform="matrix(1,0,0,1,1.1070336279413889e-15,6.072817325592041)"><path d="M 15.60362720489502 1.958000183105469 L -1.623535297312628e-07 1.958000183105469 L -1.623535297312628e-07 -1.5 L 15.60362720489502 -1.5 L 15.60362720489502 1.958000183105469 Z" transform="matrix(1,0,0,1,1.6235352973126282e-7,1.5)" fill="#cd0d0f" fill-rule="evenodd"/></g><g transform="matrix(1,0,0,1,1.06247878074646,1.06247878074646)"><path d="M 1.384521722793579 12.41795253753662 L -1.060664892196655 9.97276496887207 L 9.97276496887207 -1.060664892196655 L 12.41795253753662 1.384521722793579 L 1.384521722793579 12.41795253753662 Z" transform="matrix(1,0,0,1,1.0606648921966553,1.0606648921966553)" fill="#cd0d0f" fill-rule="evenodd"/></g><g transform="matrix(1,0,0,1,1.06247878074646,1.06247878074646)"><path d="M 9.97276496887207 12.41795253753662 L -1.060664892196655 1.384521722793579 L 1.384521722793579 -1.060664892196655 L 12.41795253753662 9.97276496887207 L 9.97276496887207 12.41795253753662 Z" transform="matrix(1,0,0,1,1.0606648921966553,1.0606648921966553)" fill="#cd0d0f" fill-rule="evenodd"/></g></g></g></svg>