<svg xmlns="http://www.w3.org/2000/svg" xmlns:xlink="http://www.w3.org/1999/xlink" width="49.99784851074219" height="108.635498046875" viewBox="69.5263671875 11.431020736694336 49.99784851074219 108.635498046875"><g transform="matrix(1,0,0,1,69.5263671875,11.431020736694336)"><path d="M 218.6941223144531 347.0911865234375 L 222.0174255371094 323.8280029296875 L 195.3712768554688 323.8280029296875 L 198.9515533447266 346.9621887207031 C 191.3521270751953 350.6011962890625 186.1020050048828 358.3623046875 186.1020050048828 367.3515014648438 L 186.1020050048828 401.3401184082031 L 231.2876586914062 401.3401184082031 L 231.2876586914062 367.3515014648438 C 231.2876586914062 358.4643249511719 226.1549682617188 350.7801818847656 218.6941223144531 347.0911865234375 Z" transform="matrix(1,0,0,1,-183.69590759277344,-295.11077880859375)" fill="#ffffff" fill-rule="evenodd"/><path d="M 192.4702606201172 321.3280029296875 L 224.6977844238281 321.3280029296875 L 221.2192840576172 345.6773681640625 C 224.6602935791016 347.6918029785156 227.5789947509766 350.5036926269531 229.7266082763672 353.8893127441406 C 232.260498046875 357.8838806152344 233.599853515625 362.5065307617188 233.599853515625 367.2576293945312 L 233.599853515625 403.65234375 L 183.6020050048828 403.65234375 L 183.6020050048828 367.2576293945312 C 183.6020050048828 362.4507751464844 184.9703826904297 357.7817687988281 187.5592193603516 353.7553405761719 C 189.7505950927734 350.34716796875 192.7207794189453 347.5334167480469 196.2169342041016 345.5373840332031 L 192.4702606201172 321.3280029296875 Z M 219.1492767333984 326.1401977539062 L 198.0845031738281 326.1401977539062 L 201.5087890625 348.2665405273438 L 199.8968200683594 349.0384216308594 C 192.9214019775391 352.3786010742188 188.4142150878906 359.5300903320312 188.4142150878906 367.2576293945312 L 188.4142150878906 398.8401489257812 L 228.7876434326172 398.8401489257812 L 228.7876434326172 367.2576293945312 C 228.7876434326172 359.5232849121094 224.4754028320312 352.5864562988281 217.5337524414062 349.1541137695312 L 215.9718933105469 348.3818664550781 L 219.1492767333984 326.1401977539062 Z" transform="matrix(1,0,0,1,-183.6020050048828,-295.016845703125)" fill="#161615" fill-rule="evenodd"/><ellipse cx="10.701116561889648" cy="10.701116561889648" rx="10.701116561889648" ry="10.701116561889648" transform="matrix(1,0,0,1,14.297472953796387,2.4061014652252197)" fill="#ffffff" fill-rule="evenodd"/><path d="M 10.60721969604492 -2.499998092651367 C 14.1082820892334 -2.499998092651367 17.3997917175293 -1.136613607406616 19.87542343139648 1.339015364646912 C 22.35105323791504 3.814646005630493 23.71443939208984 7.106157302856445 23.71443939208984 10.60721969604492 C 23.71443939208984 14.1082820892334 22.35105323791504 17.3997917175293 19.87542343139648 19.87542343139648 C 17.3997917175293 22.35105323791504 14.1082820892334 23.71443939208984 10.60721969604492 23.71443939208984 C 7.106157302856445 23.71443939208984 3.814646005630493 22.35105323791504 1.339015364646912 19.87542343139648 C -1.136613607406616 17.3997917175293 -2.499998092651367 14.1082820892334 -2.499998092651367 10.60721969604492 C -2.499998092651367 7.106157302856445 -1.136613607406616 3.814646005630493 1.339015364646912 1.339015364646912 C 3.814646005630493 -1.136613607406616 7.106157302856445 -2.499998092651367 10.60721969604492 -2.499998092651367 Z M 10.60721969604492 18.9022331237793 C 15.18110656738281 18.9022331237793 18.9022331237793 15.18110656738281 18.9022331237793 10.60721969604492 C 18.9022331237793 6.033332824707031 15.18110656738281 2.312208414077759 10.60721969604492 2.312208414077759 C 6.033332824707031 2.312208414077759 2.312208414077759 6.033332824707031 2.312208414077759 10.60721969604492 C 2.312208414077759 15.18110656738281 6.033332824707031 18.9022331237793 10.60721969604492 18.9022331237793 Z" transform="matrix(1,0,0,1,14.391368865966797,2.499998092651367)" fill="#161615" fill-rule="evenodd"/><g transform="matrix(1,0,0,1,19.577590942382812,34.28120803833008)"><g transform="matrix(1,0,0,1,4.163624286651611,4.722769416753807e-15)"><path d="M 1.20831286907196 10.84201335906982 L -1.306449890136719 10.84201335906982 L -1.306449890136719 -4.038390670757508e-06 L 1.20831286907196 -4.038390670757508e-06 L 1.20831286907196 10.84201335906982 Z" transform="matrix(1,0,0,1,1.3064498901367188,0.000004038390670757508)" fill="#cd0d0f" fill-rule="evenodd"/></g><g transform="matrix(1,0,0,1,1.1700557379533058e-15,4.163639068603516)"><path d="M 10.84201335906982 1.20831286907196 L -4.038390670757508e-06 1.20831286907196 L -4.038390670757508e-06 -1.306449890136719 L 10.84201335906982 -1.306449890136719 L 10.84201335906982 1.20831286907196 Z" transform="matrix(1,0,0,1,0.000004038390670757508,1.3064498901367188)" fill="#cd0d0f" fill-rule="evenodd"/></g><g transform="matrix(1,0,0,1,0.6986716389656067,0.6986863017082214)"><path d="M 0.8544049263000488 8.520866394042969 L -0.9238016605377197 6.742659091949463 L 6.742659091949463 -0.9238016605377197 L 8.520866394042969 0.8544049263000488 L 0.8544049263000488 8.520866394042969 Z" transform="matrix(1,0,0,1,0.9238016605377197,0.9238016605377197)" fill="#cd0d0f" fill-rule="evenodd"/></g><g transform="matrix(1,0,0,1,0.6986716389656067,0.6986863017082214)"><path d="M 6.742659091949463 8.520866394042969 L -0.9238016605377197 0.8544049263000488 L 0.8544049263000488 -0.9238016605377197 L 8.520866394042969 6.742659091949463 L 6.742659091949463 8.520866394042969 Z" transform="matrix(1,0,0,1,0.9238016605377197,0.9238016605377197)" fill="#cd0d0f" fill-rule="evenodd"/></g></g><g transform="matrix(1,0,0,1,19.577590942382812,56.63156509399414)"><g transform="matrix(1,0,0,1,4.163624286651611,4.722769416753807e-15)"><path d="M 1.20831286907196 10.84201335906982 L -1.306449890136719 10.84201335906982 L -1.306449890136719 -4.038390670757508e-06 L 1.20831286907196 -4.038390670757508e-06 L 1.20831286907196 10.84201335906982 Z" transform="matrix(1,0,0,1,1.3064498901367188,0.000004038390670757508)" fill="#cd0d0f" fill-rule="evenodd"/></g><g transform="matrix(1,0,0,1,1.1700557379533058e-15,4.163609504699707)"><path d="M 10.84201335906982 1.20831286907196 L -4.038390670757508e-06 1.20831286907196 L -4.038390670757508e-06 -1.306449890136719 L 10.84201335906982 -1.306449890136719 L 10.84201335906982 1.20831286907196 Z" transform="matrix(1,0,0,1,0.000004038390670757508,1.3064498901367188)" fill="#cd0d0f" fill-rule="evenodd"/></g><g transform="matrix(1,0,0,1,0.6986716389656067,0.6986569166183472)"><path d="M 0.8544049263000488 8.520866394042969 L -0.9238016605377197 6.742659091949463 L 6.742659091949463 -0.9238016605377197 L 8.520866394042969 0.8544049263000488 L 0.8544049263000488 8.520866394042969 Z" transform="matrix(1,0,0,1,0.9238016605377197,0.9238016605377197)" fill="#cd0d0f" fill-rule="evenodd"/></g><g transform="matrix(1,0,0,1,0.6986716389656067,0.6986569166183472)"><path d="M 6.742659091949463 8.520866394042969 L -0.9238016605377197 0.8544049263000488 L 0.8544049263000488 -0.9238016605377197 L 8.520866394042969 6.742659091949463 L 6.742659091949463 8.520866394042969 Z" transform="matrix(1,0,0,1,0.9238016605377197,0.9238016605377197)" fill="#cd0d0f" fill-rule="evenodd"/></g></g><g transform="matrix(1,0,0,1,19.577590942382812,78.98189544677734)"><g transform="matrix(1,0,0,1,4.163624286651611,-1.0551772332951202e-14)"><path d="M 1.20831286907196 10.84201335906982 L -1.306449890136719 10.84201335906982 L -1.306449890136719 -4.038390670757508e-06 L 1.20831286907196 -4.038390670757508e-06 L 1.20831286907196 10.84201335906982 Z" transform="matrix(1,0,0,1,1.3064498901367188,0.000004038390670757508)" fill="#cd0d0f" fill-rule="evenodd"/></g><g transform="matrix(1,0,0,1,1.1700557379533058e-15,4.163639068603516)"><path d="M 10.84201335906982 1.20831286907196 L -4.038390670757508e-06 1.20831286907196 L -4.038390670757508e-06 -1.306449890136719 L 10.84201335906982 -1.306449890136719 L 10.84201335906982 1.20831286907196 Z" transform="matrix(1,0,0,1,0.000004038390670757508,1.3064498901367188)" fill="#cd0d0f" fill-rule="evenodd"/></g><g transform="matrix(1,0,0,1,0.6986716389656067,0.6986863017082214)"><path d="M 0.8544049263000488 8.520866394042969 L -0.9238016605377197 6.742659091949463 L 6.742659091949463 -0.9238016605377197 L 8.520866394042969 0.8544049263000488 L 0.8544049263000488 8.520866394042969 Z" transform="matrix(1,0,0,1,0.9238016605377197,0.9238016605377197)" fill="#cd0d0f" fill-rule="evenodd"/></g><g transform="matrix(1,0,0,1,0.6986716389656067,0.6986863017082214)"><path d="M 6.742659091949463 8.520866394042969 L -0.9238016605377197 0.8544049263000488 L 0.8544049263000488 -0.9238016605377197 L 8.520866394042969 6.742659091949463 L 6.742659091949463 8.520866394042969 Z" transform="matrix(1,0,0,1,0.9238016605377197,0.9238016605377197)" fill="#cd0d0f" fill-rule="evenodd"/></g></g></g></svg>