<svg xmlns="http://www.w3.org/2000/svg" xmlns:xlink="http://www.w3.org/1999/xlink" width="71.24772572517395" height="93.543212890625" viewBox="69.29576873779297 23.56778526306152 71.24772572517395 93.543212890625"><g transform="matrix(1,0,0,1,69.29576873779297,23.567785263061523)"><g transform="matrix(1,0,0,1,5.105696495065004e-16,-3.7229033502110976e-15)"><path d="M 221.9677886962891 6.655999660491943 C 203.7052917480469 6.655999660491943 188.9010009765625 11.44502353668213 188.9010009765625 17.35140228271484 C 188.9010009765625 19.42374801635742 189.7958984375 22.99569892883301 189.7958984375 22.99569892883301 L 198.3217926025391 83.78408813476562 C 198.3217926025391 83.78408813476562 198.5889892578125 86.25530242919922 199.1898651123047 87.61811065673828 C 199.1975250244141 92.19364929199219 209.5272979736328 95.08545684814453 222.2784423828125 95.08545684814453 C 235.0295562744141 95.08545684814453 244.9156951904297 91.71806335449219 245.3669891357422 87.61811065673828 C 245.5178375244141 86.24507904052734 246.1289367675781 83.78408813476562 246.1289367675781 83.78408813476562 L 254.3492736816406 22.99569892883301 C 254.3492736816406 22.99569892883301 255.0345001220703 19.42374801635742 255.0345001220703 17.35140228271484 C 255.0345001220703 11.44502353668213 240.230224609375 6.655999660491943 221.9677886962891 6.655999660491943 Z" transform="matrix(1,0,0,1,-186.34410858154297,-4.099121809005737)" fill="#ffffff" fill-rule="evenodd"/><path d="M 222.5246429443359 4.655998229980469 C 231.6170196533203 4.655998229980469 240.2002868652344 5.81265926361084 246.6933288574219 7.912904739379883 C 256.1609497070312 10.97531223297119 258.1482849121094 15.03874206542969 258.1482849121094 17.90826988220215 C 258.1482849121094 20.05731201171875 257.5498657226562 23.33271026611328 257.4308166503906 23.96310043334961 L 249.2009429931641 84.82181549072266 L 249.1672973632812 84.9571533203125 C 249.0087585449219 85.59626770019531 248.5734710693359 87.47098541259766 248.4654541015625 88.45420837402344 C 248.2741241455078 90.19255828857422 247.2606964111328 91.76113128662109 245.4532623291016 93.11684417724609 C 244.0401763916016 94.17678833007812 242.1348266601562 95.1048583984375 239.7901763916016 95.87525939941406 C 235.2292175292969 97.37389373779297 229.2078399658203 98.19921112060547 222.8353118896484 98.19921112060547 C 216.2572326660156 98.19921112060547 210.1913757324219 97.44188690185547 205.7551727294922 96.06671142578125 C 203.323974609375 95.31307983398438 201.3838500976562 94.37742614746094 199.9887237548828 93.28571319580078 C 197.9837951660156 91.71683502197266 197.3521728515625 90.02710723876953 197.2190856933594 88.73715972900391 C 196.6483306884766 87.17588043212891 196.3983306884766 85.17137145996094 196.3412475585938 84.65803527832031 L 187.8389129638672 24.03779983520508 C 187.6500396728516 23.26395225524902 186.9010009765625 20.05904769897461 186.9010009765625 17.90826988220215 C 186.9010009765625 15.03874206542969 188.8883209228516 10.97531223297119 198.3559265136719 7.912904739379883 C 204.8489685058594 5.81265926361084 213.4322662353516 4.655998229980469 222.5246429443359 4.655998229980469 Z M 244.1702423095703 83.86328125 L 252.3817901611328 23.14007949829102 L 252.3950805664062 23.07085418701172 C 252.5728759765625 22.14231872558594 253.0345153808594 19.40385246276855 253.0345153808594 17.90826988220215 C 253.0345153808594 17.32852935791016 252.4532318115234 16.55149078369141 251.4396820068359 15.77643299102783 C 250.0258026123047 14.6952075958252 247.8403015136719 13.65852642059326 245.1195220947266 12.77844905853271 C 239.1212768554688 10.83826351165771 231.0969390869141 9.769744873046875 222.5246429443359 9.769744873046875 C 213.9523162841797 9.769744873046875 205.9279632568359 10.83826351165771 199.9297180175781 12.77844905853271 C 197.2089538574219 13.65852642059326 195.0234527587891 14.6952075958252 193.6095581054688 15.77643299102783 C 192.5960235595703 16.55149078369141 192.0147399902344 17.32852935791016 192.0147399902344 17.90826988220215 C 192.0147399902344 19.34325218200684 192.6055145263672 22.02114105224609 192.8331451416016 22.93188285827637 L 192.8659057617188 23.06294631958008 L 192.8848419189453 23.19743728637695 L 201.4207153320312 84.06611633300781 C 201.5155792236328 84.93144989013672 201.7849731445312 86.4600830078125 202.0863037109375 87.14348602294922 L 202.3027191162109 87.63430023193359 L 202.3036041259766 88.17071533203125 C 202.3045654296875 88.74021911621094 203.6535339355469 90.06143951416016 207.2692718505859 91.18226623535156 C 211.2285003662109 92.40956115722656 216.7566070556641 93.08546447753906 222.8353118896484 93.08546447753906 C 228.6799774169922 93.08546447753906 234.1344146728516 92.35088348388672 238.1938629150391 91.01704406738281 C 242.3674163818359 89.64571380615234 243.3481597900391 88.20578002929688 243.3823394775391 87.89524078369141 C 243.5308685302734 86.54319763183594 244.0253601074219 84.45784759521484 244.1702423095703 83.86328125 Z" transform="matrix(1,0,0,1,-186.9010009765625,-4.655998229980469)" fill="#161615" fill-rule="evenodd"/><path d="M 33.62363052368164 -2.000003814697266 C 42.71611404418945 -2.000003814697266 51.29935073852539 -0.8434004783630371 57.7922477722168 1.256743907928467 C 67.25992584228516 4.319096565246582 69.24725341796875 8.382706642150879 69.24725341796875 11.25241374969482 C 69.24725341796875 14.12212085723877 67.25992584228516 18.18573188781738 57.7922477722168 21.24808502197266 C 51.29935073852539 23.34822654724121 42.71611404418945 24.50483131408691 33.62363052368164 24.50483131408691 C 24.5311450958252 24.50483131408691 15.94790554046631 23.34822654724121 9.455010414123535 21.24808502197266 C -0.01266547478735447 18.18573188781738 -1.999996304512024 14.12212085723877 -1.999996304512024 11.25241374969482 C -1.999996304512024 8.382706642150879 -0.01266547478735447 4.319096565246582 9.455010414123535 1.256743907928467 C 15.94790554046631 -0.8434004783630371 24.5311450958252 -2.000003814697266 33.62363052368164 -2.000003814697266 Z M 33.62363052368164 19.39108276367188 C 42.19606018066406 19.39108276367188 50.22039413452148 18.32262420654297 56.21846389770508 16.38252449035645 C 58.93926239013672 15.50247764587402 61.12473297119141 14.46579360961914 62.53863143920898 13.38454818725586 C 63.55219650268555 12.60944652557373 64.13350677490234 11.83231353759766 64.13350677490234 11.25241374969482 C 64.13350677490234 10.67251586914062 63.55219650268555 9.895381927490234 62.53863143920898 9.120279312133789 C 61.12473297119141 8.039034843444824 58.93926239013672 7.0023512840271 56.21846389770508 6.122303485870361 C 50.22039413452148 4.182204723358154 42.19606018066406 3.113744258880615 33.62363052368164 3.113744258880615 C 25.05119705200195 3.113744258880615 17.02686500549316 4.182204723358154 11.02879333496094 6.122303485870361 C 8.30799388885498 7.0023512840271 6.122522354125977 8.039034843444824 4.708626270294189 9.120279312133789 C 3.695056676864624 9.895381927490234 3.113750696182251 10.67251586914062 3.113750696182251 11.25241374969482 C 3.113750696182251 11.83231353759766 3.695056676864624 12.60944652557373 4.708626270294189 13.38454818725586 C 6.122522354125977 14.46579360961914 8.30799388885498 15.50247764587402 11.02879333496094 16.38252449035645 C 17.02686500549316 18.32262420654297 25.05119705200195 19.39108276367188 33.62363052368164 19.39108276367188 Z" transform="matrix(1,0,0,1,2.0004723072052,2.0002646446228027)" fill="#161615" fill-rule="evenodd"/><path d="M 241.2416229248047 72.39817810058594 C 241.2401580810547 72.39376068115234 241.0615997314453 71.93765258789062 239.9093017578125 71.24810028076172 C 238.8314208984375 70.60311889648438 237.2836456298828 69.98941802978516 235.4332427978516 69.473388671875 C 231.3436431884766 68.33286285400391 226.0096130371094 67.70474243164062 220.413818359375 67.70474243164062 C 214.8179473876953 67.70474243164062 209.4840850830078 68.33287048339844 205.3947296142578 69.47342681884766 C 203.5445098876953 69.98946380615234 201.9969024658203 70.60316467285156 200.9192199707031 71.24815368652344 C 199.7671813964844 71.93763732910156 199.5887451171875 72.3936767578125 199.5872650146484 72.39808654785156 C 199.5896301269531 72.39104461669922 199.5957336425781 72.36511993408203 199.5957336425781 72.33012390136719 L 194.4819793701172 72.33012390136719 C 194.4819793701172 71.06909942626953 194.9835357666016 69.20153045654297 197.3729705810547 67.4656982421875 C 198.7789459228516 66.44429016113281 200.7173461914062 65.54987335205078 203.1342468261719 64.80726623535156 C 207.7857360839844 63.37809753417969 213.9224090576172 62.59100341796875 220.413818359375 62.59100341796875 C 226.9052734375 62.59100341796875 233.0421295166016 63.37808227539062 237.6939392089844 64.8072509765625 C 240.1109924316406 65.54985046386719 242.0494995117188 66.44425201416016 243.4555816650391 67.46561431884766 C 245.8452606201172 69.20146179199219 246.3468933105469 71.06908416748047 246.3468933105469 72.33012390136719 L 241.2331237792969 72.33012390136719 C 241.2331237792969 72.36515808105469 241.2392730712891 72.39112091064453 241.2416229248047 72.39817810058594 Z" transform="matrix(1,0,0,1,-184.7901611328125,11.475236892700195)" fill="#161615" fill-rule="evenodd"/></g><g transform="matrix(1,0,0,1,22.47724151611328,38.954341888427734)"><g transform="matrix(1,0,0,1,10.589980125427246,-1.1104289595104577e-15)"><path d="M 3.113746881484985 26.2937126159668 L -2 26.2937126159668 L -2 7.25708048321394e-07 L 3.113746881484985 7.25708048321394e-07 L 3.113746881484985 26.2937126159668 Z" transform="matrix(1,0,0,1,2,-7.25708048321394e-7)" fill="#cd0d0f" fill-rule="evenodd"/></g><g transform="matrix(1,0,0,1,2.936375236928593e-16,10.589980125427246)"><path d="M 26.2937126159668 3.113746881484985 L 7.25708048321394e-07 3.113746881484985 L 7.25708048321394e-07 -2 L 26.2937126159668 -2 L 26.2937126159668 3.113746881484985 Z" transform="matrix(1,0,0,1,-7.25708048321394e-7,2)" fill="#cd0d0f" fill-rule="evenodd"/></g><g transform="matrix(1,0,0,1,2.0426337718963623,2.0426337718963623)"><path d="M 2.2017502784729 20.79422187805176 L -1.414218425750732 17.17825317382812 L 17.17825317382812 -1.414218425750732 L 20.79422187805176 2.2017502784729 L 2.2017502784729 20.79422187805176 Z" transform="matrix(1,0,0,1,1.4142184257507324,1.4142184257507324)" fill="#cd0d0f" fill-rule="evenodd"/></g><g transform="matrix(1,0,0,1,2.0426337718963623,2.0426337718963623)"><path d="M 17.17825317382812 20.79422187805176 L -1.414218425750732 2.2017502784729 L 2.2017502784729 -1.414218425750732 L 20.79422187805176 17.17825317382812 L 17.17825317382812 20.79422187805176 Z" transform="matrix(1,0,0,1,1.4142184257507324,1.4142184257507324)" fill="#cd0d0f" fill-rule="evenodd"/></g></g></g></svg>