<svg xmlns="http://www.w3.org/2000/svg" xmlns:xlink="http://www.w3.org/1999/xlink" width="107.79345703125" height="84.05456638336182" viewBox="45.2347412109375 30.20739364624023 107.79345703125 84.05456638336182"><g transform="matrix(1,0,0,1,45.2347412109375,30.207393646240234)"><path d="M 390.3294372558594 16.84099769592285 L 358.45556640625 16.84099769592285 L 361.3567199707031 27.7403564453125 C 361.6484985351562 30.51520538330078 361.8094177246094 33.38179779052734 361.8094177246094 36.32358551025391 C 361.8094177246094 60.03387069702148 351.8726196289062 76.19416809082031 339.6152038574219 76.19416809082031 C 327.3576965332031 76.19416809082031 317.4209289550781 60.03387069702148 317.4209289550781 36.32358551025391 C 317.4209289550781 32.52602767944336 317.68408203125 28.85180282592773 318.1638488769531 25.34601783752441 L 320.4273071289062 16.84099769592285 L 288.5519104003906 16.84099769592285 L 288.5519104003906 29.66395378112793 L 299.4558410644531 29.66395378112793 L 299.4558410644531 54.72029876708984 C 299.4558410644531 76.89952850341797 317.4359130859375 94.87963104248047 339.6152038574219 94.87963104248047 L 339.6152038574219 94.87963104248047 C 361.7958984375 94.87963104248047 379.7760314941406 76.89952850341797 379.7760314941406 54.72029876708984 L 379.7760314941406 29.66395378112793 L 390.3294372558594 29.66395378112793 L 390.3294372558594 16.84099769592285 Z" transform="matrix(1,0,0,1,-285.5439453125,-13.833038330078125)" fill="#ffffff" fill-rule="evenodd"/><path d="M 286.5519714355469 14.84100246429443 L 325.3485717773438 14.84100246429443 L 322.1271362304688 26.94514465332031 C 321.6691284179688 30.35467338562012 321.4368896484375 33.84819030761719 321.4368896484375 37.33154678344727 C 321.4368896484375 48.09394454956055 323.6039123535156 57.80002593994141 327.5388793945312 64.66182708740234 C 331.0638732910156 70.80885314941406 335.7106018066406 74.19414520263672 340.6231994628906 74.19414520263672 C 345.5357055664062 74.19414520263672 350.1824951171875 70.80885314941406 353.7074584960938 64.66182708740234 C 357.6424255371094 57.80002593994141 359.8094482421875 48.09394454956055 359.8094482421875 37.33154678344727 C 359.8094482421875 34.67399597167969 359.6707763671875 31.97087097167969 359.3971557617188 29.29358863830566 L 355.5502319335938 14.84100246429443 L 394.3454284667969 14.84100246429443 L 394.3454284667969 33.67988204956055 L 383.7919921875 33.67988204956055 L 383.7919921875 55.7282600402832 C 383.7919921875 61.55446243286133 382.6502380371094 67.20798492431641 380.3983459472656 72.53178405761719 C 378.2240295410156 77.67249298095703 375.11181640625 82.28868103027344 371.1483154296875 86.25211334228516 C 367.1847534179688 90.21556091308594 362.5684204101562 93.32768249511719 357.4275512695312 95.50199890136719 C 352.1035461425781 97.75381469726562 346.4497680664062 98.89556884765625 340.6231994628906 98.89556884765625 C 334.7969360351562 98.89556884765625 329.1434631347656 97.7537841796875 323.8196105957031 95.50197601318359 C 318.678955078125 93.32765197753906 314.0628356933594 90.21553039550781 310.0993347167969 86.2520751953125 C 306.1358947753906 82.28864288330078 303.0238342285156 77.67244720458984 300.8493957519531 72.53178405761719 C 298.5975952148438 67.20797729492188 297.4558715820312 61.55444717407227 297.4558715820312 55.7282600402832 L 297.4558715820312 33.67988204956055 L 286.5519714355469 33.67988204956055 L 286.5519714355469 14.84100246429443 Z M 317.5221557617188 20.85693550109863 L 292.5679321289062 20.85693550109863 L 292.5679321289062 27.6639518737793 L 303.4717712402344 27.6639518737793 L 303.4717712402344 55.7282600402832 C 303.4717712402344 76.21360015869141 320.1378173828125 92.87963104248047 340.6231994628906 92.87963104248047 C 361.1092834472656 92.87963104248047 377.7760314941406 76.21360015869141 377.7760314941406 55.7282600402832 L 377.7760314941406 27.6639518737793 L 388.3294982910156 27.6639518737793 L 388.3294982910156 20.85693550109863 L 363.3769226074219 20.85693550109863 L 365.3316955566406 28.20089721679688 L 365.3562622070312 28.43376922607422 C 365.6675415039062 31.39463233947754 365.8254089355469 34.38827896118164 365.8254089355469 37.33154678344727 C 365.8254089355469 43.33370590209961 365.2124633789062 49.0234489440918 364.0036315917969 54.2427864074707 C 362.8287658691406 59.31579971313477 361.1204528808594 63.82815933227539 358.9261779785156 67.65453338623047 C 356.6931457519531 71.54862213134766 354.027587890625 74.61183166503906 351.003662109375 76.75911712646484 C 347.7789001464844 79.04900360107422 344.2864074707031 80.21007537841797 340.6231994628906 80.21007537841797 C 336.9599304199219 80.21007537841797 333.4674377441406 79.04900360107422 330.24267578125 76.75911712646484 C 327.2187194824219 74.61183166503906 324.55322265625 71.54862213134766 322.3201293945312 67.65453338623047 C 320.1258850097656 63.82815933227539 318.4175720214844 59.31579971313477 317.2426452636719 54.2427864074707 C 316.0338439941406 49.0234489440918 315.4209289550781 43.33370590209961 315.4209289550781 37.33154678344727 C 315.4209289550781 33.51375579833984 315.6802368164062 29.68315696716309 316.1917114257812 25.94614410400391 L 316.2170104980469 25.7609748840332 L 317.5221557617188 20.85693550109863 Z" transform="matrix(1,0,0,1,-286.5519714355469,-14.841002464294434)" fill="#161615" fill-rule="evenodd"/><g transform="matrix(1,0,0,1,50.085453033447266,66.25436401367188)"><g transform="matrix(1,0,0,1,3.9160497188568115,3.389740516342274e-15)"><path d="M 1.50597357749939 10.08811569213867 L -0.75 10.08811569213867 L -0.75 3.634643235272961e-06 L 1.50597357749939 3.634643235272961e-06 L 1.50597357749939 10.08811569213867 Z" transform="matrix(1,0,0,1,0.75,-0.0000036346432352729607)" fill="#cd0d0f" fill-rule="evenodd"/></g><g transform="matrix(1,0,0,1,2.602287019564894e-15,3.9160666465759277)"><path d="M 10.08811569213867 1.50597357749939 L 3.634643235272961e-06 1.50597357749939 L 3.634643235272961e-06 -0.75 L 10.08811569213867 -0.75 L 10.08811569213867 1.50597357749939 Z" transform="matrix(1,0,0,1,-0.0000036346432352729607,0.75)" fill="#cd0d0f" fill-rule="evenodd"/></g><g transform="matrix(1,0,0,1,0.6797448396682739,0.6797563433647156)"><path d="M 1.064880967140198 8.198268890380859 L -0.5303328037261963 6.603055953979492 L 6.603055953979492 -0.5303328037261963 L 8.198268890380859 1.064880967140198 L 1.064880967140198 8.198268890380859 Z" transform="matrix(1,0,0,1,0.5303328037261963,0.5303328037261963)" fill="#cd0d0f" fill-rule="evenodd"/></g><g transform="matrix(1,0,0,1,0.6797448396682739,0.6797563433647156)"><path d="M 6.603055953979492 8.198268890380859 L -0.5303328037261963 1.064880967140198 L 1.064880967140198 -0.5303328037261963 L 8.198268890380859 6.603055953979492 L 6.603055953979492 8.198268890380859 Z" transform="matrix(1,0,0,1,0.5303328037261963,0.5303328037261963)" fill="#cd0d0f" fill-rule="evenodd"/></g></g><g transform="matrix(1,0,0,1,79.21276092529297,42.0273323059082)"><g transform="matrix(1,0,0,1,3.9160497188568115,3.389740516342274e-15)"><path d="M 1.50597357749939 10.08811569213867 L -0.75 10.08811569213867 L -0.75 3.634643235272961e-06 L 1.50597357749939 3.634643235272961e-06 L 1.50597357749939 10.08811569213867 Z" transform="matrix(1,0,0,1,0.75,-0.0000036346432352729607)" fill="#cd0d0f" fill-rule="evenodd"/></g><g transform="matrix(1,0,0,1,-3.3893142470115684e-15,3.9160726070404053)"><path d="M 10.08811569213867 1.50597357749939 L 3.634643235272961e-06 1.50597357749939 L 3.634643235272961e-06 -0.75 L 10.08811569213867 -0.75 L 10.08811569213867 1.50597357749939 Z" transform="matrix(1,0,0,1,-0.0000036346432352729607,0.75)" fill="#cd0d0f" fill-rule="evenodd"/></g><g transform="matrix(1,0,0,1,0.6797448396682739,0.6797563433647156)"><path d="M 1.064880967140198 8.198268890380859 L -0.5303328037261963 6.603055953979492 L 6.603055953979492 -0.5303328037261963 L 8.198268890380859 1.064880967140198 L 1.064880967140198 8.198268890380859 Z" transform="matrix(1,0,0,1,0.5303328037261963,0.5303328037261963)" fill="#cd0d0f" fill-rule="evenodd"/></g><g transform="matrix(1,0,0,1,0.6797448396682739,0.6797563433647156)"><path d="M 6.603055953979492 8.198268890380859 L -0.5303328037261963 1.064880967140198 L 1.064880967140198 -0.5303328037261963 L 8.198268890380859 6.603055953979492 L 6.603055953979492 8.198268890380859 Z" transform="matrix(1,0,0,1,0.5303328037261963,0.5303328037261963)" fill="#cd0d0f" fill-rule="evenodd"/></g></g><g transform="matrix(1,0,0,1,19.687694549560547,42.0273323059082)"><g transform="matrix(1,0,0,1,3.9160497188568115,3.389740516342274e-15)"><path d="M 1.50597357749939 10.08811569213867 L -0.75 10.08811569213867 L -0.75 3.634643235272961e-06 L 1.50597357749939 3.634643235272961e-06 L 1.50597357749939 10.08811569213867 Z" transform="matrix(1,0,0,1,0.75,-0.0000036346432352729607)" fill="#cd0d0f" fill-rule="evenodd"/></g><g transform="matrix(1,0,0,1,-2.4036291001926723e-16,3.9160726070404053)"><path d="M 10.08811569213867 1.50597357749939 L 3.634643235272961e-06 1.50597357749939 L 3.634643235272961e-06 -0.75 L 10.08811569213867 -0.75 L 10.08811569213867 1.50597357749939 Z" transform="matrix(1,0,0,1,-0.0000036346432352729607,0.75)" fill="#cd0d0f" fill-rule="evenodd"/></g><g transform="matrix(1,0,0,1,0.6797448396682739,0.6797563433647156)"><path d="M 1.064880967140198 8.198268890380859 L -0.5303328037261963 6.603055953979492 L 6.603055953979492 -0.5303328037261963 L 8.198268890380859 1.064880967140198 L 1.064880967140198 8.198268890380859 Z" transform="matrix(1,0,0,1,0.5303328037261963,0.5303328037261963)" fill="#cd0d0f" fill-rule="evenodd"/></g><g transform="matrix(1,0,0,1,0.6797448396682739,0.6797563433647156)"><path d="M 6.603055953979492 8.198268890380859 L -0.5303328037261963 1.064880967140198 L 1.064880967140198 -0.5303328037261963 L 8.198268890380859 6.603055953979492 L 6.603055953979492 8.198268890380859 Z" transform="matrix(1,0,0,1,0.5303328037261963,0.5303328037261963)" fill="#cd0d0f" fill-rule="evenodd"/></g></g></g></svg>