<svg xmlns="http://www.w3.org/2000/svg" xmlns:xlink="http://www.w3.org/1999/xlink" width="110.83621215820312" height="90.41062164306642" viewBox="45.079280853271484 23.084035873413086 110.83621215820312 90.41062164306642"><g transform="matrix(1,0,0,1,45.079280853271484,23.084035873413086)"><path d="M 463.4812622070312 58.92462921142578 L 463.4812622070312 50.35493850708008 C 466.0400390625 49.92214584350586 467.9934692382812 47.71136474609375 467.9934692382812 45.03123474121094 C 467.9934692382812 42.04112243652344 465.5692138671875 39.61687469482422 462.5790710449219 39.61687469482422 C 459.9574584960938 39.61687469482422 457.7715148925781 41.48112487792969 457.2729797363281 43.9565544128418 L 431.2378540039062 43.9565544128418 C 423.5176086425781 34.37944030761719 407.5655517578125 15.89780616760254 398.4241333007812 14.56432151794434 C 386.0484619140625 12.76002311706543 378.3136596679688 24.10488128662109 377.4114990234375 25.26437187194824 C 376.5093383789062 26.42531967163086 370.708984375 34.28878784179688 370.708984375 34.28878784179688 L 388.2402648925781 52.85083770751953 C 388.2402648925781 52.85083770751953 395.0728454589844 48.0812873840332 394.5567626953125 44.21389007568359 C 394.0420227050781 40.34649658203125 391.8502807617188 35.0622673034668 391.8502807617188 35.0622673034668 C 391.8502807617188 35.0622673034668 394.6853942871094 33.51530838012695 396.6198425292969 35.57694625854492 C 397.6170043945312 36.64139556884766 400.9170532226562 43.9565544128418 400.9170532226562 43.9565544128418 L 400.9170532226562 51.77761459350586 L 387.1655578613281 99.73190307617188 L 398.1668395996094 99.73190307617188 L 412.419921875 70.42593383789062 L 450.1171569824219 70.42593383789062 L 463.9111633300781 98.78588104248047 L 474.9109497070312 98.78588104248047 L 463.4812622070312 58.92462921142578 Z" transform="matrix(1,0,0,1,-367.42486572265625,-11.845802307128906)" fill="#ffffff" fill-rule="evenodd"/><path d="M 400.7843017578125 103.0543670654297 L 384.8533020019531 103.0543670654297 L 399.4306335449219 52.22075271606445 L 399.4306335449219 45.30027770996094 C 398.7106018066406 43.7214469909668 397.9033203125 42.02847671508789 397.2182006835938 40.66566848754883 C 397.5962829589844 41.99712371826172 397.9267883300781 43.39825057983398 398.0972290039062 44.67879867553711 C 398.4193725585938 47.09244155883789 397.1863708496094 49.74042510986328 394.432373046875 52.54830932617188 C 392.6446838378906 54.37094879150391 390.8008422851562 55.66464996337891 390.7232971191406 55.71884918212891 L 388.9378967285156 56.96509170532227 L 368.4628601074219 35.28616714477539 L 369.7154846191406 33.58816146850586 C 369.9530334472656 33.26603698730469 375.5450134277344 25.68573951721191 376.4561157226562 24.51328277587891 C 376.4945373535156 24.46390342712402 376.5459594726562 24.39446067810059 376.611572265625 24.30647850036621 C 377.3230895996094 23.35190391540527 379.4881896972656 20.44701385498047 382.8428649902344 17.81026077270508 C 387.2046813964844 14.38201332092285 391.9051208496094 12.64374542236328 396.8132934570312 12.64374542236328 C 397.8095092773438 12.64374542236328 398.8231506347656 12.71790313720703 399.8263854980469 12.86415863037109 C 404.4211120605469 13.53441047668457 410.4214172363281 17.55820465087891 418.1704711914062 25.16552352905273 C 423.9526977539062 30.84201812744141 429.5655517578125 37.41669082641602 433.4800109863281 42.22998046875 L 456.5421752929688 42.22998046875 C 457.8712463378906 39.62696075439453 460.5841674804688 37.89030075073242 463.6170959472656 37.89030075073242 C 467.9946594238281 37.89030075073242 471.5559997558594 41.45166778564453 471.5559997558594 45.82918548583984 C 471.5559997558594 48.95386123657227 469.7500915527344 51.6938591003418 467.0437927246094 52.98003387451172 L 467.0437927246094 59.36779022216797 L 479.299072265625 102.1083679199219 L 463.3697204589844 102.1083679199219 L 449.5758056640625 73.74839782714844 L 415.0373229980469 73.74839782714844 L 400.7843017578125 103.0543670654297 Z M 391.5537109375 98.00532531738281 L 397.6253967285156 98.00532531738281 L 411.8784484863281 68.69936370849609 L 452.734619140625 68.69936370849609 L 466.528564453125 97.059326171875 L 472.5987854003906 97.059326171875 L 461.9947204589844 60.07735061645508 L 461.9947204589844 49.01952743530273 L 464.0981750488281 48.66373062133789 C 465.4939880371094 48.42765808105469 466.5069580078125 47.23556137084961 466.5069580078125 45.82918548583984 C 466.5069580078125 44.23569869995117 465.2105407714844 42.93933868408203 463.6170959472656 42.93933868408203 C 462.2465515136719 42.93933868408203 461.0557861328125 43.91234970092773 460.7857666015625 45.25299072265625 L 460.3776550292969 47.27901840209961 L 431.0681762695312 47.27901840209961 L 430.3103942871094 46.33885192871094 C 416.62451171875 29.36110687255859 404.9562683105469 18.71492195129395 399.0976867675781 17.86032676696777 C 398.3351440429688 17.7491626739502 397.5664978027344 17.6927604675293 396.8132934570312 17.6927604675293 C 391.0256958007812 17.6927604675293 385.2888793945312 21.11313056945801 380.6597595214844 27.32381629943848 C 380.5675964355469 27.44757461547852 380.49462890625 27.54485893249512 380.4420166015625 27.61258697509766 C 379.8263854980469 28.40476417541504 376.78564453125 32.51434326171875 375.0318298339844 34.88801956176758 L 389.5250854492188 50.23345947265625 C 389.9518432617188 49.86325836181641 390.4185180664062 49.43327331542969 390.8748168945312 48.96477890014648 C 392.6279296875 47.16453552246094 393.1651611328125 45.8901252746582 393.0924377441406 45.34579467773438 C 392.6266479492188 41.84621047973633 390.5770568847656 36.877197265625 390.5564270019531 36.82741546630859 L 389.6869812011719 34.73111724853516 L 391.6791687011719 33.64411163330078 C 391.9440307617188 33.49957275390625 393.3560180664062 32.77859115600586 395.14404296875 32.77859115600586 C 396.8457336425781 32.77859115600586 398.3516540527344 33.42484664916992 399.4988098144531 34.64749908447266 C 399.9602966308594 35.14005279541016 400.6364135742188 36.11173629760742 402.4526977539062 39.86392211914062 C 403.4063110351562 41.83383178710938 404.2220458984375 43.64043045043945 404.2562866210938 43.71636199951172 L 404.4796447753906 44.2114143371582 L 404.4796447753906 52.93038177490234 L 391.5537109375 98.00532531738281 Z" transform="matrix(1,0,0,1,-368.4628601074219,-12.643745422363281)" fill="#161615" fill-rule="evenodd"/><g transform="matrix(1,0,0,1,39.64387130737305,31.779747009277344)"><g transform="matrix(1,0,0,1,8.228578567504883,2.83381331130149e-15)"><path d="M 2.837143898010254 20.76871490478516 L -1.474370002746582 20.76871490478516 L -1.474370002746582 4.650268692785176e-06 L 2.837143898010254 4.650268692785176e-06 L 2.837143898010254 20.76871490478516 Z" transform="matrix(1,0,0,1,1.474370002746582,-0.0000046502686927851755)" fill="#cd0d0f" fill-rule="evenodd"/></g><g transform="matrix(1,0,0,1,6.054158673137692e-15,8.22860050201416)"><path d="M 20.76871490478516 2.837143898010254 L 4.650268692785176e-06 2.837143898010254 L 4.650268692785176e-06 -1.474370002746582 L 20.76871490478516 -1.474370002746582 L 20.76871490478516 2.837143898010254 Z" transform="matrix(1,0,0,1,-0.0000046502686927851755,1.474370002746582)" fill="#cd0d0f" fill-rule="evenodd"/></g><g transform="matrix(1,0,0,1,1.517122745513916,1.517145037651062)"><path d="M 2.006169080734253 16.6918773651123 L -1.042540669441223 13.64316749572754 L 13.64316749572754 -1.042540669441223 L 16.6918773651123 2.006169080734253 L 2.006169080734253 16.6918773651123 Z" transform="matrix(1,0,0,1,1.0425406694412231,1.0425406694412231)" fill="#cd0d0f" fill-rule="evenodd"/></g><g transform="matrix(1,0,0,1,1.517122745513916,1.517145037651062)"><path d="M 13.64316749572754 16.6918773651123 L -1.042540669441223 2.006169080734253 L 2.006169080734253 -1.042540669441223 L 16.6918773651123 13.64316749572754 L 13.64316749572754 16.6918773651123 Z" transform="matrix(1,0,0,1,1.0425406694412231,1.0425406694412231)" fill="#cd0d0f" fill-rule="evenodd"/></g></g></g></svg>