<svg xmlns="http://www.w3.org/2000/svg" xmlns:xlink="http://www.w3.org/1999/xlink" width="106.95990693278327" height="104.55735301971436" viewBox="48.95557403564453 16.22550201416015 106.95990693278327 104.55735301971436"><g transform="matrix(1,0,0,1,48.95557403564453,16.225502014160156)"><rect x="0" y="0" width="99.5338134765625" height="6.620874881744385" transform="matrix(1,0,0,1,2.289607286453247,95.6468734741211)" fill="#ffffff" fill-rule="evenodd"/><path d="M -2 -2.000000476837158 L 102.1130294799805 -2.000000476837158 L 102.1130294799805 9.200091361999512 L -2 9.200091361999512 L -2 -2.000000476837158 Z M 97.5338134765625 2.579214811325073 L 2.579215288162231 2.579214811325073 L 2.579215288162231 4.620875358581543 L 97.5338134765625 4.620875358581543 L 97.5338134765625 2.579214811325073 Z" transform="matrix(1,0,0,1,2,95.35726165771484)" fill="#d9000d" fill-rule="evenodd"/><rect x="0" y="0" width="17.951589584350586" height="40.7439079284668" transform="matrix(0.9176156520843506,0.3974688649177551,-0.3974688649177551,0.9176156520843506,87.4762191772461,3.011029005050659)" fill="#ffffff" fill-rule="evenodd"/><path d="M 0 0 L 22.53081512451172 2.552350192159517e-15 L 22.53081512451172 45.32312393188477 L 0 45.32312393188477 L 0 0 Z M 17.95160102844238 4.579215526580811 L 4.579214572906494 4.579215526580811 L 4.579214572906494 40.7439079284668 L 17.95160102844238 40.7439079284668 L 17.95160102844238 4.579215526580811 Z" transform="matrix(0.9176156520843506,0.3974688649177551,-0.3974688649177551,0.9176156520843506,86.2852783203125,-7.327471962526033e-15)" fill="#161615" fill-rule="evenodd"/><path d="M 85.03913116455078 128.7610015869141 L 73.60711669921875 132.0419921875 L 70.41310882568359 139.4580383300781 L 70.41310882568359 139.4580383300781 L 56.40300369262695 171.98876953125 L 75.86810302734375 171.98876953125 L 90.07969665527344 139.1775665283203 L 85.03913116455078 128.7610015869141 Z" transform="matrix(1,0,0,1,-6.39346170425415,-82.25310516357422)" fill="#ffffff" fill-rule="evenodd"/><path d="M 86.70045471191406 126.3740844726562 L 93.03777313232422 139.4703674316406 L 77.81159210205078 174.6240234375 L 53.36405944824219 174.6240234375 L 72.37322998046875 130.4860076904297 L 86.70045471191406 126.3740844726562 Z M 88.001708984375 139.5760192871094 L 84.25785827636719 131.8391723632812 L 75.72107696533203 134.2892456054688 L 60.32204818725586 170.0447998046875 L 74.8046875 170.0447998046875 L 88.001708984375 139.5760192871094 Z" transform="matrix(1,0,0,1,-6.833508014678955,-82.5987319946289)" fill="#161615" fill-rule="evenodd"/><path d="M 54.0698356628418 161.9882354736328 L 49.72567367553711 160.5399780273438 L 49.91274261474609 159.979248046875 C 51.31995391845703 155.7628326416016 52.77507400512695 151.4028778076172 53.22838973999023 147.5043029785156 C 53.70295715332031 143.4229278564453 53.04300308227539 140.3617401123047 51.1514892578125 137.8705596923828 C 47.83916473388672 133.5086364746094 41.59552001953125 132.6547088623047 37.23342132568359 135.9671783447266 C 35.64016342163086 137.1766357421875 34.61359786987305 138.9338836669922 34.34252166748047 140.9154357910156 C 34.07144165039062 142.8971099853516 34.58838653564453 144.8657989501953 35.79814529418945 146.4588623046875 C 36.69192504882812 147.63623046875 37.990478515625 148.394775390625 39.45479202270508 148.5950927734375 C 40.91902923583984 148.7953338623047 42.37352752685547 148.4135131835938 43.55033493041992 147.5198364257812 C 44.39497375488281 146.8785552978516 44.93916320800781 145.9471130371094 45.08282470703125 144.8970184326172 C 45.22647857666016 143.8470611572266 44.95255661010742 142.8040618896484 44.31152725219727 141.9601135253906 C 43.40531158447266 140.7667236328125 41.69784927368164 140.5327606201172 40.50511169433594 141.4383087158203 L 37.73609161376953 137.7911224365234 C 40.93971633911133 135.3588562011719 45.52535629272461 135.9866333007812 47.95827484130859 139.1905517578125 C 49.33913421630859 141.0085144042969 49.92927169799805 143.2556457519531 49.61977386474609 145.5177307128906 C 49.31029891967773 147.7797698974609 48.13827514648438 149.7859954833984 46.31959533691406 151.1668243408203 C 44.16880035400391 152.8001403808594 41.51035308837891 153.4980926513672 38.83419418334961 153.1320648193359 C 36.15780258178711 152.7659454345703 33.78434371948242 151.3794708251953 32.15105819702148 149.2279815673828 C 30.20174026489258 146.6610107421875 29.36869049072266 143.4883880615234 29.8055591583252 140.2947845458984 C 30.24243927001953 137.1011505126953 31.89696884155273 134.2689971923828 34.46435928344727 132.3200378417969 C 37.55120849609375 129.9759826660156 41.36652374267578 128.9742584228516 45.20723342895508 129.4994659423828 C 49.04795455932617 130.0247497558594 52.45418167114258 132.0141906738281 54.79846954345703 135.101318359375 C 57.41399383544922 138.5460205078125 58.38824081420898 142.7760620117188 57.77695465087891 148.0331726074219 C 57.26887130737305 152.4027709960938 55.73744583129883 156.9913940429688 54.25642395019531 161.4289398193359 L 54.0698356628418 161.9882354736328 Z" transform="matrix(1,0,0,1,-10.261306762695312,-82.16593170166016)" fill="#d9000d" fill-rule="evenodd"/><path d="M 10.52713680267334 2.579215288162231 L 1.671752897891565e-06 2.579215288162231 L 1.671752897891565e-06 -2 L 10.52713680267334 -2 L 10.52713680267334 2.579215288162231 Z" transform="matrix(1,0,0,1,74.0820083618164,78.80878448486328)" fill="#161615" fill-rule="evenodd"/><path d="M 2.290503978729248 2.579215288162231 L 3.509864654915873e-06 2.579215288162231 L 3.509864654915873e-06 -2 L 2.290503978729248 -2 L 2.290503978729248 2.579215288162231 Z" transform="matrix(1,0,0,1,86.42830657958984,78.80878448486328)" fill="#161615" fill-rule="evenodd"/><path d="M 2.290503978729248 2.579215288162231 L 3.509864654915873e-06 2.579215288162231 L 3.509864654915873e-06 -2 L 2.290503978729248 -2 L 2.290503978729248 2.579215288162231 Z" transform="matrix(1,0,0,1,89.15941619873047,69.12393951416016)" fill="#161615" fill-rule="evenodd"/><path d="M 9.33830451965332 2.579215288162231 L 1.782836989150383e-06 2.579215288162231 L 1.782836989150383e-06 -2 L 9.33830451965332 -2 L 9.33830451965332 2.579215288162231 Z" transform="matrix(1,0,0,1,78.27703094482422,69.12393951416016)" fill="#161615" fill-rule="evenodd"/></g></svg>