<svg xmlns="http://www.w3.org/2000/svg" xmlns:xlink="http://www.w3.org/1999/xlink" width="85.22599816322327" height="110.6982040405273" viewBox="51.49061608314514 14.391631126403809 85.22599816322327 110.6982040405273"><g transform="matrix(1,0,0,1,51.49061584472656,14.391631126403809)"><ellipse cx="39.906471252441406" cy="52.642578125" rx="39.906471252441406" ry="52.642578125" transform="matrix(1,0,0,1,2.706535816192627,2.7065210342407227)" fill="#ffffff" fill-rule="evenodd"/><path d="M 40.11299133300781 -2.5 C 45.96745681762695 -2.5 51.63733291625977 -0.9927303194999695 56.96512603759766 1.979915857315063 C 62.04587936401367 4.814759254455566 66.59561920166016 8.855583190917969 70.48796844482422 13.99015045166016 C 74.33824157714844 19.0692195892334 77.35709381103516 24.97110939025879 79.46070098876953 31.53186988830566 C 81.62738037109375 38.28937530517578 82.72599029541016 45.46151733398438 82.72599029541016 52.84910202026367 C 82.72599029541016 60.23667907714844 81.62738037109375 67.40882873535156 79.46070098876953 74.16632843017578 C 77.35709381103516 80.72708892822266 74.33824157714844 86.62898254394531 70.48796844482422 91.70804595947266 C 66.59561920166016 96.84262084960938 62.04587936401367 100.8834381103516 56.96512603759766 103.7182769775391 C 51.63733291625977 106.6909255981445 45.96745681762695 108.1982040405273 40.11299133300781 108.1982040405273 C 34.25851821899414 108.1982040405273 28.58864402770996 106.6909255981445 23.26085472106934 103.7182769775391 C 18.18009567260742 100.8834381103516 13.6303653717041 96.84262084960938 9.738011360168457 91.70804595947266 C 5.887744426727295 86.62898254394531 2.868885517120361 80.72708892822266 0.7652779817581177 74.16632843017578 C -1.401392102241516 67.40882873535156 -2.50000786781311 60.23667907714844 -2.50000786781311 52.84910202026367 C -2.50000786781311 45.46151733398438 -1.401392102241516 38.28937530517578 0.7652779817581177 31.53186988830566 C 2.868885517120361 24.97110939025879 5.887744426727295 19.0692195892334 9.738011360168457 13.99015045166016 C 13.6303653717041 8.855583190917969 18.18009567260742 4.814759254455566 23.26085472106934 1.979915857315063 C 28.58864402770996 -0.9927303194999695 34.25851821899414 -2.5 40.11299133300781 -2.5 Z M 40.11299133300781 102.7851638793945 C 49.90533447265625 102.7851638793945 59.1607551574707 97.68990325927734 66.17428588867188 88.43799591064453 C 73.35715484619141 78.96271514892578 77.31295013427734 66.32367706298828 77.31295013427734 52.84910202026367 C 77.31295013427734 39.3745231628418 73.35715484619141 26.7354850769043 66.17428588867188 17.26020050048828 C 59.1607551574707 8.008292198181152 49.90533447265625 2.913041114807129 40.11299133300781 2.913041114807129 C 30.32063674926758 2.913041114807129 21.06522560119629 8.008292198181152 14.05169773101807 17.26020050048828 C 6.868825435638428 26.7354850769043 2.913033485412598 39.3745231628418 2.913033485412598 52.84910202026367 C 2.913033485412598 66.32367706298828 6.868825435638428 78.96271514892578 14.05169773101807 88.43799591064453 C 21.06522560119629 97.68990325927734 30.32063674926758 102.7851638793945 40.11299133300781 102.7851638793945 Z" transform="matrix(1,0,0,1,2.5000081062316895,2.5)" fill="#161615" fill-rule="evenodd"/><ellipse cx="32.034088134765625" cy="42.25773239135742" rx="32.034088134765625" ry="42.25773239135742" transform="matrix(1,0,0,1,10.578916549682617,13.0913667678833)" fill="#ffffff" fill-rule="evenodd"/><path d="M 32.2406120300293 -2.5 C 37.03230667114258 -2.5 41.67121124267578 -1.267305731773376 46.02845764160156 1.163830041885376 C 50.17177581787109 3.475597381591797 53.87960433959961 6.76764440536499 57.04897689819336 10.94850254058838 C 60.17625045776367 15.07384872436523 62.62746810913086 19.86513137817383 64.33458709716797 25.18927001953125 C 66.09075164794922 30.66647529602051 66.98121643066406 36.47861862182617 66.98121643066406 42.46425247192383 C 66.98121643066406 48.44988632202148 66.09075164794922 54.26203536987305 64.33458709716797 59.73923492431641 C 62.62746810913086 65.06338500976562 60.17625045776367 69.85466003417969 57.04897689819336 73.98001098632812 C 53.87960433959961 78.16086578369141 50.17177581787109 81.45291137695312 46.02845764160156 83.76467895507812 C 41.67121124267578 86.19581604003906 37.03230667114258 87.42851257324219 32.2406120300293 87.42851257324219 C 27.44891166687012 87.42851257324219 22.81000900268555 86.19581604003906 18.45276260375977 83.76467895507812 C 14.30943870544434 81.45291137695312 10.60161399841309 78.16086578369141 7.432244300842285 73.98001098632812 C 4.304969787597656 69.85466003417969 1.853745937347412 65.06338500976562 0.1466340869665146 59.73923492431641 C -1.609535932540894 54.26203536987305 -2.5 48.44988632202148 -2.5 42.46425247192383 C -2.5 36.47861862182617 -1.609535932540894 30.66647529602051 0.1466340869665146 25.18927001953125 C 1.853745937347412 19.86513137817383 4.304969787597656 15.07384872436523 7.432244300842285 10.94850254058838 C 10.60161399841309 6.76764440536499 14.30943870544434 3.475597381591797 18.45276260375977 1.163830041885376 C 22.81000900268555 -1.267305731773376 27.44891166687012 -2.5 32.2406120300293 -2.5 Z M 32.2406120300293 82.01546478271484 C 39.93016052246094 82.01546478271484 47.20864486694336 78.00043487548828 52.73528289794922 70.70995330810547 C 58.43126678466797 63.19611358642578 61.56817626953125 53.16493225097656 61.56817626953125 42.46425247192383 C 61.56817626953125 31.76357460021973 58.43126678466797 21.73239517211914 52.73528289794922 14.21855449676514 C 47.20864486694336 6.928071975708008 39.93016052246094 2.913041114807129 32.2406120300293 2.913041114807129 C 24.55105972290039 2.913041114807129 17.27257347106934 6.928071975708008 11.74593448638916 14.21855449676514 C 6.049951553344727 21.73239517211914 2.913041114807129 31.76357460021973 2.913041114807129 42.46425247192383 C 2.913041114807129 53.16493225097656 6.049951553344727 63.19611358642578 11.74593448638916 70.70995330810547 C 17.27257347106934 78.00043487548828 24.55105972290039 82.01546478271484 32.2406120300293 82.01546478271484 Z" transform="matrix(1,0,0,1,10.37238883972168,12.884845733642578)" fill="#161615" fill-rule="evenodd"/><g transform="matrix(1,0,0,1,29.21055030822754,25.345176696777344)"><g transform="matrix(1,0,0,1,4.516482353210449,-1.2378711015346164e-15)"><path d="M 1.273535013198853 11.39943408966064 L -1.092960000038147 11.39943408966064 L -1.092960000038147 3.409576038393425e-06 L 1.273535013198853 3.409576038393425e-06 L 1.273535013198853 11.39943408966064 Z" transform="matrix(1,0,0,1,1.092960000038147,-0.000003409576038393425)" fill="#cd0d0f" fill-rule="evenodd"/></g><g transform="matrix(1,0,0,1,-1.4931567733208139e-15,4.516474723815918)"><path d="M 11.39943408966064 1.273535013198853 L 3.409576038393425e-06 1.273535013198853 L 3.409576038393425e-06 -1.092960000038147 L 11.39943408966064 -1.092960000038147 L 11.39943408966064 1.273535013198853 Z" transform="matrix(1,0,0,1,-0.000003409576038393425,1.092960000038147)" fill="#cd0d0f" fill-rule="evenodd"/></g><g transform="matrix(1,0,0,1,0.8327345848083496,0.8327262997627258)"><path d="M 0.9005241394042969 8.961148262023926 L -0.77284175157547 7.287783145904541 L 7.287783145904541 -0.77284175157547 L 8.961148262023926 0.9005241394042969 L 0.9005241394042969 8.961148262023926 Z" transform="matrix(1,0,0,1,0.77284175157547,0.77284175157547)" fill="#cd0d0f" fill-rule="evenodd"/></g><g transform="matrix(1,0,0,1,0.8327345848083496,0.8327262997627258)"><path d="M 7.287783145904541 8.961148262023926 L -0.77284175157547 0.9005241394042969 L 0.9005241394042969 -0.77284175157547 L 8.961148262023926 7.287783145904541 L 7.287783145904541 8.961148262023926 Z" transform="matrix(1,0,0,1,0.77284175157547,0.77284175157547)" fill="#cd0d0f" fill-rule="evenodd"/></g></g><g transform="matrix(1,0,0,1,20.705366134643555,53.37348175048828)"><g transform="matrix(1,0,0,1,3.243361711502075,1.3397467187162065e-15)"><path d="M 0.9145550727844238 8.18616771697998 L -0.7848799228668213 8.18616771697998 L -0.7848799228668213 4.102934781258227e-06 L 0.9145550727844238 4.102934781258227e-06 L 0.9145550727844238 8.18616771697998 Z" transform="matrix(1,0,0,1,0.7848799228668213,-0.000004102934781258227)" fill="#cd0d0f" fill-rule="evenodd"/></g><g transform="matrix(1,0,0,1,1.3397458716832593e-15,3.243361711502075)"><path d="M 8.18616771697998 0.9145550727844238 L 4.102934781258227e-06 0.9145550727844238 L 4.102934781258227e-06 -0.7848799228668213 L 8.18616771697998 -0.7848799228668213 L 8.18616771697998 0.9145550727844238 Z" transform="matrix(1,0,0,1,-0.000004102934781258227,0.7848799228668213)" fill="#cd0d0f" fill-rule="evenodd"/></g><g transform="matrix(1,0,0,1,0.5979902744293213,0.5979902744293213)"><path d="M 0.6466882228851318 6.435188293457031 L -0.5549959540367126 5.233504295349121 L 5.233504295349121 -0.5549959540367126 L 6.435188293457031 0.6466882228851318 L 0.6466882228851318 6.435188293457031 Z" transform="matrix(1,0,0,1,0.5549959540367126,0.5549959540367126)" fill="#cd0d0f" fill-rule="evenodd"/></g><g transform="matrix(1,0,0,1,0.5979902744293213,0.5979902744293213)"><path d="M 5.233504295349121 6.435188293457031 L -0.5549959540367126 0.6466882228851318 L 0.6466882228851318 -0.5549959540367126 L 6.435188293457031 5.233504295349121 L 5.233504295349121 6.435188293457031 Z" transform="matrix(1,0,0,1,0.5549959540367126,0.5549959540367126)" fill="#cd0d0f" fill-rule="evenodd"/></g></g><g transform="matrix(1,0,0,1,43.56789016723633,71.32950592041016)"><g transform="matrix(1,0,0,1,5.934067726135254,6.682948922850712e-15)"><path d="M 1.673250913619995 14.97736167907715 L -1.435999870300293 14.97736167907715 L -1.435999870300293 -2.691040208446793e-06 L 1.673250913619995 -2.691040208446793e-06 L 1.673250913619995 14.97736167907715 Z" transform="matrix(1,0,0,1,1.435999870300293,0.0000026910402084467933)" fill="#cd0d0f" fill-rule="evenodd"/></g><g transform="matrix(1,0,0,1,-4.224781965222736e-16,5.934051036834717)"><path d="M 14.97736167907715 1.673250913619995 L -2.691040208446793e-06 1.673250913619995 L -2.691040208446793e-06 -1.435999870300293 L 14.97736167907715 -1.435999870300293 L 14.97736167907715 1.673250913619995 Z" transform="matrix(1,0,0,1,0.0000026910402084467933,1.435999870300293)" fill="#cd0d0f" fill-rule="evenodd"/></g><g transform="matrix(1,0,0,1,1.0940932035446167,1.0940932035446167)"><path d="M 1.183172106742859 11.77376461029053 L -1.015410184860229 9.575182914733887 L 9.575182914733887 -1.015410184860229 L 11.77376461029053 1.183172106742859 L 1.183172106742859 11.77376461029053 Z" transform="matrix(1,0,0,1,1.0154101848602295,1.0154101848602295)" fill="#cd0d0f" fill-rule="evenodd"/></g><g transform="matrix(1,0,0,1,1.0940932035446167,1.0940932035446167)"><path d="M 9.575182914733887 11.77376461029053 L -1.015410184860229 1.183172106742859 L 1.183172106742859 -1.015410184860229 L 11.77376461029053 9.575182914733887 L 9.575182914733887 11.77376461029053 Z" transform="matrix(1,0,0,1,1.0154101848602295,1.0154101848602295)" fill="#cd0d0f" fill-rule="evenodd"/></g></g><g transform="matrix(1,0,0,1,25.38573455810547,55.71922302246094)"><path d="M 161.7369232177734 159.4295959472656 L 161.5995483398438 155.1013793945312 C 162.5641784667969 155.0707397460938 163.4474639892578 154.6617126464844 164.0867462158203 153.9496307373047 C 164.6524963378906 153.3194732666016 164.9440155029297 152.5249481201172 164.8865509033203 151.7698364257812 C 164.778564453125 150.3429412841797 163.4579315185547 149.1038513183594 161.8799896240234 148.9481658935547 L 162.3052215576172 144.6386413574219 C 164.0889892578125 144.814697265625 165.7678527832031 145.5985870361328 167.0326080322266 146.8459930419922 C 168.3038024902344 148.0997467041016 169.0751495361328 149.7320251464844 169.20458984375 151.4421997070312 C 169.3511505126953 153.3688507080078 168.6603088378906 155.3374633789062 167.3091430664062 156.8425445556641 C 165.8936767578125 158.419189453125 163.8626708984375 159.3621673583984 161.7369232177734 159.4295959472656 Z" transform="matrix(1,0,0,1,-154.83914184570312,-144.63864135742188)" fill="#161615" fill-rule="evenodd"/><path d="M 162.8418121337891 169.1026153564453 C 160.7172241210938 169.0351715087891 158.68701171875 168.0926513671875 157.2716827392578 166.5167694091797 C 155.9198760986328 165.0116271972656 155.228271484375 163.0424652099609 155.3741760253906 161.1141662597656 C 155.5044403076172 159.4037017822266 156.2760925292969 157.7720947265625 157.5470886230469 156.5187377929688 C 158.8118286132812 155.271484375 160.4903564453125 154.4876861572266 162.2734375 154.3116760253906 L 162.6988372802734 158.6211700439453 C 161.1214752197266 158.77685546875 159.80078125 160.0159149169922 159.6921539306641 161.4419555664062 C 159.6350402832031 162.1971130371094 159.9270782470703 162.9925689697266 160.4934844970703 163.6232299804688 C 161.1326904296875 164.3349609375 162.0154571533203 164.7437744140625 162.9792175292969 164.7743682861328 L 162.8418121337891 169.1026153564453 Z" transform="matrix(1,0,0,1,-155.35499572753906,-143.83958435058594)" fill="#161615" fill-rule="evenodd"/></g><g transform="matrix(1,0,0,1,45.92105484008789,30.498754501342773)"><path d="M 184.2595977783203 140.8894958496094 C 182.8044586181641 140.8432159423828 181.4060821533203 140.5042419433594 180.1033172607422 139.8819732666016 C 178.8650360107422 139.2904968261719 177.7726593017578 138.4732360839844 176.8565521240234 137.4528350830078 C 175.0700988769531 135.4629821777344 174.156005859375 132.866943359375 174.3486938476562 130.3303375244141 C 174.5195465087891 128.0809478759766 175.5385437011719 125.9299774169922 177.2180023193359 124.2736511230469 C 178.8977813720703 122.6170196533203 181.1280822753906 121.5761032104492 183.4980163574219 121.3426361083984 L 183.9225616455078 125.6521911621094 C 181.1220397949219 125.9280853271484 178.8625183105469 128.0802459716797 178.6666870117188 130.6583251953125 C 178.5630493164062 132.0227203369141 179.0777893066406 133.4447784423828 180.0788726806641 134.5598602294922 C 181.1898040771484 135.7972564697266 182.7234191894531 136.5080108642578 184.3972778320312 136.561279296875 L 184.2595977783203 140.8894958496094 Z" transform="matrix(1,0,0,1,-174.32337951660156,-121.34263610839844)" fill="#161615" fill-rule="evenodd"/><path d="M 182.6620788574219 154.9566040039062 L 182.5244140625 150.6283569335938 C 184.1981506347656 150.5750885009766 185.7316741943359 149.8643951416016 186.842529296875 148.6271362304688 C 187.8438262939453 147.5118103027344 188.3586578369141 146.0892944335938 188.2550048828125 144.7242431640625 C 188.0592498779297 142.1470031738281 185.7994537353516 139.9948272705078 182.9985504150391 139.7181396484375 L 183.4242706298828 135.40869140625 C 185.7940673828125 135.6427917480469 188.0241241455078 136.6838226318359 189.70361328125 138.3399810791016 C 191.3831176757812 139.9961853027344 192.4021606445312 142.1470031738281 192.572998046875 144.3963317871094 C 192.7656707763672 146.9336090087891 191.8514862060547 149.5300903320312 190.0648193359375 151.5201110839844 C 189.1487426757812 152.5404815673828 188.0563659667969 153.3577117919922 186.8181457519531 153.9491271972656 C 185.5154724121094 154.5713500976562 184.1171569824219 154.9103088378906 182.6620788574219 154.9566040039062 Z" transform="matrix(1,0,0,1,-173.64590454101562,-120.18067169189453)" fill="#161615" fill-rule="evenodd"/></g></g></svg>