<svg xmlns="http://www.w3.org/2000/svg" xmlns:xlink="http://www.w3.org/1999/xlink" width="113.34673643112183" height="97.20648258870506" viewBox="51.571903228759766 19.730134963989258 113.34673643112183 97.20648258870506"><g transform="matrix(1,0,0,1,51.571903228759766,19.730134963989258)"><path d="M 12.23739910125732 1.886589884757996 L -3.099059767919243e-06 1.886589884757996 L -3.099059767919243e-06 -1.50466001033783 L 12.23739910125732 -1.50466001033783 L 12.23739910125732 1.886589884757996 Z" transform="matrix(1,0,0,1,2.8172879219055176,84.77810668945312)" fill="#161615" fill-rule="evenodd"/><path d="M 11.31382465362549 1.886589884757996 L -3.601379603423993e-06 1.886589884757996 L -3.601379603423993e-06 -1.50466001033783 L 11.31382465362549 -1.50466001033783 L 11.31382465362549 1.886589884757996 Z" transform="matrix(1,0,0,1,15.054681777954102,73.69519805908203)" fill="#d9000d" fill-rule="evenodd"/><path d="M 11.77561187744141 1.886589884757996 L -3.350219685671618e-06 1.886589884757996 L -3.350219685671618e-06 -1.50466001033783 L 11.77561187744141 -1.50466001033783 L 11.77561187744141 1.886589884757996 Z" transform="matrix(1,0,0,1,4.18793249130249,63.30493927001953)" fill="#161615" fill-rule="evenodd"/><path d="M 12.81463050842285 1.886589884757996 L -4.669189124228978e-08 1.886589884757996 L -4.669189124228978e-08 -1.50466001033783 L 12.81463050842285 -1.50466001033783 L 12.81463050842285 1.886589884757996 Z" transform="matrix(1,0,0,1,20.71159553527832,55.22365951538086)" fill="#161615" fill-rule="evenodd"/><path d="M 15.46991634368896 1.886589884757996 L 8.956909169910432e-08 1.886589884757996 L 8.956909169910432e-08 -1.50466001033783 L 15.46991634368896 -1.50466001033783 L 15.46991634368896 1.886589884757996 Z" transform="matrix(1,0,0,1,18.056303024291992,89.85779571533203)" fill="#161615" fill-rule="evenodd"/><path d="M 15.2390251159668 1.886589884757996 L 4.963989795214729e-06 1.886589884757996 L 4.963989795214729e-06 -1.50466001033783 L 15.2390251159668 -1.50466001033783 L 15.2390251159668 1.886589884757996 Z" transform="matrix(1,0,0,1,2.8172874450683594,44.14072036743164)" fill="#d9000d" fill-rule="evenodd"/><path d="M 5.541468143463135 1.886589884757996 L -4.601898126566084e-06 1.886589884757996 L -4.601898126566084e-06 -1.50466001033783 L 5.541468143463135 -1.50466001033783 L 5.541468143463135 1.886589884757996 Z" transform="matrix(1,0,0,1,27.984769821166992,66.07569122314453)" fill="#161615" fill-rule="evenodd"/><path d="M 12.23739910125732 1.886589884757996 L -3.099059767919243e-06 1.886589884757996 L -3.099059767919243e-06 -1.50466001033783 L 12.23739910125732 -1.50466001033783 L 12.23739910125732 1.886589884757996 Z" transform="matrix(1,0,0,1,2.701843500137329,21.28218650817871)" fill="#d9000d" fill-rule="evenodd"/><path d="M 11.31382465362549 1.886589884757996 L -3.601379603423993e-06 1.886589884757996 L -3.601379603423993e-06 -1.50466001033783 L 11.31382465362549 -1.50466001033783 L 11.31382465362549 1.886589884757996 Z" transform="matrix(1,0,0,1,14.939236640930176,10.199265480041504)" fill="#161615" fill-rule="evenodd"/><path d="M 5.079328060150146 1.886589884757996 L 3.751144276975538e-06 1.886589884757996 L 3.751144276975538e-06 -1.50466001033783 L 5.079328060150146 -1.50466001033783 L 5.079328060150146 1.886589884757996 Z" transform="matrix(1,0,0,1,4.318106174468994,6.96675443649292)" fill="#161615" fill-rule="evenodd"/><path d="M 5.079328060150146 1.886589884757996 L 3.751144276975538e-06 1.886589884757996 L 3.751144276975538e-06 -1.50466001033783 L 5.079328060150146 -1.50466001033783 L 5.079328060150146 1.886589884757996 Z" transform="matrix(1,0,0,1,4.318106174468994,94.70657348632812)" fill="#161615" fill-rule="evenodd"/><path d="M 5.541468143463135 1.886589884757996 L -4.601898126566084e-06 1.886589884757996 L -4.601898126566084e-06 -1.50466001033783 L 5.541468143463135 -1.50466001033783 L 5.541468143463135 1.886589884757996 Z" transform="matrix(1,0,0,1,27.869325637817383,2.5797572135925293)" fill="#161615" fill-rule="evenodd"/><path d="M 6.003255844116211 1.886589884757996 L -4.112319857085822e-06 1.886589884757996 L -4.112319857085822e-06 -1.50466001033783 L 6.003255844116211 -1.50466001033783 L 6.003255844116211 1.886589884757996 Z" transform="matrix(1,0,0,1,24.752243041992188,46.44966506958008)" fill="#161615" fill-rule="evenodd"/><path d="M 15.93170356750488 1.886589884757996 L 8.175658763320826e-07 1.886589884757996 L 8.175658763320826e-07 -1.50466001033783 L 15.93170356750488 -1.50466001033783 L 15.93170356750488 1.886589884757996 Z" transform="matrix(1,0,0,1,10.436796188354492,35.1358528137207)" fill="#161615" fill-rule="evenodd"/><path d="M 12.81463050842285 1.886589884757996 L -4.669189124228978e-08 1.886589884757996 L -4.669189124228978e-08 -1.50466001033783 L 12.81463050842285 -1.50466001033783 L 12.81463050842285 1.886589884757996 Z" transform="matrix(1,0,0,1,20.71159553527832,24.514713287353516)" fill="#161615" fill-rule="evenodd"/><path d="M 12.23739910125732 1.886589884757996 L -3.099059767919243e-06 1.886589884757996 L -3.099059767919243e-06 -1.50466001033783 L 12.23739910125732 -1.50466001033783 L 12.23739910125732 1.886589884757996 Z" transform="matrix(1,0,0,1,59.73271942138672,84.77810668945312)" fill="#161615" fill-rule="evenodd"/><path d="M 11.31382465362549 1.886589884757996 L -3.601379603423993e-06 1.886589884757996 L -3.601379603423993e-06 -1.50466001033783 L 11.31382465362549 -1.50466001033783 L 11.31382465362549 1.886589884757996 Z" transform="matrix(1,0,0,1,48.418922424316406,73.69519805908203)" fill="#161615" fill-rule="evenodd"/><path d="M 11.77561187744141 1.886589884757996 L -3.350219685671618e-06 1.886589884757996 L -3.350219685671618e-06 -1.50466001033783 L 11.77561187744141 -1.50466001033783 L 11.77561187744141 1.886589884757996 Z" transform="matrix(1,0,0,1,58.82387924194336,63.30493927001953)" fill="#161615" fill-rule="evenodd"/><path d="M 12.81463050842285 1.886589884757996 L -4.669189124228978e-08 1.886589884757996 L -4.669189124228978e-08 -1.50466001033783 L 12.81463050842285 -1.50466001033783 L 12.81463050842285 1.886589884757996 Z" transform="matrix(1,0,0,1,41.26117706298828,55.22365951538086)" fill="#161615" fill-rule="evenodd"/><path d="M 15.46991634368896 1.886589884757996 L 8.956909169910432e-08 1.886589884757996 L 8.956909169910432e-08 -1.50466001033783 L 15.46991634368896 -1.50466001033783 L 15.46991634368896 1.886589884757996 Z" transform="matrix(1,0,0,1,41.26117706298828,89.85779571533203)" fill="#d9000d" fill-rule="evenodd"/><path d="M 15.2390251159668 1.886589884757996 L 4.963989795214729e-06 1.886589884757996 L 4.963989795214729e-06 -1.50466001033783 L 15.2390251159668 -1.50466001033783 L 15.2390251159668 1.886589884757996 Z" transform="matrix(1,0,0,1,56.731109619140625,44.14072036743164)" fill="#d9000d" fill-rule="evenodd"/><path d="M 5.541468143463135 1.886589884757996 L -4.601898126566084e-06 1.886589884757996 L -4.601898126566084e-06 -1.50466001033783 L 5.541468143463135 -1.50466001033783 L 5.541468143463135 1.886589884757996 Z" transform="matrix(1,0,0,1,41.26117706298828,66.07569122314453)" fill="#161615" fill-rule="evenodd"/><path d="M 12.23739910125732 1.886589884757996 L -3.099059767919243e-06 1.886589884757996 L -3.099059767919243e-06 -1.50466001033783 L 12.23739910125732 -1.50466001033783 L 12.23739910125732 1.886589884757996 Z" transform="matrix(1,0,0,1,59.84817886352539,21.28218650817871)" fill="#161615" fill-rule="evenodd"/><path d="M 11.31382465362549 1.886589884757996 L -3.601379603423993e-06 1.886589884757996 L -3.601379603423993e-06 -1.50466001033783 L 11.31382465362549 -1.50466001033783 L 11.31382465362549 1.886589884757996 Z" transform="matrix(1,0,0,1,48.53435134887695,10.199265480041504)" fill="#161615" fill-rule="evenodd"/><path d="M 5.079328060150146 1.886589884757996 L 3.751144276975538e-06 1.886589884757996 L 3.751144276975538e-06 -1.50466001033783 L 5.079328060150146 -1.50466001033783 L 5.079328060150146 1.886589884757996 Z" transform="matrix(1,0,0,1,65.38996887207031,6.96675443649292)" fill="#161615" fill-rule="evenodd"/><path d="M 5.079328060150146 1.886589884757996 L 3.751144276975538e-06 1.886589884757996 L 3.751144276975538e-06 -1.50466001033783 L 5.079328060150146 -1.50466001033783 L 5.079328060150146 1.886589884757996 Z" transform="matrix(1,0,0,1,65.38996887207031,94.70657348632812)" fill="#161615" fill-rule="evenodd"/><path d="M 5.541468143463135 1.886589884757996 L -4.601898126566084e-06 1.886589884757996 L -4.601898126566084e-06 -1.50466001033783 L 5.541468143463135 -1.50466001033783 L 5.541468143463135 1.886589884757996 Z" transform="matrix(1,0,0,1,41.37663650512695,2.5797572135925293)" fill="#161615" fill-rule="evenodd"/><path d="M 6.003255844116211 1.886589884757996 L -4.112319857085822e-06 1.886589884757996 L -4.112319857085822e-06 -1.50466001033783 L 6.003255844116211 -1.50466001033783 L 6.003255844116211 1.886589884757996 Z" transform="matrix(1,0,0,1,44.03189468383789,46.44966506958008)" fill="#161615" fill-rule="evenodd"/><path d="M 15.93170356750488 1.886589884757996 L 8.175658763320826e-07 1.886589884757996 L 8.175658763320826e-07 -1.50466001033783 L 15.93170356750488 -1.50466001033783 L 15.93170356750488 1.886589884757996 Z" transform="matrix(1,0,0,1,48.418922424316406,35.1358528137207)" fill="#161615" fill-rule="evenodd"/><path d="M 12.81463050842285 1.886589884757996 L -4.669189124228978e-08 1.886589884757996 L -4.669189124228978e-08 -1.50466001033783 L 12.81463050842285 -1.50466001033783 L 12.81463050842285 1.886589884757996 Z" transform="matrix(1,0,0,1,41.26117706298828,24.514713287353516)" fill="#d9000d" fill-rule="evenodd"/><path d="M 12.23739910125732 1.886589884757996 L -3.099059767919243e-06 1.886589884757996 L -3.099059767919243e-06 -1.50466001033783 L 12.23739910125732 -1.50466001033783 L 12.23739910125732 1.886589884757996 Z" transform="matrix(1,0,0,1,98.29204559326172,12.04642391204834)" fill="#d9000d" fill-rule="evenodd"/><path d="M 11.31382465362549 1.886589884757996 L -3.601379603423993e-06 1.886589884757996 L -3.601379603423993e-06 -1.50466001033783 L 11.31382465362549 -1.50466001033783 L 11.31382465362549 1.886589884757996 Z" transform="matrix(1,0,0,1,86.97825622558594,23.12935447692871)" fill="#d9000d" fill-rule="evenodd"/><path d="M 11.77561187744141 1.886589884757996 L -3.350219685671618e-06 1.886589884757996 L -3.350219685671618e-06 -1.50466001033783 L 11.77561187744141 -1.50466001033783 L 11.77561187744141 1.886589884757996 Z" transform="matrix(1,0,0,1,97.38320922851562,33.519588470458984)" fill="#161615" fill-rule="evenodd"/><path d="M 12.81463050842285 1.886589884757996 L -4.669189124228978e-08 1.886589884757996 L -4.669189124228978e-08 -1.50466001033783 L 12.81463050842285 -1.50466001033783 L 12.81463050842285 1.886589884757996 Z" transform="matrix(1,0,0,1,79.82051086425781,41.600887298583984)" fill="#161615" fill-rule="evenodd"/><path d="M 15.46991634368896 1.886589884757996 L 8.956909169910432e-08 1.886589884757996 L 8.956909169910432e-08 -1.50466001033783 L 15.46991634368896 -1.50466001033783 L 15.46991634368896 1.886589884757996 Z" transform="matrix(1,0,0,1,79.82051086425781,6.96675443649292)" fill="#161615" fill-rule="evenodd"/><path d="M 15.2390251159668 1.886589884757996 L 4.963989795214729e-06 1.886589884757996 L 4.963989795214729e-06 -1.50466001033783 L 15.2390251159668 -1.50466001033783 L 15.2390251159668 1.886589884757996 Z" transform="matrix(1,0,0,1,95.29044342041016,52.68381118774414)" fill="#161615" fill-rule="evenodd"/><path d="M 5.541468143463135 1.886589884757996 L -4.601898126566084e-06 1.886589884757996 L -4.601898126566084e-06 -1.50466001033783 L 5.541468143463135 -1.50466001033783 L 5.541468143463135 1.886589884757996 Z" transform="matrix(1,0,0,1,79.82051086425781,30.748855590820312)" fill="#161615" fill-rule="evenodd"/><path d="M 12.23739910125732 1.886589884757996 L -3.099059767919243e-06 1.886589884757996 L -3.099059767919243e-06 -1.50466001033783 L 12.23739910125732 -1.50466001033783 L 12.23739910125732 1.886589884757996 Z" transform="matrix(1,0,0,1,98.40750885009766,75.5423355102539)" fill="#161615" fill-rule="evenodd"/><path d="M 11.31382465362549 1.886589884757996 L -3.601379603423993e-06 1.886589884757996 L -3.601379603423993e-06 -1.50466001033783 L 11.31382465362549 -1.50466001033783 L 11.31382465362549 1.886589884757996 Z" transform="matrix(1,0,0,1,87.09371185302734,86.62527465820312)" fill="#d9000d" fill-rule="evenodd"/><path d="M 5.079328060150146 1.886589884757996 L 3.751144276975538e-06 1.886589884757996 L 3.751144276975538e-06 -1.50466001033783 L 5.079328060150146 -1.50466001033783 L 5.079328060150146 1.886589884757996 Z" transform="matrix(1,0,0,1,103.94933319091797,89.85779571533203)" fill="#161615" fill-rule="evenodd"/><path d="M 5.079328060150146 1.886589884757996 L 3.751144276975538e-06 1.886589884757996 L 3.751144276975538e-06 -1.50466001033783 L 5.079328060150146 -1.50466001033783 L 5.079328060150146 1.886589884757996 Z" transform="matrix(1,0,0,1,103.94933319091797,2.1179733276367188)" fill="#161615" fill-rule="evenodd"/><path d="M 5.541468143463135 1.886589884757996 L -4.601898126566084e-06 1.886589884757996 L -4.601898126566084e-06 -1.50466001033783 L 5.541468143463135 -1.50466001033783 L 5.541468143463135 1.886589884757996 Z" transform="matrix(1,0,0,1,79.93596649169922,94.24478149414062)" fill="#161615" fill-rule="evenodd"/><path d="M 6.003255844116211 1.886589884757996 L -4.112319857085822e-06 1.886589884757996 L -4.112319857085822e-06 -1.50466001033783 L 6.003255844116211 -1.50466001033783 L 6.003255844116211 1.886589884757996 Z" transform="matrix(1,0,0,1,82.59125518798828,50.3748664855957)" fill="#161615" fill-rule="evenodd"/><path d="M 15.93170356750488 1.886589884757996 L 8.175658763320826e-07 1.886589884757996 L 8.175658763320826e-07 -1.50466001033783 L 15.93170356750488 -1.50466001033783 L 15.93170356750488 1.886589884757996 Z" transform="matrix(1,0,0,1,86.97825622558594,61.68867874145508)" fill="#d9000d" fill-rule="evenodd"/><path d="M 12.81463050842285 1.886589884757996 L -4.669189124228978e-08 1.886589884757996 L -4.669189124228978e-08 -1.50466001033783 L 12.81463050842285 -1.50466001033783 L 12.81463050842285 1.886589884757996 Z" transform="matrix(1,0,0,1,79.82051086425781,72.3098373413086)" fill="#161615" fill-rule="evenodd"/><path d="M 3.134578227996826 97.20648956298828 L -2.499999761581421 97.20648956298828 L -2.499999761581421 6.974283223826205e-06 L 3.134578227996826 6.974283223826205e-06 L 3.134578227996826 97.20648956298828 Z" transform="matrix(1,0,0,1,2.499999761581421,-0.000006974283223826205)" fill="#161615" fill-rule="evenodd"/><path d="M 3.134578227996826 97.20648956298828 L -2.499999761581421 97.20648956298828 L -2.499999761581421 6.974283223826205e-06 L 3.134578227996826 6.974283223826205e-06 L 3.134578227996826 97.20648956298828 Z" transform="matrix(1,0,0,1,33.208919525146484,-0.000006974283223826205)" fill="#161615" fill-rule="evenodd"/><path d="M 3.134578227996826 97.20648956298828 L -2.499999761581421 97.20648956298828 L -2.499999761581421 6.974283223826205e-06 L 3.134578227996826 6.974283223826205e-06 L 3.134578227996826 97.20648956298828 Z" transform="matrix(1,0,0,1,71.65282440185547,-0.000006974283223826205)" fill="#161615" fill-rule="evenodd"/><path d="M 3.134578227996826 97.20648956298828 L -2.499999761581421 97.20648956298828 L -2.499999761581421 6.974283223826205e-06 L 3.134578227996826 6.974283223826205e-06 L 3.134578227996826 97.20648956298828 Z" transform="matrix(1,0,0,1,40.94390106201172,-0.000006974283223826205)" fill="#161615" fill-rule="evenodd"/><path d="M 3.134578227996826 97.20648956298828 L -2.499999761581421 97.20648956298828 L -2.499999761581421 6.974283223826205e-06 L 3.134578227996826 6.974283223826205e-06 L 3.134578227996826 97.20648956298828 Z" transform="matrix(1,0,0,1,110.212158203125,-0.000006974283223826205)" fill="#161615" fill-rule="evenodd"/><path d="M 3.134578227996826 97.20648956298828 L -2.499999761581421 97.20648956298828 L -2.499999761581421 6.974283223826205e-06 L 3.134578227996826 6.974283223826205e-06 L 3.134578227996826 97.20648956298828 Z" transform="matrix(1,0,0,1,79.50323486328125,-0.000006974283223826205)" fill="#161615" fill-rule="evenodd"/></g></svg>