<svg xmlns="http://www.w3.org/2000/svg" xmlns:xlink="http://www.w3.org/1999/xlink" width="92.42547631263733" height="83.97923803329473" viewBox="356.78521728515625 105.0933670997619 92.42547631263733 83.97923803329473"><defs><clipPath id="clip-29df927f"><path d="M0 0L87.23100280761719 0A0 0 0 0 1 87.23100280761719 0L87.23100280761719 31.27206039428711A26.16525650024414 26.16525650024414 0 0 1 61.06574630737305 57.43731689453125L26.16525650024414 57.43731689453125A26.16525650024414 26.16525650024414 0 0 1 0 31.27206039428711L0 0A0 0 0 0 1 0 0z" fill="#ffffff" fill-rule="evenodd"/></clipPath><clipPath id="clip-3cddd94c"><path d="M0 0L87.23100280761719 0A0 0 0 0 1 87.23100280761719 0L87.23100280761719 31.27206039428711A26.16525650024414 26.16525650024414 0 0 1 61.06574630737305 57.43731689453125L26.16525650024414 57.43731689453125A26.16525650024414 26.16525650024414 0 0 1 0 31.27206039428711L0 0A0 0 0 0 1 0 0z"/></clipPath><clipPath id="clip-29df927f"><path d="M0 0L87.23100280761719 0A0 0 0 0 1 87.23100280761719 0L87.23100280761719 31.27206039428711A26.16525650024414 26.16525650024414 0 0 1 61.06574630737305 57.43731689453125L26.16525650024414 57.43731689453125A26.16525650024414 26.16525650024414 0 0 1 0 31.27206039428711L0 0A0 0 0 0 1 0 0z" fill="#ffffff" fill-rule="evenodd"/></clipPath><clipPath id="clip-3cddd94c"><path d="M0 0L87.23100280761719 0A0 0 0 0 1 87.23100280761719 0L87.23100280761719 31.27206039428711A26.16525650024414 26.16525650024414 0 0 1 61.06574630737305 57.43731689453125L26.16525650024414 57.43731689453125A26.16525650024414 26.16525650024414 0 0 1 0 31.27206039428711L0 0A0 0 0 0 1 0 0z"/></clipPath></defs><g><g transform="matrix(1,0,0,1,356.78521728515625,126.44082641601562)"><g transform="matrix(1,0,0,1,2.597240447998047,2.5972282886505127)"><path d="M0 0L87.23100280761719 0A0 0 0 0 1 87.23100280761719 0L87.23100280761719 31.27206039428711A26.16525650024414 26.16525650024414 0 0 1 61.06574630737305 57.43731689453125L26.16525650024414 57.43731689453125A26.16525650024414 26.16525650024414 0 0 1 0 31.27206039428711L0 0A0 0 0 0 1 0 0z" fill="#ffffff" fill-rule="evenodd"/><g clip-path="url(#clip-29df927f)"><g transform="matrix(1,0,0,1,-359.3824462890625,-129.0380401611328)"><g><rect x="0" y="0" width="47.66716766357422" height="47.66716766357422" transform="matrix(1,0,0,1,355.3307800292969,108.2326889038086)" fill="#ffffff" fill-rule="evenodd"/><path d="M -2.500000238418579 -2.500000238418579 L 50.36163330078125 -2.500000238418579 L 50.36163330078125 50.36163330078125 L -2.500000238418579 50.36163330078125 L -2.500000238418579 -2.500000238418579 Z M 45.16717147827148 2.694464683532715 L 2.694464683532715 2.694464683532715 L 2.694464683532715 45.16717147827148 L 45.16717147827148 45.16717147827148 L 45.16717147827148 2.694464683532715 Z" transform="matrix(1,0,0,1,355.2335205078125,108.13545989990234)" fill="#161615" fill-rule="evenodd"/><path d="M 2.694464683532715 47.66716766357422 L -2.500000238418579 47.66716766357422 L -2.500000238418579 -1.363058686365548e-06 L 2.694464683532715 -1.363058686365548e-06 L 2.694464683532715 47.66716766357422 Z" transform="matrix(1,0,0,1,371.1163330078125,108.2326889038086)" fill="#161615" fill-rule="evenodd"/><path d="M 2.694464683532715 47.66716766357422 L -2.500000238418579 47.66716766357422 L -2.500000238418579 -1.363058686365548e-06 L 2.694464683532715 -1.363058686365548e-06 L 2.694464683532715 47.66716766357422 Z" transform="matrix(1,0,0,1,386.9803771972656,108.2326889038086)" fill="#161615" fill-rule="evenodd"/><path d="M 342.0280151367188 119.7669982910156" transform="matrix(1,0,0,1,13.302474021911621,4.658090114593506)" fill="#ffffff" fill-rule="evenodd"/><rect x="0" y="0" width="0" height="0" fill="#161615" fill-rule="evenodd"/><path d="M 47.66716766357422 2.694464683532715 L -1.363058686365548e-06 2.694464683532715 L -1.363058686365548e-06 -2.500000238418579 L 47.66716766357422 -2.500000238418579 L 47.66716766357422 2.694464683532715 Z" transform="matrix(1,0,0,1,355.3307800292969,140.1923065185547)" fill="#161615" fill-rule="evenodd"/><path d="M 47.66716766357422 2.694464683532715 L -1.363058686365548e-06 2.694464683532715 L -1.363058686365548e-06 -2.500000238418579 L 47.66716766357422 -2.500000238418579 L 47.66716766357422 2.694464683532715 Z" transform="matrix(1,0,0,1,355.3307800292969,124.32825469970703)" fill="#161615" fill-rule="evenodd"/></g><g><rect x="0" y="0" width="47.66716766357422" height="47.66716766357422" transform="matrix(1,0,0,1,355.3307800292969,156.15359497070312)" fill="#ffffff" fill-rule="evenodd"/><path d="M -2.500000238418579 -2.500000238418579 L 50.36163330078125 -2.500000238418579 L 50.36163330078125 50.36163330078125 L -2.500000238418579 50.36163330078125 L -2.500000238418579 -2.500000238418579 Z M 45.16717147827148 2.694464683532715 L 2.694464683532715 2.694464683532715 L 2.694464683532715 45.16717147827148 L 45.16717147827148 45.16717147827148 L 45.16717147827148 2.694464683532715 Z" transform="matrix(1,0,0,1,355.2335205078125,156.05636596679688)" fill="#161615" fill-rule="evenodd"/><path d="M 2.694464683532715 47.66716766357422 L -2.500000238418579 47.66716766357422 L -2.500000238418579 -1.363058686365548e-06 L 2.694464683532715 -1.363058686365548e-06 L 2.694464683532715 47.66716766357422 Z" transform="matrix(1,0,0,1,371.1163330078125,156.15359497070312)" fill="#161615" fill-rule="evenodd"/><path d="M 2.694464683532715 47.66716766357422 L -2.500000238418579 47.66716766357422 L -2.500000238418579 -1.363058686365548e-06 L 2.694464683532715 -1.363058686365548e-06 L 2.694464683532715 47.66716766357422 Z" transform="matrix(1,0,0,1,386.9803771972656,156.15359497070312)" fill="#161615" fill-rule="evenodd"/><path d="M 342.0280151367188 165.8939971923828" transform="matrix(1,0,0,1,13.302474021911621,6.452104568481445)" fill="#ffffff" fill-rule="evenodd"/><rect x="0" y="0" width="0" height="0" fill="#161615" fill-rule="evenodd"/><path d="M 47.66716766357422 2.694464683532715 L -1.363058686365548e-06 2.694464683532715 L -1.363058686365548e-06 -2.500000238418579 L 47.66716766357422 -2.500000238418579 L 47.66716766357422 2.694464683532715 Z" transform="matrix(1,0,0,1,355.3307800292969,188.11322021484375)" fill="#161615" fill-rule="evenodd"/><path d="M 47.66716766357422 2.694464683532715 L -1.363058686365548e-06 2.694464683532715 L -1.363058686365548e-06 -2.500000238418579 L 47.66716766357422 -2.500000238418579 L 47.66716766357422 2.694464683532715 Z" transform="matrix(1,0,0,1,355.3307800292969,172.24917602539062)" fill="#161615" fill-rule="evenodd"/></g><g><rect x="0" y="0" width="47.66716766357422" height="47.66716766357422" transform="matrix(1,0,0,1,402.9979553222656,108.2326889038086)" fill="#ffffff" fill-rule="evenodd"/><path d="M -2.500000238418579 -2.500000238418579 L 50.36163330078125 -2.500000238418579 L 50.36163330078125 50.36163330078125 L -2.500000238418579 50.36163330078125 L -2.500000238418579 -2.500000238418579 Z M 45.16717147827148 2.694464683532715 L 2.694464683532715 2.694464683532715 L 2.694464683532715 45.16717147827148 L 45.16717147827148 45.16717147827148 L 45.16717147827148 2.694464683532715 Z" transform="matrix(1,0,0,1,402.90069580078125,108.13545989990234)" fill="#161615" fill-rule="evenodd"/><path d="M 2.694464683532715 47.66716766357422 L -2.500000238418579 47.66716766357422 L -2.500000238418579 -1.363058686365548e-06 L 2.694464683532715 -1.363058686365548e-06 L 2.694464683532715 47.66716766357422 Z" transform="matrix(1,0,0,1,418.7835388183594,108.2326889038086)" fill="#161615" fill-rule="evenodd"/><path d="M 2.694464683532715 47.66716766357422 L -2.500000238418579 47.66716766357422 L -2.500000238418579 -1.363058686365548e-06 L 2.694464683532715 -1.363058686365548e-06 L 2.694464683532715 47.66716766357422 Z" transform="matrix(1,0,0,1,434.6475524902344,108.2326889038086)" fill="#161615" fill-rule="evenodd"/><path d="M 387.9110107421875 119.7669982910156" transform="matrix(1,0,0,1,15.086997032165527,4.658090114593506)" fill="#ffffff" fill-rule="evenodd"/><rect x="0" y="0" width="0" height="0" fill="#161615" fill-rule="evenodd"/><path d="M 47.66716766357422 2.694464683532715 L -1.363058686365548e-06 2.694464683532715 L -1.363058686365548e-06 -2.500000238418579 L 47.66716766357422 -2.500000238418579 L 47.66716766357422 2.694464683532715 Z" transform="matrix(1,0,0,1,402.9979553222656,140.1923065185547)" fill="#161615" fill-rule="evenodd"/><path d="M 47.66716766357422 2.694464683532715 L -1.363058686365548e-06 2.694464683532715 L -1.363058686365548e-06 -2.500000238418579 L 47.66716766357422 -2.500000238418579 L 47.66716766357422 2.694464683532715 Z" transform="matrix(1,0,0,1,402.9979553222656,124.32825469970703)" fill="#161615" fill-rule="evenodd"/></g><g><rect x="0" y="0" width="47.66716766357422" height="47.66716766357422" transform="matrix(1,0,0,1,402.9979553222656,156.15359497070312)" fill="#ffffff" fill-rule="evenodd"/><path d="M -2.500000238418579 -2.500000238418579 L 50.36163330078125 -2.500000238418579 L 50.36163330078125 50.36163330078125 L -2.500000238418579 50.36163330078125 L -2.500000238418579 -2.500000238418579 Z M 45.16717147827148 2.694464683532715 L 2.694464683532715 2.694464683532715 L 2.694464683532715 45.16717147827148 L 45.16717147827148 45.16717147827148 L 45.16717147827148 2.694464683532715 Z" transform="matrix(1,0,0,1,402.90069580078125,156.05636596679688)" fill="#161615" fill-rule="evenodd"/><path d="M 2.694464683532715 47.66716766357422 L -2.500000238418579 47.66716766357422 L -2.500000238418579 -1.363058686365548e-06 L 2.694464683532715 -1.363058686365548e-06 L 2.694464683532715 47.66716766357422 Z" transform="matrix(1,0,0,1,418.7835388183594,156.15359497070312)" fill="#161615" fill-rule="evenodd"/><path d="M 2.694464683532715 47.66716766357422 L -2.500000238418579 47.66716766357422 L -2.500000238418579 -1.363058686365548e-06 L 2.694464683532715 -1.363058686365548e-06 L 2.694464683532715 47.66716766357422 Z" transform="matrix(1,0,0,1,434.6475524902344,156.15359497070312)" fill="#161615" fill-rule="evenodd"/><path d="M 387.9110107421875 165.8939971923828" transform="matrix(1,0,0,1,15.086997032165527,6.452104568481445)" fill="#ffffff" fill-rule="evenodd"/><rect x="0" y="0" width="0" height="0" fill="#161615" fill-rule="evenodd"/><path d="M 47.66716766357422 2.694464683532715 L -1.363058686365548e-06 2.694464683532715 L -1.363058686365548e-06 -2.500000238418579 L 47.66716766357422 -2.500000238418579 L 47.66716766357422 2.694464683532715 Z" transform="matrix(1,0,0,1,402.9979553222656,188.11322021484375)" fill="#161615" fill-rule="evenodd"/><path d="M 47.66716766357422 2.694464683532715 L -1.363058686365548e-06 2.694464683532715 L -1.363058686365548e-06 -2.500000238418579 L 47.66716766357422 -2.500000238418579 L 47.66716766357422 2.694464683532715 Z" transform="matrix(1,0,0,1,402.9979553222656,172.24917602539062)" fill="#161615" fill-rule="evenodd"/></g></g></g></g><path d="M0 0L87.23100280761719 0A0 0 0 0 1 87.23100280761719 0L87.23100280761719 31.27206039428711A26.16525650024414 26.16525650024414 0 0 1 61.06574630737305 57.43731689453125L26.16525650024414 57.43731689453125A26.16525650024414 26.16525650024414 0 0 1 0 31.27206039428711L0 0A0 0 0 0 1 0 0z" transform="matrix(1,0,0,1,2.597240447998047,2.5972282886505127)" fill="#ffffff" fill-rule="evenodd"/><path d="M -2.50000786781311 -2.499996185302734 L 89.92546844482422 -2.499996185302734 L 89.92546844482422 30.35164833068848 C 89.92546844482422 34.37080383300781 89.13773345947266 38.27109909057617 87.58412933349609 41.94422912597656 C 86.08409118652344 45.49072647094727 83.93718719482422 48.67526626586914 81.20307922363281 51.40938568115234 C 78.46894836425781 54.14349746704102 75.28441619873047 56.29040145874023 71.73790740966797 57.79043960571289 C 68.06478118896484 59.34403610229492 64.16448974609375 60.13178253173828 60.14534378051758 60.13178253173828 L 27.28013229370117 60.13178253173828 C 23.260986328125 60.13178253173828 19.36068344116211 59.34403610229492 15.68756008148193 57.79043960571289 C 12.14105796813965 56.29040145874023 8.956522941589355 54.14349746704102 6.222398281097412 51.40938568115234 C 3.488274097442627 48.67526626586914 1.341380476951599 45.49072647094727 -0.1586702167987823 41.94422912597656 C -1.71226978302002 38.27109909057617 -2.50000786781311 34.37080383300781 -2.50000786781311 30.35164833068848 L -2.50000786781311 -2.499996185302734 Z M 84.73099517822266 2.694468259811401 L 2.694456815719604 2.694468259811401 L 2.694456815719604 30.35164833068848 C 2.694456815719604 43.90823745727539 13.72354698181152 54.93731689453125 27.28013229370117 54.93731689453125 L 60.14534378051758 54.93731689453125 C 73.70192718505859 54.93731689453125 84.73099517822266 43.90823745727539 84.73099517822266 30.35164833068848 L 84.73099517822266 2.694468259811401 Z" transform="matrix(1,0,0,1,2.5000078678131104,2.4999961853027344)" fill="#161615" fill-rule="evenodd"/></g><g transform="matrix(1,0,0,1,357.878662109375,127.5343017578125)"><g transform="matrix(1,0,0,1,1.5037680864334106,1.5037600994110107)"><g clip-path="url(#clip-3cddd94c)"><g transform="matrix(1,0,0,1,-359.3824462890625,-129.0380401611328)"><g><path d="M -1.447471499443054 -1.447471499443054 L 49.22723007202148 -1.447471499443054 L 49.22723007202148 49.22723007202148 L -1.447471499443054 49.22723007202148 L -1.447471499443054 -1.447471499443054 Z M 46.21969604492188 1.560060501098633 L 1.560060501098633 1.560060501098633 L 1.560060501098633 46.21969604492188 L 46.21969604492188 46.21969604492188 L 46.21969604492188 1.560060501098633 Z" transform="matrix(1,0,0,1,355.27447509765625,108.1763916015625)" fill="#161615" fill-rule="evenodd"/><path d="M 1.560062646865845 47.66717147827148 L -1.44747006893158 47.66717147827148 L -1.44747006893158 -1.951294279933791e-06 L 1.560062646865845 -1.951294279933791e-06 L 1.560062646865845 47.66717147827148 Z" transform="matrix(1,0,0,1,371.1573181152344,108.2326889038086)" fill="#161615" fill-rule="evenodd"/><path d="M 1.560062646865845 47.66717147827148 L -1.44747006893158 47.66717147827148 L -1.44747006893158 -1.951294279933791e-06 L 1.560062646865845 -1.951294279933791e-06 L 1.560062646865845 47.66717147827148 Z" transform="matrix(1,0,0,1,387.0213317871094,108.2326889038086)" fill="#161615" fill-rule="evenodd"/><rect x="0" y="0" width="0" height="0" fill="#161615" fill-rule="evenodd"/><path d="M 47.66717147827148 1.560062646865845 L -1.951294279933791e-06 1.560062646865845 L -1.951294279933791e-06 -1.44747006893158 L 47.66717147827148 -1.44747006893158 L 47.66717147827148 1.560062646865845 Z" transform="matrix(1,0,0,1,355.3307800292969,140.23324584960938)" fill="#161615" fill-rule="evenodd"/><path d="M 47.66717147827148 1.560062646865845 L -1.951294279933791e-06 1.560062646865845 L -1.951294279933791e-06 -1.44747006893158 L 47.66717147827148 -1.44747006893158 L 47.66717147827148 1.560062646865845 Z" transform="matrix(1,0,0,1,355.3307800292969,124.36919403076172)" fill="#161615" fill-rule="evenodd"/></g><g><path d="M -1.447471499443054 -1.447471499443054 L 49.22723007202148 -1.447471499443054 L 49.22723007202148 49.22723007202148 L -1.447471499443054 49.22723007202148 L -1.447471499443054 -1.447471499443054 Z M 46.21969604492188 1.560060501098633 L 1.560060501098633 1.560060501098633 L 1.560060501098633 46.21969604492188 L 46.21969604492188 46.21969604492188 L 46.21969604492188 1.560060501098633 Z" transform="matrix(1,0,0,1,355.27447509765625,156.0972900390625)" fill="#161615" fill-rule="evenodd"/><path d="M 1.560062646865845 47.66717147827148 L -1.44747006893158 47.66717147827148 L -1.44747006893158 -1.951294279933791e-06 L 1.560062646865845 -1.951294279933791e-06 L 1.560062646865845 47.66717147827148 Z" transform="matrix(1,0,0,1,371.1573181152344,156.15359497070312)" fill="#161615" fill-rule="evenodd"/><path d="M 1.560062646865845 47.66717147827148 L -1.44747006893158 47.66717147827148 L -1.44747006893158 -1.951294279933791e-06 L 1.560062646865845 -1.951294279933791e-06 L 1.560062646865845 47.66717147827148 Z" transform="matrix(1,0,0,1,387.0213317871094,156.15359497070312)" fill="#161615" fill-rule="evenodd"/><rect x="0" y="0" width="0" height="0" fill="#161615" fill-rule="evenodd"/><path d="M 47.66717147827148 1.560062646865845 L -1.951294279933791e-06 1.560062646865845 L -1.951294279933791e-06 -1.44747006893158 L 47.66717147827148 -1.44747006893158 L 47.66717147827148 1.560062646865845 Z" transform="matrix(1,0,0,1,355.3307800292969,188.1541748046875)" fill="#161615" fill-rule="evenodd"/><path d="M 47.66717147827148 1.560062646865845 L -1.951294279933791e-06 1.560062646865845 L -1.951294279933791e-06 -1.44747006893158 L 47.66717147827148 -1.44747006893158 L 47.66717147827148 1.560062646865845 Z" transform="matrix(1,0,0,1,355.3307800292969,172.2901153564453)" fill="#161615" fill-rule="evenodd"/></g><g><path d="M -1.447471499443054 -1.447471499443054 L 49.22723007202148 -1.447471499443054 L 49.22723007202148 49.22723007202148 L -1.447471499443054 49.22723007202148 L -1.447471499443054 -1.447471499443054 Z M 46.21969604492188 1.560060501098633 L 1.560060501098633 1.560060501098633 L 1.560060501098633 46.21969604492188 L 46.21969604492188 46.21969604492188 L 46.21969604492188 1.560060501098633 Z" transform="matrix(1,0,0,1,402.941650390625,108.1763916015625)" fill="#161615" fill-rule="evenodd"/><path d="M 1.560062646865845 47.66717147827148 L -1.44747006893158 47.66717147827148 L -1.44747006893158 -1.951294279933791e-06 L 1.560062646865845 -1.951294279933791e-06 L 1.560062646865845 47.66717147827148 Z" transform="matrix(1,0,0,1,418.824462890625,108.2326889038086)" fill="#161615" fill-rule="evenodd"/><path d="M 1.560062646865845 47.66717147827148 L -1.44747006893158 47.66717147827148 L -1.44747006893158 -1.951294279933791e-06 L 1.560062646865845 -1.951294279933791e-06 L 1.560062646865845 47.66717147827148 Z" transform="matrix(1,0,0,1,434.6885070800781,108.2326889038086)" fill="#161615" fill-rule="evenodd"/><rect x="0" y="0" width="0" height="0" fill="#161615" fill-rule="evenodd"/><path d="M 47.66717147827148 1.560062646865845 L -1.951294279933791e-06 1.560062646865845 L -1.951294279933791e-06 -1.44747006893158 L 47.66717147827148 -1.44747006893158 L 47.66717147827148 1.560062646865845 Z" transform="matrix(1,0,0,1,402.9979553222656,140.23324584960938)" fill="#161615" fill-rule="evenodd"/><path d="M 47.66717147827148 1.560062646865845 L -1.951294279933791e-06 1.560062646865845 L -1.951294279933791e-06 -1.44747006893158 L 47.66717147827148 -1.44747006893158 L 47.66717147827148 1.560062646865845 Z" transform="matrix(1,0,0,1,402.9979553222656,124.36919403076172)" fill="#161615" fill-rule="evenodd"/></g><g><path d="M -1.447471499443054 -1.447471499443054 L 49.22723007202148 -1.447471499443054 L 49.22723007202148 49.22723007202148 L -1.447471499443054 49.22723007202148 L -1.447471499443054 -1.447471499443054 Z M 46.21969604492188 1.560060501098633 L 1.560060501098633 1.560060501098633 L 1.560060501098633 46.21969604492188 L 46.21969604492188 46.21969604492188 L 46.21969604492188 1.560060501098633 Z" transform="matrix(1,0,0,1,402.941650390625,156.0972900390625)" fill="#161615" fill-rule="evenodd"/><path d="M 1.560062646865845 47.66717147827148 L -1.44747006893158 47.66717147827148 L -1.44747006893158 -1.951294279933791e-06 L 1.560062646865845 -1.951294279933791e-06 L 1.560062646865845 47.66717147827148 Z" transform="matrix(1,0,0,1,418.824462890625,156.15359497070312)" fill="#161615" fill-rule="evenodd"/><path d="M 1.560062646865845 47.66717147827148 L -1.44747006893158 47.66717147827148 L -1.44747006893158 -1.951294279933791e-06 L 1.560062646865845 -1.951294279933791e-06 L 1.560062646865845 47.66717147827148 Z" transform="matrix(1,0,0,1,434.6885070800781,156.15359497070312)" fill="#161615" fill-rule="evenodd"/><rect x="0" y="0" width="0" height="0" fill="#161615" fill-rule="evenodd"/><path d="M 47.66717147827148 1.560062646865845 L -1.951294279933791e-06 1.560062646865845 L -1.951294279933791e-06 -1.44747006893158 L 47.66717147827148 -1.44747006893158 L 47.66717147827148 1.560062646865845 Z" transform="matrix(1,0,0,1,402.9979553222656,188.1541748046875)" fill="#161615" fill-rule="evenodd"/><path d="M 47.66717147827148 1.560062646865845 L -1.951294279933791e-06 1.560062646865845 L -1.951294279933791e-06 -1.44747006893158 L 47.66717147827148 -1.44747006893158 L 47.66717147827148 1.560062646865845 Z" transform="matrix(1,0,0,1,402.9979553222656,172.2901153564453)" fill="#161615" fill-rule="evenodd"/></g></g></g></g><path d="M -1.447471499443054 -1.447463989257812 L 88.79106903076172 -1.447463989257812 L 88.79106903076172 30.31070327758789 C 88.79106903076172 34.18272018432617 88.03238677978516 37.93971252441406 86.53610229492188 41.4773063659668 C 85.0911865234375 44.89348220825195 83.02298736572266 47.961181640625 80.38893890380859 50.59523773193359 C 77.75487518310547 53.22929000854492 74.68717193603516 55.2974853515625 71.27099609375 56.74241638183594 C 67.73340606689453 58.23868179321289 63.97640991210938 58.99737167358398 60.10439682006836 58.99737167358398 L 27.23920059204102 58.99737167358398 C 23.3671875 58.99737167358398 19.61019515991211 58.23868179321289 16.07259941101074 56.74241638183594 C 12.65642356872559 55.2974853515625 9.588720321655273 53.22929000854492 6.954663753509521 50.59523773193359 C 4.320614814758301 47.961181640625 2.252411365509033 44.89348220825195 0.8074948191642761 41.4773063659668 C -0.6887830495834351 37.93971252441406 -1.447471499443054 34.18272018432617 -1.447471499443054 30.31070327758789 L -1.447471499443054 -1.447463989257812 Z M 85.78353118896484 1.560072183609009 L 1.560064554214478 1.560072183609009 L 1.560064554214478 30.31070327758789 C 1.560064554214478 44.47023773193359 13.07967090606689 55.98983764648438 27.23920059204102 55.98983764648438 L 60.10439682006836 55.98983764648438 C 74.26393127441406 55.98983764648438 85.78353118896484 44.47023773193359 85.78353118896484 30.31070327758789 L 85.78353118896484 1.560072183609009 Z" transform="matrix(1,0,0,1,1.4474714994430542,1.4474639892578125)" fill="#161615" fill-rule="evenodd"/></g><rect x="0" y="0" width="0" height="0" fill="#161615" fill-rule="evenodd"/><path d="M 377.0095520019531 125.1034088134766 L 371.8151245117188 125.1034088134766 C 371.8151245117188 114.9398880004883 366.8506469726562 106.3534698486328 360.9742736816406 106.3534698486328 C 355.0984802246094 106.3534698486328 350.1344909667969 114.9398880004883 350.1344909667969 125.1034088134766 L 344.9400329589844 125.1034088134766 C 344.9400329589844 118.9183197021484 346.4795227050781 113.0662536621094 349.2749328613281 108.625244140625 C 350.703369140625 106.3558959960938 352.3925476074219 104.5568695068359 354.2954711914062 103.2781295776367 C 356.3880004882812 101.8719711303711 358.6350708007812 101.1589965820312 360.9742736816406 101.1589965820312 C 363.3136596679688 101.1589965820312 365.5609130859375 101.871955871582 367.653564453125 103.2780685424805 C 369.5567016601562 104.5568008422852 371.2460021972656 106.3558197021484 372.6744995117188 108.6251983642578 C 375.4700012207031 113.0661315917969 377.0095520019531 118.918212890625 377.0095520019531 125.1034088134766 Z" transform="matrix(1,0,0,1,13.415698051452637,3.934370517730713)" fill="#161615" fill-rule="evenodd"/><path d="M 432.5906677246094 125.1034088134766 L 427.3961791992188 125.1034088134766 C 427.3961791992188 114.9398880004883 422.4317016601562 106.3534698486328 416.5553283691406 106.3534698486328 C 410.6790161132812 106.3534698486328 405.7144775390625 114.9398880004883 405.7144775390625 125.1034088134766 L 400.5199890136719 125.1034088134766 C 400.5199890136719 118.918212890625 402.0595703125 113.0661392211914 404.8551025390625 108.6251983642578 C 406.2836608886719 106.3558197021484 407.972900390625 104.5568008422852 409.8760070800781 103.2780685424805 C 411.9687194824219 101.871955871582 414.2159423828125 101.1589965820312 416.5553283691406 101.1589965820312 C 418.8946838378906 101.1589965820312 421.1419372558594 101.871955871582 423.234619140625 103.2780685424805 C 425.1377563476562 104.5568008422852 426.8270263671875 106.3558197021484 428.2555541992188 108.6251983642578 C 431.0511169433594 113.0661315917969 432.5906677246094 118.918212890625 432.5906677246094 125.1034088134766 Z" transform="matrix(1,0,0,1,15.577396392822266,3.934370517730713)" fill="#161615" fill-rule="evenodd"/><g transform="matrix(1,0,0,1,390.7068176269531,160.14849853515625)"><g transform="matrix(1,0,0,1,3.2970070838928223,-2.7518025225571445e-15)"><path d="M 0.89610356092453 8.321530342102051 L -0.8314300179481506 8.321530342102051 L -0.8314300179481506 -2.269745209559915e-06 L 0.89610356092453 -2.269745209559915e-06 L 0.89610356092453 8.321530342102051 Z" transform="matrix(1,0,0,1,0.8314300179481506,0.0000022697452095599147)" fill="#cd0d0f" fill-rule="evenodd"/></g><g transform="matrix(1,0,0,1,2.618047549856218e-14,3.2970070838928223)"><path d="M 8.321530342102051 0.89610356092453 L -2.269745209559915e-06 0.89610356092453 L -2.269745209559915e-06 -0.8314300179481506 L 8.321530342102051 -0.8314300179481506 L 8.321530342102051 0.89610356092453 Z" transform="matrix(1,0,0,1,0.0000022697452095599147,0.8314300179481506)" fill="#cd0d0f" fill-rule="evenodd"/></g><g transform="matrix(1,0,0,1,0.6078854203224182,0.6078854203224182)"><path d="M 0.6336422562599182 6.517848491668701 L -0.5879088044166565 5.296297550201416 L 5.296297550201416 -0.5879088044166565 L 6.517848491668701 0.6336422562599182 L 0.6336422562599182 6.517848491668701 Z" transform="matrix(1,0,0,1,0.5879088044166565,0.5879088044166565)" fill="#cd0d0f" fill-rule="evenodd"/></g><g transform="matrix(1,0,0,1,0.6078854203224182,0.6078854203224182)"><path d="M 5.296297550201416 6.517848491668701 L -0.5879088044166565 0.6336422562599182 L 0.6336422562599182 -0.5879088044166565 L 6.517848491668701 5.296297550201416 L 5.296297550201416 6.517848491668701 Z" transform="matrix(1,0,0,1,0.5879088044166565,0.5879088044166565)" fill="#cd0d0f" fill-rule="evenodd"/></g></g><g transform="matrix(1,0,0,1,406.7810363769531,143.86947631835938)"><g transform="matrix(1,0,0,1,3.2970070838928223,-2.7518025225571445e-15)"><path d="M 0.89610356092453 8.321530342102051 L -0.8314300179481506 8.321530342102051 L -0.8314300179481506 -2.269745209559915e-06 L 0.89610356092453 -2.269745209559915e-06 L 0.89610356092453 8.321530342102051 Z" transform="matrix(1,0,0,1,0.8314300179481506,0.0000022697452095599147)" fill="#cd0d0f" fill-rule="evenodd"/></g><g transform="matrix(1,0,0,1,2.5159336623065652e-14,3.2969911098480225)"><path d="M 8.321530342102051 0.89610356092453 L -2.269745209559915e-06 0.89610356092453 L -2.269745209559915e-06 -0.8314300179481506 L 8.321530342102051 -0.8314300179481506 L 8.321530342102051 0.89610356092453 Z" transform="matrix(1,0,0,1,0.0000022697452095599147,0.8314300179481506)" fill="#cd0d0f" fill-rule="evenodd"/></g><g transform="matrix(1,0,0,1,0.6078854203224182,0.6078854203224182)"><path d="M 0.6336422562599182 6.517848491668701 L -0.5879088044166565 5.296297550201416 L 5.296297550201416 -0.5879088044166565 L 6.517848491668701 0.6336422562599182 L 0.6336422562599182 6.517848491668701 Z" transform="matrix(1,0,0,1,0.5879088044166565,0.5879088044166565)" fill="#cd0d0f" fill-rule="evenodd"/></g><g transform="matrix(1,0,0,1,0.6078854203224182,0.6078854203224182)"><path d="M 5.296297550201416 6.517848491668701 L -0.5879088044166565 0.6336422562599182 L 0.6336422562599182 -0.5879088044166565 L 6.517848491668701 5.296297550201416 L 5.296297550201416 6.517848491668701 Z" transform="matrix(1,0,0,1,0.5879088044166565,0.5879088044166565)" fill="#cd0d0f" fill-rule="evenodd"/></g></g></g></svg>